M48
; DRILL file {KiCad 9.0.5-1.fc42} date 2025-10-16T13:47:54+0800
; FORMAT={-:-/ absolute / metric / decimal}
; #@! TF.CreationDate,2025-10-16T13:47:54+08:00
; #@! TF.GenerationSoftware,Kicad,Pcbnew,9.0.5-1.fc42
; #@! TF.FileFunction,Plated,1,2,PTH
FMAT,2
METRIC
; #@! TA.AperFunction,Plated,PTH,ViaDrill
T1C0.300
; #@! TA.AperFunction,Plated,PTH,ComponentDrill
T2C0.800
; #@! TA.AperFunction,Plated,PTH,ComponentDrill
T3C0.810
; #@! TA.AperFunction,Plated,PTH,ComponentDrill
T4C0.920
; #@! TA.AperFunction,Plated,PTH,ComponentDrill
T5C1.050
; #@! TA.AperFunction,Plated,PTH,ComponentDrill
T6C1.300
; #@! TA.AperFunction,Plated,PTH,ComponentDrill
T7C2.330
; #@! TA.AperFunction,Plated,PTH,ComponentDrill
T8C3.200
%
G90
G05
T1
X141.5Y-91.0
X144.362Y-92.0
X151.5Y-85.5
X153.0Y-86.5
X154.5Y-82.0
X154.55Y-90.095
X156.5Y-91.5
X162.5Y-88.5
X173.0Y-84.5
X178.5Y-86.5
X178.5Y-88.0
X178.5Y-89.0
X183.0Y-77.525
X183.5Y-105.0
X184.037Y-90.5
X184.075Y-93.0
X188.5Y-91.5
X190.0Y-88.0
X191.5Y-107.5
X197.0Y-89.0
T2
X164.46Y-91.5
X167.0Y-91.5
X169.54Y-91.5
X174.92Y-91.5
X177.46Y-91.5
X180.0Y-91.5
X187.195Y-98.96
X187.195Y-101.5
X187.195Y-104.04
X187.195Y-107.46
X187.195Y-110.0
X187.195Y-112.54
X194.815Y-98.96
X194.815Y-101.5
X194.815Y-104.04
X194.815Y-107.46
X194.815Y-110.0
X194.815Y-112.54
T3
X165.65Y-74.69
X165.65Y-82.31
X165.8Y-100.88
X165.8Y-108.5
X178.35Y-74.69
X178.35Y-82.31
X178.5Y-100.88
X178.5Y-108.5
T4
X136.577Y-90.25
X136.577Y-92.75
X138.577Y-90.25
X138.577Y-92.75
T5
X186.69Y-73.96
X186.69Y-76.5
X186.69Y-86.66
X194.31Y-73.96
X194.31Y-76.5
X194.31Y-86.66
T6
X143.5Y-73.5
X144.5Y-109.132
X148.5Y-73.5
X149.5Y-109.132
X153.5Y-73.5
X154.5Y-109.132
X158.5Y-73.5
X207.5Y-78.5
X207.5Y-83.5
X207.5Y-88.5
X207.5Y-94.5
X207.5Y-99.5
X207.5Y-104.5
T7
X133.868Y-85.48
X133.868Y-97.52
T8
X135.0Y-72.0
X135.0Y-111.0
X209.0Y-72.0
X209.0Y-111.0
M30
