%TF.GenerationSoftware,KiCad,Pcbnew,9.0.5-1.fc42*%
%TF.CreationDate,2025-10-16T13:47:52+08:00*%
%TF.ProjectId,Echolink,4563686f-6c69-46e6-9b2e-6b696361645f,rev?*%
%TF.SameCoordinates,Original*%
%TF.FileFunction,Copper,L1,Top*%
%TF.FilePolarity,Positive*%
%FSLAX46Y46*%
G04 Gerber Fmt 4.6, Leading zero omitted, Abs format (unit mm)*
G04 Created by KiCad (PCBNEW 9.0.5-1.fc42) date 2025-10-16 13:47:52*
%MOMM*%
%LPD*%
G01*
G04 APERTURE LIST*
G04 Aperture macros list*
%AMRoundRect*
0 Rectangle with rounded corners*
0 $1 Rounding radius*
0 $2 $3 $4 $5 $6 $7 $8 $9 X,Y pos of 4 corners*
0 Add a 4 corners polygon primitive as box body*
4,1,4,$2,$3,$4,$5,$6,$7,$8,$9,$2,$3,0*
0 Add four circle primitives for the rounded corners*
1,1,$1+$1,$2,$3*
1,1,$1+$1,$4,$5*
1,1,$1+$1,$6,$7*
1,1,$1+$1,$8,$9*
0 Add four rect primitives between the rounded corners*
20,1,$1+$1,$2,$3,$4,$5,0*
20,1,$1+$1,$4,$5,$6,$7,0*
20,1,$1+$1,$6,$7,$8,$9,0*
20,1,$1+$1,$8,$9,$2,$3,0*%
G04 Aperture macros list end*
%TA.AperFunction,SMDPad,CuDef*%
%ADD10RoundRect,0.250000X-0.650000X0.325000X-0.650000X-0.325000X0.650000X-0.325000X0.650000X0.325000X0*%
%TD*%
%TA.AperFunction,SMDPad,CuDef*%
%ADD11RoundRect,0.250000X0.325000X0.650000X-0.325000X0.650000X-0.325000X-0.650000X0.325000X-0.650000X0*%
%TD*%
%TA.AperFunction,SMDPad,CuDef*%
%ADD12RoundRect,0.250000X0.312500X0.625000X-0.312500X0.625000X-0.312500X-0.625000X0.312500X-0.625000X0*%
%TD*%
%TA.AperFunction,ComponentPad*%
%ADD13RoundRect,0.250000X1.000000X1.000000X-1.000000X1.000000X-1.000000X-1.000000X1.000000X-1.000000X0*%
%TD*%
%TA.AperFunction,ComponentPad*%
%ADD14C,2.500000*%
%TD*%
%TA.AperFunction,SMDPad,CuDef*%
%ADD15RoundRect,0.250000X0.625000X-0.312500X0.625000X0.312500X-0.625000X0.312500X-0.625000X-0.312500X0*%
%TD*%
%TA.AperFunction,ComponentPad*%
%ADD16C,1.440000*%
%TD*%
%TA.AperFunction,SMDPad,CuDef*%
%ADD17RoundRect,0.250000X0.650000X-0.325000X0.650000X0.325000X-0.650000X0.325000X-0.650000X-0.325000X0*%
%TD*%
%TA.AperFunction,SMDPad,CuDef*%
%ADD18RoundRect,0.250000X-0.312500X-0.625000X0.312500X-0.625000X0.312500X0.625000X-0.312500X0.625000X0*%
%TD*%
%TA.AperFunction,SMDPad,CuDef*%
%ADD19RoundRect,0.150000X-0.512500X-0.150000X0.512500X-0.150000X0.512500X0.150000X-0.512500X0.150000X0*%
%TD*%
%TA.AperFunction,SMDPad,CuDef*%
%ADD20RoundRect,0.250000X0.400000X0.600000X-0.400000X0.600000X-0.400000X-0.600000X0.400000X-0.600000X0*%
%TD*%
%TA.AperFunction,ComponentPad*%
%ADD21C,5.600000*%
%TD*%
%TA.AperFunction,ComponentPad*%
%ADD22R,1.700000X1.700000*%
%TD*%
%TA.AperFunction,ComponentPad*%
%ADD23C,1.700000*%
%TD*%
%TA.AperFunction,ComponentPad*%
%ADD24C,3.500000*%
%TD*%
%TA.AperFunction,ComponentPad*%
%ADD25RoundRect,0.250000X-0.550000X-0.550000X0.550000X-0.550000X0.550000X0.550000X-0.550000X0.550000X0*%
%TD*%
%TA.AperFunction,ComponentPad*%
%ADD26C,1.600000*%
%TD*%
%TA.AperFunction,ComponentPad*%
%ADD27RoundRect,0.250000X-1.000000X1.000000X-1.000000X-1.000000X1.000000X-1.000000X1.000000X1.000000X0*%
%TD*%
%TA.AperFunction,SMDPad,CuDef*%
%ADD28RoundRect,0.150000X-0.587500X-0.150000X0.587500X-0.150000X0.587500X0.150000X-0.587500X0.150000X0*%
%TD*%
%TA.AperFunction,SMDPad,CuDef*%
%ADD29RoundRect,0.150000X-0.825000X-0.150000X0.825000X-0.150000X0.825000X0.150000X-0.825000X0.150000X0*%
%TD*%
%TA.AperFunction,ComponentPad*%
%ADD30R,1.520000X1.520000*%
%TD*%
%TA.AperFunction,ComponentPad*%
%ADD31C,1.520000*%
%TD*%
%TA.AperFunction,SMDPad,CuDef*%
%ADD32RoundRect,0.250000X0.625000X-0.375000X0.625000X0.375000X-0.625000X0.375000X-0.625000X-0.375000X0*%
%TD*%
%TA.AperFunction,ComponentPad*%
%ADD33C,1.900000*%
%TD*%
%TA.AperFunction,ComponentPad*%
%ADD34RoundRect,0.250000X-0.700000X-0.700000X0.700000X-0.700000X0.700000X0.700000X-0.700000X0.700000X0*%
%TD*%
%TA.AperFunction,ComponentPad*%
%ADD35RoundRect,0.250000X-1.000000X-1.000000X1.000000X-1.000000X1.000000X1.000000X-1.000000X1.000000X0*%
%TD*%
%TA.AperFunction,SMDPad,CuDef*%
%ADD36RoundRect,0.250000X-0.325000X-0.650000X0.325000X-0.650000X0.325000X0.650000X-0.325000X0.650000X0*%
%TD*%
%TA.AperFunction,ViaPad*%
%ADD37C,0.600000*%
%TD*%
%TA.AperFunction,Conductor*%
%ADD38C,0.300000*%
%TD*%
%TA.AperFunction,Conductor*%
%ADD39C,0.600000*%
%TD*%
G04 APERTURE END LIST*
D10*
%TO.P,C8,1*%
%TO.N,Net-(C8-Pad1)*%
X140000000Y-108025000D03*
%TO.P,C8,2*%
%TO.N,AUDIO_TO_PC*%
X140000000Y-110975000D03*
%TD*%
D11*
%TO.P,C4,1*%
%TO.N,+5V*%
X136475000Y-81500000D03*
%TO.P,C4,2*%
%TO.N,GND*%
X133525000Y-81500000D03*
%TD*%
D12*
%TO.P,R8,1*%
%TO.N,Net-(Q2-B)*%
X186962500Y-90500000D03*
%TO.P,R8,2*%
%TO.N,Net-(U1-~{RTS})*%
X184037500Y-90500000D03*
%TD*%
D13*
%TO.P,J2,1,Pin_1*%
%TO.N,AUDIO_FROM_PC*%
X154500000Y-109132500D03*
D14*
%TO.P,J2,2,Pin_2*%
%TO.N,GND*%
X149500000Y-109132500D03*
%TO.P,J2,3,Pin_3*%
%TO.N,AUDIO_TO_PC*%
X144500000Y-109132500D03*
%TD*%
D15*
%TO.P,R10,1*%
%TO.N,AUDIO_FROM_PC*%
X159000000Y-110425000D03*
%TO.P,R10,2*%
%TO.N,Net-(R10-Pad2)*%
X159000000Y-107500000D03*
%TD*%
D16*
%TO.P,RV2,1,1*%
%TO.N,Net-(T1-AA)*%
X169540000Y-91500000D03*
%TO.P,RV2,2,2*%
%TO.N,Net-(R10-Pad2)*%
X167000000Y-91500000D03*
%TO.P,RV2,3,3*%
%TO.N,GND*%
X164460000Y-91500000D03*
%TD*%
D11*
%TO.P,C3,1*%
%TO.N,+5V*%
X136475000Y-79000000D03*
%TO.P,C3,2*%
%TO.N,GND*%
X133525000Y-79000000D03*
%TD*%
D17*
%TO.P,C6,1*%
%TO.N,Net-(D3-A)*%
X197500000Y-112975000D03*
%TO.P,C6,2*%
%TO.N,GND*%
X197500000Y-110025000D03*
%TD*%
D11*
%TO.P,C1,1*%
%TO.N,+5V*%
X136475000Y-76500000D03*
%TO.P,C1,2*%
%TO.N,GND*%
X133525000Y-76500000D03*
%TD*%
D18*
%TO.P,R4,1*%
%TO.N,Net-(U1-RXD)*%
X155537500Y-99000000D03*
%TO.P,R4,2*%
%TO.N,RXD*%
X158462500Y-99000000D03*
%TD*%
%TO.P,R7,1*%
%TO.N,Net-(Q1-E)*%
X194075000Y-93000000D03*
%TO.P,R7,2*%
%TO.N,+5V*%
X197000000Y-93000000D03*
%TD*%
D19*
%TO.P,U2,1,I/O1*%
%TO.N,Net-(J1-D+)*%
X144362500Y-91050000D03*
%TO.P,U2,2,GND*%
%TO.N,GND*%
X144362500Y-92000000D03*
%TO.P,U2,3,I/O2*%
%TO.N,Net-(J1-D-)*%
X144362500Y-92950000D03*
%TO.P,U2,4,I/O2*%
%TO.N,Net-(R3-Pad1)*%
X146637500Y-92950000D03*
%TO.P,U2,5,VBUS*%
%TO.N,+5V*%
X146637500Y-92000000D03*
%TO.P,U2,6,I/O1*%
%TO.N,Net-(R2-Pad1)*%
X146637500Y-91050000D03*
%TD*%
D20*
%TO.P,D3,1,K*%
%TO.N,+5V*%
X192250000Y-70500000D03*
%TO.P,D3,2,A*%
%TO.N,Net-(D3-A)*%
X188750000Y-70500000D03*
%TD*%
D21*
%TO.P,J7,1,Pin_1*%
%TO.N,GND*%
X209000000Y-72000000D03*
%TD*%
D22*
%TO.P,J1,1,VBUS*%
%TO.N,Net-(J1-VBUS)*%
X138577500Y-92750000D03*
D23*
%TO.P,J1,2,D-*%
%TO.N,Net-(J1-D-)*%
X138577500Y-90250000D03*
%TO.P,J1,3,D+*%
%TO.N,Net-(J1-D+)*%
X136577500Y-90250000D03*
%TO.P,J1,4,GND*%
%TO.N,GND*%
X136577500Y-92750000D03*
D24*
%TO.P,J1,5,Shield*%
X133867500Y-97520000D03*
X133867500Y-85480000D03*
%TD*%
D25*
%TO.P,U4,1*%
%TO.N,Net-(D4-K)*%
X187195000Y-107460000D03*
D26*
%TO.P,U4,2*%
%TO.N,GND*%
X187195000Y-110000000D03*
%TO.P,U4,3,NC*%
%TO.N,unconnected-(U4-NC-Pad3)*%
X187195000Y-112540000D03*
%TO.P,U4,4*%
%TO.N,GND*%
X194815000Y-112540000D03*
%TO.P,U4,5*%
%TO.N,Net-(D3-A)*%
X194815000Y-110000000D03*
%TO.P,U4,6*%
%TO.N,unconnected-(U4-Pad6)*%
X194815000Y-107460000D03*
%TD*%
D27*
%TO.P,J6,1,Pin_1*%
%TO.N,CW*%
X207500000Y-94500000D03*
D14*
%TO.P,J6,2,Pin_2*%
%TO.N,PTT*%
X207500000Y-99500000D03*
%TO.P,J6,3,Pin_3*%
%TO.N,GND*%
X207500000Y-104500000D03*
%TD*%
D21*
%TO.P,J9,1,Pin_1*%
%TO.N,GND*%
X135000000Y-72000000D03*
%TD*%
D15*
%TO.P,R5,1*%
%TO.N,Net-(D1-A)*%
X136500000Y-105962500D03*
%TO.P,R5,2*%
%TO.N,+5V*%
X136500000Y-103037500D03*
%TD*%
D18*
%TO.P,F1,1*%
%TO.N,Net-(J1-VBUS)*%
X142537500Y-96500000D03*
%TO.P,F1,2*%
%TO.N,+5V*%
X145462500Y-96500000D03*
%TD*%
%TO.P,R2,1*%
%TO.N,Net-(R2-Pad1)*%
X142537500Y-87500000D03*
%TO.P,R2,2*%
%TO.N,Net-(U1-UD+)*%
X145462500Y-87500000D03*
%TD*%
D28*
%TO.P,Q1,1,B*%
%TO.N,Net-(Q1-B)*%
X190125000Y-93000000D03*
%TO.P,Q1,2,E*%
%TO.N,Net-(Q1-E)*%
X190125000Y-94900000D03*
%TO.P,Q1,3,C*%
%TO.N,Net-(D2-A)*%
X192000000Y-93950000D03*
%TD*%
D10*
%TO.P,C7,1*%
%TO.N,Net-(T2-SB)*%
X183000000Y-77525000D03*
%TO.P,C7,2*%
%TO.N,GND*%
X183000000Y-80475000D03*
%TD*%
D27*
%TO.P,J5,1,Pin_1*%
%TO.N,TXD*%
X207500000Y-78500000D03*
D14*
%TO.P,J5,2,Pin_2*%
%TO.N,RXD*%
X207500000Y-83500000D03*
%TO.P,J5,3,Pin_3*%
%TO.N,GND*%
X207500000Y-88500000D03*
%TD*%
D29*
%TO.P,U1,1,GND*%
%TO.N,GND*%
X154550000Y-87555000D03*
%TO.P,U1,2,TXD*%
%TO.N,Net-(U1-TXD)*%
X154550000Y-88825000D03*
%TO.P,U1,3,RXD*%
%TO.N,Net-(U1-RXD)*%
X154550000Y-90095000D03*
%TO.P,U1,4,V3*%
%TO.N,Net-(U1-V3)*%
X154550000Y-91365000D03*
%TO.P,U1,5,UD+*%
%TO.N,Net-(U1-UD+)*%
X154550000Y-92635000D03*
%TO.P,U1,6,UD-*%
%TO.N,Net-(U1-UD-)*%
X154550000Y-93905000D03*
%TO.P,U1,7,NC*%
%TO.N,unconnected-(U1-NC-Pad7)*%
X154550000Y-95175000D03*
%TO.P,U1,8,NC*%
%TO.N,unconnected-(U1-NC-Pad8)*%
X154550000Y-96445000D03*
%TO.P,U1,9,~{CTS}*%
%TO.N,unconnected-(U1-~{CTS}-Pad9)*%
X159500000Y-96445000D03*
%TO.P,U1,10,~{DSR}*%
%TO.N,unconnected-(U1-~{DSR}-Pad10)*%
X159500000Y-95175000D03*
%TO.P,U1,11,~{RI}*%
%TO.N,unconnected-(U1-~{RI}-Pad11)*%
X159500000Y-93905000D03*
%TO.P,U1,12,~{DCD}*%
%TO.N,unconnected-(U1-~{DCD}-Pad12)*%
X159500000Y-92635000D03*
%TO.P,U1,13,~{DTR}*%
%TO.N,Net-(U1-~{DTR})*%
X159500000Y-91365000D03*
%TO.P,U1,14,~{RTS}*%
%TO.N,Net-(U1-~{RTS})*%
X159500000Y-90095000D03*
%TO.P,U1,15,R232*%
%TO.N,unconnected-(U1-R232-Pad15)*%
X159500000Y-88825000D03*
%TO.P,U1,16,VCC*%
%TO.N,+5V*%
X159500000Y-87555000D03*
%TD*%
D30*
%TO.P,T1,1,SB*%
%TO.N,AUDIO_TO_TRX*%
X178500000Y-100880000D03*
D31*
%TO.P,T1,3,SA*%
%TO.N,AUDIO_TO_TRX_GND*%
X178500000Y-108500000D03*
%TO.P,T1,4,AB*%
%TO.N,GND*%
X165800000Y-108500000D03*
%TO.P,T1,6,AA*%
%TO.N,Net-(T1-AA)*%
X165800000Y-100880000D03*
%TD*%
D18*
%TO.P,R3,1*%
%TO.N,Net-(R3-Pad1)*%
X148037500Y-96500000D03*
%TO.P,R3,2*%
%TO.N,Net-(U1-UD-)*%
X150962500Y-96500000D03*
%TD*%
D32*
%TO.P,D4,1,K*%
%TO.N,Net-(D4-K)*%
X183500000Y-109800000D03*
%TO.P,D4,2,A*%
%TO.N,Net-(D4-A)*%
X183500000Y-107000000D03*
%TD*%
D18*
%TO.P,R1,1*%
%TO.N,Net-(U1-TXD)*%
X148037500Y-87500000D03*
%TO.P,R1,2*%
%TO.N,TXD*%
X150962500Y-87500000D03*
%TD*%
D33*
%TO.P,K11,11*%
%TO.N,GND*%
X186690000Y-86660000D03*
X194310000Y-86660000D03*
%TO.P,K11,12*%
%TO.N,unconnected-(K11-Pad12)*%
X186690000Y-73960000D03*
%TO.P,K11,14*%
%TO.N,PTT*%
X194310000Y-73960000D03*
D34*
%TO.P,K11,A1*%
%TO.N,Net-(D3-A)*%
X186690000Y-76500000D03*
D33*
%TO.P,K11,A2*%
%TO.N,+5V*%
X194310000Y-76500000D03*
%TD*%
D35*
%TO.P,J3,1,Pin_1*%
%TO.N,AUDIO_TO_TRX*%
X143500000Y-73500000D03*
D14*
%TO.P,J3,2,Pin_2*%
%TO.N,AUDIO_TO_TRX_GND*%
X148500000Y-73500000D03*
%TO.P,J3,3,Pin_3*%
%TO.N,AUDIO_FROM_TRX_GND*%
X153500000Y-73500000D03*
%TO.P,J3,4,Pin_4*%
%TO.N,AUDIO_FROM_TRX*%
X158500000Y-73500000D03*
%TD*%
D30*
%TO.P,T2,1,SB*%
%TO.N,Net-(T2-SB)*%
X178350000Y-74690000D03*
D31*
%TO.P,T2,3,SA*%
%TO.N,GND*%
X178350000Y-82310000D03*
%TO.P,T2,4,AB*%
%TO.N,AUDIO_FROM_TRX_GND*%
X165650000Y-82310000D03*
%TO.P,T2,6,AA*%
%TO.N,AUDIO_FROM_TRX*%
X165650000Y-74690000D03*
%TD*%
D36*
%TO.P,C2,1*%
%TO.N,GND*%
X155525000Y-85000000D03*
%TO.P,C2,2*%
%TO.N,Net-(U1-V3)*%
X158475000Y-85000000D03*
%TD*%
D32*
%TO.P,D2,1,K*%
%TO.N,Net-(D2-K)*%
X183500000Y-99900000D03*
%TO.P,D2,2,A*%
%TO.N,Net-(D2-A)*%
X183500000Y-97100000D03*
%TD*%
D12*
%TO.P,R6,1*%
%TO.N,Net-(Q1-B)*%
X187000000Y-93000000D03*
%TO.P,R6,2*%
%TO.N,Net-(U1-~{DTR})*%
X184075000Y-93000000D03*
%TD*%
D18*
%TO.P,R9,1*%
%TO.N,Net-(Q2-E)*%
X194075000Y-90500000D03*
%TO.P,R9,2*%
%TO.N,+5V*%
X197000000Y-90500000D03*
%TD*%
D25*
%TO.P,U3,1*%
%TO.N,Net-(D2-K)*%
X187195000Y-98960000D03*
D26*
%TO.P,U3,2*%
%TO.N,GND*%
X187195000Y-101500000D03*
%TO.P,U3,3,NC*%
%TO.N,unconnected-(U3-NC-Pad3)*%
X187195000Y-104040000D03*
%TO.P,U3,4*%
%TO.N,GND*%
X194815000Y-104040000D03*
%TO.P,U3,5*%
%TO.N,CW*%
X194815000Y-101500000D03*
%TO.P,U3,6*%
%TO.N,unconnected-(U3-Pad6)*%
X194815000Y-98960000D03*
%TD*%
D16*
%TO.P,RV1,1,1*%
%TO.N,Net-(T2-SB)*%
X180000000Y-91500000D03*
%TO.P,RV1,2,2*%
%TO.N,Net-(C8-Pad1)*%
X177460000Y-91500000D03*
%TO.P,RV1,3,3*%
%TO.N,GND*%
X174920000Y-91500000D03*
%TD*%
D21*
%TO.P,J8,1,Pin_1*%
%TO.N,GND*%
X135000000Y-111000000D03*
%TD*%
%TO.P,J4,1,Pin_1*%
%TO.N,GND*%
X209000000Y-111000000D03*
%TD*%
D32*
%TO.P,D1,1,K*%
%TO.N,GND*%
X133500000Y-105900000D03*
%TO.P,D1,2,A*%
%TO.N,Net-(D1-A)*%
X133500000Y-103100000D03*
%TD*%
D28*
%TO.P,Q2,1,B*%
%TO.N,Net-(Q2-B)*%
X190125000Y-89550000D03*
%TO.P,Q2,2,E*%
%TO.N,Net-(Q2-E)*%
X190125000Y-91450000D03*
%TO.P,Q2,3,C*%
%TO.N,Net-(D4-A)*%
X192000000Y-90500000D03*
%TD*%
D10*
%TO.P,C5,1*%
%TO.N,CW*%
X197500000Y-105025000D03*
%TO.P,C5,2*%
%TO.N,GND*%
X197500000Y-107975000D03*
%TD*%
D37*
%TO.N,GND*%
X154500000Y-82000000D03*
X141500000Y-91000000D03*
X153000000Y-86500000D03*
X144362500Y-92000000D03*
X151500000Y-85500000D03*
%TO.N,+5V*%
X190000000Y-88000000D03*
X178500000Y-86500000D03*
X197000000Y-89000000D03*
%TO.N,Net-(D3-A)*%
X191500000Y-107500000D03*
%TO.N,Net-(T2-SB)*%
X183000000Y-77525000D03*
%TO.N,Net-(D4-A)*%
X183500000Y-105000000D03*
X188500000Y-91500000D03*
%TO.N,RXD*%
X162500000Y-88500000D03*
X173000000Y-84500000D03*
%TO.N,Net-(U1-RXD)*%
X156500000Y-91500000D03*
X154550000Y-90095000D03*
%TO.N,Net-(U1-~{DTR})*%
X184075000Y-93000000D03*
X178500000Y-89000000D03*
%TO.N,Net-(U1-~{RTS})*%
X178500000Y-88000000D03*
X184037500Y-90500000D03*
%TD*%
D38*
%TO.N,GND*%
X135000000Y-111000000D02*
X137349000Y-113349000D01*
X154055000Y-87555000D02*
X153000000Y-86500000D01*
X144362500Y-92000000D02*
X142500000Y-92000000D01*
X209000000Y-72000000D02*
X211349000Y-74349000D01*
X189735000Y-112540000D02*
X187195000Y-110000000D01*
X165800000Y-108500000D02*
X160951000Y-113349000D01*
X165531000Y-90429000D02*
X173849000Y-90429000D01*
X197500000Y-110025000D02*
X197500000Y-107975000D01*
X209000000Y-111000000D02*
X198475000Y-111000000D01*
D39*
X134750000Y-92750000D02*
X133867500Y-93632500D01*
D38*
X209000000Y-111000000D02*
X211349000Y-108651000D01*
D39*
X136577500Y-92750000D02*
X135250000Y-92750000D01*
D38*
X160951000Y-113349000D02*
X149000000Y-113349000D01*
X133525000Y-76500000D02*
X133525000Y-79000000D01*
X189735000Y-104040000D02*
X187195000Y-101500000D01*
X133867500Y-81842500D02*
X133525000Y-81500000D01*
X155525000Y-85000000D02*
X155525000Y-86580000D01*
X173849000Y-90429000D02*
X174920000Y-91500000D01*
D39*
X135250000Y-92750000D02*
X133867500Y-91367500D01*
D38*
X154500000Y-82500000D02*
X151500000Y-85500000D01*
X194815000Y-104040000D02*
X194815000Y-105290000D01*
X211349000Y-108651000D02*
X211349000Y-100651000D01*
X186690000Y-84165000D02*
X186690000Y-86660000D01*
X194310000Y-86660000D02*
X205660000Y-86660000D01*
X211349000Y-74349000D02*
X211349000Y-86500000D01*
X142500000Y-92000000D02*
X141500000Y-91000000D01*
X209500000Y-86500000D02*
X207500000Y-88500000D01*
X194815000Y-112540000D02*
X189735000Y-112540000D01*
X205660000Y-86660000D02*
X207500000Y-88500000D01*
X211349000Y-100651000D02*
X207500000Y-104500000D01*
X186690000Y-86660000D02*
X194310000Y-86660000D01*
X133500000Y-109500000D02*
X135000000Y-111000000D01*
X211349000Y-86500000D02*
X209500000Y-86500000D01*
X211349000Y-86500000D02*
X211349000Y-100651000D01*
X154550000Y-87555000D02*
X154055000Y-87555000D01*
X133867500Y-85480000D02*
X133867500Y-81842500D01*
X194815000Y-105290000D02*
X197500000Y-107975000D01*
X183000000Y-80475000D02*
X186690000Y-84165000D01*
X133525000Y-76500000D02*
X133525000Y-73475000D01*
X198475000Y-111000000D02*
X197500000Y-110025000D01*
X149500000Y-113349000D02*
X149500000Y-109132500D01*
D39*
X133867500Y-93632500D02*
X133867500Y-97520000D01*
X133867500Y-91367500D02*
X133867500Y-85480000D01*
D38*
X133525000Y-73475000D02*
X135000000Y-72000000D01*
X133500000Y-105900000D02*
X133500000Y-109500000D01*
X155525000Y-86580000D02*
X154550000Y-87555000D01*
X134347500Y-85000000D02*
X133867500Y-85480000D01*
X137349000Y-113349000D02*
X149000000Y-113349000D01*
X154500000Y-82000000D02*
X154500000Y-82500000D01*
X149000000Y-113349000D02*
X149500000Y-113349000D01*
X164460000Y-91500000D02*
X165531000Y-90429000D01*
D39*
X136577500Y-92750000D02*
X134750000Y-92750000D01*
D38*
X133525000Y-81500000D02*
X133525000Y-79000000D01*
X194815000Y-104040000D02*
X189735000Y-104040000D01*
%TO.N,+5V*%
X158174000Y-96806678D02*
X158174000Y-87906001D01*
X152894130Y-100226000D02*
X156105870Y-100226000D01*
X158174000Y-87906001D02*
X158525001Y-87555000D01*
X144549000Y-88448000D02*
X146500000Y-90399000D01*
X148000000Y-92000000D02*
X149253980Y-92000000D01*
X145462500Y-96500000D02*
X138925000Y-103037500D01*
X190000000Y-88000000D02*
X196000000Y-88000000D01*
X196000000Y-88000000D02*
X197000000Y-89000000D01*
X145462500Y-92512501D02*
X145462500Y-96500000D01*
X192250000Y-70500000D02*
X192250000Y-74440000D01*
X192250000Y-74440000D02*
X194310000Y-76500000D01*
X149253980Y-96585850D02*
X152894130Y-100226000D01*
X147361678Y-90399000D02*
X148000000Y-91037322D01*
X157001000Y-99330870D02*
X157001000Y-97979678D01*
X146500000Y-90399000D02*
X147361678Y-90399000D01*
X197000000Y-90500000D02*
X197000000Y-89000000D01*
X136475000Y-81500000D02*
X139429870Y-81500000D01*
X139429870Y-81500000D02*
X144549000Y-86619130D01*
X160555000Y-86500000D02*
X178500000Y-86500000D01*
X136475000Y-76500000D02*
X136475000Y-79000000D01*
X145975001Y-92000000D02*
X145462500Y-92512501D01*
X197000000Y-93000000D02*
X197000000Y-90500000D01*
X149253980Y-92000000D02*
X149253980Y-96585850D01*
X158525001Y-87555000D02*
X159500000Y-87555000D01*
X159500000Y-87555000D02*
X160555000Y-86500000D01*
X138925000Y-103037500D02*
X136500000Y-103037500D01*
X146637500Y-92000000D02*
X145975001Y-92000000D01*
X144549000Y-86619130D02*
X144549000Y-88448000D01*
X157001000Y-97979678D02*
X158174000Y-96806678D01*
X156105870Y-100226000D02*
X157001000Y-99330870D01*
X146637500Y-92000000D02*
X148000000Y-92000000D01*
X148000000Y-91037322D02*
X148000000Y-92000000D01*
X136475000Y-81500000D02*
X136475000Y-79000000D01*
%TO.N,Net-(U1-V3)*%
X156500000Y-90500000D02*
X155635000Y-91365000D01*
X158475000Y-85000000D02*
X156500000Y-86975000D01*
X155635000Y-91365000D02*
X154550000Y-91365000D01*
X156500000Y-86975000D02*
X156500000Y-90500000D01*
D39*
%TO.N,CW*%
X207500000Y-94500000D02*
X201815000Y-94500000D01*
D38*
X194815000Y-102340000D02*
X194815000Y-101500000D01*
X197500000Y-105025000D02*
X194815000Y-102340000D01*
D39*
X201815000Y-94500000D02*
X194815000Y-101500000D01*
D38*
%TO.N,Net-(D3-A)*%
X194815000Y-110290000D02*
X194815000Y-110000000D01*
X188750000Y-70500000D02*
X188750000Y-74440000D01*
X192315000Y-107500000D02*
X191500000Y-107500000D01*
X194815000Y-110000000D02*
X192315000Y-107500000D01*
X188750000Y-74440000D02*
X186690000Y-76500000D01*
X197500000Y-112975000D02*
X194815000Y-110290000D01*
%TO.N,Net-(T2-SB)*%
X180000000Y-80525000D02*
X183000000Y-77525000D01*
X180000000Y-91500000D02*
X180000000Y-80525000D01*
%TO.N,AUDIO_TO_PC*%
X144500000Y-109132500D02*
X142657500Y-110975000D01*
X142657500Y-110975000D02*
X140000000Y-110975000D01*
%TO.N,Net-(C8-Pad1)*%
X160546500Y-108413500D02*
X177460000Y-91500000D01*
X140575000Y-107450000D02*
X157155630Y-107450000D01*
X158119130Y-108413500D02*
X160546500Y-108413500D01*
X157155630Y-107450000D02*
X158119130Y-108413500D01*
X140000000Y-108025000D02*
X140575000Y-107450000D01*
%TO.N,Net-(D1-A)*%
X136500000Y-105962500D02*
X133637500Y-103100000D01*
X133637500Y-103100000D02*
X133500000Y-103100000D01*
%TO.N,Net-(D2-A)*%
X184900000Y-97100000D02*
X183500000Y-97100000D01*
X188050000Y-93950000D02*
X184900000Y-97100000D01*
X192000000Y-93950000D02*
X188050000Y-93950000D01*
%TO.N,Net-(D2-K)*%
X184440000Y-98960000D02*
X183500000Y-99900000D01*
X187195000Y-98960000D02*
X184440000Y-98960000D01*
%TO.N,Net-(D4-K)*%
X185840000Y-107460000D02*
X183500000Y-109800000D01*
X187195000Y-107460000D02*
X185840000Y-107460000D01*
%TO.N,Net-(D4-A)*%
X189500000Y-90500000D02*
X188500000Y-91500000D01*
X192000000Y-90500000D02*
X189500000Y-90500000D01*
X183500000Y-107000000D02*
X183500000Y-105000000D01*
D39*
%TO.N,Net-(J1-VBUS)*%
X139500000Y-96500000D02*
X142537500Y-96500000D01*
X138577500Y-95577500D02*
X139500000Y-96500000D01*
X138577500Y-92750000D02*
X138577500Y-95577500D01*
D38*
%TO.N,Net-(J1-D-)*%
X141277500Y-92950000D02*
X144362500Y-92950000D01*
X138577500Y-90250000D02*
X141277500Y-92950000D01*
%TO.N,Net-(J1-D+)*%
X142361500Y-89049000D02*
X144362500Y-91050000D01*
X136577500Y-90250000D02*
X137778500Y-89049000D01*
X137778500Y-89049000D02*
X142361500Y-89049000D01*
%TO.N,AUDIO_FROM_PC*%
X157707500Y-109132500D02*
X159000000Y-110425000D01*
X154500000Y-109132500D02*
X157707500Y-109132500D01*
D39*
%TO.N,AUDIO_FROM_TRX_GND*%
X162310000Y-82310000D02*
X153500000Y-73500000D01*
X165650000Y-82310000D02*
X162310000Y-82310000D01*
%TO.N,AUDIO_FROM_TRX*%
X159690000Y-74690000D02*
X158500000Y-73500000D01*
X165650000Y-74690000D02*
X159690000Y-74690000D01*
D38*
%TO.N,RXD*%
X184291480Y-76000000D02*
X184291480Y-77066871D01*
X162500000Y-95525000D02*
X162500000Y-88500000D01*
X158462500Y-99000000D02*
X159025000Y-99000000D01*
X184291480Y-77066871D02*
X186724609Y-79500000D01*
X181500000Y-76000000D02*
X184291480Y-76000000D01*
X207500000Y-81500000D02*
X207500000Y-83500000D01*
X159025000Y-99000000D02*
X162500000Y-95525000D01*
X173000000Y-84500000D02*
X181500000Y-76000000D01*
X186724609Y-79500000D02*
X205500000Y-79500000D01*
X205500000Y-79500000D02*
X207500000Y-81500000D01*
%TO.N,TXD*%
X155214500Y-83248000D02*
X165016808Y-83248000D01*
X173079000Y-83421000D02*
X181500000Y-75000000D01*
X165016808Y-83248000D02*
X165189808Y-83421000D01*
X186801000Y-77801000D02*
X187500000Y-78500000D01*
X184000000Y-75000000D02*
X185389000Y-76389000D01*
X165189808Y-83421000D02*
X173079000Y-83421000D01*
X185734130Y-77801000D02*
X186801000Y-77801000D01*
X185389000Y-77455870D02*
X185734130Y-77801000D01*
X185389000Y-76389000D02*
X185389000Y-77455870D01*
X187500000Y-78500000D02*
X207500000Y-78500000D01*
X150962500Y-87500000D02*
X155214500Y-83248000D01*
X181500000Y-75000000D02*
X184000000Y-75000000D01*
%TO.N,Net-(Q1-E)*%
X193050000Y-94900000D02*
X190125000Y-94900000D01*
X194075000Y-93875000D02*
X193050000Y-94900000D01*
X194075000Y-93000000D02*
X194075000Y-93875000D01*
%TO.N,Net-(Q1-B)*%
X187000000Y-93000000D02*
X190125000Y-93000000D01*
%TO.N,Net-(Q2-B)*%
X187912500Y-89550000D02*
X190125000Y-89550000D01*
X186962500Y-90500000D02*
X187912500Y-89550000D01*
%TO.N,Net-(Q2-E)*%
X193125000Y-91450000D02*
X190125000Y-91450000D01*
X194075000Y-90500000D02*
X193125000Y-91450000D01*
X190075000Y-91500000D02*
X190125000Y-91450000D01*
%TO.N,Net-(U1-TXD)*%
X149362500Y-88825000D02*
X154550000Y-88825000D01*
X148037500Y-87500000D02*
X149362500Y-88825000D01*
%TO.N,Net-(U1-UD+)*%
X150597500Y-92635000D02*
X154550000Y-92635000D01*
X145462500Y-87500000D02*
X150597500Y-92635000D01*
%TO.N,Net-(R2-Pad1)*%
X146087500Y-91050000D02*
X146637500Y-91050000D01*
X142537500Y-87500000D02*
X146087500Y-91050000D01*
%TO.N,Net-(R3-Pad1)*%
X148037500Y-96500000D02*
X148037500Y-94350000D01*
X148037500Y-94350000D02*
X146637500Y-92950000D01*
%TO.N,Net-(U1-UD-)*%
X153557500Y-93905000D02*
X154550000Y-93905000D01*
X150962500Y-96500000D02*
X153557500Y-93905000D01*
%TO.N,Net-(U1-RXD)*%
X156500000Y-98037500D02*
X156500000Y-91500000D01*
X155537500Y-99000000D02*
X156500000Y-98037500D01*
%TO.N,Net-(U1-~{DTR})*%
X159500000Y-91365000D02*
X160474999Y-91365000D01*
X161849000Y-89990999D02*
X161849000Y-88230346D01*
X177000000Y-87500000D02*
X178500000Y-89000000D01*
X160474999Y-91365000D02*
X161849000Y-89990999D01*
X162579346Y-87500000D02*
X177000000Y-87500000D01*
X161849000Y-88230346D02*
X162579346Y-87500000D01*
%TO.N,Net-(U1-~{RTS})*%
X177500000Y-87000000D02*
X178500000Y-88000000D01*
X160024000Y-89476000D02*
X160536678Y-89476000D01*
X159500000Y-90000000D02*
X160024000Y-89476000D01*
X161500000Y-87000000D02*
X177500000Y-87000000D01*
X160826000Y-87674000D02*
X161500000Y-87000000D01*
X160826000Y-89186678D02*
X160826000Y-87674000D01*
X160536678Y-89476000D02*
X160826000Y-89186678D01*
X159500000Y-90095000D02*
X159500000Y-90000000D01*
%TO.N,Net-(R10-Pad2)*%
X167000000Y-93000000D02*
X167000000Y-91500000D01*
X163000000Y-97000000D02*
X167000000Y-93000000D01*
X159000000Y-107500000D02*
X163000000Y-103500000D01*
X163000000Y-103500000D02*
X163000000Y-97000000D01*
%TO.N,Net-(T1-AA)*%
X165800000Y-100880000D02*
X165800000Y-95240000D01*
X165800000Y-95240000D02*
X169540000Y-91500000D01*
%TD*%
%TA.AperFunction,Conductor*%
%TO.N,GND*%
G36*
X211442539Y-69520185D02*
G01*
X211488294Y-69572989D01*
X211499500Y-69624500D01*
X211499500Y-113375500D01*
X211479815Y-113442539D01*
X211427011Y-113488294D01*
X211375500Y-113499500D01*
X199022541Y-113499500D01*
X198955502Y-113479815D01*
X198909747Y-113427011D01*
X198899183Y-113362896D01*
X198900500Y-113350009D01*
X198900499Y-112599992D01*
X198889999Y-112497203D01*
X198834814Y-112330666D01*
X198742712Y-112181344D01*
X198618656Y-112057288D01*
X198469334Y-111965186D01*
X198302797Y-111910001D01*
X198302795Y-111910000D01*
X198200016Y-111899500D01*
X198200009Y-111899500D01*
X197395808Y-111899500D01*
X197328769Y-111879815D01*
X197308127Y-111863181D01*
X196756626Y-111311680D01*
X196723141Y-111250357D01*
X196728125Y-111180665D01*
X196769997Y-111124732D01*
X196835461Y-111100315D01*
X196844307Y-111099999D01*
X197249999Y-111099999D01*
X197750000Y-111099999D01*
X198199972Y-111099999D01*
X198199986Y-111099998D01*
X198302697Y-111089505D01*
X198469119Y-111034358D01*
X198469124Y-111034356D01*
X198618345Y-110942315D01*
X198742315Y-110818345D01*
X198834356Y-110669124D01*
X198834358Y-110669119D01*
X198889505Y-110502697D01*
X198889506Y-110502690D01*
X198899999Y-110399986D01*
X198900000Y-110399973D01*
X198900000Y-110275000D01*
X197750000Y-110275000D01*
X197750000Y-111099999D01*
X197249999Y-111099999D01*
X197250000Y-111099998D01*
X197250000Y-109775000D01*
X197750000Y-109775000D01*
X198899999Y-109775000D01*
X198899999Y-109650028D01*
X198899998Y-109650013D01*
X198889505Y-109547302D01*
X198834358Y-109380880D01*
X198834356Y-109380875D01*
X198742315Y-109231654D01*
X198618343Y-109107682D01*
X198614868Y-109105539D01*
X198612984Y-109103445D01*
X198612677Y-109103202D01*
X198612718Y-109103149D01*
X198568143Y-109053592D01*
X198556920Y-108984629D01*
X198584763Y-108920547D01*
X198614868Y-108894461D01*
X198618343Y-108892317D01*
X198742315Y-108768345D01*
X198834356Y-108619124D01*
X198834358Y-108619119D01*
X198889505Y-108452697D01*
X198889506Y-108452690D01*
X198899999Y-108349986D01*
X198900000Y-108349973D01*
X198900000Y-108225000D01*
X197750000Y-108225000D01*
X197750000Y-109775000D01*
X197250000Y-109775000D01*
X197250000Y-107725000D01*
X197750000Y-107725000D01*
X198899999Y-107725000D01*
X198899999Y-107600028D01*
X198899998Y-107600013D01*
X198889505Y-107497302D01*
X198834358Y-107330880D01*
X198834356Y-107330875D01*
X198742315Y-107181654D01*
X198618345Y-107057684D01*
X198469124Y-106965643D01*
X198469119Y-106965641D01*
X198302697Y-106910494D01*
X198302690Y-106910493D01*
X198199986Y-106900000D01*
X197750000Y-106900000D01*
X197750000Y-107725000D01*
X197250000Y-107725000D01*
X197250000Y-106900000D01*
X196800028Y-106900000D01*
X196800012Y-106900001D01*
X196697302Y-106910494D01*
X196530880Y-106965641D01*
X196530875Y-106965643D01*
X196381657Y-107057682D01*
X196275704Y-107163635D01*
X196214381Y-107197119D01*
X196144689Y-107192135D01*
X196088756Y-107150263D01*
X196070092Y-107114271D01*
X196066956Y-107104621D01*
X196020220Y-106960781D01*
X195927287Y-106778390D01*
X195902052Y-106743657D01*
X195806971Y-106612786D01*
X195662213Y-106468028D01*
X195496613Y-106347715D01*
X195496612Y-106347714D01*
X195496610Y-106347713D01*
X195436898Y-106317288D01*
X195314223Y-106254781D01*
X195119534Y-106191522D01*
X194924808Y-106160681D01*
X194917352Y-106159500D01*
X194712648Y-106159500D01*
X194705192Y-106160681D01*
X194510465Y-106191522D01*
X194315776Y-106254781D01*
X194133386Y-106347715D01*
X193967786Y-106468028D01*
X193823028Y-106612786D01*
X193702715Y-106778386D01*
X193609781Y-106960776D01*
X193546522Y-107155465D01*
X193514500Y-107357648D01*
X193514500Y-107480191D01*
X193494815Y-107547230D01*
X193442011Y-107592985D01*
X193372853Y-107602929D01*
X193309297Y-107573904D01*
X193302819Y-107567872D01*
X192729673Y-106994726D01*
X192729669Y-106994723D01*
X192623127Y-106923535D01*
X192504744Y-106874499D01*
X192504742Y-106874498D01*
X192504741Y-106874498D01*
X192499903Y-106873536D01*
X192499898Y-106873535D01*
X192379071Y-106849500D01*
X192379069Y-106849500D01*
X192004935Y-106849500D01*
X191937896Y-106829815D01*
X191936090Y-106828633D01*
X191879179Y-106790606D01*
X191879172Y-106790602D01*
X191733501Y-106730264D01*
X191733489Y-106730261D01*
X191578845Y-106699500D01*
X191578842Y-106699500D01*
X191421158Y-106699500D01*
X191421155Y-106699500D01*
X191266510Y-106730261D01*
X191266498Y-106730264D01*
X191120827Y-106790602D01*
X191120814Y-106790609D01*
X190989711Y-106878210D01*
X190989707Y-106878213D01*
X190878213Y-106989707D01*
X190878210Y-106989711D01*
X190790609Y-107120814D01*
X190790602Y-107120827D01*
X190730264Y-107266498D01*
X190730261Y-107266510D01*
X190699500Y-107421153D01*
X190699500Y-107578846D01*
X190730261Y-107733489D01*
X190730264Y-107733501D01*
X190790602Y-107879172D01*
X190790609Y-107879185D01*
X190878210Y-108010288D01*
X190878213Y-108010292D01*
X190989707Y-108121786D01*
X190989711Y-108121789D01*
X191120814Y-108209390D01*
X191120827Y-108209397D01*
X191260248Y-108267146D01*
X191266503Y-108269737D01*
X191421153Y-108300499D01*
X191421156Y-108300500D01*
X191421158Y-108300500D01*
X191578844Y-108300500D01*
X191578845Y-108300499D01*
X191733497Y-108269737D01*
X191879179Y-108209394D01*
X191929605Y-108175700D01*
X191996281Y-108154823D01*
X192063661Y-108173307D01*
X192086176Y-108191122D01*
X193507862Y-109612808D01*
X193541347Y-109674131D01*
X193542654Y-109719886D01*
X193517742Y-109877176D01*
X193514500Y-109897648D01*
X193514500Y-110102352D01*
X193515210Y-110106834D01*
X193546522Y-110304534D01*
X193609781Y-110499223D01*
X193661720Y-110601157D01*
X193702585Y-110681359D01*
X193702715Y-110681613D01*
X193823028Y-110847213D01*
X193967786Y-110991971D01*
X194133385Y-111112284D01*
X194133387Y-111112285D01*
X194133390Y-111112287D01*
X194157815Y-111124732D01*
X194226630Y-111159795D01*
X194277426Y-111207770D01*
X194294221Y-111275591D01*
X194271684Y-111341725D01*
X194226630Y-111380765D01*
X194133644Y-111428143D01*
X194089077Y-111460523D01*
X194089077Y-111460524D01*
X194768553Y-112140000D01*
X194762339Y-112140000D01*
X194660606Y-112167259D01*
X194569394Y-112219920D01*
X194494920Y-112294394D01*
X194442259Y-112385606D01*
X194415000Y-112487339D01*
X194415000Y-112493553D01*
X193735524Y-111814077D01*
X193735523Y-111814077D01*
X193703143Y-111858644D01*
X193610244Y-112040968D01*
X193547009Y-112235582D01*
X193515000Y-112437682D01*
X193515000Y-112642317D01*
X193547009Y-112844417D01*
X193610244Y-113039031D01*
X193703140Y-113221349D01*
X193762183Y-113302614D01*
X193785663Y-113368421D01*
X193769838Y-113436474D01*
X193719732Y-113485169D01*
X193661865Y-113499500D01*
X188348753Y-113499500D01*
X188281714Y-113479815D01*
X188235959Y-113427011D01*
X188226015Y-113357853D01*
X188248434Y-113302615D01*
X188255390Y-113293040D01*
X188307287Y-113221610D01*
X188400220Y-113039219D01*
X188463477Y-112844534D01*
X188495500Y-112642352D01*
X188495500Y-112437648D01*
X188478556Y-112330668D01*
X188463477Y-112235465D01*
X188432458Y-112140000D01*
X188400220Y-112040781D01*
X188400218Y-112040778D01*
X188400218Y-112040776D01*
X188333584Y-111910001D01*
X188307287Y-111858390D01*
X188242093Y-111768657D01*
X188186971Y-111692786D01*
X188042213Y-111548028D01*
X187876611Y-111427713D01*
X187783369Y-111380203D01*
X187732574Y-111332229D01*
X187715779Y-111264407D01*
X187738317Y-111198273D01*
X187783371Y-111159234D01*
X187876346Y-111111861D01*
X187876347Y-111111861D01*
X187920921Y-111079474D01*
X187241447Y-110400000D01*
X187247661Y-110400000D01*
X187349394Y-110372741D01*
X187440606Y-110320080D01*
X187515080Y-110245606D01*
X187567741Y-110154394D01*
X187595000Y-110052661D01*
X187595000Y-110046447D01*
X188274474Y-110725921D01*
X188306859Y-110681349D01*
X188399755Y-110499031D01*
X188462990Y-110304417D01*
X188495000Y-110102317D01*
X188495000Y-109897682D01*
X188462990Y-109695582D01*
X188399755Y-109500968D01*
X188306859Y-109318650D01*
X188274474Y-109274077D01*
X188274474Y-109274076D01*
X187595000Y-109953551D01*
X187595000Y-109947339D01*
X187567741Y-109845606D01*
X187515080Y-109754394D01*
X187440606Y-109679920D01*
X187349394Y-109627259D01*
X187247661Y-109600000D01*
X187241446Y-109600000D01*
X187920922Y-108920524D01*
X187919570Y-108903349D01*
X187905299Y-108884842D01*
X187899320Y-108815229D01*
X187931925Y-108753433D01*
X187981845Y-108722148D01*
X188064334Y-108694814D01*
X188213656Y-108602712D01*
X188337712Y-108478656D01*
X188429814Y-108329334D01*
X188484999Y-108162797D01*
X188495500Y-108060009D01*
X188495499Y-106859992D01*
X188492292Y-106828602D01*
X188484999Y-106757203D01*
X188484998Y-106757200D01*
X188476071Y-106730261D01*
X188429814Y-106590666D01*
X188337712Y-106441344D01*
X188213656Y-106317288D01*
X188064334Y-106225186D01*
X187897797Y-106170001D01*
X187897795Y-106170000D01*
X187795010Y-106159500D01*
X186594998Y-106159500D01*
X186594981Y-106159501D01*
X186492203Y-106170000D01*
X186492200Y-106170001D01*
X186325668Y-106225185D01*
X186325663Y-106225187D01*
X186176342Y-106317289D01*
X186052289Y-106441342D01*
X185960187Y-106590663D01*
X185960185Y-106590668D01*
X185952858Y-106612781D01*
X185915835Y-106724505D01*
X185876064Y-106781949D01*
X185811549Y-106808772D01*
X185798131Y-106809500D01*
X185775929Y-106809500D01*
X185650261Y-106834497D01*
X185650255Y-106834499D01*
X185588711Y-106859992D01*
X185531877Y-106883533D01*
X185531869Y-106883537D01*
X185425326Y-106954726D01*
X185087180Y-107292872D01*
X185025857Y-107326357D01*
X184956165Y-107321373D01*
X184900232Y-107279501D01*
X184875815Y-107214037D01*
X184875499Y-107205211D01*
X184875499Y-106574992D01*
X184864999Y-106472203D01*
X184809814Y-106305666D01*
X184717712Y-106156344D01*
X184593656Y-106032288D01*
X184473527Y-105958192D01*
X184444336Y-105940187D01*
X184444331Y-105940185D01*
X184442862Y-105939698D01*
X184277797Y-105885001D01*
X184273965Y-105884609D01*
X184261894Y-105883376D01*
X184197203Y-105856978D01*
X184157053Y-105799796D01*
X184150500Y-105760018D01*
X184150500Y-105504935D01*
X184170185Y-105437896D01*
X184171366Y-105436090D01*
X184209394Y-105379179D01*
X184269737Y-105233497D01*
X184300500Y-105078842D01*
X184300500Y-104921158D01*
X184300500Y-104921155D01*
X184300499Y-104921153D01*
X184298281Y-104910001D01*
X184269737Y-104766503D01*
X184251034Y-104721350D01*
X184209397Y-104620827D01*
X184209390Y-104620814D01*
X184121789Y-104489711D01*
X184121786Y-104489707D01*
X184010292Y-104378213D01*
X184010288Y-104378210D01*
X183879185Y-104290609D01*
X183879172Y-104290602D01*
X183733501Y-104230264D01*
X183733489Y-104230261D01*
X183578845Y-104199500D01*
X183578842Y-104199500D01*
X183421158Y-104199500D01*
X183421155Y-104199500D01*
X183266510Y-104230261D01*
X183266498Y-104230264D01*
X183120827Y-104290602D01*
X183120814Y-104290609D01*
X182989711Y-104378210D01*
X182989707Y-104378213D01*
X182878213Y-104489707D01*
X182878210Y-104489711D01*
X182790609Y-104620814D01*
X182790602Y-104620827D01*
X182730264Y-104766498D01*
X182730261Y-104766510D01*
X182699500Y-104921153D01*
X182699500Y-105078846D01*
X182730261Y-105233489D01*
X182730264Y-105233501D01*
X182790602Y-105379172D01*
X182790606Y-105379179D01*
X182828602Y-105436044D01*
X182849480Y-105502721D01*
X182849500Y-105504935D01*
X182849500Y-105760018D01*
X182829815Y-105827057D01*
X182777011Y-105872812D01*
X182738107Y-105883376D01*
X182722200Y-105885001D01*
X182555668Y-105940185D01*
X182555663Y-105940187D01*
X182406342Y-106032289D01*
X182282289Y-106156342D01*
X182190187Y-106305663D01*
X182190185Y-106305668D01*
X182183776Y-106325009D01*
X182135001Y-106472203D01*
X182135001Y-106472204D01*
X182135000Y-106472204D01*
X182124500Y-106574983D01*
X182124500Y-107425001D01*
X182124501Y-107425019D01*
X182135000Y-107527796D01*
X182135001Y-107527799D01*
X182175492Y-107649991D01*
X182190186Y-107694334D01*
X182282288Y-107843656D01*
X182406344Y-107967712D01*
X182555666Y-108059814D01*
X182722203Y-108114999D01*
X182824991Y-108125500D01*
X183955191Y-108125499D01*
X184022230Y-108145184D01*
X184067985Y-108197987D01*
X184077929Y-108267146D01*
X184048904Y-108330702D01*
X184042872Y-108337180D01*
X183741871Y-108638181D01*
X183680548Y-108671666D01*
X183654190Y-108674500D01*
X182824998Y-108674500D01*
X182824980Y-108674501D01*
X182722203Y-108685000D01*
X182722200Y-108685001D01*
X182555668Y-108740185D01*
X182555663Y-108740187D01*
X182406342Y-108832289D01*
X182282289Y-108956342D01*
X182190187Y-109105663D01*
X182190185Y-109105668D01*
X182172055Y-109160382D01*
X182135001Y-109272203D01*
X182135001Y-109272204D01*
X182135000Y-109272204D01*
X182124500Y-109374983D01*
X182124500Y-110225001D01*
X182124501Y-110225019D01*
X182135000Y-110327796D01*
X182135001Y-110327799D01*
X182190185Y-110494331D01*
X182190187Y-110494336D01*
X182195340Y-110502690D01*
X182282288Y-110643656D01*
X182406344Y-110767712D01*
X182555666Y-110859814D01*
X182722203Y-110914999D01*
X182824991Y-110925500D01*
X184175008Y-110925499D01*
X184277797Y-110914999D01*
X184444334Y-110859814D01*
X184593656Y-110767712D01*
X184717712Y-110643656D01*
X184809814Y-110494334D01*
X184864999Y-110327797D01*
X184875500Y-110225009D01*
X184875499Y-109798168D01*
X184875499Y-109395807D01*
X184895183Y-109328768D01*
X184911813Y-109308131D01*
X185822753Y-108397191D01*
X185884074Y-108363708D01*
X185953766Y-108368692D01*
X186009699Y-108410564D01*
X186015970Y-108419776D01*
X186052287Y-108478655D01*
X186052288Y-108478656D01*
X186176344Y-108602712D01*
X186325666Y-108694814D01*
X186408152Y-108722147D01*
X186465597Y-108761920D01*
X186492420Y-108826436D01*
X186480105Y-108895212D01*
X186470143Y-108906975D01*
X186469077Y-108920524D01*
X187148554Y-109600000D01*
X187142339Y-109600000D01*
X187040606Y-109627259D01*
X186949394Y-109679920D01*
X186874920Y-109754394D01*
X186822259Y-109845606D01*
X186795000Y-109947339D01*
X186795000Y-109953553D01*
X186115524Y-109274077D01*
X186115523Y-109274077D01*
X186083143Y-109318644D01*
X185990244Y-109500968D01*
X185927009Y-109695582D01*
X185895000Y-109897682D01*
X185895000Y-110102317D01*
X185927009Y-110304417D01*
X185990244Y-110499031D01*
X186083141Y-110681350D01*
X186083147Y-110681359D01*
X186115523Y-110725921D01*
X186115524Y-110725922D01*
X186795000Y-110046446D01*
X186795000Y-110052661D01*
X186822259Y-110154394D01*
X186874920Y-110245606D01*
X186949394Y-110320080D01*
X187040606Y-110372741D01*
X187142339Y-110400000D01*
X187148553Y-110400000D01*
X186469076Y-111079474D01*
X186513652Y-111111861D01*
X186606628Y-111159234D01*
X186657425Y-111207208D01*
X186674220Y-111275029D01*
X186651683Y-111341164D01*
X186606630Y-111380203D01*
X186513388Y-111427713D01*
X186347786Y-111548028D01*
X186203028Y-111692786D01*
X186082715Y-111858386D01*
X185989781Y-112040776D01*
X185926522Y-112235465D01*
X185899424Y-112406557D01*
X185894500Y-112437648D01*
X185894500Y-112642352D01*
X185897704Y-112662580D01*
X185926522Y-112844534D01*
X185989781Y-113039223D01*
X186082712Y-113221609D01*
X186141566Y-113302615D01*
X186165045Y-113368422D01*
X186149219Y-113436476D01*
X186099113Y-113485170D01*
X186041247Y-113499500D01*
X132624500Y-113499500D01*
X132557461Y-113479815D01*
X132511706Y-113427011D01*
X132500500Y-113375500D01*
X132500500Y-107112727D01*
X132520185Y-107045688D01*
X132572989Y-106999933D01*
X132642147Y-106989989D01*
X132663504Y-106995021D01*
X132722302Y-107014505D01*
X132722309Y-107014506D01*
X132825019Y-107024999D01*
X133249999Y-107024999D01*
X133750000Y-107024999D01*
X134174972Y-107024999D01*
X134174986Y-107024998D01*
X134277697Y-107014505D01*
X134444119Y-106959358D01*
X134444124Y-106959356D01*
X134593345Y-106867315D01*
X134717315Y-106743345D01*
X134809356Y-106594124D01*
X134809358Y-106594119D01*
X134864505Y-106427697D01*
X134864506Y-106427690D01*
X134874999Y-106324986D01*
X134875000Y-106324973D01*
X134875000Y-106150000D01*
X133750000Y-106150000D01*
X133750000Y-107024999D01*
X133249999Y-107024999D01*
X133250000Y-107024998D01*
X133250000Y-104775000D01*
X132825028Y-104775000D01*
X132825012Y-104775001D01*
X132722302Y-104785494D01*
X132663504Y-104804978D01*
X132593675Y-104807380D01*
X132533634Y-104771648D01*
X132502441Y-104709127D01*
X132500500Y-104687272D01*
X132500500Y-104313253D01*
X132520185Y-104246214D01*
X132572989Y-104200459D01*
X132642147Y-104190515D01*
X132663490Y-104195543D01*
X132722203Y-104214999D01*
X132824991Y-104225500D01*
X133791691Y-104225499D01*
X133858730Y-104245183D01*
X133879372Y-104261818D01*
X134180873Y-104563319D01*
X134214358Y-104624642D01*
X134209374Y-104694334D01*
X134167502Y-104750267D01*
X134102038Y-104774684D01*
X134093192Y-104775000D01*
X133750000Y-104775000D01*
X133750000Y-105650000D01*
X134874999Y-105650000D01*
X134874999Y-105556807D01*
X134894684Y-105489768D01*
X134947488Y-105444013D01*
X135016646Y-105434069D01*
X135080202Y-105463094D01*
X135086680Y-105469126D01*
X135091458Y-105473904D01*
X135124943Y-105535227D01*
X135127135Y-105574183D01*
X135124501Y-105599972D01*
X135124500Y-105599997D01*
X135124500Y-106325001D01*
X135124501Y-106325019D01*
X135135000Y-106427796D01*
X135135001Y-106427799D01*
X135190185Y-106594331D01*
X135190187Y-106594336D01*
X135201564Y-106612781D01*
X135282288Y-106743656D01*
X135406344Y-106867712D01*
X135555666Y-106959814D01*
X135722203Y-107014999D01*
X135824991Y-107025500D01*
X137175008Y-107025499D01*
X137277797Y-107014999D01*
X137444334Y-106959814D01*
X137593656Y-106867712D01*
X137717712Y-106743656D01*
X137809814Y-106594334D01*
X137864999Y-106427797D01*
X137875500Y-106325009D01*
X137875499Y-105599992D01*
X137864999Y-105497203D01*
X137809814Y-105330666D01*
X137717712Y-105181344D01*
X137593656Y-105057288D01*
X137444334Y-104965186D01*
X137277797Y-104910001D01*
X137277795Y-104910000D01*
X137175016Y-104899500D01*
X137175009Y-104899500D01*
X136408308Y-104899500D01*
X136341269Y-104879815D01*
X136320627Y-104863181D01*
X135769626Y-104312180D01*
X135736141Y-104250857D01*
X135741125Y-104181165D01*
X135782997Y-104125232D01*
X135848461Y-104100815D01*
X135857279Y-104100499D01*
X137175008Y-104100499D01*
X137277797Y-104089999D01*
X137444334Y-104034814D01*
X137593656Y-103942712D01*
X137717712Y-103818656D01*
X137761970Y-103746902D01*
X137813917Y-103700179D01*
X137867508Y-103688000D01*
X138989071Y-103688000D01*
X139073615Y-103671182D01*
X139114744Y-103663001D01*
X139233127Y-103613965D01*
X139233132Y-103613961D01*
X139233135Y-103613960D01*
X139246129Y-103605278D01*
X139246131Y-103605277D01*
X139316125Y-103558508D01*
X139339669Y-103542777D01*
X144973905Y-97908538D01*
X145035226Y-97875055D01*
X145074183Y-97872863D01*
X145099991Y-97875500D01*
X145825008Y-97875499D01*
X145825016Y-97875498D01*
X145825019Y-97875498D01*
X145881302Y-97869748D01*
X145927797Y-97864999D01*
X146094334Y-97809814D01*
X146243656Y-97717712D01*
X146367712Y-97593656D01*
X146459814Y-97444334D01*
X146514999Y-97277797D01*
X146525500Y-97175009D01*
X146525499Y-95824992D01*
X146524069Y-95810997D01*
X146514999Y-95722203D01*
X146514998Y-95722200D01*
X146493175Y-95656342D01*
X146459814Y-95555666D01*
X146367712Y-95406344D01*
X146243656Y-95282288D01*
X146243655Y-95282287D01*
X146171902Y-95238029D01*
X146125178Y-95186081D01*
X146113000Y-95132491D01*
X146113000Y-93874500D01*
X146115550Y-93865814D01*
X146114262Y-93856853D01*
X146125240Y-93832812D01*
X146132685Y-93807461D01*
X146139525Y-93801533D01*
X146143287Y-93793297D01*
X146165521Y-93779007D01*
X146185489Y-93761706D01*
X146196003Y-93759418D01*
X146202065Y-93755523D01*
X146237000Y-93750500D01*
X146466692Y-93750500D01*
X146533731Y-93770185D01*
X146554373Y-93786819D01*
X147350681Y-94583127D01*
X147384166Y-94644450D01*
X147387000Y-94670808D01*
X147387000Y-95132491D01*
X147367315Y-95199530D01*
X147328098Y-95238029D01*
X147256344Y-95282287D01*
X147132289Y-95406342D01*
X147040187Y-95555663D01*
X147040185Y-95555668D01*
X147021130Y-95613173D01*
X146985001Y-95722203D01*
X146985001Y-95722204D01*
X146985000Y-95722204D01*
X146974500Y-95824983D01*
X146974500Y-97175001D01*
X146974501Y-97175018D01*
X146985000Y-97277796D01*
X146985001Y-97277799D01*
X147040185Y-97444331D01*
X147040187Y-97444336D01*
X147072168Y-97496185D01*
X147132288Y-97593656D01*
X147256344Y-97717712D01*
X147405666Y-97809814D01*
X147572203Y-97864999D01*
X147674991Y-97875500D01*
X148400008Y-97875499D01*
X148400016Y-97875498D01*
X148400019Y-97875498D01*
X148456302Y-97869748D01*
X148502797Y-97864999D01*
X148669334Y-97809814D01*
X148818656Y-97717712D01*
X148942712Y-97593656D01*
X149012650Y-97480266D01*
X149064595Y-97433544D01*
X149133557Y-97422321D01*
X149197640Y-97450164D01*
X149205868Y-97457684D01*
X152479454Y-100731271D01*
X152479457Y-100731274D01*
X152552818Y-100780292D01*
X152553573Y-100780796D01*
X152586003Y-100802465D01*
X152704386Y-100851501D01*
X152704390Y-100851501D01*
X152704391Y-100851502D01*
X152830058Y-100876500D01*
X152830061Y-100876500D01*
X156169941Y-100876500D01*
X156254485Y-100859682D01*
X156295614Y-100851501D01*
X156413997Y-100802465D01*
X156446426Y-100780797D01*
X156446427Y-100780797D01*
X156502012Y-100743656D01*
X156520539Y-100731277D01*
X157294132Y-99957682D01*
X157355453Y-99924199D01*
X157425144Y-99929183D01*
X157481078Y-99971054D01*
X157487350Y-99980268D01*
X157557288Y-100093656D01*
X157681344Y-100217712D01*
X157830666Y-100309814D01*
X157997203Y-100364999D01*
X158099991Y-100375500D01*
X158825008Y-100375499D01*
X158825016Y-100375498D01*
X158825019Y-100375498D01*
X158881302Y-100369748D01*
X158927797Y-100364999D01*
X159094334Y-100309814D01*
X159243656Y-100217712D01*
X159367712Y-100093656D01*
X159459814Y-99944334D01*
X159514999Y-99777797D01*
X159525500Y-99675009D01*
X159525499Y-99470807D01*
X159545183Y-99403768D01*
X159561813Y-99383131D01*
X162144997Y-96799948D01*
X162206320Y-96766463D01*
X162276012Y-96771447D01*
X162331945Y-96813319D01*
X162356362Y-96878783D01*
X162354296Y-96911819D01*
X162349500Y-96935931D01*
X162349500Y-103179191D01*
X162329815Y-103246230D01*
X162313181Y-103266872D01*
X159179371Y-106400681D01*
X159118048Y-106434166D01*
X159091690Y-106437000D01*
X158324998Y-106437000D01*
X158324980Y-106437001D01*
X158222203Y-106447500D01*
X158222200Y-106447501D01*
X158055668Y-106502685D01*
X158055663Y-106502687D01*
X157906342Y-106594789D01*
X157782289Y-106718842D01*
X157689265Y-106869659D01*
X157637317Y-106916383D01*
X157568354Y-106927606D01*
X157514836Y-106907664D01*
X157463759Y-106873535D01*
X157345374Y-106824499D01*
X157345368Y-106824497D01*
X157219701Y-106799500D01*
X157219699Y-106799500D01*
X140510931Y-106799500D01*
X140510929Y-106799500D01*
X140385261Y-106824497D01*
X140385255Y-106824499D01*
X140307466Y-106856720D01*
X140307461Y-106856722D01*
X140299571Y-106859991D01*
X140266873Y-106873535D01*
X140181438Y-106930619D01*
X140178288Y-106932467D01*
X140147782Y-106940085D01*
X140117778Y-106949480D01*
X140115566Y-106949500D01*
X139299998Y-106949500D01*
X139299980Y-106949501D01*
X139197203Y-106960000D01*
X139197200Y-106960001D01*
X139030668Y-107015185D01*
X139030663Y-107015187D01*
X138881342Y-107107289D01*
X138757289Y-107231342D01*
X138665187Y-107380663D01*
X138665185Y-107380668D01*
X138650495Y-107425001D01*
X138610001Y-107547203D01*
X138610001Y-107547204D01*
X138610000Y-107547204D01*
X138599500Y-107649983D01*
X138599500Y-108400001D01*
X138599501Y-108400019D01*
X138610000Y-108502796D01*
X138610001Y-108502799D01*
X138651361Y-108627612D01*
X138665186Y-108669334D01*
X138757288Y-108818656D01*
X138881344Y-108942712D01*
X139030666Y-109034814D01*
X139197203Y-109089999D01*
X139299991Y-109100500D01*
X140700008Y-109100499D01*
X140802797Y-109089999D01*
X140969334Y-109034814D01*
X141118656Y-108942712D01*
X141242712Y-108818656D01*
X141334814Y-108669334D01*
X141389999Y-108502797D01*
X141400500Y-108400009D01*
X141400500Y-108224500D01*
X141420185Y-108157461D01*
X141472989Y-108111706D01*
X141524500Y-108100500D01*
X142859748Y-108100500D01*
X142926787Y-108120185D01*
X142972542Y-108172989D01*
X142982486Y-108242147D01*
X142967135Y-108286500D01*
X142926657Y-108356608D01*
X142926650Y-108356623D01*
X142838842Y-108568612D01*
X142779453Y-108790259D01*
X142779451Y-108790270D01*
X142749500Y-109017758D01*
X142749500Y-109247241D01*
X142774137Y-109434364D01*
X142779452Y-109474738D01*
X142838800Y-109696230D01*
X142838842Y-109696386D01*
X142838845Y-109696396D01*
X142859072Y-109745227D01*
X142866541Y-109814696D01*
X142835266Y-109877176D01*
X142832192Y-109880361D01*
X142424373Y-110288181D01*
X142363050Y-110321666D01*
X142336692Y-110324500D01*
X141400218Y-110324500D01*
X141333179Y-110304815D01*
X141294679Y-110265597D01*
X141242712Y-110181344D01*
X141118656Y-110057288D01*
X141022092Y-109997727D01*
X140969336Y-109965187D01*
X140969331Y-109965185D01*
X140915475Y-109947339D01*
X140802797Y-109910001D01*
X140802795Y-109910000D01*
X140700010Y-109899500D01*
X139299998Y-109899500D01*
X139299981Y-109899501D01*
X139197203Y-109910000D01*
X139197200Y-109910001D01*
X139030668Y-109965185D01*
X139030663Y-109965187D01*
X138881342Y-110057289D01*
X138757289Y-110181342D01*
X138665187Y-110330663D01*
X138665186Y-110330666D01*
X138610001Y-110497203D01*
X138610001Y-110497204D01*
X138610000Y-110497204D01*
X138599500Y-110599983D01*
X138599500Y-111350001D01*
X138599501Y-111350019D01*
X138610000Y-111452796D01*
X138610001Y-111452799D01*
X138658945Y-111600500D01*
X138665186Y-111619334D01*
X138757288Y-111768656D01*
X138881344Y-111892712D01*
X139030666Y-111984814D01*
X139197203Y-112039999D01*
X139299991Y-112050500D01*
X140700008Y-112050499D01*
X140802797Y-112039999D01*
X140969334Y-111984814D01*
X141118656Y-111892712D01*
X141242712Y-111768656D01*
X141294680Y-111684402D01*
X141346627Y-111637679D01*
X141400218Y-111625500D01*
X142721571Y-111625500D01*
X142806115Y-111608682D01*
X142847244Y-111600501D01*
X142965627Y-111551465D01*
X142969463Y-111548901D01*
X142970764Y-111548033D01*
X143021465Y-111514155D01*
X143072169Y-111480277D01*
X143752138Y-110800306D01*
X143813461Y-110766822D01*
X143883152Y-110771806D01*
X143887264Y-110773423D01*
X143936113Y-110793658D01*
X144157762Y-110853048D01*
X144374312Y-110881557D01*
X144385250Y-110882998D01*
X144385266Y-110883000D01*
X144385273Y-110883000D01*
X144614727Y-110883000D01*
X144614734Y-110883000D01*
X144842238Y-110853048D01*
X145063887Y-110793658D01*
X145275888Y-110705844D01*
X145474612Y-110591111D01*
X145656661Y-110451419D01*
X145656665Y-110451414D01*
X145656670Y-110451411D01*
X145818911Y-110289170D01*
X145818914Y-110289165D01*
X145818919Y-110289161D01*
X145958611Y-110107112D01*
X146073344Y-109908388D01*
X146161158Y-109696387D01*
X146220548Y-109474738D01*
X146250500Y-109247234D01*
X146250500Y-109017766D01*
X146220548Y-108790262D01*
X146161158Y-108568613D01*
X146110652Y-108446681D01*
X146073349Y-108356623D01*
X146073342Y-108356608D01*
X146032865Y-108286500D01*
X146016392Y-108218600D01*
X146039245Y-108152573D01*
X146094166Y-108109382D01*
X146140252Y-108100500D01*
X147860325Y-108100500D01*
X147927364Y-108120185D01*
X147973119Y-108172989D01*
X147983063Y-108242147D01*
X147967712Y-108286500D01*
X147927106Y-108356830D01*
X147927102Y-108356840D01*
X147839318Y-108568769D01*
X147779942Y-108790362D01*
X147750001Y-109017789D01*
X147750000Y-109017805D01*
X147750000Y-109247194D01*
X147750001Y-109247210D01*
X147779942Y-109474637D01*
X147839318Y-109696230D01*
X147927102Y-109908159D01*
X147927106Y-109908169D01*
X148041799Y-110106824D01*
X148041805Y-110106831D01*
X148098381Y-110180564D01*
X148898958Y-109379987D01*
X148923978Y-109440390D01*
X148995112Y-109546851D01*
X149085649Y-109637388D01*
X149192110Y-109708522D01*
X149252511Y-109733541D01*
X148451934Y-110534117D01*
X148451934Y-110534118D01*
X148525666Y-110590694D01*
X148724330Y-110705393D01*
X148724340Y-110705397D01*
X148936269Y-110793181D01*
X149157862Y-110852557D01*
X149385289Y-110882498D01*
X149385306Y-110882500D01*
X149614694Y-110882500D01*
X149614710Y-110882498D01*
X149842137Y-110852557D01*
X150063730Y-110793181D01*
X150275659Y-110705397D01*
X150275668Y-110705393D01*
X150474327Y-110590697D01*
X150474334Y-110590692D01*
X150548064Y-110534117D01*
X149747488Y-109733541D01*
X149807890Y-109708522D01*
X149914351Y-109637388D01*
X150004888Y-109546851D01*
X150076022Y-109440390D01*
X150101041Y-109379988D01*
X150901617Y-110180564D01*
X150958192Y-110106834D01*
X150958197Y-110106827D01*
X151072893Y-109908168D01*
X151072897Y-109908159D01*
X151160681Y-109696230D01*
X151220057Y-109474637D01*
X151249998Y-109247210D01*
X151250000Y-109247194D01*
X151250000Y-109017805D01*
X151249998Y-109017789D01*
X151220057Y-108790362D01*
X151160681Y-108568769D01*
X151072897Y-108356840D01*
X151072893Y-108356830D01*
X151032288Y-108286500D01*
X151015815Y-108218599D01*
X151038668Y-108152573D01*
X151093589Y-108109382D01*
X151139675Y-108100500D01*
X152625500Y-108100500D01*
X152692539Y-108120185D01*
X152738294Y-108172989D01*
X152749500Y-108224500D01*
X152749500Y-110182501D01*
X152749501Y-110182518D01*
X152760000Y-110285296D01*
X152760001Y-110285299D01*
X152788977Y-110372741D01*
X152815186Y-110451834D01*
X152907288Y-110601156D01*
X153031344Y-110725212D01*
X153180666Y-110817314D01*
X153347203Y-110872499D01*
X153449991Y-110883000D01*
X155550008Y-110882999D01*
X155652797Y-110872499D01*
X155819334Y-110817314D01*
X155968656Y-110725212D01*
X156092712Y-110601156D01*
X156184814Y-110451834D01*
X156239999Y-110285297D01*
X156250500Y-110182509D01*
X156250500Y-109907000D01*
X156270185Y-109839961D01*
X156322989Y-109794206D01*
X156374500Y-109783000D01*
X157386692Y-109783000D01*
X157416132Y-109791644D01*
X157446119Y-109798168D01*
X157451134Y-109801922D01*
X157453731Y-109802685D01*
X157474373Y-109819319D01*
X157591458Y-109936404D01*
X157624943Y-109997727D01*
X157627135Y-110036683D01*
X157624501Y-110062472D01*
X157624500Y-110062497D01*
X157624500Y-110787501D01*
X157624501Y-110787519D01*
X157635000Y-110890296D01*
X157635001Y-110890299D01*
X157690185Y-111056831D01*
X157690187Y-111056836D01*
X157716810Y-111099998D01*
X157782288Y-111206156D01*
X157906344Y-111330212D01*
X158055666Y-111422314D01*
X158222203Y-111477499D01*
X158324991Y-111488000D01*
X159675008Y-111487999D01*
X159777797Y-111477499D01*
X159944334Y-111422314D01*
X160093656Y-111330212D01*
X160217712Y-111206156D01*
X160309814Y-111056834D01*
X160364999Y-110890297D01*
X160375500Y-110787509D01*
X160375499Y-110062492D01*
X160374967Y-110057288D01*
X160364999Y-109959703D01*
X160364998Y-109959700D01*
X160348529Y-109910000D01*
X160309814Y-109793166D01*
X160217712Y-109643844D01*
X160093656Y-109519788D01*
X159944334Y-109427686D01*
X159777797Y-109372501D01*
X159777795Y-109372500D01*
X159675016Y-109362000D01*
X159675009Y-109362000D01*
X158908308Y-109362000D01*
X158878867Y-109353355D01*
X158848881Y-109346832D01*
X158843865Y-109343077D01*
X158841269Y-109342315D01*
X158820627Y-109325681D01*
X158770627Y-109275681D01*
X158737142Y-109214358D01*
X158742126Y-109144666D01*
X158783998Y-109088733D01*
X158849462Y-109064316D01*
X158858308Y-109064000D01*
X160610571Y-109064000D01*
X160714109Y-109043404D01*
X160736244Y-109039001D01*
X160854627Y-108989965D01*
X160862613Y-108984629D01*
X160863760Y-108983863D01*
X160919808Y-108946413D01*
X160961169Y-108918777D01*
X161260827Y-108619119D01*
X161479111Y-108400836D01*
X164540000Y-108400836D01*
X164540000Y-108599163D01*
X164571026Y-108795052D01*
X164632310Y-108983669D01*
X164632311Y-108983672D01*
X164722350Y-109160380D01*
X164749161Y-109197283D01*
X165395000Y-108551445D01*
X165395000Y-108553319D01*
X165422600Y-108656324D01*
X165475919Y-108748676D01*
X165551324Y-108824081D01*
X165643676Y-108877400D01*
X165746681Y-108905000D01*
X165748553Y-108905000D01*
X165102714Y-109550837D01*
X165102715Y-109550838D01*
X165139612Y-109577645D01*
X165316327Y-109667688D01*
X165316330Y-109667689D01*
X165504947Y-109728973D01*
X165700837Y-109760000D01*
X165899163Y-109760000D01*
X166095052Y-109728973D01*
X166283669Y-109667689D01*
X166283672Y-109667688D01*
X166460382Y-109577648D01*
X166497283Y-109550837D01*
X166497284Y-109550836D01*
X165851448Y-108905000D01*
X165853319Y-108905000D01*
X165956324Y-108877400D01*
X166048676Y-108824081D01*
X166124081Y-108748676D01*
X166177400Y-108656324D01*
X166205000Y-108553319D01*
X166205000Y-108551447D01*
X166850836Y-109197284D01*
X166850837Y-109197283D01*
X166877648Y-109160382D01*
X166967688Y-108983672D01*
X166967689Y-108983669D01*
X167028973Y-108795052D01*
X167060000Y-108599163D01*
X167060000Y-108400836D01*
X167059993Y-108400790D01*
X177239500Y-108400790D01*
X177239500Y-108599209D01*
X177270519Y-108795052D01*
X177270537Y-108795168D01*
X177302800Y-108894461D01*
X177331850Y-108983868D01*
X177385282Y-109088733D01*
X177421923Y-109160646D01*
X177538544Y-109321161D01*
X177678839Y-109461456D01*
X177839354Y-109578077D01*
X177935880Y-109627259D01*
X178016131Y-109668149D01*
X178016133Y-109668149D01*
X178016136Y-109668151D01*
X178204832Y-109729463D01*
X178302814Y-109744981D01*
X178400791Y-109760500D01*
X178400796Y-109760500D01*
X178599209Y-109760500D01*
X178695636Y-109745227D01*
X178795168Y-109729463D01*
X178983864Y-109668151D01*
X179160646Y-109578077D01*
X179321161Y-109461456D01*
X179461456Y-109321161D01*
X179578077Y-109160646D01*
X179668151Y-108983864D01*
X179729463Y-108795168D01*
X179748575Y-108674500D01*
X179760500Y-108599209D01*
X179760500Y-108400790D01*
X179732657Y-108225000D01*
X179729463Y-108204832D01*
X179668151Y-108016136D01*
X179668149Y-108016133D01*
X179668149Y-108016131D01*
X179635880Y-107952800D01*
X179578077Y-107839354D01*
X179461456Y-107678839D01*
X179321161Y-107538544D01*
X179160646Y-107421923D01*
X179079668Y-107380663D01*
X178983868Y-107331850D01*
X178938596Y-107317140D01*
X178795168Y-107270537D01*
X178795162Y-107270536D01*
X178599209Y-107239500D01*
X178599204Y-107239500D01*
X178400796Y-107239500D01*
X178400791Y-107239500D01*
X178204837Y-107270536D01*
X178204835Y-107270536D01*
X178204832Y-107270537D01*
X178110484Y-107301193D01*
X178016131Y-107331850D01*
X177839352Y-107421924D01*
X177839349Y-107421926D01*
X177801865Y-107449160D01*
X177678839Y-107538544D01*
X177678837Y-107538546D01*
X177678836Y-107538546D01*
X177538546Y-107678836D01*
X177538546Y-107678837D01*
X177538544Y-107678839D01*
X177498833Y-107733497D01*
X177421926Y-107839349D01*
X177421924Y-107839352D01*
X177331850Y-108016131D01*
X177317591Y-108060016D01*
X177270537Y-108204832D01*
X177270536Y-108204835D01*
X177270536Y-108204837D01*
X177239500Y-108400790D01*
X167059993Y-108400790D01*
X167028973Y-108204947D01*
X166967689Y-108016330D01*
X166967688Y-108016327D01*
X166877645Y-107839612D01*
X166850838Y-107802715D01*
X166850837Y-107802714D01*
X166205000Y-108448551D01*
X166205000Y-108446681D01*
X166177400Y-108343676D01*
X166124081Y-108251324D01*
X166048676Y-108175919D01*
X165956324Y-108122600D01*
X165853319Y-108095000D01*
X165851447Y-108095000D01*
X166497283Y-107449161D01*
X166460380Y-107422350D01*
X166283672Y-107332311D01*
X166283669Y-107332310D01*
X166095052Y-107271026D01*
X165899163Y-107240000D01*
X165700837Y-107240000D01*
X165504947Y-107271026D01*
X165316330Y-107332310D01*
X165316322Y-107332313D01*
X165139615Y-107422352D01*
X165102715Y-107449160D01*
X165102715Y-107449161D01*
X165748554Y-108095000D01*
X165746681Y-108095000D01*
X165643676Y-108122600D01*
X165551324Y-108175919D01*
X165475919Y-108251324D01*
X165422600Y-108343676D01*
X165395000Y-108446681D01*
X165395000Y-108448554D01*
X164749161Y-107802715D01*
X164749160Y-107802715D01*
X164722352Y-107839615D01*
X164632313Y-108016322D01*
X164632310Y-108016330D01*
X164571026Y-108204947D01*
X164540000Y-108400836D01*
X161479111Y-108400836D01*
X161571664Y-108308283D01*
X163395794Y-106484153D01*
X166034851Y-103845095D01*
X167921873Y-101958073D01*
X169807811Y-100072135D01*
X177239500Y-100072135D01*
X177239500Y-101687870D01*
X177239501Y-101687876D01*
X177245908Y-101747483D01*
X177296202Y-101882328D01*
X177296206Y-101882335D01*
X177382452Y-101997544D01*
X177382455Y-101997547D01*
X177497664Y-102083793D01*
X177497671Y-102083797D01*
X177632517Y-102134091D01*
X177632516Y-102134091D01*
X177639444Y-102134835D01*
X177692127Y-102140500D01*
X179307872Y-102140499D01*
X179367483Y-102134091D01*
X179502331Y-102083796D01*
X179617546Y-101997546D01*
X179703796Y-101882331D01*
X179754091Y-101747483D01*
X179760500Y-101687873D01*
X179760499Y-100876500D01*
X179760499Y-100072129D01*
X179760498Y-100072123D01*
X179760497Y-100072116D01*
X179754091Y-100012517D01*
X179738626Y-99971054D01*
X179703797Y-99877671D01*
X179703793Y-99877664D01*
X179617547Y-99762455D01*
X179617544Y-99762452D01*
X179502335Y-99676206D01*
X179502328Y-99676202D01*
X179367482Y-99625908D01*
X179367483Y-99625908D01*
X179307883Y-99619501D01*
X179307881Y-99619500D01*
X179307873Y-99619500D01*
X179307864Y-99619500D01*
X177692129Y-99619500D01*
X177692123Y-99619501D01*
X177632516Y-99625908D01*
X177497671Y-99676202D01*
X177497664Y-99676206D01*
X177382455Y-99762452D01*
X177382452Y-99762455D01*
X177296206Y-99877664D01*
X177296202Y-99877671D01*
X177245908Y-100012517D01*
X177240386Y-100063887D01*
X177239501Y-100072123D01*
X177239500Y-100072135D01*
X169807811Y-100072135D01*
X173204962Y-96674983D01*
X182124500Y-96674983D01*
X182124500Y-97525001D01*
X182124501Y-97525019D01*
X182135000Y-97627796D01*
X182135001Y-97627799D01*
X182190185Y-97794331D01*
X182190187Y-97794336D01*
X182217639Y-97838842D01*
X182282288Y-97943656D01*
X182406344Y-98067712D01*
X182555666Y-98159814D01*
X182722203Y-98214999D01*
X182824991Y-98225500D01*
X183959616Y-98225499D01*
X184026655Y-98245184D01*
X184072410Y-98297987D01*
X184082354Y-98367146D01*
X184053329Y-98430702D01*
X184028511Y-98452598D01*
X184027248Y-98453442D01*
X184025330Y-98454723D01*
X183741872Y-98738181D01*
X183680549Y-98771666D01*
X183654191Y-98774500D01*
X182824998Y-98774500D01*
X182824980Y-98774501D01*
X182722203Y-98785000D01*
X182722200Y-98785001D01*
X182555668Y-98840185D01*
X182555663Y-98840187D01*
X182406342Y-98932289D01*
X182282289Y-99056342D01*
X182190187Y-99205663D01*
X182190186Y-99205666D01*
X182135001Y-99372203D01*
X182135001Y-99372204D01*
X182135000Y-99372204D01*
X182124500Y-99474983D01*
X182124500Y-100325001D01*
X182124501Y-100325019D01*
X182135000Y-100427796D01*
X182135001Y-100427799D01*
X182161587Y-100508028D01*
X182190186Y-100594334D01*
X182282288Y-100743656D01*
X182406344Y-100867712D01*
X182555666Y-100959814D01*
X182722203Y-101014999D01*
X182824991Y-101025500D01*
X184175008Y-101025499D01*
X184277797Y-101014999D01*
X184444334Y-100959814D01*
X184593656Y-100867712D01*
X184717712Y-100743656D01*
X184809814Y-100594334D01*
X184864999Y-100427797D01*
X184875500Y-100325009D01*
X184875499Y-99734499D01*
X184895183Y-99667461D01*
X184947987Y-99621706D01*
X184999499Y-99610500D01*
X185798130Y-99610500D01*
X185865169Y-99630185D01*
X185910924Y-99682989D01*
X185915836Y-99695495D01*
X185949938Y-99798409D01*
X185960186Y-99829333D01*
X185960187Y-99829336D01*
X185968145Y-99842238D01*
X186052288Y-99978656D01*
X186176344Y-100102712D01*
X186325666Y-100194814D01*
X186408152Y-100222147D01*
X186465597Y-100261920D01*
X186492420Y-100326436D01*
X186480105Y-100395212D01*
X186470143Y-100406975D01*
X186469077Y-100420524D01*
X187148554Y-101100000D01*
X187142339Y-101100000D01*
X187040606Y-101127259D01*
X186949394Y-101179920D01*
X186874920Y-101254394D01*
X186822259Y-101345606D01*
X186795000Y-101447339D01*
X186795000Y-101453553D01*
X186115524Y-100774077D01*
X186115523Y-100774077D01*
X186083143Y-100818644D01*
X185990244Y-101000968D01*
X185927009Y-101195582D01*
X185895000Y-101397682D01*
X185895000Y-101602317D01*
X185927009Y-101804417D01*
X185990244Y-101999031D01*
X186083141Y-102181350D01*
X186083147Y-102181359D01*
X186115523Y-102225921D01*
X186115524Y-102225922D01*
X186795000Y-101546446D01*
X186795000Y-101552661D01*
X186822259Y-101654394D01*
X186874920Y-101745606D01*
X186949394Y-101820080D01*
X187040606Y-101872741D01*
X187142339Y-101900000D01*
X187148553Y-101900000D01*
X186469076Y-102579474D01*
X186513652Y-102611861D01*
X186606628Y-102659234D01*
X186657425Y-102707208D01*
X186674220Y-102775029D01*
X186651683Y-102841164D01*
X186606630Y-102880203D01*
X186513388Y-102927713D01*
X186347786Y-103048028D01*
X186203028Y-103192786D01*
X186082715Y-103358386D01*
X185989781Y-103540776D01*
X185926522Y-103735465D01*
X185896665Y-103923978D01*
X185894500Y-103937648D01*
X185894500Y-104142352D01*
X185896957Y-104157862D01*
X185926522Y-104344534D01*
X185989781Y-104539223D01*
X186031358Y-104620821D01*
X186082585Y-104721359D01*
X186082715Y-104721613D01*
X186203028Y-104887213D01*
X186347786Y-105031971D01*
X186468226Y-105119474D01*
X186513390Y-105152287D01*
X186629607Y-105211503D01*
X186695776Y-105245218D01*
X186695778Y-105245218D01*
X186695781Y-105245220D01*
X186789463Y-105275659D01*
X186890465Y-105308477D01*
X186991557Y-105324488D01*
X187092648Y-105340500D01*
X187092649Y-105340500D01*
X187297351Y-105340500D01*
X187297352Y-105340500D01*
X187499534Y-105308477D01*
X187694219Y-105245220D01*
X187876610Y-105152287D01*
X187977694Y-105078846D01*
X188042213Y-105031971D01*
X188042215Y-105031968D01*
X188042219Y-105031966D01*
X188186966Y-104887219D01*
X188186968Y-104887215D01*
X188186971Y-104887213D01*
X188260873Y-104785494D01*
X188307287Y-104721610D01*
X188400220Y-104539219D01*
X188463477Y-104344534D01*
X188495500Y-104142352D01*
X188495500Y-103937648D01*
X188474986Y-103808127D01*
X188463477Y-103735465D01*
X188407787Y-103564071D01*
X188400220Y-103540781D01*
X188400218Y-103540778D01*
X188400218Y-103540776D01*
X188353572Y-103449230D01*
X188307287Y-103358390D01*
X188275092Y-103314077D01*
X188186971Y-103192786D01*
X188042213Y-103048028D01*
X187876611Y-102927713D01*
X187783369Y-102880203D01*
X187732574Y-102832229D01*
X187715779Y-102764407D01*
X187738317Y-102698273D01*
X187783371Y-102659234D01*
X187876346Y-102611861D01*
X187876347Y-102611861D01*
X187920921Y-102579474D01*
X187241447Y-101900000D01*
X187247661Y-101900000D01*
X187349394Y-101872741D01*
X187440606Y-101820080D01*
X187515080Y-101745606D01*
X187567741Y-101654394D01*
X187595000Y-101552661D01*
X187595000Y-101546447D01*
X188274474Y-102225921D01*
X188306859Y-102181349D01*
X188399755Y-101999031D01*
X188462990Y-101804417D01*
X188495000Y-101602317D01*
X188495000Y-101397682D01*
X188462990Y-101195582D01*
X188399755Y-101000968D01*
X188306859Y-100818650D01*
X188274474Y-100774077D01*
X188274474Y-100774076D01*
X187595000Y-101453551D01*
X187595000Y-101447339D01*
X187567741Y-101345606D01*
X187515080Y-101254394D01*
X187440606Y-101179920D01*
X187349394Y-101127259D01*
X187247661Y-101100000D01*
X187241446Y-101100000D01*
X187920922Y-100420524D01*
X187919570Y-100403349D01*
X187905299Y-100384842D01*
X187899320Y-100315229D01*
X187931925Y-100253433D01*
X187981845Y-100222148D01*
X188064334Y-100194814D01*
X188213656Y-100102712D01*
X188337712Y-99978656D01*
X188429814Y-99829334D01*
X188484999Y-99662797D01*
X188495500Y-99560009D01*
X188495499Y-98857648D01*
X193514500Y-98857648D01*
X193514500Y-99062351D01*
X193546522Y-99264534D01*
X193609781Y-99459223D01*
X193652107Y-99542290D01*
X193694712Y-99625908D01*
X193702715Y-99641613D01*
X193823028Y-99807213D01*
X193967786Y-99951971D01*
X194114880Y-100058839D01*
X194133390Y-100072287D01*
X194224840Y-100118883D01*
X194226080Y-100119515D01*
X194276876Y-100167490D01*
X194293671Y-100235311D01*
X194271134Y-100301446D01*
X194226080Y-100340485D01*
X194133386Y-100387715D01*
X193967786Y-100508028D01*
X193823028Y-100652786D01*
X193702715Y-100818386D01*
X193609781Y-101000776D01*
X193546522Y-101195465D01*
X193514500Y-101397648D01*
X193514500Y-101602351D01*
X193546522Y-101804534D01*
X193609781Y-101999223D01*
X193665952Y-102109463D01*
X193702585Y-102181359D01*
X193702715Y-102181613D01*
X193823028Y-102347213D01*
X193967786Y-102491971D01*
X194133385Y-102612284D01*
X194133387Y-102612285D01*
X194133390Y-102612287D01*
X194226630Y-102659795D01*
X194277426Y-102707770D01*
X194294221Y-102775591D01*
X194271684Y-102841725D01*
X194226630Y-102880765D01*
X194133644Y-102928143D01*
X194089077Y-102960523D01*
X194089077Y-102960524D01*
X194768554Y-103640000D01*
X194762339Y-103640000D01*
X194660606Y-103667259D01*
X194569394Y-103719920D01*
X194494920Y-103794394D01*
X194442259Y-103885606D01*
X194415000Y-103987339D01*
X194415000Y-103993553D01*
X193735524Y-103314077D01*
X193735523Y-103314077D01*
X193703143Y-103358644D01*
X193610244Y-103540968D01*
X193547009Y-103735582D01*
X193515000Y-103937682D01*
X193515000Y-104142317D01*
X193547009Y-104344417D01*
X193610244Y-104539031D01*
X193703141Y-104721350D01*
X193703147Y-104721359D01*
X193735523Y-104765921D01*
X193735524Y-104765922D01*
X194415000Y-104086446D01*
X194415000Y-104092661D01*
X194442259Y-104194394D01*
X194494920Y-104285606D01*
X194569394Y-104360080D01*
X194660606Y-104412741D01*
X194762339Y-104440000D01*
X194768553Y-104440000D01*
X194089076Y-105119474D01*
X194133650Y-105151859D01*
X194315968Y-105244755D01*
X194510582Y-105307990D01*
X194712683Y-105340000D01*
X194917317Y-105340000D01*
X195119417Y-105307990D01*
X195314031Y-105244755D01*
X195496349Y-105151859D01*
X195540921Y-105119474D01*
X194861447Y-104440000D01*
X194867661Y-104440000D01*
X194969394Y-104412741D01*
X195060606Y-104360080D01*
X195135080Y-104285606D01*
X195187741Y-104194394D01*
X195215000Y-104092661D01*
X195215000Y-104086446D01*
X195894474Y-104765921D01*
X195911336Y-104764594D01*
X195930511Y-104749809D01*
X196000124Y-104743830D01*
X196061920Y-104776435D01*
X196096277Y-104837273D01*
X196099500Y-104865360D01*
X196099500Y-105400001D01*
X196099501Y-105400019D01*
X196110000Y-105502796D01*
X196110001Y-105502799D01*
X196165185Y-105669331D01*
X196165187Y-105669336D01*
X196200069Y-105725888D01*
X196257288Y-105818656D01*
X196381344Y-105942712D01*
X196530666Y-106034814D01*
X196697203Y-106089999D01*
X196799991Y-106100500D01*
X198200008Y-106100499D01*
X198302797Y-106089999D01*
X198469334Y-106034814D01*
X198618656Y-105942712D01*
X198742712Y-105818656D01*
X198834814Y-105669334D01*
X198889999Y-105502797D01*
X198900500Y-105400009D01*
X198900499Y-104649992D01*
X198897909Y-104624642D01*
X198889999Y-104547203D01*
X198889998Y-104547200D01*
X198847929Y-104420244D01*
X198847928Y-104420241D01*
X198836352Y-104385305D01*
X205750000Y-104385305D01*
X205750000Y-104614694D01*
X205750001Y-104614710D01*
X205779942Y-104842137D01*
X205839318Y-105063730D01*
X205927102Y-105275659D01*
X205927106Y-105275669D01*
X206041799Y-105474324D01*
X206041805Y-105474331D01*
X206098381Y-105548064D01*
X206898958Y-104747487D01*
X206923978Y-104807890D01*
X206995112Y-104914351D01*
X207085649Y-105004888D01*
X207192110Y-105076022D01*
X207252511Y-105101041D01*
X206451934Y-105901617D01*
X206451934Y-105901618D01*
X206525666Y-105958194D01*
X206724330Y-106072893D01*
X206724340Y-106072897D01*
X206936269Y-106160681D01*
X207157862Y-106220057D01*
X207385289Y-106249998D01*
X207385306Y-106250000D01*
X207614694Y-106250000D01*
X207614710Y-106249998D01*
X207842137Y-106220057D01*
X208063730Y-106160681D01*
X208275659Y-106072897D01*
X208275668Y-106072893D01*
X208474327Y-105958197D01*
X208474334Y-105958192D01*
X208548064Y-105901617D01*
X207747488Y-105101041D01*
X207807890Y-105076022D01*
X207914351Y-105004888D01*
X208004888Y-104914351D01*
X208076022Y-104807890D01*
X208101041Y-104747488D01*
X208901617Y-105548064D01*
X208958192Y-105474334D01*
X208958197Y-105474327D01*
X209072893Y-105275668D01*
X209072897Y-105275659D01*
X209160681Y-105063730D01*
X209220057Y-104842137D01*
X209249998Y-104614710D01*
X209250000Y-104614694D01*
X209250000Y-104385305D01*
X209249998Y-104385289D01*
X209220057Y-104157862D01*
X209160681Y-103936269D01*
X209072897Y-103724340D01*
X209072893Y-103724330D01*
X208958194Y-103525666D01*
X208901618Y-103451934D01*
X208901617Y-103451934D01*
X208101041Y-104252510D01*
X208076022Y-104192110D01*
X208004888Y-104085649D01*
X207914351Y-103995112D01*
X207807890Y-103923978D01*
X207747487Y-103898957D01*
X208548064Y-103098381D01*
X208548064Y-103098380D01*
X208474331Y-103041805D01*
X208474324Y-103041799D01*
X208275669Y-102927106D01*
X208275659Y-102927102D01*
X208063730Y-102839318D01*
X207842137Y-102779942D01*
X207614710Y-102750001D01*
X207614694Y-102750000D01*
X207385306Y-102750000D01*
X207385289Y-102750001D01*
X207157862Y-102779942D01*
X206936269Y-102839318D01*
X206724340Y-102927102D01*
X206724330Y-102927106D01*
X206525673Y-103041801D01*
X206525659Y-103041810D01*
X206451934Y-103098380D01*
X207252511Y-103898958D01*
X207192110Y-103923978D01*
X207085649Y-103995112D01*
X206995112Y-104085649D01*
X206923978Y-104192110D01*
X206898958Y-104252511D01*
X206098380Y-103451934D01*
X206041810Y-103525659D01*
X206041801Y-103525673D01*
X205927106Y-103724330D01*
X205927102Y-103724340D01*
X205839318Y-103936269D01*
X205779942Y-104157862D01*
X205750001Y-104385289D01*
X205750000Y-104385305D01*
X198836352Y-104385305D01*
X198834817Y-104380674D01*
X198834815Y-104380671D01*
X198834814Y-104380666D01*
X198742712Y-104231344D01*
X198618656Y-104107288D01*
X198469334Y-104015186D01*
X198302797Y-103960001D01*
X198302795Y-103960000D01*
X198200016Y-103949500D01*
X198200009Y-103949500D01*
X197395808Y-103949500D01*
X197328769Y-103929815D01*
X197308127Y-103913181D01*
X195854583Y-102459637D01*
X195821098Y-102398314D01*
X195826082Y-102328622D01*
X195841940Y-102299080D01*
X195927287Y-102181610D01*
X196020220Y-101999219D01*
X196083477Y-101804534D01*
X196115500Y-101602352D01*
X196115500Y-101397648D01*
X196115499Y-101397644D01*
X196115165Y-101393404D01*
X196129519Y-101325024D01*
X196151097Y-101295979D01*
X198061819Y-99385258D01*
X205749500Y-99385258D01*
X205749500Y-99614741D01*
X205770968Y-99777795D01*
X205779452Y-99842238D01*
X205813968Y-99971054D01*
X205838842Y-100063887D01*
X205926650Y-100275876D01*
X205926657Y-100275890D01*
X206041392Y-100474617D01*
X206181081Y-100656661D01*
X206181089Y-100656670D01*
X206343330Y-100818911D01*
X206343338Y-100818918D01*
X206525382Y-100958607D01*
X206525385Y-100958608D01*
X206525388Y-100958611D01*
X206724112Y-101073344D01*
X206724117Y-101073346D01*
X206724123Y-101073349D01*
X206788465Y-101100000D01*
X206936113Y-101161158D01*
X207157762Y-101220548D01*
X207385266Y-101250500D01*
X207385273Y-101250500D01*
X207614727Y-101250500D01*
X207614734Y-101250500D01*
X207842238Y-101220548D01*
X208063887Y-101161158D01*
X208275888Y-101073344D01*
X208474612Y-100958611D01*
X208656661Y-100818919D01*
X208656665Y-100818914D01*
X208656670Y-100818911D01*
X208818911Y-100656670D01*
X208818914Y-100656665D01*
X208818919Y-100656661D01*
X208958611Y-100474612D01*
X209073344Y-100275888D01*
X209161158Y-100063887D01*
X209220548Y-99842238D01*
X209250500Y-99614734D01*
X209250500Y-99385266D01*
X209220548Y-99157762D01*
X209161158Y-98936113D01*
X209094216Y-98774501D01*
X209073349Y-98724123D01*
X209073346Y-98724117D01*
X209073344Y-98724112D01*
X208958611Y-98525388D01*
X208958608Y-98525385D01*
X208958607Y-98525382D01*
X208818918Y-98343338D01*
X208818911Y-98343330D01*
X208656670Y-98181089D01*
X208656661Y-98181081D01*
X208474617Y-98041392D01*
X208275890Y-97926657D01*
X208275876Y-97926650D01*
X208063887Y-97838842D01*
X207983445Y-97817288D01*
X207842238Y-97779452D01*
X207804215Y-97774446D01*
X207614741Y-97749500D01*
X207614734Y-97749500D01*
X207385266Y-97749500D01*
X207385258Y-97749500D01*
X207179242Y-97776624D01*
X207157762Y-97779452D01*
X207102232Y-97794331D01*
X206936112Y-97838842D01*
X206724123Y-97926650D01*
X206724109Y-97926657D01*
X206525382Y-98041392D01*
X206343338Y-98181081D01*
X206181081Y-98343338D01*
X206041392Y-98525382D01*
X205926657Y-98724109D01*
X205926650Y-98724123D01*
X205838842Y-98936112D01*
X205779453Y-99157759D01*
X205779451Y-99157770D01*
X205749500Y-99385258D01*
X198061819Y-99385258D01*
X202110259Y-95336819D01*
X202171582Y-95303334D01*
X202197940Y-95300500D01*
X205625501Y-95300500D01*
X205692540Y-95320185D01*
X205738295Y-95372989D01*
X205749501Y-95424500D01*
X205749501Y-95550018D01*
X205760000Y-95652796D01*
X205760001Y-95652799D01*
X205815185Y-95819331D01*
X205815187Y-95819336D01*
X205825725Y-95836421D01*
X205907288Y-95968656D01*
X206031344Y-96092712D01*
X206180666Y-96184814D01*
X206347203Y-96239999D01*
X206449991Y-96250500D01*
X208550008Y-96250499D01*
X208652797Y-96239999D01*
X208819334Y-96184814D01*
X208968656Y-96092712D01*
X209092712Y-95968656D01*
X209184814Y-95819334D01*
X209239999Y-95652797D01*
X209250500Y-95550009D01*
X209250499Y-93449992D01*
X209239999Y-93347203D01*
X209184814Y-93180666D01*
X209092712Y-93031344D01*
X208968656Y-92907288D01*
X208819334Y-92815186D01*
X208652797Y-92760001D01*
X208652795Y-92760000D01*
X208550010Y-92749500D01*
X206449998Y-92749500D01*
X206449981Y-92749501D01*
X206347203Y-92760000D01*
X206347200Y-92760001D01*
X206180668Y-92815185D01*
X206180663Y-92815187D01*
X206031342Y-92907289D01*
X205907289Y-93031342D01*
X205815187Y-93180663D01*
X205815185Y-93180668D01*
X205796545Y-93236920D01*
X205760001Y-93347203D01*
X205760001Y-93347204D01*
X205760000Y-93347204D01*
X205749500Y-93449983D01*
X205749500Y-93575500D01*
X205729815Y-93642539D01*
X205677011Y-93688294D01*
X205625500Y-93699500D01*
X201736155Y-93699500D01*
X201581510Y-93730261D01*
X201581498Y-93730264D01*
X201435827Y-93790602D01*
X201435814Y-93790609D01*
X201304711Y-93878210D01*
X201304707Y-93878213D01*
X196316265Y-98866655D01*
X196254942Y-98900140D01*
X196185250Y-98895156D01*
X196129317Y-98853284D01*
X196106111Y-98798372D01*
X196083477Y-98655466D01*
X196020220Y-98460781D01*
X196020218Y-98460778D01*
X196020218Y-98460776D01*
X195980861Y-98383535D01*
X195927287Y-98278390D01*
X195902883Y-98244800D01*
X195806971Y-98112786D01*
X195662213Y-97968028D01*
X195496613Y-97847715D01*
X195496612Y-97847714D01*
X195496610Y-97847713D01*
X195420041Y-97808699D01*
X195314223Y-97754781D01*
X195119534Y-97691522D01*
X194944995Y-97663878D01*
X194917352Y-97659500D01*
X194712648Y-97659500D01*
X194688329Y-97663351D01*
X194510465Y-97691522D01*
X194315776Y-97754781D01*
X194133386Y-97847715D01*
X193967786Y-97968028D01*
X193823028Y-98112786D01*
X193702715Y-98278386D01*
X193609781Y-98460776D01*
X193546522Y-98655465D01*
X193514500Y-98857648D01*
X188495499Y-98857648D01*
X188495499Y-98359992D01*
X188484999Y-98257203D01*
X188429814Y-98090666D01*
X188337712Y-97941344D01*
X188213656Y-97817288D01*
X188093441Y-97743139D01*
X188064336Y-97725187D01*
X188064331Y-97725185D01*
X188041773Y-97717710D01*
X187897797Y-97670001D01*
X187897795Y-97670000D01*
X187795010Y-97659500D01*
X186594998Y-97659500D01*
X186594981Y-97659501D01*
X186492203Y-97670000D01*
X186492200Y-97670001D01*
X186325668Y-97725185D01*
X186325663Y-97725187D01*
X186176342Y-97817289D01*
X186052289Y-97941342D01*
X185960187Y-98090663D01*
X185960186Y-98090666D01*
X185915835Y-98224505D01*
X185876064Y-98281949D01*
X185811549Y-98308772D01*
X185798131Y-98309500D01*
X184638893Y-98309500D01*
X184571854Y-98289815D01*
X184526099Y-98237011D01*
X184516155Y-98167853D01*
X184545180Y-98104297D01*
X184573797Y-98079961D01*
X184593656Y-98067712D01*
X184717712Y-97943656D01*
X184800519Y-97809402D01*
X184852467Y-97762679D01*
X184906058Y-97750500D01*
X184964071Y-97750500D01*
X185048615Y-97733682D01*
X185089744Y-97725501D01*
X185208127Y-97676465D01*
X185215856Y-97671300D01*
X185217803Y-97670000D01*
X185285899Y-97624500D01*
X185314669Y-97605277D01*
X188283127Y-94636819D01*
X188344450Y-94603334D01*
X188370808Y-94600500D01*
X188763000Y-94600500D01*
X188830039Y-94620185D01*
X188875794Y-94672989D01*
X188887000Y-94724500D01*
X188887000Y-95115701D01*
X188889901Y-95152567D01*
X188889902Y-95152573D01*
X188935754Y-95310393D01*
X188935755Y-95310396D01*
X189019417Y-95451862D01*
X189019423Y-95451870D01*
X189135629Y-95568076D01*
X189135633Y-95568079D01*
X189135635Y-95568081D01*
X189277102Y-95651744D01*
X189292942Y-95656346D01*
X189434926Y-95697597D01*
X189434929Y-95697597D01*
X189434931Y-95697598D01*
X189471806Y-95700500D01*
X189471814Y-95700500D01*
X190778186Y-95700500D01*
X190778194Y-95700500D01*
X190815069Y-95697598D01*
X190815071Y-95697597D01*
X190815073Y-95697597D01*
X190876278Y-95679815D01*
X190972898Y-95651744D01*
X191078876Y-95589069D01*
X191114895Y-95567768D01*
X191178016Y-95550500D01*
X193114071Y-95550500D01*
X193198615Y-95533682D01*
X193239744Y-95525501D01*
X193358127Y-95476465D01*
X193464669Y-95405277D01*
X194469732Y-94400212D01*
X194531053Y-94366729D01*
X194535570Y-94366010D01*
X194540288Y-94364999D01*
X194540297Y-94364999D01*
X194706834Y-94309814D01*
X194856156Y-94217712D01*
X194980212Y-94093656D01*
X195072314Y-93944334D01*
X195127499Y-93777797D01*
X195138000Y-93675009D01*
X195137999Y-92324992D01*
X195131326Y-92259672D01*
X195127499Y-92222203D01*
X195127498Y-92222200D01*
X195072314Y-92055666D01*
X194980212Y-91906344D01*
X194911549Y-91837681D01*
X194878064Y-91776358D01*
X194883048Y-91706666D01*
X194911549Y-91662319D01*
X194943232Y-91630636D01*
X194980212Y-91593656D01*
X195072314Y-91444334D01*
X195127499Y-91277797D01*
X195138000Y-91175009D01*
X195137999Y-89824992D01*
X195134626Y-89791977D01*
X195127499Y-89722203D01*
X195127498Y-89722200D01*
X195126499Y-89719185D01*
X195072314Y-89555666D01*
X194980212Y-89406344D01*
X194856156Y-89282288D01*
X194706834Y-89190186D01*
X194540297Y-89135001D01*
X194540295Y-89135000D01*
X194437510Y-89124500D01*
X193712498Y-89124500D01*
X193712480Y-89124501D01*
X193609703Y-89135000D01*
X193609700Y-89135001D01*
X193443168Y-89190185D01*
X193443163Y-89190187D01*
X193293842Y-89282289D01*
X193169789Y-89406342D01*
X193077687Y-89555663D01*
X193077685Y-89555668D01*
X193035068Y-89684279D01*
X192995295Y-89741724D01*
X192930779Y-89768547D01*
X192862004Y-89756232D01*
X192854244Y-89752009D01*
X192847898Y-89748256D01*
X192847897Y-89748255D01*
X192847896Y-89748255D01*
X192847893Y-89748254D01*
X192690073Y-89702402D01*
X192690067Y-89702401D01*
X192653201Y-89699500D01*
X192653194Y-89699500D01*
X191487000Y-89699500D01*
X191419961Y-89679815D01*
X191374206Y-89627011D01*
X191363000Y-89575500D01*
X191363000Y-89334313D01*
X191362999Y-89334298D01*
X191362682Y-89330275D01*
X191360098Y-89297431D01*
X191353775Y-89275669D01*
X191314245Y-89139606D01*
X191314244Y-89139603D01*
X191314244Y-89139602D01*
X191230581Y-88998135D01*
X191230579Y-88998133D01*
X191230576Y-88998129D01*
X191114370Y-88881923D01*
X191114362Y-88881917D01*
X191113202Y-88881231D01*
X191112478Y-88880456D01*
X191108202Y-88877139D01*
X191108737Y-88876448D01*
X191065520Y-88830161D01*
X191053017Y-88761419D01*
X191079664Y-88696830D01*
X191137000Y-88656901D01*
X191176325Y-88650500D01*
X195679192Y-88650500D01*
X195746231Y-88670185D01*
X195766873Y-88686819D01*
X196182984Y-89102930D01*
X196192046Y-89119526D01*
X196205179Y-89133137D01*
X196215585Y-89162634D01*
X196216469Y-89164253D01*
X196216907Y-89166355D01*
X196216921Y-89166421D01*
X196223533Y-89199663D01*
X196217304Y-89269254D01*
X196189597Y-89311533D01*
X196094789Y-89406342D01*
X196002687Y-89555663D01*
X196002685Y-89555668D01*
X195995196Y-89578269D01*
X195947501Y-89722203D01*
X195947501Y-89722204D01*
X195947500Y-89722204D01*
X195937000Y-89824983D01*
X195937000Y-91175001D01*
X195937001Y-91175018D01*
X195947500Y-91277796D01*
X195947501Y-91277799D01*
X196002685Y-91444331D01*
X196002687Y-91444336D01*
X196037020Y-91499999D01*
X196092413Y-91589806D01*
X196094789Y-91593657D01*
X196163451Y-91662319D01*
X196196936Y-91723642D01*
X196191952Y-91793334D01*
X196163451Y-91837681D01*
X196094789Y-91906342D01*
X196002687Y-92055663D01*
X196002685Y-92055668D01*
X195987829Y-92100500D01*
X195947501Y-92222203D01*
X195947501Y-92222204D01*
X195947500Y-92222204D01*
X195937000Y-92324983D01*
X195937000Y-93675001D01*
X195937001Y-93675018D01*
X195947500Y-93777796D01*
X195947501Y-93777799D01*
X195999703Y-93935331D01*
X196002686Y-93944334D01*
X196094788Y-94093656D01*
X196218844Y-94217712D01*
X196368166Y-94309814D01*
X196534703Y-94364999D01*
X196637491Y-94375500D01*
X197362508Y-94375499D01*
X197362516Y-94375498D01*
X197362519Y-94375498D01*
X197448361Y-94366729D01*
X197465297Y-94364999D01*
X197631834Y-94309814D01*
X197781156Y-94217712D01*
X197905212Y-94093656D01*
X197997314Y-93944334D01*
X198052499Y-93777797D01*
X198063000Y-93675009D01*
X198062999Y-92324992D01*
X198056326Y-92259672D01*
X198052499Y-92222203D01*
X198052498Y-92222200D01*
X197997314Y-92055666D01*
X197905212Y-91906344D01*
X197836549Y-91837681D01*
X197803064Y-91776358D01*
X197808048Y-91706666D01*
X197836549Y-91662319D01*
X197868232Y-91630636D01*
X197905212Y-91593656D01*
X197997314Y-91444334D01*
X198052499Y-91277797D01*
X198063000Y-91175009D01*
X198062999Y-89824992D01*
X198059626Y-89791977D01*
X198052499Y-89722203D01*
X198052498Y-89722200D01*
X198051499Y-89719185D01*
X197997314Y-89555666D01*
X197905212Y-89406344D01*
X197810403Y-89311535D01*
X197776918Y-89250212D01*
X197776467Y-89199662D01*
X197783080Y-89166420D01*
X197789329Y-89135001D01*
X197800500Y-89078844D01*
X197800500Y-88921155D01*
X197800499Y-88921153D01*
X197797990Y-88908540D01*
X197769737Y-88766503D01*
X197740878Y-88696830D01*
X197709397Y-88620827D01*
X197709390Y-88620814D01*
X197621789Y-88489711D01*
X197621786Y-88489707D01*
X197517384Y-88385305D01*
X205750000Y-88385305D01*
X205750000Y-88614694D01*
X205750001Y-88614710D01*
X205779942Y-88842137D01*
X205839318Y-89063730D01*
X205927102Y-89275659D01*
X205927106Y-89275669D01*
X206041799Y-89474324D01*
X206041805Y-89474331D01*
X206098381Y-89548064D01*
X206898958Y-88747487D01*
X206923978Y-88807890D01*
X206995112Y-88914351D01*
X207085649Y-89004888D01*
X207192110Y-89076022D01*
X207252511Y-89101041D01*
X206451934Y-89901617D01*
X206451934Y-89901618D01*
X206525666Y-89958194D01*
X206724330Y-90072893D01*
X206724340Y-90072897D01*
X206936269Y-90160681D01*
X207157862Y-90220057D01*
X207385289Y-90249998D01*
X207385306Y-90250000D01*
X207614694Y-90250000D01*
X207614710Y-90249998D01*
X207842137Y-90220057D01*
X208063730Y-90160681D01*
X208275659Y-90072897D01*
X208275668Y-90072893D01*
X208474327Y-89958197D01*
X208474334Y-89958192D01*
X208548064Y-89901617D01*
X207747488Y-89101041D01*
X207807890Y-89076022D01*
X207914351Y-89004888D01*
X208004888Y-88914351D01*
X208076022Y-88807890D01*
X208101041Y-88747488D01*
X208901617Y-89548064D01*
X208958192Y-89474334D01*
X208958197Y-89474327D01*
X209072893Y-89275668D01*
X209072897Y-89275659D01*
X209160681Y-89063730D01*
X209220057Y-88842137D01*
X209249998Y-88614710D01*
X209250000Y-88614694D01*
X209250000Y-88385305D01*
X209249998Y-88385289D01*
X209220057Y-88157862D01*
X209160681Y-87936269D01*
X209072897Y-87724340D01*
X209072893Y-87724330D01*
X208958194Y-87525666D01*
X208901618Y-87451934D01*
X208901617Y-87451934D01*
X208101041Y-88252510D01*
X208076022Y-88192110D01*
X208004888Y-88085649D01*
X207914351Y-87995112D01*
X207807890Y-87923978D01*
X207747487Y-87898957D01*
X208548064Y-87098381D01*
X208548064Y-87098380D01*
X208474331Y-87041805D01*
X208474324Y-87041799D01*
X208275669Y-86927106D01*
X208275659Y-86927102D01*
X208063730Y-86839318D01*
X207842137Y-86779942D01*
X207614710Y-86750001D01*
X207614694Y-86750000D01*
X207385306Y-86750000D01*
X207385289Y-86750001D01*
X207157862Y-86779942D01*
X206936269Y-86839318D01*
X206724340Y-86927102D01*
X206724330Y-86927106D01*
X206525673Y-87041801D01*
X206525659Y-87041810D01*
X206451934Y-87098380D01*
X207252511Y-87898958D01*
X207192110Y-87923978D01*
X207085649Y-87995112D01*
X206995112Y-88085649D01*
X206923978Y-88192110D01*
X206898958Y-88252511D01*
X206098380Y-87451934D01*
X206041810Y-87525659D01*
X206041801Y-87525673D01*
X205927106Y-87724330D01*
X205927102Y-87724340D01*
X205839318Y-87936269D01*
X205779942Y-88157862D01*
X205750001Y-88385289D01*
X205750000Y-88385305D01*
X197517384Y-88385305D01*
X197510292Y-88378213D01*
X197510288Y-88378210D01*
X197379185Y-88290609D01*
X197379172Y-88290602D01*
X197233501Y-88230264D01*
X197233489Y-88230261D01*
X197166420Y-88216920D01*
X197104509Y-88184535D01*
X197102930Y-88182984D01*
X196414674Y-87494727D01*
X196414673Y-87494726D01*
X196412554Y-87493310D01*
X196308127Y-87423535D01*
X196303769Y-87421730D01*
X196189744Y-87374499D01*
X196189738Y-87374497D01*
X196064071Y-87349500D01*
X196064069Y-87349500D01*
X195781260Y-87349500D01*
X195754272Y-87341575D01*
X195726549Y-87336778D01*
X195721192Y-87331862D01*
X195714221Y-87329815D01*
X195695803Y-87308560D01*
X195675073Y-87289534D01*
X195673224Y-87282503D01*
X195668466Y-87277011D01*
X195664462Y-87249166D01*
X195657311Y-87221960D01*
X195659080Y-87211735D01*
X195658522Y-87207853D01*
X195663329Y-87187183D01*
X195689051Y-87108017D01*
X195689051Y-87108016D01*
X195724295Y-86999544D01*
X195760000Y-86774116D01*
X195760000Y-86545883D01*
X195724295Y-86320455D01*
X195653769Y-86103395D01*
X195550148Y-85900030D01*
X195496863Y-85826689D01*
X195496862Y-85826688D01*
X194813374Y-86510176D01*
X194799222Y-86457358D01*
X194730104Y-86337643D01*
X194632357Y-86239896D01*
X194512642Y-86170778D01*
X194459821Y-86156624D01*
X195143309Y-85473137D01*
X195143309Y-85473135D01*
X195069969Y-85419851D01*
X194866604Y-85316230D01*
X194649544Y-85245704D01*
X194424116Y-85210000D01*
X194195884Y-85210000D01*
X193970455Y-85245704D01*
X193753395Y-85316230D01*
X193550035Y-85419848D01*
X193550033Y-85419849D01*
X193476689Y-85473135D01*
X193476689Y-85473136D01*
X194160178Y-86156624D01*
X194107358Y-86170778D01*
X193987643Y-86239896D01*
X193889896Y-86337643D01*
X193820778Y-86457358D01*
X193806624Y-86510177D01*
X193123136Y-85826689D01*
X193123135Y-85826689D01*
X193069849Y-85900033D01*
X193069848Y-85900035D01*
X192966230Y-86103395D01*
X192895704Y-86320455D01*
X192860000Y-86545883D01*
X192860000Y-86774116D01*
X192895704Y-86999544D01*
X192956671Y-87187182D01*
X192958666Y-87257023D01*
X192922586Y-87316856D01*
X192859885Y-87347684D01*
X192838740Y-87349500D01*
X190504935Y-87349500D01*
X190437896Y-87329815D01*
X190436090Y-87328633D01*
X190379179Y-87290606D01*
X190379172Y-87290602D01*
X190233501Y-87230264D01*
X190233489Y-87230261D01*
X190078845Y-87199500D01*
X190078842Y-87199500D01*
X189921158Y-87199500D01*
X189921155Y-87199500D01*
X189766510Y-87230261D01*
X189766498Y-87230264D01*
X189620827Y-87290602D01*
X189620814Y-87290609D01*
X189489711Y-87378210D01*
X189489707Y-87378213D01*
X189378213Y-87489707D01*
X189378210Y-87489711D01*
X189290609Y-87620814D01*
X189290602Y-87620827D01*
X189230264Y-87766498D01*
X189230261Y-87766510D01*
X189199500Y-87921153D01*
X189199500Y-88078846D01*
X189230261Y-88233489D01*
X189230264Y-88233501D01*
X189290602Y-88379172D01*
X189290609Y-88379185D01*
X189378210Y-88510288D01*
X189378213Y-88510292D01*
X189430326Y-88562405D01*
X189463811Y-88623728D01*
X189458827Y-88693420D01*
X189416955Y-88749353D01*
X189377241Y-88769162D01*
X189277104Y-88798254D01*
X189277103Y-88798255D01*
X189135105Y-88882232D01*
X189071984Y-88899500D01*
X187848429Y-88899500D01*
X187722761Y-88924497D01*
X187722755Y-88924499D01*
X187604374Y-88973534D01*
X187497831Y-89044723D01*
X187451093Y-89091460D01*
X187389769Y-89124944D01*
X187350814Y-89127135D01*
X187325025Y-89124501D01*
X187325014Y-89124500D01*
X187325009Y-89124500D01*
X187325002Y-89124500D01*
X186599998Y-89124500D01*
X186599980Y-89124501D01*
X186497203Y-89135000D01*
X186497200Y-89135001D01*
X186330668Y-89190185D01*
X186330663Y-89190187D01*
X186181342Y-89282289D01*
X186057289Y-89406342D01*
X185965187Y-89555663D01*
X185965185Y-89555668D01*
X185957696Y-89578269D01*
X185910001Y-89722203D01*
X185910001Y-89722204D01*
X185910000Y-89722204D01*
X185899500Y-89824983D01*
X185899500Y-91175001D01*
X185899501Y-91175018D01*
X185910000Y-91277796D01*
X185910001Y-91277799D01*
X185965185Y-91444331D01*
X185965187Y-91444336D01*
X185999520Y-91499999D01*
X186054913Y-91589806D01*
X186057289Y-91593657D01*
X186144701Y-91681069D01*
X186178186Y-91742392D01*
X186173202Y-91812084D01*
X186144701Y-91856431D01*
X186094789Y-91906342D01*
X186002687Y-92055663D01*
X186002685Y-92055668D01*
X185987829Y-92100500D01*
X185947501Y-92222203D01*
X185947501Y-92222204D01*
X185947500Y-92222204D01*
X185937000Y-92324983D01*
X185937000Y-93675001D01*
X185937001Y-93675018D01*
X185947500Y-93777796D01*
X185947501Y-93777799D01*
X185999703Y-93935331D01*
X186002686Y-93944334D01*
X186094788Y-94093656D01*
X186218844Y-94217712D01*
X186368166Y-94309814D01*
X186479336Y-94346652D01*
X186536781Y-94386425D01*
X186563604Y-94450941D01*
X186551289Y-94519717D01*
X186528013Y-94552039D01*
X184858391Y-96221661D01*
X184797068Y-96255146D01*
X184727376Y-96250162D01*
X184683029Y-96221661D01*
X184593657Y-96132289D01*
X184593656Y-96132288D01*
X184492359Y-96069808D01*
X184444336Y-96040187D01*
X184444331Y-96040185D01*
X184427495Y-96034606D01*
X184277797Y-95985001D01*
X184277795Y-95985000D01*
X184175010Y-95974500D01*
X182824998Y-95974500D01*
X182824981Y-95974501D01*
X182722203Y-95985000D01*
X182722200Y-95985001D01*
X182555668Y-96040185D01*
X182555663Y-96040187D01*
X182406342Y-96132289D01*
X182282289Y-96256342D01*
X182190187Y-96405663D01*
X182190186Y-96405666D01*
X182135001Y-96572203D01*
X182135001Y-96572204D01*
X182135000Y-96572204D01*
X182124500Y-96674983D01*
X173204962Y-96674983D01*
X177142732Y-92737212D01*
X177204053Y-92703729D01*
X177249809Y-92702422D01*
X177258061Y-92703729D01*
X177363945Y-92720500D01*
X177363946Y-92720500D01*
X177556054Y-92720500D01*
X177556055Y-92720500D01*
X177745801Y-92690447D01*
X177928509Y-92631082D01*
X178099681Y-92543865D01*
X178255102Y-92430945D01*
X178390945Y-92295102D01*
X178503865Y-92139681D01*
X178591082Y-91968509D01*
X178591144Y-91968319D01*
X178612069Y-91903919D01*
X178651506Y-91846243D01*
X178715864Y-91819044D01*
X178784711Y-91830958D01*
X178836187Y-91878202D01*
X178847931Y-91903919D01*
X178868915Y-91968504D01*
X178953107Y-92133738D01*
X178956135Y-92139681D01*
X179069055Y-92295102D01*
X179204898Y-92430945D01*
X179360319Y-92543865D01*
X179468890Y-92599185D01*
X179531493Y-92631083D01*
X179591254Y-92650500D01*
X179714199Y-92690447D01*
X179903945Y-92720500D01*
X179903946Y-92720500D01*
X180096054Y-92720500D01*
X180096055Y-92720500D01*
X180285801Y-92690447D01*
X180468509Y-92631082D01*
X180639681Y-92543865D01*
X180795102Y-92430945D01*
X180930945Y-92295102D01*
X181043865Y-92139681D01*
X181131082Y-91968509D01*
X181190447Y-91785801D01*
X181220500Y-91596055D01*
X181220500Y-91403945D01*
X181190447Y-91214199D01*
X181152332Y-91096891D01*
X181131083Y-91031493D01*
X181109794Y-90989711D01*
X181043865Y-90860319D01*
X180930945Y-90704898D01*
X180795102Y-90569055D01*
X180791232Y-90566243D01*
X180701613Y-90501130D01*
X180658948Y-90445800D01*
X180650500Y-90400813D01*
X180650500Y-89824983D01*
X182974500Y-89824983D01*
X182974500Y-91175001D01*
X182974501Y-91175018D01*
X182985000Y-91277796D01*
X182985001Y-91277799D01*
X183040185Y-91444331D01*
X183040187Y-91444336D01*
X183074520Y-91499999D01*
X183129913Y-91589806D01*
X183132289Y-91593657D01*
X183219701Y-91681069D01*
X183253186Y-91742392D01*
X183248202Y-91812084D01*
X183219701Y-91856431D01*
X183169789Y-91906342D01*
X183077687Y-92055663D01*
X183077685Y-92055668D01*
X183062829Y-92100500D01*
X183022501Y-92222203D01*
X183022501Y-92222204D01*
X183022500Y-92222204D01*
X183012000Y-92324983D01*
X183012000Y-93675001D01*
X183012001Y-93675018D01*
X183022500Y-93777796D01*
X183022501Y-93777799D01*
X183074703Y-93935331D01*
X183077686Y-93944334D01*
X183169788Y-94093656D01*
X183293844Y-94217712D01*
X183443166Y-94309814D01*
X183609703Y-94364999D01*
X183712491Y-94375500D01*
X184437508Y-94375499D01*
X184437516Y-94375498D01*
X184437519Y-94375498D01*
X184523361Y-94366729D01*
X184540297Y-94364999D01*
X184706834Y-94309814D01*
X184856156Y-94217712D01*
X184980212Y-94093656D01*
X185072314Y-93944334D01*
X185127499Y-93777797D01*
X185138000Y-93675009D01*
X185137999Y-92324992D01*
X185131326Y-92259672D01*
X185127499Y-92222203D01*
X185127498Y-92222200D01*
X185072314Y-92055666D01*
X184980212Y-91906344D01*
X184892799Y-91818931D01*
X184859314Y-91757608D01*
X184864298Y-91687916D01*
X184892799Y-91643569D01*
X184905732Y-91630636D01*
X184942712Y-91593656D01*
X185034814Y-91444334D01*
X185089999Y-91277797D01*
X185100500Y-91175009D01*
X185100499Y-89824992D01*
X185097126Y-89791977D01*
X185089999Y-89722203D01*
X185089998Y-89722200D01*
X185088999Y-89719185D01*
X185034814Y-89555666D01*
X184942712Y-89406344D01*
X184818656Y-89282288D01*
X184669334Y-89190186D01*
X184502797Y-89135001D01*
X184502795Y-89135000D01*
X184400010Y-89124500D01*
X183674998Y-89124500D01*
X183674980Y-89124501D01*
X183572203Y-89135000D01*
X183572200Y-89135001D01*
X183405668Y-89190185D01*
X183405663Y-89190187D01*
X183256342Y-89282289D01*
X183132289Y-89406342D01*
X183040187Y-89555663D01*
X183040185Y-89555668D01*
X183032696Y-89578269D01*
X182985001Y-89722203D01*
X182985001Y-89722204D01*
X182985000Y-89722204D01*
X182974500Y-89824983D01*
X180650500Y-89824983D01*
X180650500Y-86545883D01*
X185240000Y-86545883D01*
X185240000Y-86774116D01*
X185275704Y-86999544D01*
X185346230Y-87216604D01*
X185449851Y-87419969D01*
X185503135Y-87493309D01*
X185503137Y-87493309D01*
X186186624Y-86809822D01*
X186200778Y-86862642D01*
X186269896Y-86982357D01*
X186367643Y-87080104D01*
X186487358Y-87149222D01*
X186540177Y-87163375D01*
X185856688Y-87846862D01*
X185856689Y-87846863D01*
X185930030Y-87900148D01*
X186133395Y-88003769D01*
X186350455Y-88074295D01*
X186575884Y-88110000D01*
X186804116Y-88110000D01*
X187029544Y-88074295D01*
X187246604Y-88003769D01*
X187449966Y-87900150D01*
X187523309Y-87846862D01*
X187523310Y-87846862D01*
X186839822Y-87163375D01*
X186892642Y-87149222D01*
X187012357Y-87080104D01*
X187110104Y-86982357D01*
X187179222Y-86862642D01*
X187193375Y-86809822D01*
X187876862Y-87493310D01*
X187876862Y-87493309D01*
X187930150Y-87419966D01*
X188033769Y-87216604D01*
X188104295Y-86999544D01*
X188140000Y-86774116D01*
X188140000Y-86545883D01*
X188104295Y-86320455D01*
X188033769Y-86103395D01*
X187930148Y-85900030D01*
X187876863Y-85826689D01*
X187876862Y-85826688D01*
X187193374Y-86510176D01*
X187179222Y-86457358D01*
X187110104Y-86337643D01*
X187012357Y-86239896D01*
X186892642Y-86170778D01*
X186839821Y-86156624D01*
X187523309Y-85473137D01*
X187523309Y-85473135D01*
X187449969Y-85419851D01*
X187246604Y-85316230D01*
X187029544Y-85245704D01*
X186804116Y-85210000D01*
X186575884Y-85210000D01*
X186350455Y-85245704D01*
X186133395Y-85316230D01*
X185930035Y-85419848D01*
X185930033Y-85419849D01*
X185856689Y-85473135D01*
X185856689Y-85473136D01*
X186540178Y-86156624D01*
X186487358Y-86170778D01*
X186367643Y-86239896D01*
X186269896Y-86337643D01*
X186200778Y-86457358D01*
X186186624Y-86510177D01*
X185503136Y-85826689D01*
X185503135Y-85826689D01*
X185449849Y-85900033D01*
X185449848Y-85900035D01*
X185346230Y-86103395D01*
X185275704Y-86320455D01*
X185240000Y-86545883D01*
X180650500Y-86545883D01*
X180650500Y-80849986D01*
X181600001Y-80849986D01*
X181610494Y-80952697D01*
X181665641Y-81119119D01*
X181665643Y-81119124D01*
X181757684Y-81268345D01*
X181881654Y-81392315D01*
X182030875Y-81484356D01*
X182030880Y-81484358D01*
X182197302Y-81539505D01*
X182197309Y-81539506D01*
X182300019Y-81549999D01*
X182749999Y-81549999D01*
X183250000Y-81549999D01*
X183699972Y-81549999D01*
X183699986Y-81549998D01*
X183802697Y-81539505D01*
X183969119Y-81484358D01*
X183969124Y-81484356D01*
X184118345Y-81392315D01*
X184242315Y-81268345D01*
X184334356Y-81119124D01*
X184334358Y-81119119D01*
X184389505Y-80952697D01*
X184389506Y-80952690D01*
X184399999Y-80849986D01*
X184400000Y-80849973D01*
X184400000Y-80725000D01*
X183250000Y-80725000D01*
X183250000Y-81549999D01*
X182749999Y-81549999D01*
X182750000Y-81549998D01*
X182750000Y-80725000D01*
X181600001Y-80725000D01*
X181600001Y-80849986D01*
X180650500Y-80849986D01*
X180650500Y-80845807D01*
X180659144Y-80816366D01*
X180665668Y-80786380D01*
X180669422Y-80781364D01*
X180670185Y-80778768D01*
X180686814Y-80758131D01*
X181388322Y-80056622D01*
X181449642Y-80023140D01*
X181519333Y-80028124D01*
X181575267Y-80069995D01*
X181599684Y-80135460D01*
X181600000Y-80144306D01*
X181600000Y-80225000D01*
X182750000Y-80225000D01*
X183250000Y-80225000D01*
X184399999Y-80225000D01*
X184399999Y-80100028D01*
X184399998Y-80100013D01*
X184389505Y-79997302D01*
X184334358Y-79830880D01*
X184334356Y-79830875D01*
X184242315Y-79681654D01*
X184118345Y-79557684D01*
X183969124Y-79465643D01*
X183969119Y-79465641D01*
X183802697Y-79410494D01*
X183802690Y-79410493D01*
X183699986Y-79400000D01*
X183250000Y-79400000D01*
X183250000Y-80225000D01*
X182750000Y-80225000D01*
X182750000Y-79400000D01*
X182344305Y-79400000D01*
X182277266Y-79380315D01*
X182231511Y-79327511D01*
X182221567Y-79258353D01*
X182250592Y-79194797D01*
X182256593Y-79188351D01*
X182808127Y-78636817D01*
X182869450Y-78603333D01*
X182895808Y-78600499D01*
X183700002Y-78600499D01*
X183700008Y-78600499D01*
X183802797Y-78589999D01*
X183969334Y-78534814D01*
X184118656Y-78442712D01*
X184242712Y-78318656D01*
X184305583Y-78216724D01*
X184357531Y-78170000D01*
X184426493Y-78158777D01*
X184490575Y-78186620D01*
X184498803Y-78194140D01*
X186309934Y-80005272D01*
X186309935Y-80005273D01*
X186309938Y-80005275D01*
X186309940Y-80005277D01*
X186416482Y-80076465D01*
X186534865Y-80125501D01*
X186534869Y-80125501D01*
X186534870Y-80125502D01*
X186660537Y-80150500D01*
X186660540Y-80150500D01*
X205179192Y-80150500D01*
X205246231Y-80170185D01*
X205266873Y-80186819D01*
X206032751Y-80952697D01*
X206792715Y-81712660D01*
X206826200Y-81773983D01*
X206821216Y-81843675D01*
X206779344Y-81899608D01*
X206752491Y-81914900D01*
X206724110Y-81926656D01*
X206724103Y-81926660D01*
X206525382Y-82041392D01*
X206343338Y-82181081D01*
X206181081Y-82343338D01*
X206041392Y-82525382D01*
X205926657Y-82724109D01*
X205926650Y-82724123D01*
X205838842Y-82936112D01*
X205779453Y-83157759D01*
X205779451Y-83157770D01*
X205749500Y-83385258D01*
X205749500Y-83614741D01*
X205774446Y-83804215D01*
X205779452Y-83842238D01*
X205834184Y-84046502D01*
X205838842Y-84063887D01*
X205926650Y-84275876D01*
X205926657Y-84275890D01*
X206041392Y-84474617D01*
X206181081Y-84656661D01*
X206181089Y-84656670D01*
X206343330Y-84818911D01*
X206343338Y-84818918D01*
X206525382Y-84958607D01*
X206525385Y-84958608D01*
X206525388Y-84958611D01*
X206724112Y-85073344D01*
X206724117Y-85073346D01*
X206724123Y-85073349D01*
X206814152Y-85110640D01*
X206936113Y-85161158D01*
X207157762Y-85220548D01*
X207385266Y-85250500D01*
X207385273Y-85250500D01*
X207614727Y-85250500D01*
X207614734Y-85250500D01*
X207842238Y-85220548D01*
X208063887Y-85161158D01*
X208275888Y-85073344D01*
X208474612Y-84958611D01*
X208656661Y-84818919D01*
X208656665Y-84818914D01*
X208656670Y-84818911D01*
X208818911Y-84656670D01*
X208818914Y-84656665D01*
X208818919Y-84656661D01*
X208958611Y-84474612D01*
X209073344Y-84275888D01*
X209161158Y-84063887D01*
X209220548Y-83842238D01*
X209250500Y-83614734D01*
X209250500Y-83385266D01*
X209220548Y-83157762D01*
X209161158Y-82936113D01*
X209084405Y-82750815D01*
X209073349Y-82724123D01*
X209073346Y-82724117D01*
X209073344Y-82724112D01*
X208958611Y-82525388D01*
X208958608Y-82525385D01*
X208958607Y-82525382D01*
X208818918Y-82343338D01*
X208818911Y-82343330D01*
X208656670Y-82181089D01*
X208656661Y-82181081D01*
X208474617Y-82041392D01*
X208275896Y-81926660D01*
X208275892Y-81926658D01*
X208275890Y-81926657D01*
X208275888Y-81926656D01*
X208247507Y-81914900D01*
X208227045Y-81906424D01*
X208172643Y-81862582D01*
X208150579Y-81796288D01*
X208150500Y-81791864D01*
X208150500Y-81435928D01*
X208125502Y-81310261D01*
X208125501Y-81310260D01*
X208125501Y-81310256D01*
X208076465Y-81191873D01*
X208076464Y-81191872D01*
X208076461Y-81191866D01*
X208005277Y-81085332D01*
X207969445Y-81049500D01*
X207914669Y-80994724D01*
X207914668Y-80994723D01*
X207658047Y-80738102D01*
X207382126Y-80462180D01*
X207348641Y-80400857D01*
X207353625Y-80331165D01*
X207395497Y-80275232D01*
X207460961Y-80250815D01*
X207469807Y-80250499D01*
X208550002Y-80250499D01*
X208550008Y-80250499D01*
X208652797Y-80239999D01*
X208819334Y-80184814D01*
X208968656Y-80092712D01*
X209092712Y-79968656D01*
X209184814Y-79819334D01*
X209239999Y-79652797D01*
X209250500Y-79550009D01*
X209250499Y-77449992D01*
X209239999Y-77347203D01*
X209184814Y-77180666D01*
X209092712Y-77031344D01*
X208968656Y-76907288D01*
X208819334Y-76815186D01*
X208652797Y-76760001D01*
X208652795Y-76760000D01*
X208550010Y-76749500D01*
X206449998Y-76749500D01*
X206449981Y-76749501D01*
X206347203Y-76760000D01*
X206347200Y-76760001D01*
X206180668Y-76815185D01*
X206180663Y-76815187D01*
X206031342Y-76907289D01*
X205907289Y-77031342D01*
X205815187Y-77180663D01*
X205815185Y-77180668D01*
X205808776Y-77200009D01*
X205760001Y-77347203D01*
X205760001Y-77347204D01*
X205760000Y-77347204D01*
X205749500Y-77449983D01*
X205749500Y-77725500D01*
X205729815Y-77792539D01*
X205677011Y-77838294D01*
X205625500Y-77849500D01*
X195301942Y-77849500D01*
X195234903Y-77829815D01*
X195189148Y-77777011D01*
X195179204Y-77707853D01*
X195208229Y-77644297D01*
X195229057Y-77625182D01*
X195254937Y-77606379D01*
X195416379Y-77444937D01*
X195550579Y-77260228D01*
X195654231Y-77056799D01*
X195724784Y-76839660D01*
X195728660Y-76815186D01*
X195760500Y-76614162D01*
X195760500Y-76385837D01*
X195724784Y-76160339D01*
X195679447Y-76020808D01*
X195654231Y-75943201D01*
X195654229Y-75943198D01*
X195654229Y-75943196D01*
X195581273Y-75800013D01*
X195550579Y-75739772D01*
X195416379Y-75555063D01*
X195254937Y-75393621D01*
X195167807Y-75330317D01*
X195125143Y-75274988D01*
X195119164Y-75205374D01*
X195151770Y-75143579D01*
X195167804Y-75129684D01*
X195254937Y-75066379D01*
X195416379Y-74904937D01*
X195550579Y-74720228D01*
X195654231Y-74516799D01*
X195724784Y-74299660D01*
X195739597Y-74206136D01*
X195760500Y-74074162D01*
X195760500Y-73845837D01*
X195724784Y-73620339D01*
X195681200Y-73486202D01*
X195654231Y-73403201D01*
X195654229Y-73403198D01*
X195654229Y-73403196D01*
X195550578Y-73199771D01*
X195416379Y-73015063D01*
X195254937Y-72853621D01*
X195070228Y-72719421D01*
X194866803Y-72615770D01*
X194649660Y-72545215D01*
X194424162Y-72509500D01*
X194424157Y-72509500D01*
X194195843Y-72509500D01*
X194195838Y-72509500D01*
X193970339Y-72545215D01*
X193753196Y-72615770D01*
X193549771Y-72719421D01*
X193365061Y-72853622D01*
X193203623Y-73015060D01*
X193203616Y-73015069D01*
X193124817Y-73123525D01*
X193069487Y-73166191D01*
X192999874Y-73172169D01*
X192938079Y-73139563D01*
X192903722Y-73078724D01*
X192900500Y-73050639D01*
X192900500Y-71895908D01*
X192920185Y-71828869D01*
X192964271Y-71790363D01*
X192963187Y-71788605D01*
X192969332Y-71784814D01*
X192969334Y-71784814D01*
X193118656Y-71692712D01*
X193242712Y-71568656D01*
X193334814Y-71419334D01*
X193389999Y-71252797D01*
X193400500Y-71150009D01*
X193400499Y-69849992D01*
X193389999Y-69747203D01*
X193362264Y-69663504D01*
X193359862Y-69593676D01*
X193395594Y-69533634D01*
X193458114Y-69502441D01*
X193479970Y-69500500D01*
X211375500Y-69500500D01*
X211442539Y-69520185D01*
G37*
%TD.AperFunction*%
%TA.AperFunction,Conductor*%
G36*
X187547353Y-69508522D02*
G01*
X187575390Y-69513543D01*
X187580449Y-69518240D01*
X187587070Y-69520185D01*
X187605713Y-69541700D01*
X187626590Y-69561086D01*
X187628306Y-69567774D01*
X187632825Y-69572989D01*
X187636877Y-69601172D01*
X187643958Y-69628763D01*
X187642231Y-69638406D01*
X187642769Y-69642147D01*
X187637739Y-69663492D01*
X187610138Y-69746788D01*
X187610000Y-69747206D01*
X187599500Y-69849983D01*
X187599500Y-71150001D01*
X187599501Y-71150018D01*
X187610000Y-71252796D01*
X187610001Y-71252799D01*
X187665185Y-71419331D01*
X187665186Y-71419334D01*
X187757288Y-71568656D01*
X187881344Y-71692712D01*
X188030666Y-71784814D01*
X188030667Y-71784814D01*
X188036813Y-71788605D01*
X188035706Y-71790399D01*
X188080337Y-71829687D01*
X188099500Y-71895908D01*
X188099500Y-73050639D01*
X188079815Y-73117678D01*
X188027011Y-73163433D01*
X187957853Y-73173377D01*
X187894297Y-73144352D01*
X187875183Y-73123525D01*
X187796383Y-73015069D01*
X187796379Y-73015063D01*
X187634937Y-72853621D01*
X187450228Y-72719421D01*
X187246803Y-72615770D01*
X187029660Y-72545215D01*
X186804162Y-72509500D01*
X186804157Y-72509500D01*
X186575843Y-72509500D01*
X186575838Y-72509500D01*
X186350339Y-72545215D01*
X186133196Y-72615770D01*
X185929771Y-72719421D01*
X185745061Y-72853622D01*
X185583622Y-73015061D01*
X185449421Y-73199771D01*
X185345770Y-73403196D01*
X185275215Y-73620339D01*
X185239500Y-73845837D01*
X185239500Y-74074162D01*
X185275215Y-74299660D01*
X185345770Y-74516803D01*
X185449421Y-74720228D01*
X185583622Y-74904938D01*
X185635976Y-74957292D01*
X185669461Y-75018615D01*
X185664477Y-75088307D01*
X185622605Y-75144240D01*
X185613392Y-75150511D01*
X185521347Y-75207285D01*
X185411970Y-75316662D01*
X185350647Y-75350146D01*
X185280955Y-75345162D01*
X185236608Y-75316661D01*
X184414673Y-74494726D01*
X184414669Y-74494723D01*
X184308127Y-74423535D01*
X184189744Y-74374499D01*
X184189738Y-74374497D01*
X184064071Y-74349500D01*
X184064069Y-74349500D01*
X181435931Y-74349500D01*
X181435929Y-74349500D01*
X181310261Y-74374497D01*
X181310255Y-74374499D01*
X181191870Y-74423535D01*
X181085331Y-74494722D01*
X181085324Y-74494728D01*
X179758225Y-75821827D01*
X179696902Y-75855312D01*
X179627210Y-75850328D01*
X179571277Y-75808456D01*
X179546860Y-75742992D01*
X179554362Y-75690813D01*
X179604091Y-75557482D01*
X179606951Y-75530880D01*
X179610500Y-75497873D01*
X179610499Y-73882128D01*
X179604091Y-73822517D01*
X179602037Y-73817011D01*
X179553797Y-73687671D01*
X179553793Y-73687664D01*
X179467547Y-73572455D01*
X179467544Y-73572452D01*
X179352335Y-73486206D01*
X179352328Y-73486202D01*
X179217482Y-73435908D01*
X179217483Y-73435908D01*
X179157883Y-73429501D01*
X179157881Y-73429500D01*
X179157873Y-73429500D01*
X179157864Y-73429500D01*
X177542129Y-73429500D01*
X177542123Y-73429501D01*
X177482516Y-73435908D01*
X177347671Y-73486202D01*
X177347664Y-73486206D01*
X177232455Y-73572452D01*
X177232452Y-73572455D01*
X177146206Y-73687664D01*
X177146202Y-73687671D01*
X177095908Y-73822517D01*
X177089501Y-73882116D01*
X177089501Y-73882123D01*
X177089500Y-73882135D01*
X177089500Y-75497870D01*
X177089501Y-75497876D01*
X177095908Y-75557483D01*
X177146202Y-75692328D01*
X177146206Y-75692335D01*
X177232452Y-75807544D01*
X177232455Y-75807547D01*
X177347664Y-75893793D01*
X177347671Y-75893797D01*
X177482517Y-75944091D01*
X177482516Y-75944091D01*
X177489444Y-75944835D01*
X177542127Y-75950500D01*
X179157872Y-75950499D01*
X179217483Y-75944091D01*
X179350813Y-75894361D01*
X179420504Y-75889378D01*
X179481827Y-75922863D01*
X179515312Y-75984186D01*
X179510328Y-76053878D01*
X179481827Y-76098225D01*
X172845873Y-82734181D01*
X172784550Y-82767666D01*
X172758192Y-82770500D01*
X166996415Y-82770500D01*
X166929376Y-82750815D01*
X166883621Y-82698011D01*
X166873677Y-82628853D01*
X166878486Y-82608177D01*
X166879461Y-82605174D01*
X166879460Y-82605174D01*
X166879463Y-82605168D01*
X166895453Y-82504207D01*
X166910500Y-82409209D01*
X166910500Y-82210790D01*
X166886826Y-82061324D01*
X166879463Y-82014832D01*
X166818151Y-81826136D01*
X166818149Y-81826133D01*
X166818149Y-81826131D01*
X166779358Y-81750000D01*
X166728077Y-81649354D01*
X166611456Y-81488839D01*
X166471161Y-81348544D01*
X166310646Y-81231923D01*
X166232029Y-81191866D01*
X166133868Y-81141850D01*
X166088596Y-81127140D01*
X165945168Y-81080537D01*
X165945162Y-81080536D01*
X165749209Y-81049500D01*
X165749204Y-81049500D01*
X165550796Y-81049500D01*
X165550791Y-81049500D01*
X165354837Y-81080536D01*
X165354835Y-81080536D01*
X165354832Y-81080537D01*
X165260484Y-81111193D01*
X165166131Y-81141850D01*
X164989352Y-81231924D01*
X164989349Y-81231926D01*
X164964473Y-81250000D01*
X164828839Y-81348544D01*
X164828837Y-81348546D01*
X164828836Y-81348546D01*
X164704202Y-81473181D01*
X164642879Y-81506666D01*
X164616521Y-81509500D01*
X162692940Y-81509500D01*
X162625901Y-81489815D01*
X162605259Y-81473181D01*
X155219136Y-74087058D01*
X155185651Y-74025735D01*
X155187042Y-73967284D01*
X155187568Y-73965320D01*
X155220548Y-73842238D01*
X155250500Y-73614734D01*
X155250500Y-73385266D01*
X155250499Y-73385258D01*
X156749500Y-73385258D01*
X156749500Y-73614741D01*
X156764484Y-73728546D01*
X156779452Y-73842238D01*
X156829589Y-74029354D01*
X156838842Y-74063887D01*
X156926650Y-74275876D01*
X156926657Y-74275890D01*
X157041392Y-74474617D01*
X157181081Y-74656661D01*
X157181089Y-74656670D01*
X157343330Y-74818911D01*
X157343338Y-74818918D01*
X157343339Y-74818919D01*
X157389929Y-74854669D01*
X157525382Y-74958607D01*
X157525385Y-74958608D01*
X157525388Y-74958611D01*
X157724112Y-75073344D01*
X157724117Y-75073346D01*
X157724123Y-75073349D01*
X157813797Y-75110493D01*
X157936113Y-75161158D01*
X158157762Y-75220548D01*
X158374312Y-75249057D01*
X158385250Y-75250498D01*
X158385266Y-75250500D01*
X158385273Y-75250500D01*
X158614727Y-75250500D01*
X158614734Y-75250500D01*
X158842238Y-75220548D01*
X158967283Y-75187042D01*
X159037132Y-75188705D01*
X159087057Y-75219136D01*
X159179707Y-75311786D01*
X159179711Y-75311789D01*
X159310814Y-75399390D01*
X159310827Y-75399397D01*
X159456498Y-75459735D01*
X159456503Y-75459737D01*
X159456507Y-75459737D01*
X159456508Y-75459738D01*
X159611154Y-75490500D01*
X159611157Y-75490500D01*
X159611158Y-75490500D01*
X164616521Y-75490500D01*
X164683560Y-75510185D01*
X164704202Y-75526819D01*
X164828839Y-75651456D01*
X164989354Y-75768077D01*
X165102800Y-75825880D01*
X165166131Y-75858149D01*
X165166133Y-75858149D01*
X165166136Y-75858151D01*
X165354832Y-75919463D01*
X165452814Y-75934981D01*
X165550791Y-75950500D01*
X165550796Y-75950500D01*
X165749209Y-75950500D01*
X165838278Y-75936392D01*
X165945168Y-75919463D01*
X166133864Y-75858151D01*
X166310646Y-75768077D01*
X166471161Y-75651456D01*
X166611456Y-75511161D01*
X166728077Y-75350646D01*
X166818151Y-75173864D01*
X166879463Y-74985168D01*
X166905728Y-74819336D01*
X166910500Y-74789209D01*
X166910500Y-74590790D01*
X166892099Y-74474612D01*
X166879463Y-74394832D01*
X166818151Y-74206136D01*
X166818149Y-74206133D01*
X166818149Y-74206131D01*
X166757478Y-74087058D01*
X166728077Y-74029354D01*
X166611456Y-73868839D01*
X166471161Y-73728544D01*
X166310646Y-73611923D01*
X166233179Y-73572452D01*
X166133868Y-73521850D01*
X166088596Y-73507140D01*
X165945168Y-73460537D01*
X165945162Y-73460536D01*
X165749209Y-73429500D01*
X165749204Y-73429500D01*
X165550796Y-73429500D01*
X165550791Y-73429500D01*
X165354837Y-73460536D01*
X165354835Y-73460536D01*
X165354832Y-73460537D01*
X165275832Y-73486206D01*
X165166131Y-73521850D01*
X164989352Y-73611924D01*
X164989349Y-73611926D01*
X164903255Y-73674477D01*
X164828839Y-73728544D01*
X164828837Y-73728546D01*
X164828836Y-73728546D01*
X164704202Y-73853181D01*
X164642879Y-73886666D01*
X164616521Y-73889500D01*
X160355721Y-73889500D01*
X160288682Y-73869815D01*
X160242927Y-73817011D01*
X160232782Y-73749314D01*
X160250499Y-73614741D01*
X160250500Y-73614734D01*
X160250500Y-73385266D01*
X160220548Y-73157762D01*
X160161158Y-72936113D01*
X160073344Y-72724112D01*
X159958611Y-72525388D01*
X159958608Y-72525385D01*
X159958607Y-72525382D01*
X159821884Y-72347203D01*
X159818919Y-72343339D01*
X159818918Y-72343338D01*
X159818911Y-72343330D01*
X159656670Y-72181089D01*
X159656661Y-72181081D01*
X159474617Y-72041392D01*
X159275890Y-71926657D01*
X159275876Y-71926650D01*
X159063887Y-71838842D01*
X158842238Y-71779452D01*
X158804215Y-71774446D01*
X158614741Y-71749500D01*
X158614734Y-71749500D01*
X158385266Y-71749500D01*
X158385258Y-71749500D01*
X158168715Y-71778009D01*
X158157762Y-71779452D01*
X158116907Y-71790399D01*
X157936112Y-71838842D01*
X157724123Y-71926650D01*
X157724109Y-71926657D01*
X157525382Y-72041392D01*
X157343338Y-72181081D01*
X157181081Y-72343338D01*
X157041392Y-72525382D01*
X156926657Y-72724109D01*
X156926650Y-72724123D01*
X156838842Y-72936112D01*
X156838842Y-72936113D01*
X156784329Y-73139563D01*
X156779453Y-73157759D01*
X156779451Y-73157770D01*
X156749500Y-73385258D01*
X155250499Y-73385258D01*
X155220548Y-73157762D01*
X155161158Y-72936113D01*
X155073344Y-72724112D01*
X154958611Y-72525388D01*
X154958608Y-72525385D01*
X154958607Y-72525382D01*
X154821884Y-72347203D01*
X154818919Y-72343339D01*
X154818918Y-72343338D01*
X154818911Y-72343330D01*
X154656670Y-72181089D01*
X154656661Y-72181081D01*
X154474617Y-72041392D01*
X154275890Y-71926657D01*
X154275876Y-71926650D01*
X154063887Y-71838842D01*
X153842238Y-71779452D01*
X153804215Y-71774446D01*
X153614741Y-71749500D01*
X153614734Y-71749500D01*
X153385266Y-71749500D01*
X153385258Y-71749500D01*
X153168715Y-71778009D01*
X153157762Y-71779452D01*
X153116907Y-71790399D01*
X152936112Y-71838842D01*
X152724123Y-71926650D01*
X152724109Y-71926657D01*
X152525382Y-72041392D01*
X152343338Y-72181081D01*
X152181081Y-72343338D01*
X152041392Y-72525382D01*
X151926657Y-72724109D01*
X151926650Y-72724123D01*
X151838842Y-72936112D01*
X151838842Y-72936113D01*
X151784329Y-73139563D01*
X151779453Y-73157759D01*
X151779451Y-73157770D01*
X151749500Y-73385258D01*
X151749500Y-73614741D01*
X151764484Y-73728546D01*
X151779452Y-73842238D01*
X151829589Y-74029354D01*
X151838842Y-74063887D01*
X151926650Y-74275876D01*
X151926657Y-74275890D01*
X152041392Y-74474617D01*
X152181081Y-74656661D01*
X152181089Y-74656670D01*
X152343330Y-74818911D01*
X152343338Y-74818918D01*
X152343339Y-74818919D01*
X152389929Y-74854669D01*
X152525382Y-74958607D01*
X152525385Y-74958608D01*
X152525388Y-74958611D01*
X152724112Y-75073344D01*
X152724117Y-75073346D01*
X152724123Y-75073349D01*
X152813797Y-75110493D01*
X152936113Y-75161158D01*
X153157762Y-75220548D01*
X153374312Y-75249057D01*
X153385250Y-75250498D01*
X153385266Y-75250500D01*
X153385273Y-75250500D01*
X153614727Y-75250500D01*
X153614734Y-75250500D01*
X153842238Y-75220548D01*
X153967284Y-75187042D01*
X154037134Y-75188705D01*
X154087058Y-75219136D01*
X161253741Y-82385819D01*
X161287226Y-82447142D01*
X161282242Y-82516834D01*
X161240370Y-82572767D01*
X161174906Y-82597184D01*
X161166060Y-82597500D01*
X155150429Y-82597500D01*
X155045639Y-82618345D01*
X155044076Y-82618656D01*
X155029551Y-82621545D01*
X155024755Y-82622499D01*
X154906374Y-82671534D01*
X154799826Y-82742726D01*
X151451094Y-86091458D01*
X151389771Y-86124943D01*
X151350814Y-86127135D01*
X151325025Y-86124501D01*
X151325014Y-86124500D01*
X151325009Y-86124500D01*
X151325002Y-86124500D01*
X150599998Y-86124500D01*
X150599980Y-86124501D01*
X150497203Y-86135000D01*
X150497200Y-86135001D01*
X150330668Y-86190185D01*
X150330663Y-86190187D01*
X150181342Y-86282289D01*
X150057289Y-86406342D01*
X149965187Y-86555663D01*
X149965185Y-86555668D01*
X149937349Y-86639670D01*
X149910001Y-86722203D01*
X149910001Y-86722204D01*
X149910000Y-86722204D01*
X149899500Y-86824983D01*
X149899500Y-86824991D01*
X149899500Y-87498039D01*
X149899501Y-88050500D01*
X149896950Y-88059185D01*
X149898239Y-88068147D01*
X149887260Y-88092187D01*
X149879816Y-88117539D01*
X149872975Y-88123466D01*
X149869214Y-88131703D01*
X149846981Y-88145990D01*
X149827013Y-88163294D01*
X149816497Y-88165581D01*
X149810436Y-88169477D01*
X149775501Y-88174500D01*
X149683308Y-88174500D01*
X149616269Y-88154815D01*
X149595627Y-88138181D01*
X149136818Y-87679372D01*
X149103333Y-87618049D01*
X149100499Y-87591691D01*
X149100499Y-86824998D01*
X149100498Y-86824981D01*
X149089999Y-86722203D01*
X149089998Y-86722200D01*
X149069387Y-86660000D01*
X149034814Y-86555666D01*
X148942712Y-86406344D01*
X148818656Y-86282288D01*
X148669334Y-86190186D01*
X148502797Y-86135001D01*
X148502795Y-86135000D01*
X148400010Y-86124500D01*
X147674998Y-86124500D01*
X147674980Y-86124501D01*
X147572203Y-86135000D01*
X147572200Y-86135001D01*
X147405668Y-86190185D01*
X147405663Y-86190187D01*
X147256342Y-86282289D01*
X147132289Y-86406342D01*
X147040187Y-86555663D01*
X147040185Y-86555668D01*
X147012349Y-86639670D01*
X146985001Y-86722203D01*
X146985001Y-86722204D01*
X146985000Y-86722204D01*
X146974500Y-86824983D01*
X146974500Y-87792692D01*
X146954815Y-87859731D01*
X146902011Y-87905486D01*
X146832853Y-87915430D01*
X146769297Y-87886405D01*
X146762819Y-87880373D01*
X146561818Y-87679372D01*
X146528333Y-87618049D01*
X146525499Y-87591691D01*
X146525499Y-86824998D01*
X146525498Y-86824981D01*
X146514999Y-86722203D01*
X146514998Y-86722200D01*
X146494387Y-86660000D01*
X146459814Y-86555666D01*
X146367712Y-86406344D01*
X146243656Y-86282288D01*
X146094334Y-86190186D01*
X145927797Y-86135001D01*
X145927795Y-86135000D01*
X145825010Y-86124500D01*
X145099998Y-86124500D01*
X145099980Y-86124501D01*
X145044582Y-86130161D01*
X144975889Y-86117391D01*
X144944300Y-86094484D01*
X139844544Y-80994727D01*
X139844541Y-80994725D01*
X139844540Y-80994724D01*
X139844539Y-80994723D01*
X139737997Y-80923535D01*
X139619614Y-80874499D01*
X139619608Y-80874497D01*
X139493941Y-80849500D01*
X139493939Y-80849500D01*
X137667535Y-80849500D01*
X137600496Y-80829815D01*
X137554741Y-80777011D01*
X137544177Y-80738102D01*
X137542838Y-80725000D01*
X137539999Y-80697203D01*
X137484814Y-80530666D01*
X137392712Y-80381344D01*
X137349048Y-80337680D01*
X137315564Y-80276358D01*
X137320548Y-80206666D01*
X137349049Y-80162319D01*
X137367062Y-80144306D01*
X137392712Y-80118656D01*
X137484814Y-79969334D01*
X137539999Y-79802797D01*
X137550500Y-79700009D01*
X137550499Y-78299992D01*
X137539999Y-78197203D01*
X137484814Y-78030666D01*
X137392712Y-77881344D01*
X137349048Y-77837680D01*
X137315564Y-77776358D01*
X137320548Y-77706666D01*
X137349049Y-77662319D01*
X137367071Y-77644297D01*
X137392712Y-77618656D01*
X137484814Y-77469334D01*
X137539999Y-77302797D01*
X137550500Y-77200009D01*
X137550499Y-75799992D01*
X137547238Y-75768073D01*
X137539999Y-75697203D01*
X137539998Y-75697200D01*
X137493700Y-75557483D01*
X137484814Y-75530666D01*
X137392712Y-75381344D01*
X137268656Y-75257288D01*
X137157465Y-75188705D01*
X137119336Y-75165187D01*
X137119331Y-75165185D01*
X137107175Y-75161157D01*
X136952797Y-75110001D01*
X136952795Y-75110000D01*
X136850010Y-75099500D01*
X136099998Y-75099500D01*
X136099980Y-75099501D01*
X135997203Y-75110000D01*
X135997200Y-75110001D01*
X135830668Y-75165185D01*
X135830663Y-75165187D01*
X135681342Y-75257289D01*
X135557289Y-75381342D01*
X135465187Y-75530663D01*
X135465185Y-75530668D01*
X135437349Y-75614670D01*
X135410001Y-75697203D01*
X135410001Y-75697204D01*
X135410000Y-75697204D01*
X135399500Y-75799983D01*
X135399500Y-77200001D01*
X135399501Y-77200018D01*
X135410000Y-77302796D01*
X135410001Y-77302799D01*
X135426569Y-77352797D01*
X135465186Y-77469334D01*
X135557096Y-77618345D01*
X135557289Y-77618657D01*
X135600951Y-77662320D01*
X135634435Y-77723643D01*
X135629450Y-77793335D01*
X135600951Y-77837680D01*
X135557289Y-77881342D01*
X135465187Y-78030663D01*
X135465185Y-78030668D01*
X135465115Y-78030880D01*
X135410001Y-78197203D01*
X135410001Y-78197204D01*
X135410000Y-78197204D01*
X135399500Y-78299983D01*
X135399500Y-79700001D01*
X135399501Y-79700018D01*
X135410000Y-79802796D01*
X135410001Y-79802799D01*
X135464961Y-79968656D01*
X135465186Y-79969334D01*
X135557096Y-80118345D01*
X135557289Y-80118657D01*
X135600951Y-80162320D01*
X135634435Y-80223643D01*
X135629450Y-80293335D01*
X135600951Y-80337680D01*
X135557289Y-80381342D01*
X135465187Y-80530663D01*
X135465185Y-80530668D01*
X135465115Y-80530880D01*
X135410001Y-80697203D01*
X135410001Y-80697204D01*
X135410000Y-80697204D01*
X135399500Y-80799983D01*
X135399500Y-82200001D01*
X135399501Y-82200018D01*
X135410000Y-82302796D01*
X135410001Y-82302799D01*
X135464189Y-82466324D01*
X135465186Y-82469334D01*
X135557288Y-82618656D01*
X135681344Y-82742712D01*
X135830666Y-82834814D01*
X135997203Y-82889999D01*
X136099991Y-82900500D01*
X136850008Y-82900499D01*
X136850016Y-82900498D01*
X136850019Y-82900498D01*
X136906302Y-82894748D01*
X136952797Y-82889999D01*
X137119334Y-82834814D01*
X137268656Y-82742712D01*
X137392712Y-82618656D01*
X137484814Y-82469334D01*
X137539999Y-82302797D01*
X137544177Y-82261896D01*
X137570573Y-82197207D01*
X137627753Y-82157055D01*
X137667535Y-82150500D01*
X139109062Y-82150500D01*
X139176101Y-82170185D01*
X139196743Y-82186819D01*
X142922743Y-85912819D01*
X142956228Y-85974142D01*
X142951244Y-86043834D01*
X142909372Y-86099767D01*
X142843908Y-86124184D01*
X142835062Y-86124500D01*
X142174998Y-86124500D01*
X142174980Y-86124501D01*
X142072203Y-86135000D01*
X142072200Y-86135001D01*
X141905668Y-86190185D01*
X141905663Y-86190187D01*
X141756342Y-86282289D01*
X141632289Y-86406342D01*
X141540187Y-86555663D01*
X141540185Y-86555668D01*
X141512349Y-86639670D01*
X141485001Y-86722203D01*
X141485001Y-86722204D01*
X141485000Y-86722204D01*
X141474500Y-86824983D01*
X141474500Y-88175001D01*
X141474501Y-88175018D01*
X141483377Y-88261899D01*
X141470607Y-88330591D01*
X141422726Y-88381476D01*
X141360019Y-88398500D01*
X137714429Y-88398500D01*
X137605894Y-88420090D01*
X137593010Y-88422652D01*
X137588755Y-88423499D01*
X137470370Y-88472535D01*
X137363831Y-88543722D01*
X137363824Y-88543728D01*
X137008210Y-88899342D01*
X136946887Y-88932827D01*
X136898745Y-88932315D01*
X136898555Y-88933516D01*
X136777552Y-88914351D01*
X136683787Y-88899500D01*
X136471213Y-88899500D01*
X136422542Y-88907208D01*
X136261260Y-88932753D01*
X136059085Y-88998444D01*
X135869679Y-89094951D01*
X135697713Y-89219890D01*
X135547390Y-89370213D01*
X135422451Y-89542179D01*
X135325944Y-89731585D01*
X135260253Y-89933760D01*
X135256383Y-89958197D01*
X135227000Y-90143713D01*
X135227000Y-90356287D01*
X135229000Y-90368916D01*
X135259909Y-90564069D01*
X135260254Y-90566243D01*
X135325334Y-90766539D01*
X135325944Y-90768414D01*
X135422451Y-90957820D01*
X135547390Y-91129786D01*
X135547396Y-91129792D01*
X135697708Y-91280104D01*
X135862719Y-91399991D01*
X135905384Y-91455319D01*
X135911363Y-91524932D01*
X135878758Y-91586728D01*
X135862718Y-91600626D01*
X135815782Y-91634726D01*
X135815782Y-91634728D01*
X136480751Y-92299697D01*
X136399947Y-92321349D01*
X136295054Y-92381909D01*
X136209409Y-92467554D01*
X136148849Y-92572447D01*
X136127197Y-92653251D01*
X135462228Y-91988282D01*
X135462227Y-91988282D01*
X135422880Y-92042439D01*
X135326404Y-92231782D01*
X135260742Y-92433869D01*
X135260742Y-92433872D01*
X135227500Y-92643753D01*
X135227500Y-92856246D01*
X135260742Y-93066127D01*
X135260742Y-93066130D01*
X135326404Y-93268217D01*
X135422875Y-93457550D01*
X135462228Y-93511716D01*
X136127196Y-92846747D01*
X136148849Y-92927553D01*
X136209409Y-93032446D01*
X136295054Y-93118091D01*
X136399947Y-93178651D01*
X136480749Y-93200302D01*
X135815782Y-93865269D01*
X135815782Y-93865270D01*
X135869949Y-93904624D01*
X136059282Y-94001095D01*
X136261370Y-94066757D01*
X136471254Y-94100000D01*
X136683746Y-94100000D01*
X136893627Y-94066757D01*
X136893630Y-94066757D01*
X137095719Y-94001094D01*
X137225964Y-93934730D01*
X137294633Y-93921833D01*
X137359374Y-93948108D01*
X137369941Y-93957533D01*
X137369955Y-93957547D01*
X137485164Y-94043793D01*
X137485171Y-94043797D01*
X137620016Y-94094091D01*
X137666257Y-94099063D01*
X137730807Y-94125801D01*
X137770655Y-94183194D01*
X137777000Y-94222352D01*
X137777000Y-95656346D01*
X137807761Y-95810989D01*
X137807764Y-95811001D01*
X137868102Y-95956672D01*
X137868109Y-95956685D01*
X137955710Y-96087788D01*
X137955713Y-96087792D01*
X138989707Y-97121786D01*
X138989711Y-97121789D01*
X139120814Y-97209390D01*
X139120827Y-97209397D01*
X139255513Y-97265185D01*
X139266503Y-97269737D01*
X139355899Y-97287519D01*
X139421153Y-97300499D01*
X139421156Y-97300500D01*
X139421158Y-97300500D01*
X139578842Y-97300500D01*
X141402983Y-97300500D01*
X141470022Y-97320185D01*
X141515777Y-97372989D01*
X141520686Y-97385489D01*
X141540185Y-97444331D01*
X141540186Y-97444333D01*
X141540187Y-97444336D01*
X141572168Y-97496185D01*
X141632288Y-97593656D01*
X141756344Y-97717712D01*
X141905666Y-97809814D01*
X142072203Y-97864999D01*
X142174991Y-97875500D01*
X142867692Y-97875499D01*
X142934731Y-97895183D01*
X142980486Y-97947987D01*
X142990430Y-98017146D01*
X142961405Y-98080702D01*
X142955373Y-98087180D01*
X138691873Y-102350681D01*
X138630550Y-102384166D01*
X138604192Y-102387000D01*
X137867508Y-102387000D01*
X137800469Y-102367315D01*
X137761969Y-102328097D01*
X137717712Y-102256344D01*
X137593656Y-102132288D01*
X137499499Y-102074212D01*
X137444336Y-102040187D01*
X137444331Y-102040185D01*
X137442862Y-102039698D01*
X137277797Y-101985001D01*
X137277795Y-101985000D01*
X137175010Y-101974500D01*
X135824998Y-101974500D01*
X135824981Y-101974501D01*
X135722203Y-101985000D01*
X135722200Y-101985001D01*
X135555668Y-102040185D01*
X135555663Y-102040187D01*
X135406342Y-102132289D01*
X135282289Y-102256342D01*
X135190187Y-102405663D01*
X135190186Y-102405666D01*
X135135001Y-102572203D01*
X135135001Y-102572204D01*
X135135000Y-102572204D01*
X135124500Y-102674983D01*
X135124500Y-103367692D01*
X135118261Y-103388937D01*
X135116682Y-103411026D01*
X135108609Y-103421809D01*
X135104815Y-103434731D01*
X135088081Y-103449230D01*
X135074810Y-103466959D01*
X135062189Y-103471666D01*
X135052011Y-103480486D01*
X135030093Y-103483637D01*
X135009346Y-103491376D01*
X134996185Y-103488513D01*
X134982853Y-103490430D01*
X134962709Y-103481230D01*
X134941073Y-103476524D01*
X134923347Y-103463255D01*
X134919297Y-103461405D01*
X134912819Y-103455373D01*
X134911818Y-103454372D01*
X134878333Y-103393049D01*
X134875499Y-103366691D01*
X134875499Y-102674998D01*
X134875498Y-102674981D01*
X134864999Y-102572203D01*
X134864998Y-102572200D01*
X134809814Y-102405666D01*
X134717712Y-102256344D01*
X134593656Y-102132288D01*
X134499499Y-102074212D01*
X134444336Y-102040187D01*
X134444331Y-102040185D01*
X134442862Y-102039698D01*
X134277797Y-101985001D01*
X134277795Y-101985000D01*
X134175010Y-101974500D01*
X132824998Y-101974500D01*
X132824981Y-101974501D01*
X132722203Y-101985000D01*
X132722196Y-101985002D01*
X132663503Y-102004451D01*
X132593674Y-102006852D01*
X132533633Y-101971120D01*
X132502441Y-101908600D01*
X132500500Y-101886745D01*
X132500500Y-99543612D01*
X132520185Y-99476573D01*
X132572989Y-99430818D01*
X132642147Y-99420874D01*
X132686501Y-99436225D01*
X132870214Y-99542293D01*
X132870218Y-99542295D01*
X133142699Y-99655161D01*
X133142709Y-99655164D01*
X133427602Y-99731500D01*
X133427615Y-99731503D01*
X133720016Y-99769998D01*
X133720034Y-99770000D01*
X134014966Y-99770000D01*
X134014983Y-99769998D01*
X134307384Y-99731503D01*
X134307397Y-99731500D01*
X134592290Y-99655164D01*
X134592300Y-99655161D01*
X134864781Y-99542295D01*
X134864792Y-99542290D01*
X135120207Y-99394825D01*
X135120225Y-99394813D01*
X135272167Y-99278222D01*
X135272167Y-99278220D01*
X134496772Y-98502825D01*
X134626446Y-98408612D01*
X134756112Y-98278946D01*
X134850325Y-98149272D01*
X135625720Y-98924667D01*
X135625722Y-98924667D01*
X135742313Y-98772725D01*
X135742325Y-98772707D01*
X135889790Y-98517292D01*
X135889795Y-98517281D01*
X136002661Y-98244800D01*
X136002664Y-98244790D01*
X136079000Y-97959897D01*
X136079003Y-97959884D01*
X136117498Y-97667483D01*
X136117500Y-97667466D01*
X136117500Y-97372533D01*
X136117498Y-97372516D01*
X136079003Y-97080115D01*
X136079000Y-97080102D01*
X136002664Y-96795209D01*
X136002661Y-96795199D01*
X135889795Y-96522718D01*
X135889790Y-96522707D01*
X135742325Y-96267292D01*
X135742319Y-96267284D01*
X135625721Y-96115331D01*
X134850325Y-96890727D01*
X134756112Y-96761054D01*
X134626446Y-96631388D01*
X134496770Y-96537173D01*
X135272167Y-95761777D01*
X135120215Y-95645180D01*
X135120207Y-95645174D01*
X134864792Y-95497709D01*
X134864781Y-95497704D01*
X134592300Y-95384838D01*
X134592290Y-95384835D01*
X134307397Y-95308499D01*
X134307384Y-95308496D01*
X134014983Y-95270001D01*
X134014966Y-95270000D01*
X133720034Y-95270000D01*
X133720016Y-95270001D01*
X133427615Y-95308496D01*
X133427602Y-95308499D01*
X133142709Y-95384835D01*
X133142699Y-95384838D01*
X132870218Y-95497704D01*
X132870207Y-95497709D01*
X132686500Y-95603774D01*
X132618600Y-95620247D01*
X132552573Y-95597395D01*
X132509383Y-95542473D01*
X132500500Y-95496387D01*
X132500500Y-87503612D01*
X132520185Y-87436573D01*
X132572989Y-87390818D01*
X132642147Y-87380874D01*
X132686501Y-87396225D01*
X132870214Y-87502293D01*
X132870218Y-87502295D01*
X133142699Y-87615161D01*
X133142709Y-87615164D01*
X133427602Y-87691500D01*
X133427615Y-87691503D01*
X133720016Y-87729998D01*
X133720034Y-87730000D01*
X134014966Y-87730000D01*
X134014983Y-87729998D01*
X134307384Y-87691503D01*
X134307397Y-87691500D01*
X134592290Y-87615164D01*
X134592300Y-87615161D01*
X134864781Y-87502295D01*
X134864792Y-87502290D01*
X135120207Y-87354825D01*
X135120225Y-87354813D01*
X135272167Y-87238222D01*
X135272167Y-87238220D01*
X134496772Y-86462825D01*
X134626446Y-86368612D01*
X134756112Y-86238946D01*
X134850325Y-86109272D01*
X135625720Y-86884667D01*
X135625722Y-86884667D01*
X135742313Y-86732725D01*
X135742325Y-86732707D01*
X135889790Y-86477292D01*
X135889795Y-86477281D01*
X136002661Y-86204800D01*
X136002664Y-86204790D01*
X136079000Y-85919897D01*
X136079003Y-85919884D01*
X136117498Y-85627483D01*
X136117500Y-85627466D01*
X136117500Y-85332533D01*
X136117498Y-85332516D01*
X136079003Y-85040115D01*
X136079000Y-85040102D01*
X136002664Y-84755209D01*
X136002661Y-84755199D01*
X135889795Y-84482718D01*
X135889790Y-84482707D01*
X135742325Y-84227292D01*
X135742319Y-84227284D01*
X135625721Y-84075331D01*
X134850325Y-84850727D01*
X134756112Y-84721054D01*
X134626446Y-84591388D01*
X134496770Y-84497173D01*
X135272167Y-83721777D01*
X135120215Y-83605180D01*
X135120207Y-83605174D01*
X134864792Y-83457709D01*
X134864781Y-83457704D01*
X134592300Y-83344838D01*
X134592290Y-83344835D01*
X134307397Y-83268499D01*
X134307384Y-83268496D01*
X134014983Y-83230001D01*
X134014966Y-83230000D01*
X133720034Y-83230000D01*
X133720016Y-83230001D01*
X133427615Y-83268496D01*
X133427602Y-83268499D01*
X133142709Y-83344835D01*
X133142699Y-83344838D01*
X132870218Y-83457704D01*
X132870207Y-83457709D01*
X132686500Y-83563774D01*
X132618600Y-83580247D01*
X132552573Y-83557395D01*
X132509383Y-83502473D01*
X132500500Y-83456387D01*
X132500500Y-82810523D01*
X132520185Y-82743484D01*
X132572989Y-82697729D01*
X132642147Y-82687785D01*
X132705703Y-82716810D01*
X132712181Y-82722842D01*
X132731654Y-82742315D01*
X132880875Y-82834356D01*
X132880880Y-82834358D01*
X133047302Y-82889505D01*
X133047309Y-82889506D01*
X133150019Y-82899999D01*
X133274999Y-82899999D01*
X133775000Y-82899999D01*
X133899972Y-82899999D01*
X133899986Y-82899998D01*
X134002697Y-82889505D01*
X134169119Y-82834358D01*
X134169124Y-82834356D01*
X134318345Y-82742315D01*
X134442315Y-82618345D01*
X134534356Y-82469124D01*
X134534358Y-82469119D01*
X134589505Y-82302697D01*
X134589506Y-82302690D01*
X134599999Y-82199986D01*
X134600000Y-82199973D01*
X134600000Y-81750000D01*
X133775000Y-81750000D01*
X133775000Y-82899999D01*
X133274999Y-82899999D01*
X133275000Y-82899998D01*
X133275000Y-81250000D01*
X133775000Y-81250000D01*
X134599999Y-81250000D01*
X134599999Y-80800028D01*
X134599998Y-80800013D01*
X134589505Y-80697302D01*
X134534358Y-80530880D01*
X134534356Y-80530875D01*
X134442315Y-80381654D01*
X134398342Y-80337681D01*
X134364857Y-80276358D01*
X134369841Y-80206666D01*
X134398342Y-80162319D01*
X134442315Y-80118345D01*
X134534356Y-79969124D01*
X134534358Y-79969119D01*
X134589505Y-79802697D01*
X134589506Y-79802690D01*
X134599999Y-79699986D01*
X134600000Y-79699973D01*
X134600000Y-79250000D01*
X133775000Y-79250000D01*
X133775000Y-81250000D01*
X133275000Y-81250000D01*
X133275000Y-78750000D01*
X133775000Y-78750000D01*
X134599999Y-78750000D01*
X134599999Y-78300028D01*
X134599998Y-78300013D01*
X134589505Y-78197302D01*
X134534358Y-78030880D01*
X134534356Y-78030875D01*
X134442315Y-77881654D01*
X134398342Y-77837681D01*
X134364857Y-77776358D01*
X134369841Y-77706666D01*
X134398342Y-77662319D01*
X134442315Y-77618345D01*
X134534356Y-77469124D01*
X134534358Y-77469119D01*
X134589505Y-77302697D01*
X134589506Y-77302690D01*
X134599999Y-77199986D01*
X134600000Y-77199973D01*
X134600000Y-76750000D01*
X133775000Y-76750000D01*
X133775000Y-78750000D01*
X133275000Y-78750000D01*
X133275000Y-76250000D01*
X133775000Y-76250000D01*
X134599999Y-76250000D01*
X134599999Y-75800028D01*
X134599998Y-75800013D01*
X134589505Y-75697302D01*
X134534358Y-75530880D01*
X134534356Y-75530875D01*
X134442315Y-75381654D01*
X134318345Y-75257684D01*
X134169124Y-75165643D01*
X134169119Y-75165641D01*
X134002697Y-75110494D01*
X134002690Y-75110493D01*
X133899986Y-75100000D01*
X133775000Y-75100000D01*
X133775000Y-76250000D01*
X133275000Y-76250000D01*
X133275000Y-75100000D01*
X133150027Y-75100000D01*
X133150012Y-75100001D01*
X133047302Y-75110494D01*
X132880880Y-75165641D01*
X132880875Y-75165643D01*
X132731654Y-75257684D01*
X132712181Y-75277158D01*
X132650858Y-75310643D01*
X132581166Y-75305659D01*
X132525233Y-75263787D01*
X132500816Y-75198323D01*
X132500500Y-75189477D01*
X132500500Y-72449983D01*
X141749500Y-72449983D01*
X141749500Y-74550001D01*
X141749501Y-74550018D01*
X141760000Y-74652796D01*
X141760001Y-74652799D01*
X141815046Y-74818911D01*
X141815186Y-74819334D01*
X141907288Y-74968656D01*
X142031344Y-75092712D01*
X142180666Y-75184814D01*
X142347203Y-75239999D01*
X142449991Y-75250500D01*
X144550008Y-75250499D01*
X144652797Y-75239999D01*
X144819334Y-75184814D01*
X144968656Y-75092712D01*
X145092712Y-74968656D01*
X145184814Y-74819334D01*
X145239999Y-74652797D01*
X145250500Y-74550009D01*
X145250499Y-73385258D01*
X146749500Y-73385258D01*
X146749500Y-73614741D01*
X146764484Y-73728546D01*
X146779452Y-73842238D01*
X146829589Y-74029354D01*
X146838842Y-74063887D01*
X146926650Y-74275876D01*
X146926657Y-74275890D01*
X147041392Y-74474617D01*
X147181081Y-74656661D01*
X147181089Y-74656670D01*
X147343330Y-74818911D01*
X147343338Y-74818918D01*
X147343339Y-74818919D01*
X147389929Y-74854669D01*
X147525382Y-74958607D01*
X147525385Y-74958608D01*
X147525388Y-74958611D01*
X147724112Y-75073344D01*
X147724117Y-75073346D01*
X147724123Y-75073349D01*
X147813797Y-75110493D01*
X147936113Y-75161158D01*
X148157762Y-75220548D01*
X148374312Y-75249057D01*
X148385250Y-75250498D01*
X148385266Y-75250500D01*
X148385273Y-75250500D01*
X148614727Y-75250500D01*
X148614734Y-75250500D01*
X148842238Y-75220548D01*
X149063887Y-75161158D01*
X149275888Y-75073344D01*
X149474612Y-74958611D01*
X149656661Y-74818919D01*
X149656665Y-74818914D01*
X149656670Y-74818911D01*
X149818911Y-74656670D01*
X149818914Y-74656665D01*
X149818919Y-74656661D01*
X149958611Y-74474612D01*
X150073344Y-74275888D01*
X150161158Y-74063887D01*
X150220548Y-73842238D01*
X150250500Y-73614734D01*
X150250500Y-73385266D01*
X150220548Y-73157762D01*
X150161158Y-72936113D01*
X150073344Y-72724112D01*
X149958611Y-72525388D01*
X149958608Y-72525385D01*
X149958607Y-72525382D01*
X149821884Y-72347203D01*
X149818919Y-72343339D01*
X149818918Y-72343338D01*
X149818911Y-72343330D01*
X149656670Y-72181089D01*
X149656661Y-72181081D01*
X149474617Y-72041392D01*
X149275890Y-71926657D01*
X149275876Y-71926650D01*
X149063887Y-71838842D01*
X148842238Y-71779452D01*
X148804215Y-71774446D01*
X148614741Y-71749500D01*
X148614734Y-71749500D01*
X148385266Y-71749500D01*
X148385258Y-71749500D01*
X148168715Y-71778009D01*
X148157762Y-71779452D01*
X148116907Y-71790399D01*
X147936112Y-71838842D01*
X147724123Y-71926650D01*
X147724109Y-71926657D01*
X147525382Y-72041392D01*
X147343338Y-72181081D01*
X147181081Y-72343338D01*
X147041392Y-72525382D01*
X146926657Y-72724109D01*
X146926650Y-72724123D01*
X146838842Y-72936112D01*
X146838842Y-72936113D01*
X146784329Y-73139563D01*
X146779453Y-73157759D01*
X146779451Y-73157770D01*
X146749500Y-73385258D01*
X145250499Y-73385258D01*
X145250499Y-72449992D01*
X145239999Y-72347203D01*
X145184814Y-72180666D01*
X145092712Y-72031344D01*
X144968656Y-71907288D01*
X144819334Y-71815186D01*
X144652797Y-71760001D01*
X144652795Y-71760000D01*
X144550010Y-71749500D01*
X142449998Y-71749500D01*
X142449981Y-71749501D01*
X142347203Y-71760000D01*
X142347200Y-71760001D01*
X142180668Y-71815185D01*
X142180663Y-71815187D01*
X142031342Y-71907289D01*
X141907289Y-72031342D01*
X141815187Y-72180663D01*
X141815185Y-72180668D01*
X141787349Y-72264670D01*
X141760001Y-72347203D01*
X141760001Y-72347204D01*
X141760000Y-72347204D01*
X141749500Y-72449983D01*
X132500500Y-72449983D01*
X132500500Y-69624500D01*
X132520185Y-69557461D01*
X132572989Y-69511706D01*
X132624500Y-69500500D01*
X187520031Y-69500500D01*
X187547353Y-69508522D01*
G37*
%TD.AperFunction*%
%TA.AperFunction,Conductor*%
G36*
X176746231Y-88170185D02*
G01*
X176766873Y-88186819D01*
X177682984Y-89102930D01*
X177716469Y-89164253D01*
X177716920Y-89166420D01*
X177730261Y-89233489D01*
X177730264Y-89233501D01*
X177790602Y-89379172D01*
X177790609Y-89379185D01*
X177878210Y-89510288D01*
X177878213Y-89510292D01*
X177989707Y-89621786D01*
X177989711Y-89621789D01*
X178120814Y-89709390D01*
X178120827Y-89709397D01*
X178263630Y-89768547D01*
X178266503Y-89769737D01*
X178421153Y-89800499D01*
X178421156Y-89800500D01*
X178421158Y-89800500D01*
X178578844Y-89800500D01*
X178578845Y-89800499D01*
X178733497Y-89769737D01*
X178879179Y-89709394D01*
X179010289Y-89621789D01*
X179121789Y-89510289D01*
X179122397Y-89509378D01*
X179122839Y-89509008D01*
X179125653Y-89505581D01*
X179126303Y-89506114D01*
X179176010Y-89464573D01*
X179245334Y-89455866D01*
X179308362Y-89486020D01*
X179345082Y-89545463D01*
X179349500Y-89578269D01*
X179349500Y-90400813D01*
X179329815Y-90467852D01*
X179298387Y-90501130D01*
X179204898Y-90569054D01*
X179069057Y-90704895D01*
X179069057Y-90704896D01*
X179069055Y-90704898D01*
X179046993Y-90735264D01*
X178956135Y-90860318D01*
X178868916Y-91031493D01*
X178847931Y-91096081D01*
X178808494Y-91153756D01*
X178744135Y-91180955D01*
X178675289Y-91169041D01*
X178623813Y-91121797D01*
X178612069Y-91096081D01*
X178591083Y-91031493D01*
X178569794Y-90989711D01*
X178503865Y-90860319D01*
X178390945Y-90704898D01*
X178255102Y-90569055D01*
X178099681Y-90456135D01*
X178005818Y-90408309D01*
X177928506Y-90368916D01*
X177745802Y-90309553D01*
X177650928Y-90294526D01*
X177556055Y-90279500D01*
X177363945Y-90279500D01*
X177300696Y-90289517D01*
X177174197Y-90309553D01*
X176991493Y-90368916D01*
X176820318Y-90456135D01*
X176752521Y-90505393D01*
X176664898Y-90569055D01*
X176664896Y-90569057D01*
X176664895Y-90569057D01*
X176529057Y-90704895D01*
X176529057Y-90704896D01*
X176529055Y-90704898D01*
X176506993Y-90735264D01*
X176416135Y-90860318D01*
X176328917Y-91031492D01*
X176307667Y-91096892D01*
X176268229Y-91154567D01*
X176203870Y-91181765D01*
X176135024Y-91169850D01*
X176083548Y-91122605D01*
X176071805Y-91096891D01*
X176050616Y-91031680D01*
X175963434Y-90860577D01*
X175942201Y-90831352D01*
X175942200Y-90831351D01*
X175320000Y-91453553D01*
X175320000Y-91447339D01*
X175292741Y-91345606D01*
X175240080Y-91254394D01*
X175165606Y-91179920D01*
X175074394Y-91127259D01*
X174972661Y-91100000D01*
X174966447Y-91100000D01*
X175588646Y-90477798D01*
X175559415Y-90456561D01*
X175388321Y-90369383D01*
X175205684Y-90310040D01*
X175016015Y-90280000D01*
X174823985Y-90280000D01*
X174634315Y-90310040D01*
X174451678Y-90369383D01*
X174280578Y-90456564D01*
X174251352Y-90477798D01*
X174251351Y-90477798D01*
X174873554Y-91100000D01*
X174867339Y-91100000D01*
X174765606Y-91127259D01*
X174674394Y-91179920D01*
X174599920Y-91254394D01*
X174547259Y-91345606D01*
X174520000Y-91447339D01*
X174520000Y-91453553D01*
X173897798Y-90831351D01*
X173897798Y-90831352D01*
X173876564Y-90860578D01*
X173789383Y-91031678D01*
X173730040Y-91214315D01*
X173700000Y-91403984D01*
X173700000Y-91596015D01*
X173730040Y-91785684D01*
X173789383Y-91968321D01*
X173876561Y-92139415D01*
X173897798Y-92168646D01*
X174520000Y-91546445D01*
X174520000Y-91552661D01*
X174547259Y-91654394D01*
X174599920Y-91745606D01*
X174674394Y-91820080D01*
X174765606Y-91872741D01*
X174867339Y-91900000D01*
X174873553Y-91900000D01*
X174251351Y-92522200D01*
X174251352Y-92522201D01*
X174280577Y-92543434D01*
X174451678Y-92630616D01*
X174634315Y-92689959D01*
X174823985Y-92720000D01*
X175020690Y-92720000D01*
X175087729Y-92739685D01*
X175133484Y-92792489D01*
X175143428Y-92861647D01*
X175114403Y-92925203D01*
X175108371Y-92931681D01*
X167259760Y-100780292D01*
X167198437Y-100813777D01*
X167128745Y-100808793D01*
X167072812Y-100766921D01*
X167049606Y-100712009D01*
X167030968Y-100594336D01*
X167029463Y-100584832D01*
X166968151Y-100396136D01*
X166968149Y-100396133D01*
X166968149Y-100396131D01*
X166924167Y-100309812D01*
X166878077Y-100219354D01*
X166761456Y-100058839D01*
X166621161Y-99918544D01*
X166501614Y-99831688D01*
X166458949Y-99776358D01*
X166450500Y-99731370D01*
X166450500Y-95560807D01*
X166470185Y-95493768D01*
X166486814Y-95473131D01*
X169222732Y-92737212D01*
X169284053Y-92703729D01*
X169329809Y-92702422D01*
X169338061Y-92703729D01*
X169443945Y-92720500D01*
X169443946Y-92720500D01*
X169636054Y-92720500D01*
X169636055Y-92720500D01*
X169825801Y-92690447D01*
X170008509Y-92631082D01*
X170179681Y-92543865D01*
X170335102Y-92430945D01*
X170470945Y-92295102D01*
X170583865Y-92139681D01*
X170671082Y-91968509D01*
X170730447Y-91785801D01*
X170760500Y-91596055D01*
X170760500Y-91403945D01*
X170730447Y-91214199D01*
X170692332Y-91096891D01*
X170671083Y-91031493D01*
X170649794Y-90989711D01*
X170583865Y-90860319D01*
X170470945Y-90704898D01*
X170335102Y-90569055D01*
X170179681Y-90456135D01*
X170085818Y-90408309D01*
X170008506Y-90368916D01*
X169825802Y-90309553D01*
X169730928Y-90294526D01*
X169636055Y-90279500D01*
X169443945Y-90279500D01*
X169380696Y-90289517D01*
X169254197Y-90309553D01*
X169071493Y-90368916D01*
X168900318Y-90456135D01*
X168832521Y-90505393D01*
X168744898Y-90569055D01*
X168744896Y-90569057D01*
X168744895Y-90569057D01*
X168609057Y-90704895D01*
X168609057Y-90704896D01*
X168609055Y-90704898D01*
X168586993Y-90735264D01*
X168496135Y-90860318D01*
X168408916Y-91031493D01*
X168387931Y-91096081D01*
X168348494Y-91153756D01*
X168284135Y-91180955D01*
X168215289Y-91169041D01*
X168163813Y-91121797D01*
X168152069Y-91096081D01*
X168131083Y-91031493D01*
X168109794Y-90989711D01*
X168043865Y-90860319D01*
X167930945Y-90704898D01*
X167795102Y-90569055D01*
X167639681Y-90456135D01*
X167545818Y-90408309D01*
X167468506Y-90368916D01*
X167285802Y-90309553D01*
X167190928Y-90294526D01*
X167096055Y-90279500D01*
X166903945Y-90279500D01*
X166840696Y-90289517D01*
X166714197Y-90309553D01*
X166531493Y-90368916D01*
X166360318Y-90456135D01*
X166292521Y-90505393D01*
X166204898Y-90569055D01*
X166204896Y-90569057D01*
X166204895Y-90569057D01*
X166069057Y-90704895D01*
X166069057Y-90704896D01*
X166069055Y-90704898D01*
X166046993Y-90735264D01*
X165956135Y-90860318D01*
X165868917Y-91031492D01*
X165847667Y-91096892D01*
X165808229Y-91154567D01*
X165743870Y-91181765D01*
X165675024Y-91169850D01*
X165623548Y-91122605D01*
X165611805Y-91096891D01*
X165590616Y-91031680D01*
X165503434Y-90860577D01*
X165482201Y-90831352D01*
X165482200Y-90831351D01*
X164860000Y-91453552D01*
X164860000Y-91447339D01*
X164832741Y-91345606D01*
X164780080Y-91254394D01*
X164705606Y-91179920D01*
X164614394Y-91127259D01*
X164512661Y-91100000D01*
X164506447Y-91100000D01*
X165128646Y-90477798D01*
X165099415Y-90456561D01*
X164928321Y-90369383D01*
X164745684Y-90310040D01*
X164556015Y-90280000D01*
X164363985Y-90280000D01*
X164174315Y-90310040D01*
X163991678Y-90369383D01*
X163820578Y-90456564D01*
X163791352Y-90477798D01*
X163791351Y-90477798D01*
X164413554Y-91100000D01*
X164407339Y-91100000D01*
X164305606Y-91127259D01*
X164214394Y-91179920D01*
X164139920Y-91254394D01*
X164087259Y-91345606D01*
X164060000Y-91447339D01*
X164060000Y-91453553D01*
X163437798Y-90831351D01*
X163437798Y-90831352D01*
X163416563Y-90860581D01*
X163384984Y-90922557D01*
X163337009Y-90973352D01*
X163269188Y-90990147D01*
X163203054Y-90967609D01*
X163159603Y-90912893D01*
X163150500Y-90866261D01*
X163150500Y-89004935D01*
X163170185Y-88937896D01*
X163171366Y-88936090D01*
X163209394Y-88879179D01*
X163214491Y-88866875D01*
X163242913Y-88798256D01*
X163269737Y-88733497D01*
X163300500Y-88578842D01*
X163300500Y-88421158D01*
X163300500Y-88421155D01*
X163276140Y-88298692D01*
X163282367Y-88229100D01*
X163325230Y-88173923D01*
X163391120Y-88150678D01*
X163397757Y-88150500D01*
X176679192Y-88150500D01*
X176746231Y-88170185D01*
G37*
%TD.AperFunction*%
%TA.AperFunction,Conductor*%
G36*
X164060000Y-91552661D02*
G01*
X164087259Y-91654394D01*
X164139920Y-91745606D01*
X164214394Y-91820080D01*
X164305606Y-91872741D01*
X164407339Y-91900000D01*
X164413554Y-91900000D01*
X163791351Y-92522200D01*
X163791352Y-92522201D01*
X163820577Y-92543434D01*
X163991678Y-92630616D01*
X164174315Y-92689959D01*
X164363985Y-92720000D01*
X164556015Y-92720000D01*
X164745684Y-92689959D01*
X164928321Y-92630616D01*
X165099419Y-92543436D01*
X165128646Y-92522201D01*
X165128646Y-92522200D01*
X164506447Y-91900000D01*
X164512661Y-91900000D01*
X164614394Y-91872741D01*
X164705606Y-91820080D01*
X164780080Y-91745606D01*
X164832741Y-91654394D01*
X164860000Y-91552661D01*
X164860000Y-91546446D01*
X165482200Y-92168646D01*
X165482201Y-92168646D01*
X165503436Y-92139419D01*
X165590616Y-91968319D01*
X165611805Y-91903108D01*
X165651242Y-91845433D01*
X165715600Y-91818234D01*
X165784447Y-91830148D01*
X165835923Y-91877392D01*
X165847667Y-91903108D01*
X165868916Y-91968505D01*
X165868917Y-91968506D01*
X165868918Y-91968509D01*
X165956135Y-92139681D01*
X166069055Y-92295102D01*
X166069057Y-92295104D01*
X166204901Y-92430948D01*
X166298384Y-92498866D01*
X166301725Y-92503198D01*
X166306703Y-92505472D01*
X166322833Y-92530571D01*
X166341051Y-92554196D01*
X166342304Y-92560869D01*
X166344477Y-92564250D01*
X166349500Y-92599185D01*
X166349500Y-92679191D01*
X166329815Y-92746230D01*
X166313181Y-92766872D01*
X163355002Y-95725050D01*
X163293679Y-95758535D01*
X163223987Y-95753551D01*
X163168054Y-95711679D01*
X163143637Y-95646215D01*
X163145705Y-95613173D01*
X163150500Y-95589072D01*
X163150500Y-92133738D01*
X163170185Y-92066699D01*
X163222989Y-92020944D01*
X163292147Y-92011000D01*
X163355703Y-92040025D01*
X163384985Y-92077443D01*
X163416561Y-92139415D01*
X163437798Y-92168646D01*
X164060000Y-91546445D01*
X164060000Y-91552661D01*
G37*
%TD.AperFunction*%
%TA.AperFunction,Conductor*%
G36*
X142107731Y-89719185D02*
G01*
X142128373Y-89735819D01*
X143163181Y-90770627D01*
X143196666Y-90831950D01*
X143199500Y-90858308D01*
X143199500Y-91265701D01*
X143202401Y-91302567D01*
X143202402Y-91302573D01*
X143248254Y-91460393D01*
X143248256Y-91460399D01*
X143249426Y-91462377D01*
X143249869Y-91464126D01*
X143251353Y-91467554D01*
X143250799Y-91467793D01*
X143266603Y-91530102D01*
X143251249Y-91582395D01*
X143251817Y-91582641D01*
X143249827Y-91587239D01*
X143249428Y-91588599D01*
X143248722Y-91589791D01*
X143248716Y-91589806D01*
X143202900Y-91747505D01*
X143202899Y-91747511D01*
X143202704Y-91749998D01*
X143202705Y-91750000D01*
X143468185Y-91750000D01*
X143531306Y-91767268D01*
X143589602Y-91801744D01*
X143625192Y-91812084D01*
X143747426Y-91847597D01*
X143747429Y-91847597D01*
X143747431Y-91847598D01*
X143784306Y-91850500D01*
X143784314Y-91850500D01*
X144238500Y-91850500D01*
X144247185Y-91853050D01*
X144256147Y-91851762D01*
X144280187Y-91862740D01*
X144305539Y-91870185D01*
X144311466Y-91877025D01*
X144319703Y-91880787D01*
X144333992Y-91903021D01*
X144351294Y-91922989D01*
X144353581Y-91933503D01*
X144357477Y-91939565D01*
X144362500Y-91974500D01*
X144362500Y-92025500D01*
X144342815Y-92092539D01*
X144290011Y-92138294D01*
X144238500Y-92149500D01*
X143784298Y-92149500D01*
X143747432Y-92152401D01*
X143747426Y-92152402D01*
X143589606Y-92198254D01*
X143589603Y-92198255D01*
X143531306Y-92232732D01*
X143468185Y-92250000D01*
X143202704Y-92250000D01*
X143193763Y-92259672D01*
X143133802Y-92295538D01*
X143102708Y-92299500D01*
X141598308Y-92299500D01*
X141531269Y-92279815D01*
X141510627Y-92263181D01*
X139928157Y-90680711D01*
X139894672Y-90619388D01*
X139895189Y-90571245D01*
X139893984Y-90571055D01*
X139926000Y-90368916D01*
X139928000Y-90356287D01*
X139928000Y-90143713D01*
X139894746Y-89933757D01*
X139871370Y-89861816D01*
X139869376Y-89791977D01*
X139905456Y-89732144D01*
X139968157Y-89701316D01*
X139989302Y-89699500D01*
X142040692Y-89699500D01*
X142107731Y-89719185D01*
G37*
%TD.AperFunction*%
%TA.AperFunction,Conductor*%
G36*
X181480026Y-76997940D02*
G01*
X181508243Y-76996783D01*
X181514412Y-77000399D01*
X181521549Y-77000910D01*
X181544159Y-77017836D01*
X181568520Y-77032116D01*
X181571755Y-77038495D01*
X181577482Y-77042782D01*
X181587351Y-77069242D01*
X181600126Y-77094428D01*
X181600543Y-77104612D01*
X181601899Y-77108246D01*
X181601573Y-77129693D01*
X181599500Y-77149978D01*
X181599500Y-77900001D01*
X181599501Y-77900019D01*
X181603295Y-77937152D01*
X181590525Y-78005845D01*
X181567618Y-78037434D01*
X179494723Y-80110330D01*
X179484587Y-80125501D01*
X179458071Y-80165186D01*
X179423534Y-80216873D01*
X179374499Y-80335255D01*
X179374497Y-80335261D01*
X179349500Y-80460928D01*
X179349500Y-81235369D01*
X179329815Y-81302408D01*
X179277011Y-81348163D01*
X179207853Y-81358107D01*
X179152615Y-81335687D01*
X179010387Y-81232354D01*
X178833672Y-81142311D01*
X178833669Y-81142310D01*
X178645052Y-81081026D01*
X178449163Y-81050000D01*
X178250837Y-81050000D01*
X178054947Y-81081026D01*
X177866330Y-81142310D01*
X177866322Y-81142313D01*
X177689615Y-81232352D01*
X177652715Y-81259160D01*
X177652715Y-81259161D01*
X178298554Y-81905000D01*
X178296681Y-81905000D01*
X178193676Y-81932600D01*
X178101324Y-81985919D01*
X178025919Y-82061324D01*
X177972600Y-82153676D01*
X177945000Y-82256681D01*
X177945000Y-82258554D01*
X177299161Y-81612715D01*
X177299160Y-81612715D01*
X177272352Y-81649615D01*
X177182313Y-81826322D01*
X177182310Y-81826330D01*
X177121026Y-82014947D01*
X177090000Y-82210836D01*
X177090000Y-82409163D01*
X177121026Y-82605052D01*
X177182310Y-82793669D01*
X177182311Y-82793672D01*
X177272350Y-82970380D01*
X177299161Y-83007283D01*
X177945000Y-82361445D01*
X177945000Y-82363319D01*
X177972600Y-82466324D01*
X178025919Y-82558676D01*
X178101324Y-82634081D01*
X178193676Y-82687400D01*
X178296681Y-82715000D01*
X178298552Y-82715000D01*
X177652714Y-83360837D01*
X177652715Y-83360838D01*
X177689612Y-83387645D01*
X177866327Y-83477688D01*
X177866330Y-83477689D01*
X178054947Y-83538973D01*
X178250837Y-83570000D01*
X178449163Y-83570000D01*
X178645052Y-83538973D01*
X178833669Y-83477689D01*
X178833672Y-83477688D01*
X179010387Y-83387645D01*
X179152615Y-83284312D01*
X179218421Y-83260832D01*
X179286475Y-83276658D01*
X179335170Y-83326763D01*
X179349500Y-83384630D01*
X179349500Y-85921730D01*
X179329815Y-85988769D01*
X179277011Y-86034524D01*
X179207853Y-86044468D01*
X179144297Y-86015443D01*
X179125707Y-85994373D01*
X179125653Y-85994419D01*
X179124391Y-85992881D01*
X179122403Y-85990628D01*
X179121793Y-85989716D01*
X179121786Y-85989707D01*
X179010292Y-85878213D01*
X179010288Y-85878210D01*
X178879185Y-85790609D01*
X178879172Y-85790602D01*
X178733501Y-85730264D01*
X178733489Y-85730261D01*
X178578845Y-85699500D01*
X178578842Y-85699500D01*
X178421158Y-85699500D01*
X178421155Y-85699500D01*
X178266510Y-85730261D01*
X178266498Y-85730264D01*
X178120827Y-85790602D01*
X178120820Y-85790606D01*
X178102579Y-85802795D01*
X178063955Y-85828602D01*
X177997279Y-85849480D01*
X177995065Y-85849500D01*
X160490929Y-85849500D01*
X160365261Y-85874497D01*
X160365255Y-85874499D01*
X160246870Y-85923535D01*
X160140331Y-85994722D01*
X160140324Y-85994728D01*
X159416873Y-86718181D01*
X159355550Y-86751666D01*
X159329192Y-86754500D01*
X158609298Y-86754500D01*
X158572432Y-86757401D01*
X158572426Y-86757402D01*
X158414606Y-86803254D01*
X158414603Y-86803255D01*
X158273137Y-86886917D01*
X158273133Y-86886920D01*
X158156916Y-87003138D01*
X158156168Y-87004404D01*
X158154872Y-87005772D01*
X158152138Y-87009298D01*
X158151790Y-87009028D01*
X158118337Y-87044374D01*
X158110333Y-87049722D01*
X158110328Y-87049726D01*
X157668727Y-87491326D01*
X157668726Y-87491327D01*
X157611841Y-87576464D01*
X157611839Y-87576466D01*
X157597539Y-87597866D01*
X157597533Y-87597876D01*
X157548499Y-87716256D01*
X157548497Y-87716262D01*
X157523500Y-87841929D01*
X157523500Y-91283261D01*
X157503815Y-91350300D01*
X157451011Y-91396055D01*
X157381853Y-91405999D01*
X157318297Y-91376974D01*
X157280523Y-91318196D01*
X157277883Y-91307453D01*
X157269738Y-91266508D01*
X157269737Y-91266507D01*
X157269737Y-91266503D01*
X157248072Y-91214199D01*
X157209397Y-91120827D01*
X157209390Y-91120814D01*
X157121790Y-90989712D01*
X157121789Y-90989711D01*
X157093844Y-90961766D01*
X157060360Y-90900446D01*
X157065344Y-90830754D01*
X157074047Y-90813750D01*
X157073590Y-90813506D01*
X157076459Y-90808134D01*
X157076465Y-90808127D01*
X157087321Y-90781919D01*
X157125501Y-90689744D01*
X157150500Y-90564069D01*
X157150500Y-87295807D01*
X157170185Y-87228768D01*
X157186815Y-87208130D01*
X157962564Y-86432380D01*
X158023885Y-86398897D01*
X158062847Y-86396705D01*
X158099991Y-86400500D01*
X158850008Y-86400499D01*
X158850016Y-86400498D01*
X158850019Y-86400498D01*
X158906302Y-86394748D01*
X158952797Y-86389999D01*
X159119334Y-86334814D01*
X159268656Y-86242712D01*
X159392712Y-86118656D01*
X159484814Y-85969334D01*
X159539999Y-85802797D01*
X159550500Y-85700009D01*
X159550499Y-84299992D01*
X159539999Y-84197203D01*
X159495031Y-84061501D01*
X159492630Y-83991676D01*
X159528361Y-83931634D01*
X159590882Y-83900441D01*
X159612738Y-83898500D01*
X164696925Y-83898500D01*
X164763964Y-83918185D01*
X164774434Y-83925806D01*
X164870074Y-83989710D01*
X164873017Y-83991676D01*
X164881681Y-83997465D01*
X165000064Y-84046501D01*
X165000068Y-84046501D01*
X165000069Y-84046502D01*
X165125736Y-84071500D01*
X165125739Y-84071500D01*
X172125457Y-84071500D01*
X172192496Y-84091185D01*
X172238251Y-84143989D01*
X172248195Y-84213147D01*
X172240018Y-84242953D01*
X172230263Y-84266502D01*
X172230261Y-84266510D01*
X172199500Y-84421153D01*
X172199500Y-84578846D01*
X172230261Y-84733489D01*
X172230264Y-84733501D01*
X172290602Y-84879172D01*
X172290609Y-84879185D01*
X172378210Y-85010288D01*
X172378213Y-85010292D01*
X172489707Y-85121786D01*
X172489711Y-85121789D01*
X172620814Y-85209390D01*
X172620827Y-85209397D01*
X172720060Y-85250500D01*
X172766503Y-85269737D01*
X172921153Y-85300499D01*
X172921156Y-85300500D01*
X172921158Y-85300500D01*
X173078844Y-85300500D01*
X173078845Y-85300499D01*
X173233497Y-85269737D01*
X173352251Y-85220548D01*
X173379172Y-85209397D01*
X173379172Y-85209396D01*
X173379179Y-85209394D01*
X173510289Y-85121789D01*
X173621789Y-85010289D01*
X173709394Y-84879179D01*
X173769737Y-84733497D01*
X173783079Y-84666416D01*
X173815463Y-84604509D01*
X173816959Y-84602985D01*
X181390536Y-77029409D01*
X181415317Y-77015878D01*
X181438432Y-76999647D01*
X181445579Y-76999353D01*
X181451857Y-76995926D01*
X181480026Y-76997940D01*
G37*
%TD.AperFunction*%
%TA.AperFunction,Conductor*%
G36*
X157404301Y-83918185D02*
G01*
X157450056Y-83970989D01*
X157460000Y-84040147D01*
X157454969Y-84061496D01*
X157410001Y-84197203D01*
X157410001Y-84197204D01*
X157410000Y-84197204D01*
X157399500Y-84299983D01*
X157399500Y-85104190D01*
X157379815Y-85171229D01*
X157363181Y-85191871D01*
X156811681Y-85743371D01*
X156750358Y-85776856D01*
X156680666Y-85771872D01*
X156624733Y-85730000D01*
X156600316Y-85664536D01*
X156600000Y-85655690D01*
X156600000Y-85250000D01*
X155775000Y-85250000D01*
X155775000Y-86399999D01*
X155869866Y-86399999D01*
X155872811Y-86400863D01*
X155875795Y-86400141D01*
X155906121Y-86410644D01*
X155936905Y-86419684D01*
X155938914Y-86422003D01*
X155941816Y-86423008D01*
X155961653Y-86448245D01*
X155982660Y-86472488D01*
X155983096Y-86475525D01*
X155984994Y-86477939D01*
X155988037Y-86509886D01*
X155992604Y-86541646D01*
X155991416Y-86545358D01*
X155991620Y-86547494D01*
X155987621Y-86557226D01*
X155980068Y-86580845D01*
X155976857Y-86587069D01*
X155923535Y-86666873D01*
X155874499Y-86785256D01*
X155874418Y-86785660D01*
X155871595Y-86791134D01*
X155850914Y-86812812D01*
X155832112Y-86836145D01*
X155827049Y-86837829D01*
X155823368Y-86841689D01*
X155794253Y-86848745D01*
X155765818Y-86858209D01*
X155760640Y-86856891D01*
X155755464Y-86858146D01*
X155727472Y-86848450D01*
X155698272Y-86841020D01*
X155635196Y-86803717D01*
X155635193Y-86803716D01*
X155477495Y-86757900D01*
X155477489Y-86757899D01*
X155440649Y-86755000D01*
X154800000Y-86755000D01*
X154800000Y-87431000D01*
X154780315Y-87498039D01*
X154727511Y-87543794D01*
X154676000Y-87555000D01*
X154550000Y-87555000D01*
X154550000Y-87681000D01*
X154530315Y-87748039D01*
X154477511Y-87793794D01*
X154426000Y-87805000D01*
X153077705Y-87805000D01*
X153077704Y-87805001D01*
X153077899Y-87807486D01*
X153123718Y-87965198D01*
X153136836Y-87987379D01*
X153154019Y-88055103D01*
X153131859Y-88121366D01*
X153077393Y-88165129D01*
X153030104Y-88174500D01*
X152149500Y-88174500D01*
X152082461Y-88154815D01*
X152036706Y-88102011D01*
X152025500Y-88050500D01*
X152025499Y-87408307D01*
X152034145Y-87378860D01*
X152040667Y-87348880D01*
X152044419Y-87343866D01*
X152045183Y-87341268D01*
X152061813Y-87320631D01*
X152077446Y-87304998D01*
X153077704Y-87304998D01*
X153077705Y-87305000D01*
X154300000Y-87305000D01*
X154300000Y-86755000D01*
X153659350Y-86755000D01*
X153622510Y-86757899D01*
X153622504Y-86757900D01*
X153464806Y-86803716D01*
X153464803Y-86803717D01*
X153323447Y-86887314D01*
X153323438Y-86887321D01*
X153207321Y-87003438D01*
X153207314Y-87003447D01*
X153123718Y-87144801D01*
X153077899Y-87302513D01*
X153077704Y-87304998D01*
X152077446Y-87304998D01*
X154238322Y-85144123D01*
X154299642Y-85110640D01*
X154369334Y-85115624D01*
X154425267Y-85157496D01*
X154449684Y-85222960D01*
X154450000Y-85231806D01*
X154450000Y-85699971D01*
X154450001Y-85699987D01*
X154460494Y-85802697D01*
X154515641Y-85969119D01*
X154515643Y-85969124D01*
X154607684Y-86118345D01*
X154731654Y-86242315D01*
X154880875Y-86334356D01*
X154880880Y-86334358D01*
X155047302Y-86389505D01*
X155047309Y-86389506D01*
X155150019Y-86399999D01*
X155274999Y-86399999D01*
X155275000Y-86399998D01*
X155275000Y-85124000D01*
X155294685Y-85056961D01*
X155347489Y-85011206D01*
X155399000Y-85000000D01*
X155525000Y-85000000D01*
X155525000Y-84874000D01*
X155544685Y-84806961D01*
X155597489Y-84761206D01*
X155649000Y-84750000D01*
X156599999Y-84750000D01*
X156599999Y-84300028D01*
X156599998Y-84300013D01*
X156589505Y-84197302D01*
X156544506Y-84061504D01*
X156542104Y-83991676D01*
X156577836Y-83931634D01*
X156640356Y-83900441D01*
X156662212Y-83898500D01*
X157337262Y-83898500D01*
X157404301Y-83918185D01*
G37*
%TD.AperFunction*%
%TD*%
M02*
