%TF.GenerationSoftware,KiCad,Pcbnew,9.0.5-1.fc42*%
%TF.CreationDate,2025-10-16T13:47:52+08:00*%
%TF.ProjectId,Echolink,4563686f-6c69-46e6-9b2e-6b696361645f,rev?*%
%TF.SameCoordinates,Original*%
%TF.FileFunction,Legend,Top*%
%TF.FilePolarity,Positive*%
%FSLAX46Y46*%
G04 Gerber Fmt 4.6, Leading zero omitted, Abs format (unit mm)*
G04 Created by KiCad (PCBNEW 9.0.5-1.fc42) date 2025-10-16 13:47:52*
%MOMM*%
%LPD*%
G01*
G04 APERTURE LIST*
%ADD10C,0.100000*%
%ADD11C,0.220000*%
%ADD12C,0.200000*%
%ADD13C,0.150000*%
%ADD14C,0.120000*%
%ADD15C,0.000000*%
G04 APERTURE END LIST*
D10*
X199500000Y-106000000D02*
X199500000Y-108000000D01*
X199500000Y-110000000D02*
X199500000Y-112000000D01*
D11*
X201306321Y-89017168D02*
X201253940Y-89121930D01*
X201253940Y-89121930D02*
X201253940Y-89279073D01*
X201253940Y-89279073D02*
X201306321Y-89436216D01*
X201306321Y-89436216D02*
X201411083Y-89540978D01*
X201411083Y-89540978D02*
X201515845Y-89593359D01*
X201515845Y-89593359D02*
X201725369Y-89645740D01*
X201725369Y-89645740D02*
X201882512Y-89645740D01*
X201882512Y-89645740D02*
X202092036Y-89593359D01*
X202092036Y-89593359D02*
X202196798Y-89540978D01*
X202196798Y-89540978D02*
X202301560Y-89436216D01*
X202301560Y-89436216D02*
X202353940Y-89279073D01*
X202353940Y-89279073D02*
X202353940Y-89174311D01*
X202353940Y-89174311D02*
X202301560Y-89017168D01*
X202301560Y-89017168D02*
X202249179Y-88964787D01*
X202249179Y-88964787D02*
X201882512Y-88964787D01*
X201882512Y-88964787D02*
X201882512Y-89174311D01*
X202353940Y-88493359D02*
X201253940Y-88493359D01*
X201253940Y-88493359D02*
X202353940Y-87864787D01*
X202353940Y-87864787D02*
X201253940Y-87864787D01*
X202353940Y-87340978D02*
X201253940Y-87340978D01*
X201253940Y-87340978D02*
X201253940Y-87079073D01*
X201253940Y-87079073D02*
X201306321Y-86921930D01*
X201306321Y-86921930D02*
X201411083Y-86817168D01*
X201411083Y-86817168D02*
X201515845Y-86764787D01*
X201515845Y-86764787D02*
X201725369Y-86712406D01*
X201725369Y-86712406D02*
X201882512Y-86712406D01*
X201882512Y-86712406D02*
X202092036Y-86764787D01*
X202092036Y-86764787D02*
X202196798Y-86817168D01*
X202196798Y-86817168D02*
X202301560Y-86921930D01*
X202301560Y-86921930D02*
X202353940Y-87079073D01*
X202353940Y-87079073D02*
X202353940Y-87340978D01*
X202249179Y-94464787D02*
X202301560Y-94517168D01*
X202301560Y-94517168D02*
X202353940Y-94674311D01*
X202353940Y-94674311D02*
X202353940Y-94779073D01*
X202353940Y-94779073D02*
X202301560Y-94936216D01*
X202301560Y-94936216D02*
X202196798Y-95040978D01*
X202196798Y-95040978D02*
X202092036Y-95093359D01*
X202092036Y-95093359D02*
X201882512Y-95145740D01*
X201882512Y-95145740D02*
X201725369Y-95145740D01*
X201725369Y-95145740D02*
X201515845Y-95093359D01*
X201515845Y-95093359D02*
X201411083Y-95040978D01*
X201411083Y-95040978D02*
X201306321Y-94936216D01*
X201306321Y-94936216D02*
X201253940Y-94779073D01*
X201253940Y-94779073D02*
X201253940Y-94674311D01*
X201253940Y-94674311D02*
X201306321Y-94517168D01*
X201306321Y-94517168D02*
X201358702Y-94464787D01*
X201253940Y-94098121D02*
X202353940Y-93836216D01*
X202353940Y-93836216D02*
X201568226Y-93626692D01*
X201568226Y-93626692D02*
X202353940Y-93417168D01*
X202353940Y-93417168D02*
X201253940Y-93155264D01*
D12*
X183298244Y-95819600D02*
X183203006Y-95867219D01*
X183203006Y-95867219D02*
X183012530Y-95867219D01*
X183012530Y-95867219D02*
X182917292Y-95819600D01*
X182917292Y-95819600D02*
X182869673Y-95771980D01*
X182869673Y-95771980D02*
X182822054Y-95676742D01*
X182822054Y-95676742D02*
X182822054Y-95391028D01*
X182822054Y-95391028D02*
X182869673Y-95295790D01*
X182869673Y-95295790D02*
X182917292Y-95248171D01*
X182917292Y-95248171D02*
X183012530Y-95200552D01*
X183012530Y-95200552D02*
X183203006Y-95200552D01*
X183203006Y-95200552D02*
X183298244Y-95248171D01*
X183631578Y-95200552D02*
X183822054Y-95867219D01*
X183822054Y-95867219D02*
X184012530Y-95391028D01*
X184012530Y-95391028D02*
X184203006Y-95867219D01*
X184203006Y-95867219D02*
X184393482Y-95200552D01*
X164828693Y-94402312D02*
X165209645Y-94402312D01*
X164971550Y-95068979D02*
X164971550Y-94211836D01*
X164971550Y-94211836D02*
X165019169Y-94116598D01*
X165019169Y-94116598D02*
X165114407Y-94068979D01*
X165114407Y-94068979D02*
X165209645Y-94068979D01*
X165542979Y-95068979D02*
X165542979Y-94402312D01*
X165542979Y-94592788D02*
X165590598Y-94497550D01*
X165590598Y-94497550D02*
X165638217Y-94449931D01*
X165638217Y-94449931D02*
X165733455Y-94402312D01*
X165733455Y-94402312D02*
X165828693Y-94402312D01*
X166304884Y-95068979D02*
X166209646Y-95021360D01*
X166209646Y-95021360D02*
X166162027Y-94973740D01*
X166162027Y-94973740D02*
X166114408Y-94878502D01*
X166114408Y-94878502D02*
X166114408Y-94592788D01*
X166114408Y-94592788D02*
X166162027Y-94497550D01*
X166162027Y-94497550D02*
X166209646Y-94449931D01*
X166209646Y-94449931D02*
X166304884Y-94402312D01*
X166304884Y-94402312D02*
X166447741Y-94402312D01*
X166447741Y-94402312D02*
X166542979Y-94449931D01*
X166542979Y-94449931D02*
X166590598Y-94497550D01*
X166590598Y-94497550D02*
X166638217Y-94592788D01*
X166638217Y-94592788D02*
X166638217Y-94878502D01*
X166638217Y-94878502D02*
X166590598Y-94973740D01*
X166590598Y-94973740D02*
X166542979Y-95021360D01*
X166542979Y-95021360D02*
X166447741Y-95068979D01*
X166447741Y-95068979D02*
X166304884Y-95068979D01*
X167066789Y-95068979D02*
X167066789Y-94402312D01*
X167066789Y-94497550D02*
X167114408Y-94449931D01*
X167114408Y-94449931D02*
X167209646Y-94402312D01*
X167209646Y-94402312D02*
X167352503Y-94402312D01*
X167352503Y-94402312D02*
X167447741Y-94449931D01*
X167447741Y-94449931D02*
X167495360Y-94545169D01*
X167495360Y-94545169D02*
X167495360Y-95068979D01*
X167495360Y-94545169D02*
X167542979Y-94449931D01*
X167542979Y-94449931D02*
X167638217Y-94402312D01*
X167638217Y-94402312D02*
X167781074Y-94402312D01*
X167781074Y-94402312D02*
X167876313Y-94449931D01*
X167876313Y-94449931D02*
X167923932Y-94545169D01*
X167923932Y-94545169D02*
X167923932Y-95068979D01*
X168162027Y-95164217D02*
X168923931Y-95164217D01*
X169162027Y-94402312D02*
X169162027Y-95402312D01*
X169162027Y-94449931D02*
X169257265Y-94402312D01*
X169257265Y-94402312D02*
X169447741Y-94402312D01*
X169447741Y-94402312D02*
X169542979Y-94449931D01*
X169542979Y-94449931D02*
X169590598Y-94497550D01*
X169590598Y-94497550D02*
X169638217Y-94592788D01*
X169638217Y-94592788D02*
X169638217Y-94878502D01*
X169638217Y-94878502D02*
X169590598Y-94973740D01*
X169590598Y-94973740D02*
X169542979Y-95021360D01*
X169542979Y-95021360D02*
X169447741Y-95068979D01*
X169447741Y-95068979D02*
X169257265Y-95068979D01*
X169257265Y-95068979D02*
X169162027Y-95021360D01*
X170495360Y-95021360D02*
X170400122Y-95068979D01*
X170400122Y-95068979D02*
X170209646Y-95068979D01*
X170209646Y-95068979D02*
X170114408Y-95021360D01*
X170114408Y-95021360D02*
X170066789Y-94973740D01*
X170066789Y-94973740D02*
X170019170Y-94878502D01*
X170019170Y-94878502D02*
X170019170Y-94592788D01*
X170019170Y-94592788D02*
X170066789Y-94497550D01*
X170066789Y-94497550D02*
X170114408Y-94449931D01*
X170114408Y-94449931D02*
X170209646Y-94402312D01*
X170209646Y-94402312D02*
X170400122Y-94402312D01*
X170400122Y-94402312D02*
X170495360Y-94449931D01*
X167341338Y-70728576D02*
X167293719Y-70776196D01*
X167293719Y-70776196D02*
X167150862Y-70823815D01*
X167150862Y-70823815D02*
X167055624Y-70823815D01*
X167055624Y-70823815D02*
X166912767Y-70776196D01*
X166912767Y-70776196D02*
X166817529Y-70680957D01*
X166817529Y-70680957D02*
X166769910Y-70585719D01*
X166769910Y-70585719D02*
X166722291Y-70395243D01*
X166722291Y-70395243D02*
X166722291Y-70252386D01*
X166722291Y-70252386D02*
X166769910Y-70061910D01*
X166769910Y-70061910D02*
X166817529Y-69966672D01*
X166817529Y-69966672D02*
X166912767Y-69871434D01*
X166912767Y-69871434D02*
X167055624Y-69823815D01*
X167055624Y-69823815D02*
X167150862Y-69823815D01*
X167150862Y-69823815D02*
X167293719Y-69871434D01*
X167293719Y-69871434D02*
X167341338Y-69919053D01*
X167674672Y-69823815D02*
X167912767Y-70823815D01*
X167912767Y-70823815D02*
X168103243Y-70109529D01*
X168103243Y-70109529D02*
X168293719Y-70823815D01*
X168293719Y-70823815D02*
X168531815Y-69823815D01*
X168912767Y-70442862D02*
X169674672Y-70442862D01*
X170150862Y-70823815D02*
X170150862Y-69823815D01*
X170150862Y-69823815D02*
X170531814Y-69823815D01*
X170531814Y-69823815D02*
X170627052Y-69871434D01*
X170627052Y-69871434D02*
X170674671Y-69919053D01*
X170674671Y-69919053D02*
X170722290Y-70014291D01*
X170722290Y-70014291D02*
X170722290Y-70157148D01*
X170722290Y-70157148D02*
X170674671Y-70252386D01*
X170674671Y-70252386D02*
X170627052Y-70300005D01*
X170627052Y-70300005D02*
X170531814Y-70347624D01*
X170531814Y-70347624D02*
X170150862Y-70347624D01*
X171008005Y-69823815D02*
X171579433Y-69823815D01*
X171293719Y-70823815D02*
X171293719Y-69823815D01*
X171769910Y-69823815D02*
X172341338Y-69823815D01*
X172055624Y-70823815D02*
X172055624Y-69823815D01*
X172674672Y-70442862D02*
X173436577Y-70442862D01*
X174484195Y-70728576D02*
X174436576Y-70776196D01*
X174436576Y-70776196D02*
X174293719Y-70823815D01*
X174293719Y-70823815D02*
X174198481Y-70823815D01*
X174198481Y-70823815D02*
X174055624Y-70776196D01*
X174055624Y-70776196D02*
X173960386Y-70680957D01*
X173960386Y-70680957D02*
X173912767Y-70585719D01*
X173912767Y-70585719D02*
X173865148Y-70395243D01*
X173865148Y-70395243D02*
X173865148Y-70252386D01*
X173865148Y-70252386D02*
X173912767Y-70061910D01*
X173912767Y-70061910D02*
X173960386Y-69966672D01*
X173960386Y-69966672D02*
X174055624Y-69871434D01*
X174055624Y-69871434D02*
X174198481Y-69823815D01*
X174198481Y-69823815D02*
X174293719Y-69823815D01*
X174293719Y-69823815D02*
X174436576Y-69871434D01*
X174436576Y-69871434D02*
X174484195Y-69919053D01*
X174865148Y-70538100D02*
X175341338Y-70538100D01*
X174769910Y-70823815D02*
X175103243Y-69823815D01*
X175103243Y-69823815D02*
X175436576Y-70823815D01*
X175627053Y-69823815D02*
X176198481Y-69823815D01*
X175912767Y-70823815D02*
X175912767Y-69823815D01*
X168722291Y-72433759D02*
X168722291Y-71767092D01*
X168722291Y-71433759D02*
X168674672Y-71481378D01*
X168674672Y-71481378D02*
X168722291Y-71528997D01*
X168722291Y-71528997D02*
X168769910Y-71481378D01*
X168769910Y-71481378D02*
X168722291Y-71433759D01*
X168722291Y-71433759D02*
X168722291Y-71528997D01*
X169198481Y-71767092D02*
X169198481Y-72433759D01*
X169198481Y-71862330D02*
X169246100Y-71814711D01*
X169246100Y-71814711D02*
X169341338Y-71767092D01*
X169341338Y-71767092D02*
X169484195Y-71767092D01*
X169484195Y-71767092D02*
X169579433Y-71814711D01*
X169579433Y-71814711D02*
X169627052Y-71909949D01*
X169627052Y-71909949D02*
X169627052Y-72433759D01*
X169960386Y-71767092D02*
X170341338Y-71767092D01*
X170103243Y-71433759D02*
X170103243Y-72290901D01*
X170103243Y-72290901D02*
X170150862Y-72386140D01*
X170150862Y-72386140D02*
X170246100Y-72433759D01*
X170246100Y-72433759D02*
X170341338Y-72433759D01*
X171055624Y-72386140D02*
X170960386Y-72433759D01*
X170960386Y-72433759D02*
X170769910Y-72433759D01*
X170769910Y-72433759D02*
X170674672Y-72386140D01*
X170674672Y-72386140D02*
X170627053Y-72290901D01*
X170627053Y-72290901D02*
X170627053Y-71909949D01*
X170627053Y-71909949D02*
X170674672Y-71814711D01*
X170674672Y-71814711D02*
X170769910Y-71767092D01*
X170769910Y-71767092D02*
X170960386Y-71767092D01*
X170960386Y-71767092D02*
X171055624Y-71814711D01*
X171055624Y-71814711D02*
X171103243Y-71909949D01*
X171103243Y-71909949D02*
X171103243Y-72005187D01*
X171103243Y-72005187D02*
X170627053Y-72100425D01*
X171531815Y-72433759D02*
X171531815Y-71767092D01*
X171531815Y-71957568D02*
X171579434Y-71862330D01*
X171579434Y-71862330D02*
X171627053Y-71814711D01*
X171627053Y-71814711D02*
X171722291Y-71767092D01*
X171722291Y-71767092D02*
X171817529Y-71767092D01*
X172008006Y-71767092D02*
X172388958Y-71767092D01*
X172150863Y-72433759D02*
X172150863Y-71576616D01*
X172150863Y-71576616D02*
X172198482Y-71481378D01*
X172198482Y-71481378D02*
X172293720Y-71433759D01*
X172293720Y-71433759D02*
X172388958Y-71433759D01*
X173150863Y-72433759D02*
X173150863Y-71909949D01*
X173150863Y-71909949D02*
X173103244Y-71814711D01*
X173103244Y-71814711D02*
X173008006Y-71767092D01*
X173008006Y-71767092D02*
X172817530Y-71767092D01*
X172817530Y-71767092D02*
X172722292Y-71814711D01*
X173150863Y-72386140D02*
X173055625Y-72433759D01*
X173055625Y-72433759D02*
X172817530Y-72433759D01*
X172817530Y-72433759D02*
X172722292Y-72386140D01*
X172722292Y-72386140D02*
X172674673Y-72290901D01*
X172674673Y-72290901D02*
X172674673Y-72195663D01*
X172674673Y-72195663D02*
X172722292Y-72100425D01*
X172722292Y-72100425D02*
X172817530Y-72052806D01*
X172817530Y-72052806D02*
X173055625Y-72052806D01*
X173055625Y-72052806D02*
X173150863Y-72005187D01*
X174055625Y-72386140D02*
X173960387Y-72433759D01*
X173960387Y-72433759D02*
X173769911Y-72433759D01*
X173769911Y-72433759D02*
X173674673Y-72386140D01*
X173674673Y-72386140D02*
X173627054Y-72338520D01*
X173627054Y-72338520D02*
X173579435Y-72243282D01*
X173579435Y-72243282D02*
X173579435Y-71957568D01*
X173579435Y-71957568D02*
X173627054Y-71862330D01*
X173627054Y-71862330D02*
X173674673Y-71814711D01*
X173674673Y-71814711D02*
X173769911Y-71767092D01*
X173769911Y-71767092D02*
X173960387Y-71767092D01*
X173960387Y-71767092D02*
X174055625Y-71814711D01*
X174865149Y-72386140D02*
X174769911Y-72433759D01*
X174769911Y-72433759D02*
X174579435Y-72433759D01*
X174579435Y-72433759D02*
X174484197Y-72386140D01*
X174484197Y-72386140D02*
X174436578Y-72290901D01*
X174436578Y-72290901D02*
X174436578Y-71909949D01*
X174436578Y-71909949D02*
X174484197Y-71814711D01*
X174484197Y-71814711D02*
X174579435Y-71767092D01*
X174579435Y-71767092D02*
X174769911Y-71767092D01*
X174769911Y-71767092D02*
X174865149Y-71814711D01*
X174865149Y-71814711D02*
X174912768Y-71909949D01*
X174912768Y-71909949D02*
X174912768Y-72005187D01*
X174912768Y-72005187D02*
X174436578Y-72100425D01*
D11*
X201253940Y-79750502D02*
X201253940Y-79121930D01*
X202353940Y-79436216D02*
X201253940Y-79436216D01*
X201253940Y-78860026D02*
X202353940Y-78126692D01*
X201253940Y-78126692D02*
X202353940Y-78860026D01*
X202353940Y-77707645D02*
X201253940Y-77707645D01*
X201253940Y-77707645D02*
X201253940Y-77445740D01*
X201253940Y-77445740D02*
X201306321Y-77288597D01*
X201306321Y-77288597D02*
X201411083Y-77183835D01*
X201411083Y-77183835D02*
X201515845Y-77131454D01*
X201515845Y-77131454D02*
X201725369Y-77079073D01*
X201725369Y-77079073D02*
X201882512Y-77079073D01*
X201882512Y-77079073D02*
X202092036Y-77131454D01*
X202092036Y-77131454D02*
X202196798Y-77183835D01*
X202196798Y-77183835D02*
X202301560Y-77288597D01*
X202301560Y-77288597D02*
X202353940Y-77445740D01*
X202353940Y-77445740D02*
X202353940Y-77707645D01*
D12*
X156106517Y-81085161D02*
X156201755Y-81132780D01*
X156201755Y-81132780D02*
X156344612Y-81132780D01*
X156344612Y-81132780D02*
X156487469Y-81085161D01*
X156487469Y-81085161D02*
X156582707Y-80989923D01*
X156582707Y-80989923D02*
X156630326Y-80894685D01*
X156630326Y-80894685D02*
X156677945Y-80704209D01*
X156677945Y-80704209D02*
X156677945Y-80561352D01*
X156677945Y-80561352D02*
X156630326Y-80370876D01*
X156630326Y-80370876D02*
X156582707Y-80275638D01*
X156582707Y-80275638D02*
X156487469Y-80180400D01*
X156487469Y-80180400D02*
X156344612Y-80132780D01*
X156344612Y-80132780D02*
X156249374Y-80132780D01*
X156249374Y-80132780D02*
X156106517Y-80180400D01*
X156106517Y-80180400D02*
X156058898Y-80228019D01*
X156058898Y-80228019D02*
X156058898Y-80561352D01*
X156058898Y-80561352D02*
X156249374Y-80561352D01*
X155630326Y-80132780D02*
X155630326Y-81132780D01*
X155630326Y-81132780D02*
X155058898Y-80132780D01*
X155058898Y-80132780D02*
X155058898Y-81132780D01*
X154582707Y-80132780D02*
X154582707Y-81132780D01*
X154582707Y-81132780D02*
X154344612Y-81132780D01*
X154344612Y-81132780D02*
X154201755Y-81085161D01*
X154201755Y-81085161D02*
X154106517Y-80989923D01*
X154106517Y-80989923D02*
X154058898Y-80894685D01*
X154058898Y-80894685D02*
X154011279Y-80704209D01*
X154011279Y-80704209D02*
X154011279Y-80561352D01*
X154011279Y-80561352D02*
X154058898Y-80370876D01*
X154058898Y-80370876D02*
X154106517Y-80275638D01*
X154106517Y-80275638D02*
X154201755Y-80180400D01*
X154201755Y-80180400D02*
X154344612Y-80132780D01*
X154344612Y-80132780D02*
X154582707Y-80132780D01*
X153820803Y-80037542D02*
X153058898Y-80037542D01*
X152487469Y-80656590D02*
X152820802Y-80656590D01*
X152820802Y-80132780D02*
X152820802Y-81132780D01*
X152820802Y-81132780D02*
X152344612Y-81132780D01*
X151392231Y-80132780D02*
X151725564Y-80608971D01*
X151963659Y-80132780D02*
X151963659Y-81132780D01*
X151963659Y-81132780D02*
X151582707Y-81132780D01*
X151582707Y-81132780D02*
X151487469Y-81085161D01*
X151487469Y-81085161D02*
X151439850Y-81037542D01*
X151439850Y-81037542D02*
X151392231Y-80942304D01*
X151392231Y-80942304D02*
X151392231Y-80799447D01*
X151392231Y-80799447D02*
X151439850Y-80704209D01*
X151439850Y-80704209D02*
X151487469Y-80656590D01*
X151487469Y-80656590D02*
X151582707Y-80608971D01*
X151582707Y-80608971D02*
X151963659Y-80608971D01*
X150773183Y-81132780D02*
X150582707Y-81132780D01*
X150582707Y-81132780D02*
X150487469Y-81085161D01*
X150487469Y-81085161D02*
X150392231Y-80989923D01*
X150392231Y-80989923D02*
X150344612Y-80799447D01*
X150344612Y-80799447D02*
X150344612Y-80466114D01*
X150344612Y-80466114D02*
X150392231Y-80275638D01*
X150392231Y-80275638D02*
X150487469Y-80180400D01*
X150487469Y-80180400D02*
X150582707Y-80132780D01*
X150582707Y-80132780D02*
X150773183Y-80132780D01*
X150773183Y-80132780D02*
X150868421Y-80180400D01*
X150868421Y-80180400D02*
X150963659Y-80275638D01*
X150963659Y-80275638D02*
X151011278Y-80466114D01*
X151011278Y-80466114D02*
X151011278Y-80799447D01*
X151011278Y-80799447D02*
X150963659Y-80989923D01*
X150963659Y-80989923D02*
X150868421Y-81085161D01*
X150868421Y-81085161D02*
X150773183Y-81132780D01*
X149916040Y-80132780D02*
X149916040Y-81132780D01*
X149916040Y-81132780D02*
X149582707Y-80418495D01*
X149582707Y-80418495D02*
X149249374Y-81132780D01*
X149249374Y-81132780D02*
X149249374Y-80132780D01*
D11*
X202353940Y-100093359D02*
X201253940Y-100093359D01*
X201253940Y-100093359D02*
X201253940Y-99674311D01*
X201253940Y-99674311D02*
X201306321Y-99569549D01*
X201306321Y-99569549D02*
X201358702Y-99517168D01*
X201358702Y-99517168D02*
X201463464Y-99464787D01*
X201463464Y-99464787D02*
X201620607Y-99464787D01*
X201620607Y-99464787D02*
X201725369Y-99517168D01*
X201725369Y-99517168D02*
X201777750Y-99569549D01*
X201777750Y-99569549D02*
X201830131Y-99674311D01*
X201830131Y-99674311D02*
X201830131Y-100093359D01*
X201253940Y-99150502D02*
X201253940Y-98521930D01*
X202353940Y-98836216D02*
X201253940Y-98836216D01*
X201253940Y-98312407D02*
X201253940Y-97683835D01*
X202353940Y-97998121D02*
X201253940Y-97998121D01*
X201306321Y-105517168D02*
X201253940Y-105621930D01*
X201253940Y-105621930D02*
X201253940Y-105779073D01*
X201253940Y-105779073D02*
X201306321Y-105936216D01*
X201306321Y-105936216D02*
X201411083Y-106040978D01*
X201411083Y-106040978D02*
X201515845Y-106093359D01*
X201515845Y-106093359D02*
X201725369Y-106145740D01*
X201725369Y-106145740D02*
X201882512Y-106145740D01*
X201882512Y-106145740D02*
X202092036Y-106093359D01*
X202092036Y-106093359D02*
X202196798Y-106040978D01*
X202196798Y-106040978D02*
X202301560Y-105936216D01*
X202301560Y-105936216D02*
X202353940Y-105779073D01*
X202353940Y-105779073D02*
X202353940Y-105674311D01*
X202353940Y-105674311D02*
X202301560Y-105517168D01*
X202301560Y-105517168D02*
X202249179Y-105464787D01*
X202249179Y-105464787D02*
X201882512Y-105464787D01*
X201882512Y-105464787D02*
X201882512Y-105674311D01*
X202353940Y-104993359D02*
X201253940Y-104993359D01*
X201253940Y-104993359D02*
X202353940Y-104364787D01*
X202353940Y-104364787D02*
X201253940Y-104364787D01*
X202353940Y-103840978D02*
X201253940Y-103840978D01*
X201253940Y-103840978D02*
X201253940Y-103579073D01*
X201253940Y-103579073D02*
X201306321Y-103421930D01*
X201306321Y-103421930D02*
X201411083Y-103317168D01*
X201411083Y-103317168D02*
X201515845Y-103264787D01*
X201515845Y-103264787D02*
X201725369Y-103212406D01*
X201725369Y-103212406D02*
X201882512Y-103212406D01*
X201882512Y-103212406D02*
X202092036Y-103264787D01*
X202092036Y-103264787D02*
X202196798Y-103317168D01*
X202196798Y-103317168D02*
X202301560Y-103421930D01*
X202301560Y-103421930D02*
X202353940Y-103579073D01*
X202353940Y-103579073D02*
X202353940Y-103840978D01*
D12*
X150606517Y-79085161D02*
X150701755Y-79132780D01*
X150701755Y-79132780D02*
X150844612Y-79132780D01*
X150844612Y-79132780D02*
X150987469Y-79085161D01*
X150987469Y-79085161D02*
X151082707Y-78989923D01*
X151082707Y-78989923D02*
X151130326Y-78894685D01*
X151130326Y-78894685D02*
X151177945Y-78704209D01*
X151177945Y-78704209D02*
X151177945Y-78561352D01*
X151177945Y-78561352D02*
X151130326Y-78370876D01*
X151130326Y-78370876D02*
X151082707Y-78275638D01*
X151082707Y-78275638D02*
X150987469Y-78180400D01*
X150987469Y-78180400D02*
X150844612Y-78132780D01*
X150844612Y-78132780D02*
X150749374Y-78132780D01*
X150749374Y-78132780D02*
X150606517Y-78180400D01*
X150606517Y-78180400D02*
X150558898Y-78228019D01*
X150558898Y-78228019D02*
X150558898Y-78561352D01*
X150558898Y-78561352D02*
X150749374Y-78561352D01*
X150130326Y-78132780D02*
X150130326Y-79132780D01*
X150130326Y-79132780D02*
X149558898Y-78132780D01*
X149558898Y-78132780D02*
X149558898Y-79132780D01*
X149082707Y-78132780D02*
X149082707Y-79132780D01*
X149082707Y-79132780D02*
X148844612Y-79132780D01*
X148844612Y-79132780D02*
X148701755Y-79085161D01*
X148701755Y-79085161D02*
X148606517Y-78989923D01*
X148606517Y-78989923D02*
X148558898Y-78894685D01*
X148558898Y-78894685D02*
X148511279Y-78704209D01*
X148511279Y-78704209D02*
X148511279Y-78561352D01*
X148511279Y-78561352D02*
X148558898Y-78370876D01*
X148558898Y-78370876D02*
X148606517Y-78275638D01*
X148606517Y-78275638D02*
X148701755Y-78180400D01*
X148701755Y-78180400D02*
X148844612Y-78132780D01*
X148844612Y-78132780D02*
X149082707Y-78132780D01*
X148320803Y-78037542D02*
X147558898Y-78037542D01*
X147463659Y-79132780D02*
X146892231Y-79132780D01*
X147177945Y-78132780D02*
X147177945Y-79132780D01*
X146368421Y-79132780D02*
X146177945Y-79132780D01*
X146177945Y-79132780D02*
X146082707Y-79085161D01*
X146082707Y-79085161D02*
X145987469Y-78989923D01*
X145987469Y-78989923D02*
X145939850Y-78799447D01*
X145939850Y-78799447D02*
X145939850Y-78466114D01*
X145939850Y-78466114D02*
X145987469Y-78275638D01*
X145987469Y-78275638D02*
X146082707Y-78180400D01*
X146082707Y-78180400D02*
X146177945Y-78132780D01*
X146177945Y-78132780D02*
X146368421Y-78132780D01*
X146368421Y-78132780D02*
X146463659Y-78180400D01*
X146463659Y-78180400D02*
X146558897Y-78275638D01*
X146558897Y-78275638D02*
X146606516Y-78466114D01*
X146606516Y-78466114D02*
X146606516Y-78799447D01*
X146606516Y-78799447D02*
X146558897Y-78989923D01*
X146558897Y-78989923D02*
X146463659Y-79085161D01*
X146463659Y-79085161D02*
X146368421Y-79132780D01*
X145273183Y-81132780D02*
X144701755Y-81132780D01*
X144987469Y-80132780D02*
X144987469Y-81132780D01*
X144177945Y-81132780D02*
X143987469Y-81132780D01*
X143987469Y-81132780D02*
X143892231Y-81085161D01*
X143892231Y-81085161D02*
X143796993Y-80989923D01*
X143796993Y-80989923D02*
X143749374Y-80799447D01*
X143749374Y-80799447D02*
X143749374Y-80466114D01*
X143749374Y-80466114D02*
X143796993Y-80275638D01*
X143796993Y-80275638D02*
X143892231Y-80180400D01*
X143892231Y-80180400D02*
X143987469Y-80132780D01*
X143987469Y-80132780D02*
X144177945Y-80132780D01*
X144177945Y-80132780D02*
X144273183Y-80180400D01*
X144273183Y-80180400D02*
X144368421Y-80275638D01*
X144368421Y-80275638D02*
X144416040Y-80466114D01*
X144416040Y-80466114D02*
X144416040Y-80799447D01*
X144416040Y-80799447D02*
X144368421Y-80989923D01*
X144368421Y-80989923D02*
X144273183Y-81085161D01*
X144273183Y-81085161D02*
X144177945Y-81132780D01*
X143558898Y-80037542D02*
X142796993Y-80037542D01*
X142701754Y-81132780D02*
X142130326Y-81132780D01*
X142416040Y-80132780D02*
X142416040Y-81132780D01*
X141225564Y-80132780D02*
X141558897Y-80608971D01*
X141796992Y-80132780D02*
X141796992Y-81132780D01*
X141796992Y-81132780D02*
X141416040Y-81132780D01*
X141416040Y-81132780D02*
X141320802Y-81085161D01*
X141320802Y-81085161D02*
X141273183Y-81037542D01*
X141273183Y-81037542D02*
X141225564Y-80942304D01*
X141225564Y-80942304D02*
X141225564Y-80799447D01*
X141225564Y-80799447D02*
X141273183Y-80704209D01*
X141273183Y-80704209D02*
X141320802Y-80656590D01*
X141320802Y-80656590D02*
X141416040Y-80608971D01*
X141416040Y-80608971D02*
X141796992Y-80608971D01*
X140892230Y-81132780D02*
X140225564Y-80132780D01*
X140225564Y-81132780D02*
X140892230Y-80132780D01*
X153203006Y-103343409D02*
X152869673Y-103343409D01*
X152869673Y-103867219D02*
X152869673Y-102867219D01*
X152869673Y-102867219D02*
X153345863Y-102867219D01*
X154298244Y-103867219D02*
X153964911Y-103391028D01*
X153726816Y-103867219D02*
X153726816Y-102867219D01*
X153726816Y-102867219D02*
X154107768Y-102867219D01*
X154107768Y-102867219D02*
X154203006Y-102914838D01*
X154203006Y-102914838D02*
X154250625Y-102962457D01*
X154250625Y-102962457D02*
X154298244Y-103057695D01*
X154298244Y-103057695D02*
X154298244Y-103200552D01*
X154298244Y-103200552D02*
X154250625Y-103295790D01*
X154250625Y-103295790D02*
X154203006Y-103343409D01*
X154203006Y-103343409D02*
X154107768Y-103391028D01*
X154107768Y-103391028D02*
X153726816Y-103391028D01*
X154917292Y-102867219D02*
X155107768Y-102867219D01*
X155107768Y-102867219D02*
X155203006Y-102914838D01*
X155203006Y-102914838D02*
X155298244Y-103010076D01*
X155298244Y-103010076D02*
X155345863Y-103200552D01*
X155345863Y-103200552D02*
X155345863Y-103533885D01*
X155345863Y-103533885D02*
X155298244Y-103724361D01*
X155298244Y-103724361D02*
X155203006Y-103819600D01*
X155203006Y-103819600D02*
X155107768Y-103867219D01*
X155107768Y-103867219D02*
X154917292Y-103867219D01*
X154917292Y-103867219D02*
X154822054Y-103819600D01*
X154822054Y-103819600D02*
X154726816Y-103724361D01*
X154726816Y-103724361D02*
X154679197Y-103533885D01*
X154679197Y-103533885D02*
X154679197Y-103200552D01*
X154679197Y-103200552D02*
X154726816Y-103010076D01*
X154726816Y-103010076D02*
X154822054Y-102914838D01*
X154822054Y-102914838D02*
X154917292Y-102867219D01*
X155774435Y-103867219D02*
X155774435Y-102867219D01*
X155774435Y-102867219D02*
X156107768Y-103581504D01*
X156107768Y-103581504D02*
X156441101Y-102867219D01*
X156441101Y-102867219D02*
X156441101Y-103867219D01*
X156679197Y-103962457D02*
X157441101Y-103962457D01*
X157679197Y-103867219D02*
X157679197Y-102867219D01*
X157679197Y-102867219D02*
X158060149Y-102867219D01*
X158060149Y-102867219D02*
X158155387Y-102914838D01*
X158155387Y-102914838D02*
X158203006Y-102962457D01*
X158203006Y-102962457D02*
X158250625Y-103057695D01*
X158250625Y-103057695D02*
X158250625Y-103200552D01*
X158250625Y-103200552D02*
X158203006Y-103295790D01*
X158203006Y-103295790D02*
X158155387Y-103343409D01*
X158155387Y-103343409D02*
X158060149Y-103391028D01*
X158060149Y-103391028D02*
X157679197Y-103391028D01*
X159250625Y-103771980D02*
X159203006Y-103819600D01*
X159203006Y-103819600D02*
X159060149Y-103867219D01*
X159060149Y-103867219D02*
X158964911Y-103867219D01*
X158964911Y-103867219D02*
X158822054Y-103819600D01*
X158822054Y-103819600D02*
X158726816Y-103724361D01*
X158726816Y-103724361D02*
X158679197Y-103629123D01*
X158679197Y-103629123D02*
X158631578Y-103438647D01*
X158631578Y-103438647D02*
X158631578Y-103295790D01*
X158631578Y-103295790D02*
X158679197Y-103105314D01*
X158679197Y-103105314D02*
X158726816Y-103010076D01*
X158726816Y-103010076D02*
X158822054Y-102914838D01*
X158822054Y-102914838D02*
X158964911Y-102867219D01*
X158964911Y-102867219D02*
X159060149Y-102867219D01*
X159060149Y-102867219D02*
X159203006Y-102914838D01*
X159203006Y-102914838D02*
X159250625Y-102962457D01*
X182734673Y-111700552D02*
X182734673Y-112700552D01*
X182734673Y-111748171D02*
X182829911Y-111700552D01*
X182829911Y-111700552D02*
X183020387Y-111700552D01*
X183020387Y-111700552D02*
X183115625Y-111748171D01*
X183115625Y-111748171D02*
X183163244Y-111795790D01*
X183163244Y-111795790D02*
X183210863Y-111891028D01*
X183210863Y-111891028D02*
X183210863Y-112176742D01*
X183210863Y-112176742D02*
X183163244Y-112271980D01*
X183163244Y-112271980D02*
X183115625Y-112319600D01*
X183115625Y-112319600D02*
X183020387Y-112367219D01*
X183020387Y-112367219D02*
X182829911Y-112367219D01*
X182829911Y-112367219D02*
X182734673Y-112319600D01*
X183496578Y-111700552D02*
X183877530Y-111700552D01*
X183639435Y-111367219D02*
X183639435Y-112224361D01*
X183639435Y-112224361D02*
X183687054Y-112319600D01*
X183687054Y-112319600D02*
X183782292Y-112367219D01*
X183782292Y-112367219D02*
X183877530Y-112367219D01*
X184068007Y-111700552D02*
X184448959Y-111700552D01*
X184210864Y-111367219D02*
X184210864Y-112224361D01*
X184210864Y-112224361D02*
X184258483Y-112319600D01*
X184258483Y-112319600D02*
X184353721Y-112367219D01*
X184353721Y-112367219D02*
X184448959Y-112367219D01*
X141226816Y-102867219D02*
X141798244Y-102867219D01*
X141512530Y-103867219D02*
X141512530Y-102867219D01*
X142322054Y-102867219D02*
X142512530Y-102867219D01*
X142512530Y-102867219D02*
X142607768Y-102914838D01*
X142607768Y-102914838D02*
X142703006Y-103010076D01*
X142703006Y-103010076D02*
X142750625Y-103200552D01*
X142750625Y-103200552D02*
X142750625Y-103533885D01*
X142750625Y-103533885D02*
X142703006Y-103724361D01*
X142703006Y-103724361D02*
X142607768Y-103819600D01*
X142607768Y-103819600D02*
X142512530Y-103867219D01*
X142512530Y-103867219D02*
X142322054Y-103867219D01*
X142322054Y-103867219D02*
X142226816Y-103819600D01*
X142226816Y-103819600D02*
X142131578Y-103724361D01*
X142131578Y-103724361D02*
X142083959Y-103533885D01*
X142083959Y-103533885D02*
X142083959Y-103200552D01*
X142083959Y-103200552D02*
X142131578Y-103010076D01*
X142131578Y-103010076D02*
X142226816Y-102914838D01*
X142226816Y-102914838D02*
X142322054Y-102867219D01*
X142941102Y-103962457D02*
X143703006Y-103962457D01*
X143941102Y-103867219D02*
X143941102Y-102867219D01*
X143941102Y-102867219D02*
X144322054Y-102867219D01*
X144322054Y-102867219D02*
X144417292Y-102914838D01*
X144417292Y-102914838D02*
X144464911Y-102962457D01*
X144464911Y-102962457D02*
X144512530Y-103057695D01*
X144512530Y-103057695D02*
X144512530Y-103200552D01*
X144512530Y-103200552D02*
X144464911Y-103295790D01*
X144464911Y-103295790D02*
X144417292Y-103343409D01*
X144417292Y-103343409D02*
X144322054Y-103391028D01*
X144322054Y-103391028D02*
X143941102Y-103391028D01*
X145512530Y-103771980D02*
X145464911Y-103819600D01*
X145464911Y-103819600D02*
X145322054Y-103867219D01*
X145322054Y-103867219D02*
X145226816Y-103867219D01*
X145226816Y-103867219D02*
X145083959Y-103819600D01*
X145083959Y-103819600D02*
X144988721Y-103724361D01*
X144988721Y-103724361D02*
X144941102Y-103629123D01*
X144941102Y-103629123D02*
X144893483Y-103438647D01*
X144893483Y-103438647D02*
X144893483Y-103295790D01*
X144893483Y-103295790D02*
X144941102Y-103105314D01*
X144941102Y-103105314D02*
X144988721Y-103010076D01*
X144988721Y-103010076D02*
X145083959Y-102914838D01*
X145083959Y-102914838D02*
X145226816Y-102867219D01*
X145226816Y-102867219D02*
X145322054Y-102867219D01*
X145322054Y-102867219D02*
X145464911Y-102914838D01*
X145464911Y-102914838D02*
X145512530Y-102962457D01*
D11*
X202353940Y-83964787D02*
X201830131Y-84331454D01*
X202353940Y-84593359D02*
X201253940Y-84593359D01*
X201253940Y-84593359D02*
X201253940Y-84174311D01*
X201253940Y-84174311D02*
X201306321Y-84069549D01*
X201306321Y-84069549D02*
X201358702Y-84017168D01*
X201358702Y-84017168D02*
X201463464Y-83964787D01*
X201463464Y-83964787D02*
X201620607Y-83964787D01*
X201620607Y-83964787D02*
X201725369Y-84017168D01*
X201725369Y-84017168D02*
X201777750Y-84069549D01*
X201777750Y-84069549D02*
X201830131Y-84174311D01*
X201830131Y-84174311D02*
X201830131Y-84593359D01*
X201253940Y-83598121D02*
X202353940Y-82864787D01*
X201253940Y-82864787D02*
X202353940Y-83598121D01*
X202353940Y-82445740D02*
X201253940Y-82445740D01*
X201253940Y-82445740D02*
X201253940Y-82183835D01*
X201253940Y-82183835D02*
X201306321Y-82026692D01*
X201306321Y-82026692D02*
X201411083Y-81921930D01*
X201411083Y-81921930D02*
X201515845Y-81869549D01*
X201515845Y-81869549D02*
X201725369Y-81817168D01*
X201725369Y-81817168D02*
X201882512Y-81817168D01*
X201882512Y-81817168D02*
X202092036Y-81869549D01*
X202092036Y-81869549D02*
X202196798Y-81921930D01*
X202196798Y-81921930D02*
X202301560Y-82026692D01*
X202301560Y-82026692D02*
X202353940Y-82183835D01*
X202353940Y-82183835D02*
X202353940Y-82445740D01*
D12*
X161796993Y-78656590D02*
X162130326Y-78656590D01*
X162130326Y-78132780D02*
X162130326Y-79132780D01*
X162130326Y-79132780D02*
X161654136Y-79132780D01*
X160701755Y-78132780D02*
X161035088Y-78608971D01*
X161273183Y-78132780D02*
X161273183Y-79132780D01*
X161273183Y-79132780D02*
X160892231Y-79132780D01*
X160892231Y-79132780D02*
X160796993Y-79085161D01*
X160796993Y-79085161D02*
X160749374Y-79037542D01*
X160749374Y-79037542D02*
X160701755Y-78942304D01*
X160701755Y-78942304D02*
X160701755Y-78799447D01*
X160701755Y-78799447D02*
X160749374Y-78704209D01*
X160749374Y-78704209D02*
X160796993Y-78656590D01*
X160796993Y-78656590D02*
X160892231Y-78608971D01*
X160892231Y-78608971D02*
X161273183Y-78608971D01*
X160082707Y-79132780D02*
X159892231Y-79132780D01*
X159892231Y-79132780D02*
X159796993Y-79085161D01*
X159796993Y-79085161D02*
X159701755Y-78989923D01*
X159701755Y-78989923D02*
X159654136Y-78799447D01*
X159654136Y-78799447D02*
X159654136Y-78466114D01*
X159654136Y-78466114D02*
X159701755Y-78275638D01*
X159701755Y-78275638D02*
X159796993Y-78180400D01*
X159796993Y-78180400D02*
X159892231Y-78132780D01*
X159892231Y-78132780D02*
X160082707Y-78132780D01*
X160082707Y-78132780D02*
X160177945Y-78180400D01*
X160177945Y-78180400D02*
X160273183Y-78275638D01*
X160273183Y-78275638D02*
X160320802Y-78466114D01*
X160320802Y-78466114D02*
X160320802Y-78799447D01*
X160320802Y-78799447D02*
X160273183Y-78989923D01*
X160273183Y-78989923D02*
X160177945Y-79085161D01*
X160177945Y-79085161D02*
X160082707Y-79132780D01*
X159225564Y-78132780D02*
X159225564Y-79132780D01*
X159225564Y-79132780D02*
X158892231Y-78418495D01*
X158892231Y-78418495D02*
X158558898Y-79132780D01*
X158558898Y-79132780D02*
X158558898Y-78132780D01*
X158320803Y-78037542D02*
X157558898Y-78037542D01*
X157463659Y-79132780D02*
X156892231Y-79132780D01*
X157177945Y-78132780D02*
X157177945Y-79132780D01*
X155987469Y-78132780D02*
X156320802Y-78608971D01*
X156558897Y-78132780D02*
X156558897Y-79132780D01*
X156558897Y-79132780D02*
X156177945Y-79132780D01*
X156177945Y-79132780D02*
X156082707Y-79085161D01*
X156082707Y-79085161D02*
X156035088Y-79037542D01*
X156035088Y-79037542D02*
X155987469Y-78942304D01*
X155987469Y-78942304D02*
X155987469Y-78799447D01*
X155987469Y-78799447D02*
X156035088Y-78704209D01*
X156035088Y-78704209D02*
X156082707Y-78656590D01*
X156082707Y-78656590D02*
X156177945Y-78608971D01*
X156177945Y-78608971D02*
X156558897Y-78608971D01*
X155654135Y-79132780D02*
X154987469Y-78132780D01*
X154987469Y-79132780D02*
X155654135Y-78132780D01*
X165369673Y-113367219D02*
X165369673Y-112367219D01*
X165798244Y-113367219D02*
X165798244Y-112843409D01*
X165798244Y-112843409D02*
X165750625Y-112748171D01*
X165750625Y-112748171D02*
X165655387Y-112700552D01*
X165655387Y-112700552D02*
X165512530Y-112700552D01*
X165512530Y-112700552D02*
X165417292Y-112748171D01*
X165417292Y-112748171D02*
X165369673Y-112795790D01*
X166131578Y-112700552D02*
X166512530Y-112700552D01*
X166274435Y-112367219D02*
X166274435Y-113224361D01*
X166274435Y-113224361D02*
X166322054Y-113319600D01*
X166322054Y-113319600D02*
X166417292Y-113367219D01*
X166417292Y-113367219D02*
X166512530Y-113367219D01*
X166703007Y-112700552D02*
X167083959Y-112700552D01*
X166845864Y-112367219D02*
X166845864Y-113224361D01*
X166845864Y-113224361D02*
X166893483Y-113319600D01*
X166893483Y-113319600D02*
X166988721Y-113367219D01*
X166988721Y-113367219D02*
X167083959Y-113367219D01*
X167417293Y-112700552D02*
X167417293Y-113700552D01*
X167417293Y-112748171D02*
X167512531Y-112700552D01*
X167512531Y-112700552D02*
X167703007Y-112700552D01*
X167703007Y-112700552D02*
X167798245Y-112748171D01*
X167798245Y-112748171D02*
X167845864Y-112795790D01*
X167845864Y-112795790D02*
X167893483Y-112891028D01*
X167893483Y-112891028D02*
X167893483Y-113176742D01*
X167893483Y-113176742D02*
X167845864Y-113271980D01*
X167845864Y-113271980D02*
X167798245Y-113319600D01*
X167798245Y-113319600D02*
X167703007Y-113367219D01*
X167703007Y-113367219D02*
X167512531Y-113367219D01*
X167512531Y-113367219D02*
X167417293Y-113319600D01*
X168274436Y-113319600D02*
X168369674Y-113367219D01*
X168369674Y-113367219D02*
X168560150Y-113367219D01*
X168560150Y-113367219D02*
X168655388Y-113319600D01*
X168655388Y-113319600D02*
X168703007Y-113224361D01*
X168703007Y-113224361D02*
X168703007Y-113176742D01*
X168703007Y-113176742D02*
X168655388Y-113081504D01*
X168655388Y-113081504D02*
X168560150Y-113033885D01*
X168560150Y-113033885D02*
X168417293Y-113033885D01*
X168417293Y-113033885D02*
X168322055Y-112986266D01*
X168322055Y-112986266D02*
X168274436Y-112891028D01*
X168274436Y-112891028D02*
X168274436Y-112843409D01*
X168274436Y-112843409D02*
X168322055Y-112748171D01*
X168322055Y-112748171D02*
X168417293Y-112700552D01*
X168417293Y-112700552D02*
X168560150Y-112700552D01*
X168560150Y-112700552D02*
X168655388Y-112748171D01*
X169131579Y-113271980D02*
X169179198Y-113319600D01*
X169179198Y-113319600D02*
X169131579Y-113367219D01*
X169131579Y-113367219D02*
X169083960Y-113319600D01*
X169083960Y-113319600D02*
X169131579Y-113271980D01*
X169131579Y-113271980D02*
X169131579Y-113367219D01*
X169131579Y-112748171D02*
X169179198Y-112795790D01*
X169179198Y-112795790D02*
X169131579Y-112843409D01*
X169131579Y-112843409D02*
X169083960Y-112795790D01*
X169083960Y-112795790D02*
X169131579Y-112748171D01*
X169131579Y-112748171D02*
X169131579Y-112843409D01*
X170322054Y-112319600D02*
X169464912Y-113605314D01*
X171369673Y-112319600D02*
X170512531Y-113605314D01*
X171703007Y-113367219D02*
X171703007Y-112700552D01*
X171703007Y-112891028D02*
X171750626Y-112795790D01*
X171750626Y-112795790D02*
X171798245Y-112748171D01*
X171798245Y-112748171D02*
X171893483Y-112700552D01*
X171893483Y-112700552D02*
X171988721Y-112700552D01*
X172750626Y-113367219D02*
X172750626Y-112843409D01*
X172750626Y-112843409D02*
X172703007Y-112748171D01*
X172703007Y-112748171D02*
X172607769Y-112700552D01*
X172607769Y-112700552D02*
X172417293Y-112700552D01*
X172417293Y-112700552D02*
X172322055Y-112748171D01*
X172750626Y-113319600D02*
X172655388Y-113367219D01*
X172655388Y-113367219D02*
X172417293Y-113367219D01*
X172417293Y-113367219D02*
X172322055Y-113319600D01*
X172322055Y-113319600D02*
X172274436Y-113224361D01*
X172274436Y-113224361D02*
X172274436Y-113129123D01*
X172274436Y-113129123D02*
X172322055Y-113033885D01*
X172322055Y-113033885D02*
X172417293Y-112986266D01*
X172417293Y-112986266D02*
X172655388Y-112986266D01*
X172655388Y-112986266D02*
X172750626Y-112938647D01*
X173417293Y-112367219D02*
X173512531Y-112367219D01*
X173512531Y-112367219D02*
X173607769Y-112414838D01*
X173607769Y-112414838D02*
X173655388Y-112462457D01*
X173655388Y-112462457D02*
X173703007Y-112557695D01*
X173703007Y-112557695D02*
X173750626Y-112748171D01*
X173750626Y-112748171D02*
X173750626Y-112986266D01*
X173750626Y-112986266D02*
X173703007Y-113176742D01*
X173703007Y-113176742D02*
X173655388Y-113271980D01*
X173655388Y-113271980D02*
X173607769Y-113319600D01*
X173607769Y-113319600D02*
X173512531Y-113367219D01*
X173512531Y-113367219D02*
X173417293Y-113367219D01*
X173417293Y-113367219D02*
X173322055Y-113319600D01*
X173322055Y-113319600D02*
X173274436Y-113271980D01*
X173274436Y-113271980D02*
X173226817Y-113176742D01*
X173226817Y-113176742D02*
X173179198Y-112986266D01*
X173179198Y-112986266D02*
X173179198Y-112748171D01*
X173179198Y-112748171D02*
X173226817Y-112557695D01*
X173226817Y-112557695D02*
X173274436Y-112462457D01*
X173274436Y-112462457D02*
X173322055Y-112414838D01*
X173322055Y-112414838D02*
X173417293Y-112367219D01*
X174131579Y-113319600D02*
X174226817Y-113367219D01*
X174226817Y-113367219D02*
X174417293Y-113367219D01*
X174417293Y-113367219D02*
X174512531Y-113319600D01*
X174512531Y-113319600D02*
X174560150Y-113224361D01*
X174560150Y-113224361D02*
X174560150Y-113176742D01*
X174560150Y-113176742D02*
X174512531Y-113081504D01*
X174512531Y-113081504D02*
X174417293Y-113033885D01*
X174417293Y-113033885D02*
X174274436Y-113033885D01*
X174274436Y-113033885D02*
X174179198Y-112986266D01*
X174179198Y-112986266D02*
X174131579Y-112891028D01*
X174131579Y-112891028D02*
X174131579Y-112843409D01*
X174131579Y-112843409D02*
X174179198Y-112748171D01*
X174179198Y-112748171D02*
X174274436Y-112700552D01*
X174274436Y-112700552D02*
X174417293Y-112700552D01*
X174417293Y-112700552D02*
X174512531Y-112748171D01*
X174988722Y-113367219D02*
X174988722Y-112700552D01*
X174988722Y-112795790D02*
X175036341Y-112748171D01*
X175036341Y-112748171D02*
X175131579Y-112700552D01*
X175131579Y-112700552D02*
X175274436Y-112700552D01*
X175274436Y-112700552D02*
X175369674Y-112748171D01*
X175369674Y-112748171D02*
X175417293Y-112843409D01*
X175417293Y-112843409D02*
X175417293Y-113367219D01*
X175417293Y-112843409D02*
X175464912Y-112748171D01*
X175464912Y-112748171D02*
X175560150Y-112700552D01*
X175560150Y-112700552D02*
X175703007Y-112700552D01*
X175703007Y-112700552D02*
X175798246Y-112748171D01*
X175798246Y-112748171D02*
X175845865Y-112843409D01*
X175845865Y-112843409D02*
X175845865Y-113367219D01*
X176274436Y-113319600D02*
X176369674Y-113367219D01*
X176369674Y-113367219D02*
X176560150Y-113367219D01*
X176560150Y-113367219D02*
X176655388Y-113319600D01*
X176655388Y-113319600D02*
X176703007Y-113224361D01*
X176703007Y-113224361D02*
X176703007Y-113176742D01*
X176703007Y-113176742D02*
X176655388Y-113081504D01*
X176655388Y-113081504D02*
X176560150Y-113033885D01*
X176560150Y-113033885D02*
X176417293Y-113033885D01*
X176417293Y-113033885D02*
X176322055Y-112986266D01*
X176322055Y-112986266D02*
X176274436Y-112891028D01*
X176274436Y-112891028D02*
X176274436Y-112843409D01*
X176274436Y-112843409D02*
X176322055Y-112748171D01*
X176322055Y-112748171D02*
X176417293Y-112700552D01*
X176417293Y-112700552D02*
X176560150Y-112700552D01*
X176560150Y-112700552D02*
X176655388Y-112748171D01*
X177131579Y-113271980D02*
X177179198Y-113319600D01*
X177179198Y-113319600D02*
X177131579Y-113367219D01*
X177131579Y-113367219D02*
X177083960Y-113319600D01*
X177083960Y-113319600D02*
X177131579Y-113271980D01*
X177131579Y-113271980D02*
X177131579Y-113367219D01*
X178036340Y-113319600D02*
X177941102Y-113367219D01*
X177941102Y-113367219D02*
X177750626Y-113367219D01*
X177750626Y-113367219D02*
X177655388Y-113319600D01*
X177655388Y-113319600D02*
X177607769Y-113271980D01*
X177607769Y-113271980D02*
X177560150Y-113176742D01*
X177560150Y-113176742D02*
X177560150Y-112891028D01*
X177560150Y-112891028D02*
X177607769Y-112795790D01*
X177607769Y-112795790D02*
X177655388Y-112748171D01*
X177655388Y-112748171D02*
X177750626Y-112700552D01*
X177750626Y-112700552D02*
X177941102Y-112700552D01*
X177941102Y-112700552D02*
X178036340Y-112748171D01*
X178607769Y-113367219D02*
X178512531Y-113319600D01*
X178512531Y-113319600D02*
X178464912Y-113271980D01*
X178464912Y-113271980D02*
X178417293Y-113176742D01*
X178417293Y-113176742D02*
X178417293Y-112891028D01*
X178417293Y-112891028D02*
X178464912Y-112795790D01*
X178464912Y-112795790D02*
X178512531Y-112748171D01*
X178512531Y-112748171D02*
X178607769Y-112700552D01*
X178607769Y-112700552D02*
X178750626Y-112700552D01*
X178750626Y-112700552D02*
X178845864Y-112748171D01*
X178845864Y-112748171D02*
X178893483Y-112795790D01*
X178893483Y-112795790D02*
X178941102Y-112891028D01*
X178941102Y-112891028D02*
X178941102Y-113176742D01*
X178941102Y-113176742D02*
X178893483Y-113271980D01*
X178893483Y-113271980D02*
X178845864Y-113319600D01*
X178845864Y-113319600D02*
X178750626Y-113367219D01*
X178750626Y-113367219D02*
X178607769Y-113367219D01*
X179369674Y-113367219D02*
X179369674Y-112700552D01*
X179369674Y-112795790D02*
X179417293Y-112748171D01*
X179417293Y-112748171D02*
X179512531Y-112700552D01*
X179512531Y-112700552D02*
X179655388Y-112700552D01*
X179655388Y-112700552D02*
X179750626Y-112748171D01*
X179750626Y-112748171D02*
X179798245Y-112843409D01*
X179798245Y-112843409D02*
X179798245Y-113367219D01*
X179798245Y-112843409D02*
X179845864Y-112748171D01*
X179845864Y-112748171D02*
X179941102Y-112700552D01*
X179941102Y-112700552D02*
X180083959Y-112700552D01*
X180083959Y-112700552D02*
X180179198Y-112748171D01*
X180179198Y-112748171D02*
X180226817Y-112843409D01*
X180226817Y-112843409D02*
X180226817Y-113367219D01*
X176189688Y-94346621D02*
X176570640Y-94346621D01*
X176332545Y-94013288D02*
X176332545Y-94870430D01*
X176332545Y-94870430D02*
X176380164Y-94965669D01*
X176380164Y-94965669D02*
X176475402Y-95013288D01*
X176475402Y-95013288D02*
X176570640Y-95013288D01*
X177046831Y-95013288D02*
X176951593Y-94965669D01*
X176951593Y-94965669D02*
X176903974Y-94918049D01*
X176903974Y-94918049D02*
X176856355Y-94822811D01*
X176856355Y-94822811D02*
X176856355Y-94537097D01*
X176856355Y-94537097D02*
X176903974Y-94441859D01*
X176903974Y-94441859D02*
X176951593Y-94394240D01*
X176951593Y-94394240D02*
X177046831Y-94346621D01*
X177046831Y-94346621D02*
X177189688Y-94346621D01*
X177189688Y-94346621D02*
X177284926Y-94394240D01*
X177284926Y-94394240D02*
X177332545Y-94441859D01*
X177332545Y-94441859D02*
X177380164Y-94537097D01*
X177380164Y-94537097D02*
X177380164Y-94822811D01*
X177380164Y-94822811D02*
X177332545Y-94918049D01*
X177332545Y-94918049D02*
X177284926Y-94965669D01*
X177284926Y-94965669D02*
X177189688Y-95013288D01*
X177189688Y-95013288D02*
X177046831Y-95013288D01*
X177570641Y-95108526D02*
X178332545Y-95108526D01*
X178570641Y-94346621D02*
X178570641Y-95346621D01*
X178570641Y-94394240D02*
X178665879Y-94346621D01*
X178665879Y-94346621D02*
X178856355Y-94346621D01*
X178856355Y-94346621D02*
X178951593Y-94394240D01*
X178951593Y-94394240D02*
X178999212Y-94441859D01*
X178999212Y-94441859D02*
X179046831Y-94537097D01*
X179046831Y-94537097D02*
X179046831Y-94822811D01*
X179046831Y-94822811D02*
X178999212Y-94918049D01*
X178999212Y-94918049D02*
X178951593Y-94965669D01*
X178951593Y-94965669D02*
X178856355Y-95013288D01*
X178856355Y-95013288D02*
X178665879Y-95013288D01*
X178665879Y-95013288D02*
X178570641Y-94965669D01*
X179903974Y-94965669D02*
X179808736Y-95013288D01*
X179808736Y-95013288D02*
X179618260Y-95013288D01*
X179618260Y-95013288D02*
X179523022Y-94965669D01*
X179523022Y-94965669D02*
X179475403Y-94918049D01*
X179475403Y-94918049D02*
X179427784Y-94822811D01*
X179427784Y-94822811D02*
X179427784Y-94537097D01*
X179427784Y-94537097D02*
X179475403Y-94441859D01*
X179475403Y-94441859D02*
X179523022Y-94394240D01*
X179523022Y-94394240D02*
X179618260Y-94346621D01*
X179618260Y-94346621D02*
X179808736Y-94346621D01*
X179808736Y-94346621D02*
X179903974Y-94394240D01*
D11*
X148482831Y-102806321D02*
X148378069Y-102753940D01*
X148378069Y-102753940D02*
X148220926Y-102753940D01*
X148220926Y-102753940D02*
X148063783Y-102806321D01*
X148063783Y-102806321D02*
X147959021Y-102911083D01*
X147959021Y-102911083D02*
X147906640Y-103015845D01*
X147906640Y-103015845D02*
X147854259Y-103225369D01*
X147854259Y-103225369D02*
X147854259Y-103382512D01*
X147854259Y-103382512D02*
X147906640Y-103592036D01*
X147906640Y-103592036D02*
X147959021Y-103696798D01*
X147959021Y-103696798D02*
X148063783Y-103801560D01*
X148063783Y-103801560D02*
X148220926Y-103853940D01*
X148220926Y-103853940D02*
X148325688Y-103853940D01*
X148325688Y-103853940D02*
X148482831Y-103801560D01*
X148482831Y-103801560D02*
X148535212Y-103749179D01*
X148535212Y-103749179D02*
X148535212Y-103382512D01*
X148535212Y-103382512D02*
X148325688Y-103382512D01*
X149006640Y-103853940D02*
X149006640Y-102753940D01*
X149006640Y-102753940D02*
X149635212Y-103853940D01*
X149635212Y-103853940D02*
X149635212Y-102753940D01*
X150159021Y-103853940D02*
X150159021Y-102753940D01*
X150159021Y-102753940D02*
X150420926Y-102753940D01*
X150420926Y-102753940D02*
X150578069Y-102806321D01*
X150578069Y-102806321D02*
X150682831Y-102911083D01*
X150682831Y-102911083D02*
X150735212Y-103015845D01*
X150735212Y-103015845D02*
X150787593Y-103225369D01*
X150787593Y-103225369D02*
X150787593Y-103382512D01*
X150787593Y-103382512D02*
X150735212Y-103592036D01*
X150735212Y-103592036D02*
X150682831Y-103696798D01*
X150682831Y-103696798D02*
X150578069Y-103801560D01*
X150578069Y-103801560D02*
X150420926Y-103853940D01*
X150420926Y-103853940D02*
X150159021Y-103853940D01*
D13*
X139357142Y-112954819D02*
X138785714Y-112954819D01*
X139071428Y-112954819D02*
X139071428Y-111954819D01*
X139071428Y-111954819D02*
X138976190Y-112097676D01*
X138976190Y-112097676D02*
X138880952Y-112192914D01*
X138880952Y-112192914D02*
X138785714Y-112240533D01*
X139976190Y-111954819D02*
X140071428Y-111954819D01*
X140071428Y-111954819D02*
X140166666Y-112002438D01*
X140166666Y-112002438D02*
X140214285Y-112050057D01*
X140214285Y-112050057D02*
X140261904Y-112145295D01*
X140261904Y-112145295D02*
X140309523Y-112335771D01*
X140309523Y-112335771D02*
X140309523Y-112573866D01*
X140309523Y-112573866D02*
X140261904Y-112764342D01*
X140261904Y-112764342D02*
X140214285Y-112859580D01*
X140214285Y-112859580D02*
X140166666Y-112907200D01*
X140166666Y-112907200D02*
X140071428Y-112954819D01*
X140071428Y-112954819D02*
X139976190Y-112954819D01*
X139976190Y-112954819D02*
X139880952Y-112907200D01*
X139880952Y-112907200D02*
X139833333Y-112859580D01*
X139833333Y-112859580D02*
X139785714Y-112764342D01*
X139785714Y-112764342D02*
X139738095Y-112573866D01*
X139738095Y-112573866D02*
X139738095Y-112335771D01*
X139738095Y-112335771D02*
X139785714Y-112145295D01*
X139785714Y-112145295D02*
X139833333Y-112050057D01*
X139833333Y-112050057D02*
X139880952Y-112002438D01*
X139880952Y-112002438D02*
X139976190Y-111954819D01*
X141166666Y-112288152D02*
X141166666Y-112954819D01*
X140738095Y-112288152D02*
X140738095Y-112811961D01*
X140738095Y-112811961D02*
X140785714Y-112907200D01*
X140785714Y-112907200D02*
X140880952Y-112954819D01*
X140880952Y-112954819D02*
X141023809Y-112954819D01*
X141023809Y-112954819D02*
X141119047Y-112907200D01*
X141119047Y-112907200D02*
X141166666Y-112859580D01*
X185380952Y-90922745D02*
X184809524Y-90922745D01*
X185095238Y-90922745D02*
X185095238Y-89922745D01*
X185095238Y-89922745D02*
X185000000Y-90065602D01*
X185000000Y-90065602D02*
X184904762Y-90160840D01*
X184904762Y-90160840D02*
X184809524Y-90208459D01*
X185809524Y-90922745D02*
X185809524Y-89922745D01*
X185904762Y-90541792D02*
X186190476Y-90922745D01*
X186190476Y-90256078D02*
X185809524Y-90637030D01*
X157761905Y-111550057D02*
X157809524Y-111502438D01*
X157809524Y-111502438D02*
X157904762Y-111454819D01*
X157904762Y-111454819D02*
X158142857Y-111454819D01*
X158142857Y-111454819D02*
X158238095Y-111502438D01*
X158238095Y-111502438D02*
X158285714Y-111550057D01*
X158285714Y-111550057D02*
X158333333Y-111645295D01*
X158333333Y-111645295D02*
X158333333Y-111740533D01*
X158333333Y-111740533D02*
X158285714Y-111883390D01*
X158285714Y-111883390D02*
X157714286Y-112454819D01*
X157714286Y-112454819D02*
X158333333Y-112454819D01*
X158714286Y-111550057D02*
X158761905Y-111502438D01*
X158761905Y-111502438D02*
X158857143Y-111454819D01*
X158857143Y-111454819D02*
X159095238Y-111454819D01*
X159095238Y-111454819D02*
X159190476Y-111502438D01*
X159190476Y-111502438D02*
X159238095Y-111550057D01*
X159238095Y-111550057D02*
X159285714Y-111645295D01*
X159285714Y-111645295D02*
X159285714Y-111740533D01*
X159285714Y-111740533D02*
X159238095Y-111883390D01*
X159238095Y-111883390D02*
X158666667Y-112454819D01*
X158666667Y-112454819D02*
X159285714Y-112454819D01*
X159904762Y-111454819D02*
X160000000Y-111454819D01*
X160000000Y-111454819D02*
X160095238Y-111502438D01*
X160095238Y-111502438D02*
X160142857Y-111550057D01*
X160142857Y-111550057D02*
X160190476Y-111645295D01*
X160190476Y-111645295D02*
X160238095Y-111835771D01*
X160238095Y-111835771D02*
X160238095Y-112073866D01*
X160238095Y-112073866D02*
X160190476Y-112264342D01*
X160190476Y-112264342D02*
X160142857Y-112359580D01*
X160142857Y-112359580D02*
X160095238Y-112407200D01*
X160095238Y-112407200D02*
X160000000Y-112454819D01*
X160000000Y-112454819D02*
X159904762Y-112454819D01*
X159904762Y-112454819D02*
X159809524Y-112407200D01*
X159809524Y-112407200D02*
X159761905Y-112359580D01*
X159761905Y-112359580D02*
X159714286Y-112264342D01*
X159714286Y-112264342D02*
X159666667Y-112073866D01*
X159666667Y-112073866D02*
X159666667Y-111835771D01*
X159666667Y-111835771D02*
X159714286Y-111645295D01*
X159714286Y-111645295D02*
X159761905Y-111550057D01*
X159761905Y-111550057D02*
X159809524Y-111502438D01*
X159809524Y-111502438D02*
X159904762Y-111454819D01*
X199357142Y-109454819D02*
X198785714Y-109454819D01*
X199071428Y-109454819D02*
X199071428Y-108454819D01*
X199071428Y-108454819D02*
X198976190Y-108597676D01*
X198976190Y-108597676D02*
X198880952Y-108692914D01*
X198880952Y-108692914D02*
X198785714Y-108740533D01*
X199976190Y-108454819D02*
X200071428Y-108454819D01*
X200071428Y-108454819D02*
X200166666Y-108502438D01*
X200166666Y-108502438D02*
X200214285Y-108550057D01*
X200214285Y-108550057D02*
X200261904Y-108645295D01*
X200261904Y-108645295D02*
X200309523Y-108835771D01*
X200309523Y-108835771D02*
X200309523Y-109073866D01*
X200309523Y-109073866D02*
X200261904Y-109264342D01*
X200261904Y-109264342D02*
X200214285Y-109359580D01*
X200214285Y-109359580D02*
X200166666Y-109407200D01*
X200166666Y-109407200D02*
X200071428Y-109454819D01*
X200071428Y-109454819D02*
X199976190Y-109454819D01*
X199976190Y-109454819D02*
X199880952Y-109407200D01*
X199880952Y-109407200D02*
X199833333Y-109359580D01*
X199833333Y-109359580D02*
X199785714Y-109264342D01*
X199785714Y-109264342D02*
X199738095Y-109073866D01*
X199738095Y-109073866D02*
X199738095Y-108835771D01*
X199738095Y-108835771D02*
X199785714Y-108645295D01*
X199785714Y-108645295D02*
X199833333Y-108550057D01*
X199833333Y-108550057D02*
X199880952Y-108502438D01*
X199880952Y-108502438D02*
X199976190Y-108454819D01*
X200738095Y-108788152D02*
X200738095Y-109454819D01*
X200738095Y-108883390D02*
X200785714Y-108835771D01*
X200785714Y-108835771D02*
X200880952Y-108788152D01*
X200880952Y-108788152D02*
X201023809Y-108788152D01*
X201023809Y-108788152D02*
X201119047Y-108835771D01*
X201119047Y-108835771D02*
X201166666Y-108931009D01*
X201166666Y-108931009D02*
X201166666Y-109454819D01*
X155761905Y-100380057D02*
X155809524Y-100332438D01*
X155809524Y-100332438D02*
X155904762Y-100284819D01*
X155904762Y-100284819D02*
X156142857Y-100284819D01*
X156142857Y-100284819D02*
X156238095Y-100332438D01*
X156238095Y-100332438D02*
X156285714Y-100380057D01*
X156285714Y-100380057D02*
X156333333Y-100475295D01*
X156333333Y-100475295D02*
X156333333Y-100570533D01*
X156333333Y-100570533D02*
X156285714Y-100713390D01*
X156285714Y-100713390D02*
X155714286Y-101284819D01*
X155714286Y-101284819D02*
X156333333Y-101284819D01*
X156714286Y-100380057D02*
X156761905Y-100332438D01*
X156761905Y-100332438D02*
X156857143Y-100284819D01*
X156857143Y-100284819D02*
X157095238Y-100284819D01*
X157095238Y-100284819D02*
X157190476Y-100332438D01*
X157190476Y-100332438D02*
X157238095Y-100380057D01*
X157238095Y-100380057D02*
X157285714Y-100475295D01*
X157285714Y-100475295D02*
X157285714Y-100570533D01*
X157285714Y-100570533D02*
X157238095Y-100713390D01*
X157238095Y-100713390D02*
X156666667Y-101284819D01*
X156666667Y-101284819D02*
X157285714Y-101284819D01*
X157904762Y-100284819D02*
X158000000Y-100284819D01*
X158000000Y-100284819D02*
X158095238Y-100332438D01*
X158095238Y-100332438D02*
X158142857Y-100380057D01*
X158142857Y-100380057D02*
X158190476Y-100475295D01*
X158190476Y-100475295D02*
X158238095Y-100665771D01*
X158238095Y-100665771D02*
X158238095Y-100903866D01*
X158238095Y-100903866D02*
X158190476Y-101094342D01*
X158190476Y-101094342D02*
X158142857Y-101189580D01*
X158142857Y-101189580D02*
X158095238Y-101237200D01*
X158095238Y-101237200D02*
X158000000Y-101284819D01*
X158000000Y-101284819D02*
X157904762Y-101284819D01*
X157904762Y-101284819D02*
X157809524Y-101237200D01*
X157809524Y-101237200D02*
X157761905Y-101189580D01*
X157761905Y-101189580D02*
X157714286Y-101094342D01*
X157714286Y-101094342D02*
X157666667Y-100903866D01*
X157666667Y-100903866D02*
X157666667Y-100665771D01*
X157666667Y-100665771D02*
X157714286Y-100475295D01*
X157714286Y-100475295D02*
X157761905Y-100380057D01*
X157761905Y-100380057D02*
X157809524Y-100332438D01*
X157809524Y-100332438D02*
X157904762Y-100284819D01*
X198190476Y-90954819D02*
X198809523Y-90954819D01*
X198809523Y-90954819D02*
X198476190Y-91335771D01*
X198476190Y-91335771D02*
X198619047Y-91335771D01*
X198619047Y-91335771D02*
X198714285Y-91383390D01*
X198714285Y-91383390D02*
X198761904Y-91431009D01*
X198761904Y-91431009D02*
X198809523Y-91526247D01*
X198809523Y-91526247D02*
X198809523Y-91764342D01*
X198809523Y-91764342D02*
X198761904Y-91859580D01*
X198761904Y-91859580D02*
X198714285Y-91907200D01*
X198714285Y-91907200D02*
X198619047Y-91954819D01*
X198619047Y-91954819D02*
X198333333Y-91954819D01*
X198333333Y-91954819D02*
X198238095Y-91907200D01*
X198238095Y-91907200D02*
X198190476Y-91859580D01*
X199142857Y-90954819D02*
X199761904Y-90954819D01*
X199761904Y-90954819D02*
X199428571Y-91335771D01*
X199428571Y-91335771D02*
X199571428Y-91335771D01*
X199571428Y-91335771D02*
X199666666Y-91383390D01*
X199666666Y-91383390D02*
X199714285Y-91431009D01*
X199714285Y-91431009D02*
X199761904Y-91526247D01*
X199761904Y-91526247D02*
X199761904Y-91764342D01*
X199761904Y-91764342D02*
X199714285Y-91859580D01*
X199714285Y-91859580D02*
X199666666Y-91907200D01*
X199666666Y-91907200D02*
X199571428Y-91954819D01*
X199571428Y-91954819D02*
X199285714Y-91954819D01*
X199285714Y-91954819D02*
X199190476Y-91907200D01*
X199190476Y-91907200D02*
X199142857Y-91859580D01*
X189714285Y-109788152D02*
X189714285Y-110454819D01*
X189476190Y-109407200D02*
X189238095Y-110121485D01*
X189238095Y-110121485D02*
X189857142Y-110121485D01*
X190238095Y-110454819D02*
X190238095Y-109454819D01*
X190238095Y-109454819D02*
X190809523Y-110454819D01*
X190809523Y-110454819D02*
X190809523Y-109454819D01*
X191190476Y-109454819D02*
X191809523Y-109454819D01*
X191809523Y-109454819D02*
X191476190Y-109835771D01*
X191476190Y-109835771D02*
X191619047Y-109835771D01*
X191619047Y-109835771D02*
X191714285Y-109883390D01*
X191714285Y-109883390D02*
X191761904Y-109931009D01*
X191761904Y-109931009D02*
X191809523Y-110026247D01*
X191809523Y-110026247D02*
X191809523Y-110264342D01*
X191809523Y-110264342D02*
X191761904Y-110359580D01*
X191761904Y-110359580D02*
X191714285Y-110407200D01*
X191714285Y-110407200D02*
X191619047Y-110454819D01*
X191619047Y-110454819D02*
X191333333Y-110454819D01*
X191333333Y-110454819D02*
X191238095Y-110407200D01*
X191238095Y-110407200D02*
X191190476Y-110359580D01*
X192714285Y-109454819D02*
X192238095Y-109454819D01*
X192238095Y-109454819D02*
X192190476Y-109931009D01*
X192190476Y-109931009D02*
X192238095Y-109883390D01*
X192238095Y-109883390D02*
X192333333Y-109835771D01*
X192333333Y-109835771D02*
X192571428Y-109835771D01*
X192571428Y-109835771D02*
X192666666Y-109883390D01*
X192666666Y-109883390D02*
X192714285Y-109931009D01*
X192714285Y-109931009D02*
X192761904Y-110026247D01*
X192761904Y-110026247D02*
X192761904Y-110264342D01*
X192761904Y-110264342D02*
X192714285Y-110359580D01*
X192714285Y-110359580D02*
X192666666Y-110407200D01*
X192666666Y-110407200D02*
X192571428Y-110454819D01*
X192571428Y-110454819D02*
X192333333Y-110454819D01*
X192333333Y-110454819D02*
X192238095Y-110407200D01*
X192238095Y-110407200D02*
X192190476Y-110359580D01*
X136380952Y-101954819D02*
X135809524Y-101954819D01*
X136095238Y-101954819D02*
X136095238Y-100954819D01*
X136095238Y-100954819D02*
X136000000Y-101097676D01*
X136000000Y-101097676D02*
X135904762Y-101192914D01*
X135904762Y-101192914D02*
X135809524Y-101240533D01*
X136809524Y-101954819D02*
X136809524Y-100954819D01*
X136904762Y-101573866D02*
X137190476Y-101954819D01*
X137190476Y-101288152D02*
X136809524Y-101669104D01*
X142857142Y-98261009D02*
X142523809Y-98261009D01*
X142523809Y-98784819D02*
X142523809Y-97784819D01*
X142523809Y-97784819D02*
X142999999Y-97784819D01*
X143809523Y-98118152D02*
X143809523Y-98784819D01*
X143380952Y-98118152D02*
X143380952Y-98641961D01*
X143380952Y-98641961D02*
X143428571Y-98737200D01*
X143428571Y-98737200D02*
X143523809Y-98784819D01*
X143523809Y-98784819D02*
X143666666Y-98784819D01*
X143666666Y-98784819D02*
X143761904Y-98737200D01*
X143761904Y-98737200D02*
X143809523Y-98689580D01*
X144238095Y-98737200D02*
X144333333Y-98784819D01*
X144333333Y-98784819D02*
X144523809Y-98784819D01*
X144523809Y-98784819D02*
X144619047Y-98737200D01*
X144619047Y-98737200D02*
X144666666Y-98641961D01*
X144666666Y-98641961D02*
X144666666Y-98594342D01*
X144666666Y-98594342D02*
X144619047Y-98499104D01*
X144619047Y-98499104D02*
X144523809Y-98451485D01*
X144523809Y-98451485D02*
X144380952Y-98451485D01*
X144380952Y-98451485D02*
X144285714Y-98403866D01*
X144285714Y-98403866D02*
X144238095Y-98308628D01*
X144238095Y-98308628D02*
X144238095Y-98261009D01*
X144238095Y-98261009D02*
X144285714Y-98165771D01*
X144285714Y-98165771D02*
X144380952Y-98118152D01*
X144380952Y-98118152D02*
X144523809Y-98118152D01*
X144523809Y-98118152D02*
X144619047Y-98165771D01*
X145476190Y-98737200D02*
X145380952Y-98784819D01*
X145380952Y-98784819D02*
X145190476Y-98784819D01*
X145190476Y-98784819D02*
X145095238Y-98737200D01*
X145095238Y-98737200D02*
X145047619Y-98641961D01*
X145047619Y-98641961D02*
X145047619Y-98261009D01*
X145047619Y-98261009D02*
X145095238Y-98165771D01*
X145095238Y-98165771D02*
X145190476Y-98118152D01*
X145190476Y-98118152D02*
X145380952Y-98118152D01*
X145380952Y-98118152D02*
X145476190Y-98165771D01*
X145476190Y-98165771D02*
X145523809Y-98261009D01*
X145523809Y-98261009D02*
X145523809Y-98356247D01*
X145523809Y-98356247D02*
X145047619Y-98451485D01*
X143238095Y-85050057D02*
X143285714Y-85002438D01*
X143285714Y-85002438D02*
X143380952Y-84954819D01*
X143380952Y-84954819D02*
X143619047Y-84954819D01*
X143619047Y-84954819D02*
X143714285Y-85002438D01*
X143714285Y-85002438D02*
X143761904Y-85050057D01*
X143761904Y-85050057D02*
X143809523Y-85145295D01*
X143809523Y-85145295D02*
X143809523Y-85240533D01*
X143809523Y-85240533D02*
X143761904Y-85383390D01*
X143761904Y-85383390D02*
X143190476Y-85954819D01*
X143190476Y-85954819D02*
X143809523Y-85954819D01*
X144190476Y-85050057D02*
X144238095Y-85002438D01*
X144238095Y-85002438D02*
X144333333Y-84954819D01*
X144333333Y-84954819D02*
X144571428Y-84954819D01*
X144571428Y-84954819D02*
X144666666Y-85002438D01*
X144666666Y-85002438D02*
X144714285Y-85050057D01*
X144714285Y-85050057D02*
X144761904Y-85145295D01*
X144761904Y-85145295D02*
X144761904Y-85240533D01*
X144761904Y-85240533D02*
X144714285Y-85383390D01*
X144714285Y-85383390D02*
X144142857Y-85954819D01*
X144142857Y-85954819D02*
X144761904Y-85954819D01*
X157384580Y-94642857D02*
X157432200Y-94690476D01*
X157432200Y-94690476D02*
X157479819Y-94833333D01*
X157479819Y-94833333D02*
X157479819Y-94928571D01*
X157479819Y-94928571D02*
X157432200Y-95071428D01*
X157432200Y-95071428D02*
X157336961Y-95166666D01*
X157336961Y-95166666D02*
X157241723Y-95214285D01*
X157241723Y-95214285D02*
X157051247Y-95261904D01*
X157051247Y-95261904D02*
X156908390Y-95261904D01*
X156908390Y-95261904D02*
X156717914Y-95214285D01*
X156717914Y-95214285D02*
X156622676Y-95166666D01*
X156622676Y-95166666D02*
X156527438Y-95071428D01*
X156527438Y-95071428D02*
X156479819Y-94928571D01*
X156479819Y-94928571D02*
X156479819Y-94833333D01*
X156479819Y-94833333D02*
X156527438Y-94690476D01*
X156527438Y-94690476D02*
X156575057Y-94642857D01*
X157479819Y-94214285D02*
X156479819Y-94214285D01*
X156956009Y-94214285D02*
X156956009Y-93642857D01*
X157479819Y-93642857D02*
X156479819Y-93642857D01*
X156479819Y-93261904D02*
X156479819Y-92642857D01*
X156479819Y-92642857D02*
X156860771Y-92976190D01*
X156860771Y-92976190D02*
X156860771Y-92833333D01*
X156860771Y-92833333D02*
X156908390Y-92738095D01*
X156908390Y-92738095D02*
X156956009Y-92690476D01*
X156956009Y-92690476D02*
X157051247Y-92642857D01*
X157051247Y-92642857D02*
X157289342Y-92642857D01*
X157289342Y-92642857D02*
X157384580Y-92690476D01*
X157384580Y-92690476D02*
X157432200Y-92738095D01*
X157432200Y-92738095D02*
X157479819Y-92833333D01*
X157479819Y-92833333D02*
X157479819Y-93119047D01*
X157479819Y-93119047D02*
X157432200Y-93214285D01*
X157432200Y-93214285D02*
X157384580Y-93261904D01*
X156813152Y-91785714D02*
X157479819Y-91785714D01*
X156432200Y-92023809D02*
X157146485Y-92261904D01*
X157146485Y-92261904D02*
X157146485Y-91642857D01*
X156479819Y-91071428D02*
X156479819Y-90976190D01*
X156479819Y-90976190D02*
X156527438Y-90880952D01*
X156527438Y-90880952D02*
X156575057Y-90833333D01*
X156575057Y-90833333D02*
X156670295Y-90785714D01*
X156670295Y-90785714D02*
X156860771Y-90738095D01*
X156860771Y-90738095D02*
X157098866Y-90738095D01*
X157098866Y-90738095D02*
X157289342Y-90785714D01*
X157289342Y-90785714D02*
X157384580Y-90833333D01*
X157384580Y-90833333D02*
X157432200Y-90880952D01*
X157432200Y-90880952D02*
X157479819Y-90976190D01*
X157479819Y-90976190D02*
X157479819Y-91071428D01*
X157479819Y-91071428D02*
X157432200Y-91166666D01*
X157432200Y-91166666D02*
X157384580Y-91214285D01*
X157384580Y-91214285D02*
X157289342Y-91261904D01*
X157289342Y-91261904D02*
X157098866Y-91309523D01*
X157098866Y-91309523D02*
X156860771Y-91309523D01*
X156860771Y-91309523D02*
X156670295Y-91261904D01*
X156670295Y-91261904D02*
X156575057Y-91214285D01*
X156575057Y-91214285D02*
X156527438Y-91166666D01*
X156527438Y-91166666D02*
X156479819Y-91071428D01*
X157384580Y-89738095D02*
X157432200Y-89785714D01*
X157432200Y-89785714D02*
X157479819Y-89928571D01*
X157479819Y-89928571D02*
X157479819Y-90023809D01*
X157479819Y-90023809D02*
X157432200Y-90166666D01*
X157432200Y-90166666D02*
X157336961Y-90261904D01*
X157336961Y-90261904D02*
X157241723Y-90309523D01*
X157241723Y-90309523D02*
X157051247Y-90357142D01*
X157051247Y-90357142D02*
X156908390Y-90357142D01*
X156908390Y-90357142D02*
X156717914Y-90309523D01*
X156717914Y-90309523D02*
X156622676Y-90261904D01*
X156622676Y-90261904D02*
X156527438Y-90166666D01*
X156527438Y-90166666D02*
X156479819Y-90023809D01*
X156479819Y-90023809D02*
X156479819Y-89928571D01*
X156479819Y-89928571D02*
X156527438Y-89785714D01*
X156527438Y-89785714D02*
X156575057Y-89738095D01*
X148738095Y-97880057D02*
X148785714Y-97832438D01*
X148785714Y-97832438D02*
X148880952Y-97784819D01*
X148880952Y-97784819D02*
X149119047Y-97784819D01*
X149119047Y-97784819D02*
X149214285Y-97832438D01*
X149214285Y-97832438D02*
X149261904Y-97880057D01*
X149261904Y-97880057D02*
X149309523Y-97975295D01*
X149309523Y-97975295D02*
X149309523Y-98070533D01*
X149309523Y-98070533D02*
X149261904Y-98213390D01*
X149261904Y-98213390D02*
X148690476Y-98784819D01*
X148690476Y-98784819D02*
X149309523Y-98784819D01*
X149690476Y-97880057D02*
X149738095Y-97832438D01*
X149738095Y-97832438D02*
X149833333Y-97784819D01*
X149833333Y-97784819D02*
X150071428Y-97784819D01*
X150071428Y-97784819D02*
X150166666Y-97832438D01*
X150166666Y-97832438D02*
X150214285Y-97880057D01*
X150214285Y-97880057D02*
X150261904Y-97975295D01*
X150261904Y-97975295D02*
X150261904Y-98070533D01*
X150261904Y-98070533D02*
X150214285Y-98213390D01*
X150214285Y-98213390D02*
X149642857Y-98784819D01*
X149642857Y-98784819D02*
X150261904Y-98784819D01*
X148261905Y-85050057D02*
X148309524Y-85002438D01*
X148309524Y-85002438D02*
X148404762Y-84954819D01*
X148404762Y-84954819D02*
X148642857Y-84954819D01*
X148642857Y-84954819D02*
X148738095Y-85002438D01*
X148738095Y-85002438D02*
X148785714Y-85050057D01*
X148785714Y-85050057D02*
X148833333Y-85145295D01*
X148833333Y-85145295D02*
X148833333Y-85240533D01*
X148833333Y-85240533D02*
X148785714Y-85383390D01*
X148785714Y-85383390D02*
X148214286Y-85954819D01*
X148214286Y-85954819D02*
X148833333Y-85954819D01*
X149214286Y-85050057D02*
X149261905Y-85002438D01*
X149261905Y-85002438D02*
X149357143Y-84954819D01*
X149357143Y-84954819D02*
X149595238Y-84954819D01*
X149595238Y-84954819D02*
X149690476Y-85002438D01*
X149690476Y-85002438D02*
X149738095Y-85050057D01*
X149738095Y-85050057D02*
X149785714Y-85145295D01*
X149785714Y-85145295D02*
X149785714Y-85240533D01*
X149785714Y-85240533D02*
X149738095Y-85383390D01*
X149738095Y-85383390D02*
X149166667Y-85954819D01*
X149166667Y-85954819D02*
X149785714Y-85954819D01*
X150404762Y-84954819D02*
X150500000Y-84954819D01*
X150500000Y-84954819D02*
X150595238Y-85002438D01*
X150595238Y-85002438D02*
X150642857Y-85050057D01*
X150642857Y-85050057D02*
X150690476Y-85145295D01*
X150690476Y-85145295D02*
X150738095Y-85335771D01*
X150738095Y-85335771D02*
X150738095Y-85573866D01*
X150738095Y-85573866D02*
X150690476Y-85764342D01*
X150690476Y-85764342D02*
X150642857Y-85859580D01*
X150642857Y-85859580D02*
X150595238Y-85907200D01*
X150595238Y-85907200D02*
X150500000Y-85954819D01*
X150500000Y-85954819D02*
X150404762Y-85954819D01*
X150404762Y-85954819D02*
X150309524Y-85907200D01*
X150309524Y-85907200D02*
X150261905Y-85859580D01*
X150261905Y-85859580D02*
X150214286Y-85764342D01*
X150214286Y-85764342D02*
X150166667Y-85573866D01*
X150166667Y-85573866D02*
X150166667Y-85335771D01*
X150166667Y-85335771D02*
X150214286Y-85145295D01*
X150214286Y-85145295D02*
X150261905Y-85050057D01*
X150261905Y-85050057D02*
X150309524Y-85002438D01*
X150309524Y-85002438D02*
X150404762Y-84954819D01*
X156059163Y-83724732D02*
X155487735Y-83724732D01*
X155773449Y-83724732D02*
X155773449Y-82724732D01*
X155773449Y-82724732D02*
X155678211Y-82867589D01*
X155678211Y-82867589D02*
X155582973Y-82962827D01*
X155582973Y-82962827D02*
X155487735Y-83010446D01*
X156678211Y-82724732D02*
X156773449Y-82724732D01*
X156773449Y-82724732D02*
X156868687Y-82772351D01*
X156868687Y-82772351D02*
X156916306Y-82819970D01*
X156916306Y-82819970D02*
X156963925Y-82915208D01*
X156963925Y-82915208D02*
X157011544Y-83105684D01*
X157011544Y-83105684D02*
X157011544Y-83343779D01*
X157011544Y-83343779D02*
X156963925Y-83534255D01*
X156963925Y-83534255D02*
X156916306Y-83629493D01*
X156916306Y-83629493D02*
X156868687Y-83677113D01*
X156868687Y-83677113D02*
X156773449Y-83724732D01*
X156773449Y-83724732D02*
X156678211Y-83724732D01*
X156678211Y-83724732D02*
X156582973Y-83677113D01*
X156582973Y-83677113D02*
X156535354Y-83629493D01*
X156535354Y-83629493D02*
X156487735Y-83534255D01*
X156487735Y-83534255D02*
X156440116Y-83343779D01*
X156440116Y-83343779D02*
X156440116Y-83105684D01*
X156440116Y-83105684D02*
X156487735Y-82915208D01*
X156487735Y-82915208D02*
X156535354Y-82819970D01*
X156535354Y-82819970D02*
X156582973Y-82772351D01*
X156582973Y-82772351D02*
X156678211Y-82724732D01*
X157630592Y-82724732D02*
X157725830Y-82724732D01*
X157725830Y-82724732D02*
X157821068Y-82772351D01*
X157821068Y-82772351D02*
X157868687Y-82819970D01*
X157868687Y-82819970D02*
X157916306Y-82915208D01*
X157916306Y-82915208D02*
X157963925Y-83105684D01*
X157963925Y-83105684D02*
X157963925Y-83343779D01*
X157963925Y-83343779D02*
X157916306Y-83534255D01*
X157916306Y-83534255D02*
X157868687Y-83629493D01*
X157868687Y-83629493D02*
X157821068Y-83677113D01*
X157821068Y-83677113D02*
X157725830Y-83724732D01*
X157725830Y-83724732D02*
X157630592Y-83724732D01*
X157630592Y-83724732D02*
X157535354Y-83677113D01*
X157535354Y-83677113D02*
X157487735Y-83629493D01*
X157487735Y-83629493D02*
X157440116Y-83534255D01*
X157440116Y-83534255D02*
X157392497Y-83343779D01*
X157392497Y-83343779D02*
X157392497Y-83105684D01*
X157392497Y-83105684D02*
X157440116Y-82915208D01*
X157440116Y-82915208D02*
X157487735Y-82819970D01*
X157487735Y-82819970D02*
X157535354Y-82772351D01*
X157535354Y-82772351D02*
X157630592Y-82724732D01*
X158392497Y-83058065D02*
X158392497Y-83724732D01*
X158392497Y-83153303D02*
X158440116Y-83105684D01*
X158440116Y-83105684D02*
X158535354Y-83058065D01*
X158535354Y-83058065D02*
X158678211Y-83058065D01*
X158678211Y-83058065D02*
X158773449Y-83105684D01*
X158773449Y-83105684D02*
X158821068Y-83200922D01*
X158821068Y-83200922D02*
X158821068Y-83724732D01*
X185418452Y-93397907D02*
X184847024Y-93397907D01*
X185132738Y-93397907D02*
X185132738Y-92397907D01*
X185132738Y-92397907D02*
X185037500Y-92540764D01*
X185037500Y-92540764D02*
X184942262Y-92636002D01*
X184942262Y-92636002D02*
X184847024Y-92683621D01*
X185847024Y-93397907D02*
X185847024Y-92397907D01*
X185942262Y-93016954D02*
X186227976Y-93397907D01*
X186227976Y-92731240D02*
X185847024Y-93112192D01*
X189719285Y-101788152D02*
X189719285Y-102454819D01*
X189481190Y-101407200D02*
X189243095Y-102121485D01*
X189243095Y-102121485D02*
X189862142Y-102121485D01*
X190243095Y-102454819D02*
X190243095Y-101454819D01*
X190243095Y-101454819D02*
X190814523Y-102454819D01*
X190814523Y-102454819D02*
X190814523Y-101454819D01*
X191195476Y-101454819D02*
X191814523Y-101454819D01*
X191814523Y-101454819D02*
X191481190Y-101835771D01*
X191481190Y-101835771D02*
X191624047Y-101835771D01*
X191624047Y-101835771D02*
X191719285Y-101883390D01*
X191719285Y-101883390D02*
X191766904Y-101931009D01*
X191766904Y-101931009D02*
X191814523Y-102026247D01*
X191814523Y-102026247D02*
X191814523Y-102264342D01*
X191814523Y-102264342D02*
X191766904Y-102359580D01*
X191766904Y-102359580D02*
X191719285Y-102407200D01*
X191719285Y-102407200D02*
X191624047Y-102454819D01*
X191624047Y-102454819D02*
X191338333Y-102454819D01*
X191338333Y-102454819D02*
X191243095Y-102407200D01*
X191243095Y-102407200D02*
X191195476Y-102359580D01*
X192719285Y-101454819D02*
X192243095Y-101454819D01*
X192243095Y-101454819D02*
X192195476Y-101931009D01*
X192195476Y-101931009D02*
X192243095Y-101883390D01*
X192243095Y-101883390D02*
X192338333Y-101835771D01*
X192338333Y-101835771D02*
X192576428Y-101835771D01*
X192576428Y-101835771D02*
X192671666Y-101883390D01*
X192671666Y-101883390D02*
X192719285Y-101931009D01*
X192719285Y-101931009D02*
X192766904Y-102026247D01*
X192766904Y-102026247D02*
X192766904Y-102264342D01*
X192766904Y-102264342D02*
X192719285Y-102359580D01*
X192719285Y-102359580D02*
X192671666Y-102407200D01*
X192671666Y-102407200D02*
X192576428Y-102454819D01*
X192576428Y-102454819D02*
X192338333Y-102454819D01*
X192338333Y-102454819D02*
X192243095Y-102407200D01*
X192243095Y-102407200D02*
X192195476Y-102359580D01*
D14*
%TO.C,C8*%
X139090000Y-108788748D02*
X139090000Y-110211252D01*
X140910000Y-108788748D02*
X140910000Y-110211252D01*
%TO.C,C4*%
X135711252Y-80590000D02*
X134288748Y-80590000D01*
X135711252Y-82410000D02*
X134288748Y-82410000D01*
%TO.C,R8*%
X186227064Y-89590000D02*
X184772936Y-89590000D01*
X186227064Y-91410000D02*
X184772936Y-91410000D01*
%TO.C,J2*%
X141880000Y-105012500D02*
X154200000Y-105012500D01*
X141880000Y-113252500D02*
X141880000Y-105012500D01*
X154800000Y-105012500D02*
X157120000Y-105012500D01*
X157120000Y-105012500D02*
X157120000Y-113252500D01*
X157120000Y-107132500D02*
X141880000Y-107132500D01*
X157120000Y-111132500D02*
X141880000Y-111132500D01*
X157120000Y-113252500D02*
X141880000Y-113252500D01*
X154500000Y-105012500D02*
X154060000Y-104402500D01*
X154940000Y-104402500D01*
X154500000Y-105012500D01*
G36*
X154500000Y-105012500D02*
G01*
X154060000Y-104402500D01*
X154940000Y-104402500D01*
X154500000Y-105012500D01*
G37*
%TO.C,R10*%
X158090000Y-109689564D02*
X158090000Y-108235436D01*
X159910000Y-109689564D02*
X159910000Y-108235436D01*
%TO.C,RV2*%
X162125000Y-88980000D02*
X171875000Y-88980000D01*
X162125000Y-94030000D02*
X162125000Y-88980000D01*
X171875000Y-88980000D02*
X171875000Y-94030000D01*
X171875000Y-94030000D02*
X162125000Y-94030000D01*
%TO.C,C3*%
X135711252Y-78090000D02*
X134288748Y-78090000D01*
X135711252Y-79910000D02*
X134288748Y-79910000D01*
%TO.C,C6*%
X196590000Y-112211252D02*
X196590000Y-110788748D01*
X198410000Y-112211252D02*
X198410000Y-110788748D01*
%TO.C,C1*%
X135711252Y-75590000D02*
X134288748Y-75590000D01*
X135711252Y-77410000D02*
X134288748Y-77410000D01*
%TO.C,R4*%
X156272936Y-98090000D02*
X157727064Y-98090000D01*
X156272936Y-99910000D02*
X157727064Y-99910000D01*
%TO.C,R7*%
X194810436Y-92090000D02*
X196264564Y-92090000D01*
X194810436Y-93910000D02*
X196264564Y-93910000D01*
%TO.C,U2*%
X145500000Y-90440000D02*
X144700000Y-90440000D01*
X145500000Y-90440000D02*
X146300000Y-90440000D01*
X145500000Y-93560000D02*
X144700000Y-93560000D01*
X145500000Y-93560000D02*
X146300000Y-93560000D01*
X144200000Y-90490000D02*
X143960000Y-90160000D01*
X144440000Y-90160000D01*
X144200000Y-90490000D01*
G36*
X144200000Y-90490000D02*
G01*
X143960000Y-90160000D01*
X144440000Y-90160000D01*
X144200000Y-90490000D01*
G37*
%TO.C,D3*%
X188750000Y-71610000D02*
X193160000Y-71610000D01*
X193160000Y-69390000D02*
X188750000Y-69390000D01*
X193160000Y-71610000D02*
X193160000Y-69390000D01*
%TO.C,J1*%
X123457500Y-85340000D02*
X131817500Y-85340000D01*
X123457500Y-97660000D02*
X123457500Y-85340000D01*
X131817500Y-97660000D02*
X123457500Y-97660000D01*
X135917500Y-97660000D02*
X140177500Y-97660000D01*
X140177500Y-85340000D02*
X135917500Y-85340000D01*
X140177500Y-97660000D02*
X140177500Y-85340000D01*
X140397500Y-92750000D02*
X140897500Y-93250000D01*
X140897500Y-92250000D02*
X140397500Y-92750000D01*
X140897500Y-93250000D02*
X140897500Y-92250000D01*
%TO.C,U4*%
X188355000Y-106130000D02*
X188355000Y-113870000D01*
X188355000Y-113870000D02*
X193655000Y-113870000D01*
X190005000Y-106130000D02*
X188355000Y-106130000D01*
X193655000Y-106130000D02*
X192005000Y-106130000D01*
X193655000Y-113870000D02*
X193655000Y-106130000D01*
X192005000Y-106130000D02*
G75*
G02*
X190005000Y-106130000I-1000000J0D01*
G01*
D15*
%TO.C,G\u002A\u002A\u002A*%
G36*
X204508192Y-70717449D02*
G01*
X204508192Y-71299901D01*
X204375241Y-71299901D01*
X204242290Y-71299901D01*
X204242290Y-70717449D01*
X204242290Y-70134996D01*
X204375241Y-70134996D01*
X204508192Y-70134996D01*
X204508192Y-70717449D01*
G37*
G36*
X204508192Y-72135594D02*
G01*
X204508192Y-72718047D01*
X204375241Y-72718047D01*
X204242290Y-72718047D01*
X204242290Y-72135594D01*
X204242290Y-71553142D01*
X204375241Y-71553142D01*
X204508192Y-71553142D01*
X204508192Y-72135594D01*
G37*
G36*
X198215171Y-71426521D02*
G01*
X198215171Y-73224527D01*
X197062928Y-73224527D01*
X195910685Y-73224527D01*
X195910685Y-72971287D01*
X196163925Y-72971287D01*
X197062928Y-72971287D01*
X197961931Y-72971287D01*
X197961931Y-71426521D01*
X197961931Y-69881756D01*
X197062928Y-69881756D01*
X196163925Y-69881756D01*
X196163925Y-71426521D01*
X196163925Y-72971287D01*
X195910685Y-72971287D01*
X195910685Y-71426521D01*
X195910685Y-69628516D01*
X197062928Y-69628516D01*
X198215171Y-69628516D01*
X198215171Y-71426521D01*
G37*
G36*
X200367713Y-71964061D02*
G01*
X200368153Y-72093416D01*
X200369452Y-72201752D01*
X200371584Y-72288156D01*
X200374519Y-72351715D01*
X200378231Y-72391513D01*
X200381277Y-72404749D01*
X200391928Y-72424887D01*
X200405400Y-72440472D01*
X200424907Y-72452162D01*
X200453665Y-72460615D01*
X200494889Y-72466490D01*
X200551794Y-72470445D01*
X200627596Y-72473138D01*
X200725415Y-72475228D01*
X201000814Y-72480256D01*
X201000814Y-72016699D01*
X201000814Y-71553142D01*
X201133765Y-71553142D01*
X201266716Y-71553142D01*
X201266716Y-72135594D01*
X201266716Y-72718047D01*
X200826711Y-72717192D01*
X200687112Y-72716525D01*
X200571705Y-72715090D01*
X200479370Y-72712850D01*
X200408987Y-72709769D01*
X200359434Y-72705808D01*
X200329592Y-72700932D01*
X200329101Y-72700801D01*
X200252583Y-72672539D01*
X200195513Y-72632716D01*
X200153309Y-72577765D01*
X200141326Y-72554562D01*
X200108142Y-72483800D01*
X200104137Y-72018471D01*
X200100131Y-71553142D01*
X200233922Y-71553142D01*
X200367713Y-71553142D01*
X200367713Y-71964061D01*
G37*
G36*
X204859563Y-70137470D02*
G01*
X204905240Y-70140282D01*
X204944763Y-70144935D01*
X204980306Y-70153216D01*
X205014043Y-70166912D01*
X205048147Y-70187810D01*
X205084792Y-70217699D01*
X205126153Y-70258365D01*
X205174402Y-70311597D01*
X205231714Y-70379180D01*
X205300263Y-70462904D01*
X205382222Y-70564554D01*
X205388557Y-70572437D01*
X205450116Y-70648814D01*
X205506864Y-70718793D01*
X205556794Y-70779932D01*
X205597898Y-70829791D01*
X205628171Y-70865929D01*
X205645605Y-70885904D01*
X205648830Y-70889039D01*
X205652071Y-70878852D01*
X205654876Y-70845442D01*
X205657180Y-70790905D01*
X205658917Y-70717341D01*
X205660024Y-70626847D01*
X205660434Y-70521520D01*
X205660435Y-70515604D01*
X205660435Y-70134996D01*
X205787055Y-70134996D01*
X205913676Y-70134996D01*
X205913676Y-70717449D01*
X205913676Y-71299901D01*
X205830648Y-71299901D01*
X205746644Y-71295595D01*
X205679696Y-71281137D01*
X205622780Y-71254224D01*
X205571326Y-71214766D01*
X205547598Y-71190673D01*
X205510713Y-71149696D01*
X205463210Y-71094824D01*
X205407631Y-71029043D01*
X205346518Y-70955341D01*
X205282411Y-70876706D01*
X205258361Y-70846858D01*
X205008342Y-70535543D01*
X205004990Y-70917722D01*
X205001639Y-71299901D01*
X204875205Y-71299901D01*
X204748770Y-71299901D01*
X204748770Y-70715900D01*
X204748770Y-70131898D01*
X204859563Y-70137470D01*
G37*
G36*
X196672485Y-71948830D02*
G01*
X196673873Y-72066414D01*
X196675542Y-72161465D01*
X196677930Y-72236773D01*
X196681476Y-72295130D01*
X196686619Y-72339326D01*
X196693797Y-72372150D01*
X196703450Y-72396394D01*
X196716016Y-72414849D01*
X196731935Y-72430305D01*
X196750459Y-72444675D01*
X196762654Y-72452753D01*
X196776928Y-72459070D01*
X196796477Y-72463895D01*
X196824502Y-72467501D01*
X196864200Y-72470158D01*
X196918769Y-72472139D01*
X196991408Y-72473713D01*
X197085315Y-72475153D01*
X197114492Y-72475550D01*
X197442788Y-72479963D01*
X197442788Y-72016552D01*
X197442788Y-71553142D01*
X197575739Y-71553142D01*
X197708690Y-71553142D01*
X197708690Y-72135594D01*
X197708690Y-72718047D01*
X197224368Y-72717192D01*
X197085716Y-72716676D01*
X196970567Y-72715621D01*
X196877105Y-72713971D01*
X196803512Y-72711668D01*
X196747975Y-72708653D01*
X196708674Y-72704871D01*
X196683795Y-72700263D01*
X196683067Y-72700059D01*
X196623974Y-72681627D01*
X196581835Y-72663713D01*
X196548707Y-72642202D01*
X196518489Y-72614831D01*
X196491617Y-72584473D01*
X196469210Y-72550227D01*
X196450886Y-72509641D01*
X196436261Y-72460264D01*
X196424956Y-72399644D01*
X196416586Y-72325330D01*
X196410770Y-72234868D01*
X196407126Y-72125809D01*
X196405273Y-71995700D01*
X196404830Y-71885519D01*
X196404503Y-71553142D01*
X196536368Y-71553142D01*
X196668234Y-71553142D01*
X196672485Y-71948830D01*
G37*
G36*
X199873895Y-70717449D02*
G01*
X199873895Y-71299901D01*
X199747453Y-71299901D01*
X199621010Y-71299901D01*
X199617667Y-70900837D01*
X199614324Y-70501773D01*
X199474606Y-70631770D01*
X199423952Y-70678717D01*
X199378471Y-70720532D01*
X199342039Y-70753678D01*
X199318531Y-70774615D01*
X199313298Y-70779033D01*
X199303649Y-70783779D01*
X199291097Y-70781973D01*
X199272765Y-70771524D01*
X199245777Y-70750338D01*
X199207258Y-70716321D01*
X199154330Y-70667381D01*
X199134969Y-70649248D01*
X199082900Y-70600817D01*
X199037194Y-70559102D01*
X199001034Y-70526941D01*
X198977603Y-70507178D01*
X198970229Y-70502194D01*
X198968272Y-70514353D01*
X198966488Y-70548815D01*
X198964938Y-70602560D01*
X198963682Y-70672567D01*
X198962782Y-70755817D01*
X198962297Y-70849289D01*
X198962230Y-70901048D01*
X198962230Y-71299901D01*
X198835610Y-71299901D01*
X198708990Y-71299901D01*
X198708990Y-70717449D01*
X198708990Y-70134996D01*
X198794458Y-70135274D01*
X198845362Y-70137554D01*
X198889995Y-70145561D01*
X198932362Y-70161586D01*
X198976467Y-70187921D01*
X199026313Y-70226857D01*
X199085906Y-70280686D01*
X199140574Y-70333355D01*
X199292004Y-70481592D01*
X199345537Y-70431266D01*
X199376377Y-70402224D01*
X199419635Y-70361425D01*
X199469331Y-70314510D01*
X199514712Y-70271634D01*
X199573934Y-70217679D01*
X199622225Y-70179920D01*
X199665422Y-70155575D01*
X199709359Y-70141861D01*
X199759873Y-70135994D01*
X199801088Y-70135067D01*
X199873895Y-70134996D01*
X199873895Y-70717449D01*
G37*
G36*
X201266716Y-70716726D02*
G01*
X201266716Y-71299901D01*
X201133765Y-71299901D01*
X201000814Y-71299901D01*
X201000814Y-71103640D01*
X201000814Y-70907379D01*
X200684264Y-70907379D01*
X200367713Y-70907379D01*
X200367713Y-71103640D01*
X200367713Y-71299901D01*
X200234040Y-71299901D01*
X200100366Y-71299901D01*
X200104999Y-70840903D01*
X200106421Y-70711186D01*
X200107109Y-70666801D01*
X200365115Y-70666801D01*
X200682964Y-70666801D01*
X201000814Y-70666801D01*
X201000814Y-70527518D01*
X201000814Y-70388236D01*
X200722956Y-70388236D01*
X200632233Y-70388306D01*
X200563308Y-70388744D01*
X200512655Y-70389893D01*
X200476750Y-70392099D01*
X200452066Y-70395704D01*
X200435077Y-70401052D01*
X200422258Y-70408488D01*
X200410084Y-70418354D01*
X200409571Y-70418795D01*
X200392130Y-70435686D01*
X200381193Y-70454056D01*
X200374875Y-70480463D01*
X200371293Y-70521467D01*
X200369580Y-70558077D01*
X200365115Y-70666801D01*
X200107109Y-70666801D01*
X200108081Y-70604149D01*
X200110369Y-70517152D01*
X200113672Y-70447553D01*
X200118379Y-70392708D01*
X200124879Y-70349976D01*
X200133560Y-70316715D01*
X200144812Y-70290282D01*
X200159023Y-70268036D01*
X200176581Y-70247334D01*
X200195110Y-70228295D01*
X200216639Y-70207470D01*
X200237386Y-70190334D01*
X200259995Y-70176499D01*
X200287108Y-70165576D01*
X200321366Y-70157176D01*
X200365412Y-70150912D01*
X200421887Y-70146394D01*
X200493435Y-70143233D01*
X200582697Y-70141042D01*
X200692315Y-70139430D01*
X200807718Y-70138184D01*
X201266716Y-70133551D01*
X201266716Y-70716726D01*
G37*
G36*
X205913676Y-72134624D02*
G01*
X205913676Y-72718047D01*
X205780724Y-72718047D01*
X205647773Y-72718047D01*
X205647773Y-72521786D01*
X205647773Y-72325524D01*
X205331223Y-72325524D01*
X205014673Y-72325524D01*
X205014673Y-72521786D01*
X205014673Y-72718047D01*
X204880872Y-72718047D01*
X204747072Y-72718047D01*
X204751723Y-72259049D01*
X204753205Y-72127742D01*
X204753919Y-72084946D01*
X205012074Y-72084946D01*
X205329924Y-72084946D01*
X205647773Y-72084946D01*
X205647773Y-71945664D01*
X205647773Y-71806382D01*
X205369915Y-71806382D01*
X205279192Y-71806451D01*
X205210267Y-71806889D01*
X205159615Y-71808039D01*
X205123709Y-71810244D01*
X205099025Y-71813849D01*
X205082036Y-71819198D01*
X205069217Y-71826633D01*
X205057043Y-71836500D01*
X205056530Y-71836940D01*
X205039090Y-71853832D01*
X205028152Y-71872201D01*
X205021834Y-71898609D01*
X205018252Y-71939612D01*
X205016539Y-71976223D01*
X205012074Y-72084946D01*
X204753919Y-72084946D01*
X204755018Y-72019148D01*
X204757575Y-71930656D01*
X204761289Y-71859655D01*
X204766573Y-71803533D01*
X204773841Y-71759680D01*
X204783505Y-71725484D01*
X204795979Y-71698336D01*
X204811676Y-71675622D01*
X204831008Y-71654733D01*
X204850164Y-71636862D01*
X204871432Y-71618420D01*
X204892290Y-71603255D01*
X204915394Y-71591012D01*
X204943401Y-71581339D01*
X204978966Y-71573882D01*
X205024744Y-71568288D01*
X205083392Y-71564202D01*
X205157565Y-71561271D01*
X205249919Y-71559142D01*
X205363110Y-71557461D01*
X205454678Y-71556378D01*
X205913676Y-71551201D01*
X205913676Y-72134624D01*
G37*
G36*
X201940969Y-70138210D02*
G01*
X202068358Y-70139753D01*
X202173125Y-70141531D01*
X202257975Y-70143912D01*
X202325608Y-70147264D01*
X202378727Y-70151955D01*
X202420035Y-70158356D01*
X202452235Y-70166833D01*
X202478029Y-70177755D01*
X202500119Y-70191491D01*
X202521207Y-70208409D01*
X202533059Y-70218933D01*
X202559468Y-70244782D01*
X202580512Y-70271501D01*
X202596790Y-70302236D01*
X202608900Y-70340130D01*
X202617440Y-70388329D01*
X202623009Y-70449977D01*
X202626204Y-70528218D01*
X202627623Y-70626199D01*
X202627883Y-70717449D01*
X202627426Y-70832841D01*
X202625656Y-70926063D01*
X202621974Y-71000261D01*
X202615783Y-71058580D01*
X202606485Y-71104163D01*
X202593481Y-71140155D01*
X202576174Y-71169702D01*
X202553964Y-71195948D01*
X202533059Y-71215964D01*
X202511311Y-71234833D01*
X202490068Y-71250302D01*
X202466627Y-71262740D01*
X202438282Y-71272515D01*
X202402328Y-71279997D01*
X202356059Y-71285555D01*
X202296771Y-71289557D01*
X202221757Y-71292372D01*
X202128314Y-71294370D01*
X202013735Y-71295919D01*
X201940969Y-71296711D01*
X201494633Y-71301380D01*
X201494633Y-71046661D01*
X201760535Y-71046661D01*
X202025731Y-71046661D01*
X202114130Y-71046582D01*
X202180836Y-71046099D01*
X202229480Y-71044843D01*
X202263691Y-71042445D01*
X202287102Y-71038536D01*
X202303342Y-71032747D01*
X202316042Y-71024709D01*
X202326454Y-71016102D01*
X202361981Y-70985544D01*
X202361981Y-70717449D01*
X202361981Y-70449354D01*
X202326454Y-70418795D01*
X202313938Y-70408619D01*
X202300884Y-70400998D01*
X202283662Y-70395561D01*
X202258641Y-70391940D01*
X202222191Y-70389766D01*
X202170679Y-70388670D01*
X202100476Y-70388283D01*
X202025731Y-70388236D01*
X201760535Y-70388236D01*
X201760535Y-70717449D01*
X201760535Y-71046661D01*
X201494633Y-71046661D01*
X201494633Y-70717449D01*
X201494633Y-70717319D01*
X201494633Y-70133259D01*
X201940969Y-70138210D01*
G37*
G36*
X197061446Y-70135139D02*
G01*
X197178672Y-70135755D01*
X197275474Y-70137119D01*
X197354304Y-70139509D01*
X197417610Y-70143203D01*
X197467843Y-70148478D01*
X197507453Y-70155612D01*
X197538891Y-70164881D01*
X197564605Y-70176564D01*
X197587047Y-70190937D01*
X197608666Y-70208278D01*
X197614650Y-70213478D01*
X197666403Y-70271771D01*
X197699850Y-70341473D01*
X197716931Y-70426959D01*
X197718654Y-70447850D01*
X197716119Y-70548608D01*
X197694210Y-70633193D01*
X197652814Y-70701874D01*
X197591818Y-70754918D01*
X197588401Y-70757072D01*
X197568046Y-70772198D01*
X197564946Y-70780290D01*
X197567454Y-70780711D01*
X197598024Y-70791053D01*
X197632909Y-70817692D01*
X197665110Y-70854272D01*
X197684564Y-70887133D01*
X197694396Y-70913185D01*
X197701173Y-70943945D01*
X197705419Y-70984502D01*
X197707655Y-71039948D01*
X197708405Y-71115372D01*
X197708412Y-71119468D01*
X197708690Y-71299901D01*
X197576720Y-71299901D01*
X197444750Y-71299901D01*
X197440604Y-71127837D01*
X197438785Y-71058817D01*
X197436617Y-71010437D01*
X197433184Y-70978018D01*
X197427569Y-70956882D01*
X197418857Y-70942351D01*
X197406131Y-70929747D01*
X197400931Y-70925245D01*
X197365404Y-70894717D01*
X197017905Y-70894717D01*
X196670405Y-70894717D01*
X196670405Y-71097309D01*
X196670405Y-71299901D01*
X196537454Y-71299901D01*
X196404503Y-71299901D01*
X196404503Y-70717449D01*
X196404503Y-70642589D01*
X196670405Y-70642589D01*
X197032386Y-70638867D01*
X197394366Y-70635146D01*
X197424908Y-70599619D01*
X197448691Y-70556140D01*
X197455358Y-70506746D01*
X197445985Y-70458895D01*
X197421645Y-70420047D01*
X197396479Y-70402295D01*
X197372060Y-70397394D01*
X197322915Y-70393517D01*
X197249626Y-70390685D01*
X197152771Y-70388920D01*
X197032929Y-70388243D01*
X197018015Y-70388236D01*
X196670405Y-70388236D01*
X196670405Y-70515412D01*
X196670405Y-70642589D01*
X196404503Y-70642589D01*
X196404503Y-70515412D01*
X196404503Y-70134996D01*
X196921347Y-70134996D01*
X197061446Y-70135139D01*
G37*
G36*
X199307305Y-71559608D02*
G01*
X199414454Y-71560245D01*
X199501585Y-71561731D01*
X199571348Y-71564413D01*
X199626396Y-71568638D01*
X199669382Y-71574754D01*
X199702957Y-71583107D01*
X199729775Y-71594044D01*
X199752486Y-71607914D01*
X199773743Y-71625062D01*
X199789586Y-71639586D01*
X199829704Y-71683466D01*
X199856603Y-71730007D01*
X199872447Y-71785462D01*
X199879403Y-71856082D01*
X199880226Y-71901347D01*
X199879596Y-71961457D01*
X199876813Y-72003452D01*
X199870537Y-72034527D01*
X199859429Y-72061878D01*
X199845715Y-72086672D01*
X199818060Y-72125814D01*
X199786853Y-72158829D01*
X199772600Y-72169820D01*
X199733996Y-72194262D01*
X199781620Y-72225081D01*
X199811522Y-72246749D01*
X199833700Y-72270283D01*
X199849398Y-72299835D01*
X199859862Y-72339556D01*
X199866340Y-72393598D01*
X199870076Y-72466111D01*
X199871621Y-72524951D01*
X199875677Y-72718047D01*
X199741835Y-72718047D01*
X199607993Y-72718047D01*
X199607993Y-72554147D01*
X199607718Y-72486409D01*
X199606383Y-72438977D01*
X199603219Y-72406833D01*
X199597458Y-72384960D01*
X199588331Y-72368342D01*
X199577456Y-72354720D01*
X199546919Y-72319193D01*
X199260906Y-72315355D01*
X198974892Y-72311516D01*
X198974892Y-72514781D01*
X198974892Y-72718047D01*
X198841813Y-72718047D01*
X198708734Y-72718047D01*
X198712027Y-72138760D01*
X198712477Y-72059622D01*
X198974892Y-72059622D01*
X199252860Y-72059622D01*
X199356836Y-72058937D01*
X199441629Y-72056932D01*
X199505583Y-72053683D01*
X199547039Y-72049265D01*
X199561683Y-72045564D01*
X199595905Y-72016821D01*
X199616296Y-71971132D01*
X199620655Y-71933002D01*
X199611605Y-71879150D01*
X199586557Y-71838107D01*
X199561683Y-71820440D01*
X199536764Y-71815258D01*
X199488200Y-71811192D01*
X199417649Y-71808318D01*
X199326769Y-71806712D01*
X199252860Y-71806382D01*
X198974892Y-71806382D01*
X198974892Y-71933002D01*
X198974892Y-72059622D01*
X198712477Y-72059622D01*
X198713197Y-71933002D01*
X198715321Y-71559473D01*
X199177484Y-71559473D01*
X199307305Y-71559608D01*
G37*
G36*
X203849767Y-70260650D02*
G01*
X203849767Y-70388236D01*
X203497193Y-70388236D01*
X203386806Y-70388232D01*
X203299072Y-70388778D01*
X203231325Y-70390712D01*
X203180897Y-70394872D01*
X203145118Y-70402095D01*
X203121322Y-70413220D01*
X203106839Y-70429084D01*
X203099003Y-70450526D01*
X203095144Y-70478382D01*
X203092596Y-70513491D01*
X203092464Y-70515331D01*
X203087003Y-70590829D01*
X203405075Y-70590829D01*
X203723147Y-70590829D01*
X203723147Y-70711118D01*
X203723147Y-70831407D01*
X203405122Y-70831407D01*
X203087096Y-70831407D01*
X203092291Y-70912993D01*
X203094493Y-70949502D01*
X203097678Y-70978688D01*
X203104439Y-71001368D01*
X203117370Y-71018360D01*
X203139065Y-71030483D01*
X203172117Y-71038555D01*
X203219121Y-71043392D01*
X203282669Y-71045813D01*
X203365355Y-71046636D01*
X203469773Y-71046679D01*
X203516186Y-71046661D01*
X203887753Y-71046661D01*
X203887753Y-71173281D01*
X203887753Y-71299901D01*
X203504727Y-71298824D01*
X203369127Y-71297899D01*
X203258046Y-71295936D01*
X203170701Y-71292906D01*
X203106309Y-71288779D01*
X203064084Y-71283526D01*
X203056056Y-71281832D01*
X202989868Y-71260491D01*
X202940284Y-71230465D01*
X202898817Y-71186508D01*
X202896195Y-71183038D01*
X202877187Y-71155812D01*
X202862218Y-71128615D01*
X202850810Y-71098076D01*
X202842488Y-71060823D01*
X202836778Y-71013484D01*
X202833201Y-70952689D01*
X202831283Y-70875065D01*
X202830548Y-70777241D01*
X202830475Y-70717449D01*
X202830932Y-70602057D01*
X202832702Y-70508834D01*
X202836384Y-70434636D01*
X202842575Y-70376318D01*
X202851873Y-70330735D01*
X202864877Y-70294742D01*
X202882184Y-70265195D01*
X202904394Y-70238950D01*
X202925299Y-70218933D01*
X202948328Y-70199168D01*
X202971116Y-70183167D01*
X202996588Y-70170491D01*
X203027671Y-70160698D01*
X203067289Y-70153346D01*
X203118369Y-70147995D01*
X203183835Y-70144203D01*
X203266614Y-70141529D01*
X203369630Y-70139531D01*
X203460410Y-70138232D01*
X203849767Y-70133064D01*
X203849767Y-70260650D01*
G37*
G36*
X203900415Y-71678977D02*
G01*
X203900415Y-71806382D01*
X203532384Y-71806382D01*
X203415036Y-71806568D01*
X203320536Y-71807493D01*
X203246412Y-71809706D01*
X203190188Y-71813755D01*
X203149393Y-71820190D01*
X203121550Y-71829561D01*
X203104186Y-71842415D01*
X203094828Y-71859303D01*
X203091001Y-71880772D01*
X203090240Y-71904513D01*
X203097970Y-71943584D01*
X203113914Y-71969532D01*
X203123297Y-71977068D01*
X203136664Y-71982962D01*
X203157192Y-71987498D01*
X203188059Y-71990958D01*
X203232443Y-71993624D01*
X203293522Y-71995780D01*
X203374474Y-71997708D01*
X203446292Y-71999104D01*
X203560733Y-72001802D01*
X203653177Y-72005727D01*
X203726950Y-72011647D01*
X203785373Y-72020329D01*
X203831770Y-72032540D01*
X203869467Y-72049047D01*
X203901784Y-72070618D01*
X203932048Y-72098019D01*
X203948207Y-72114969D01*
X203989958Y-72168873D01*
X204016319Y-72226330D01*
X204029741Y-72294542D01*
X204032812Y-72363511D01*
X204028065Y-72446533D01*
X204012295Y-72512775D01*
X203983209Y-72569227D01*
X203952701Y-72607772D01*
X203928820Y-72633610D01*
X203906406Y-72654766D01*
X203882710Y-72671732D01*
X203854985Y-72685004D01*
X203820483Y-72695075D01*
X203776457Y-72702438D01*
X203720159Y-72707589D01*
X203648842Y-72711021D01*
X203559758Y-72713228D01*
X203450160Y-72714704D01*
X203352783Y-72715629D01*
X202912778Y-72719542D01*
X202912778Y-72598506D01*
X202912778Y-72477469D01*
X203270480Y-72477167D01*
X203390419Y-72476735D01*
X203487688Y-72475475D01*
X203564937Y-72473106D01*
X203624813Y-72469345D01*
X203669966Y-72463913D01*
X203703044Y-72456526D01*
X203726695Y-72446905D01*
X203743569Y-72434767D01*
X203751637Y-72426043D01*
X203768913Y-72388101D01*
X203770497Y-72343611D01*
X203757927Y-72301646D01*
X203732741Y-72271281D01*
X203724598Y-72266538D01*
X203706703Y-72263597D01*
X203667176Y-72260460D01*
X203609703Y-72257310D01*
X203537972Y-72254326D01*
X203455672Y-72251690D01*
X203387604Y-72250014D01*
X203289915Y-72247855D01*
X203213952Y-72245829D01*
X203156121Y-72243549D01*
X203112828Y-72240625D01*
X203080481Y-72236670D01*
X203055484Y-72231295D01*
X203034246Y-72224113D01*
X203013173Y-72214735D01*
X202999511Y-72208088D01*
X202926802Y-72159212D01*
X202872854Y-72093880D01*
X202838468Y-72013487D01*
X202824445Y-71919433D01*
X202824144Y-71902359D01*
X202834992Y-71806357D01*
X202866706Y-71722462D01*
X202918044Y-71652753D01*
X202987761Y-71599310D01*
X203013190Y-71586241D01*
X203030350Y-71578873D01*
X203048535Y-71572947D01*
X203070680Y-71568274D01*
X203099716Y-71564663D01*
X203138577Y-71561923D01*
X203190198Y-71559863D01*
X203257510Y-71558293D01*
X203343448Y-71557022D01*
X203450946Y-71555859D01*
X203485734Y-71555523D01*
X203900415Y-71551573D01*
X203900415Y-71678977D01*
G37*
G36*
X202606192Y-71675855D02*
G01*
X202602559Y-71800051D01*
X202189803Y-71806382D01*
X202070623Y-71808426D01*
X201974483Y-71810610D01*
X201899098Y-71813057D01*
X201842185Y-71815893D01*
X201801458Y-71819243D01*
X201774634Y-71823232D01*
X201759427Y-71827984D01*
X201756129Y-71830091D01*
X201740106Y-71858833D01*
X201735211Y-71902606D01*
X201735923Y-71928499D01*
X201739851Y-71948975D01*
X201749685Y-71964735D01*
X201768116Y-71976479D01*
X201797833Y-71984910D01*
X201841525Y-71990728D01*
X201901883Y-71994636D01*
X201981596Y-71997334D01*
X202083355Y-71999524D01*
X202108740Y-72000003D01*
X202201436Y-72002263D01*
X202286468Y-72005340D01*
X202360004Y-72009022D01*
X202418214Y-72013098D01*
X202457267Y-72017356D01*
X202470045Y-72019952D01*
X202553197Y-72057908D01*
X202621523Y-72113723D01*
X202665869Y-72174500D01*
X202683977Y-72209488D01*
X202695202Y-72239896D01*
X202701151Y-72273752D01*
X202703431Y-72319086D01*
X202703703Y-72363511D01*
X202702902Y-72422303D01*
X202699603Y-72463827D01*
X202692194Y-72496122D01*
X202679062Y-72527227D01*
X202665890Y-72552076D01*
X202635458Y-72597573D01*
X202600201Y-72636344D01*
X202581802Y-72651076D01*
X202554962Y-72667946D01*
X202528527Y-72681729D01*
X202499684Y-72692735D01*
X202465621Y-72701274D01*
X202423525Y-72707655D01*
X202370583Y-72712189D01*
X202303982Y-72715185D01*
X202220911Y-72716953D01*
X202118555Y-72717803D01*
X201994103Y-72718044D01*
X201973777Y-72718047D01*
X201532619Y-72718047D01*
X201532619Y-72597758D01*
X201532619Y-72477469D01*
X201915645Y-72477167D01*
X202014244Y-72476707D01*
X202106847Y-72475554D01*
X202189803Y-72473808D01*
X202259463Y-72471572D01*
X202312178Y-72468946D01*
X202344298Y-72466032D01*
X202349319Y-72465129D01*
X202400889Y-72443320D01*
X202433295Y-72407526D01*
X202444284Y-72361275D01*
X202442556Y-72330094D01*
X202435663Y-72305278D01*
X202421041Y-72286111D01*
X202396128Y-72271875D01*
X202358360Y-72261853D01*
X202305173Y-72255328D01*
X202234005Y-72251582D01*
X202142292Y-72249898D01*
X202044995Y-72249552D01*
X201944240Y-72249217D01*
X201865215Y-72248074D01*
X201804331Y-72245916D01*
X201758002Y-72242537D01*
X201722640Y-72237730D01*
X201694658Y-72231289D01*
X201686924Y-72228929D01*
X201605274Y-72191144D01*
X201542713Y-72136740D01*
X201499298Y-72065799D01*
X201475083Y-71978406D01*
X201469556Y-71901347D01*
X201477315Y-71805313D01*
X201501599Y-71727097D01*
X201543919Y-71664125D01*
X201605785Y-71613822D01*
X201653066Y-71588581D01*
X201670542Y-71580869D01*
X201687943Y-71574624D01*
X201708089Y-71569664D01*
X201733803Y-71565806D01*
X201767908Y-71562867D01*
X201813226Y-71560665D01*
X201872580Y-71559016D01*
X201948790Y-71557738D01*
X202044681Y-71556649D01*
X202163021Y-71555566D01*
X202609825Y-71551659D01*
X202606192Y-71675855D01*
G37*
D14*
%TO.C,J6*%
X203380000Y-91880000D02*
X211620000Y-91880000D01*
X203380000Y-94200000D02*
X203380000Y-91880000D01*
X203380000Y-107120000D02*
X203380000Y-94800000D01*
X205500000Y-91880000D02*
X205500000Y-107120000D01*
X209500000Y-91880000D02*
X209500000Y-107120000D01*
X211620000Y-91880000D02*
X211620000Y-107120000D01*
X211620000Y-107120000D02*
X203380000Y-107120000D01*
X203380000Y-94500000D02*
X202770000Y-94940000D01*
X202770000Y-94060000D01*
X203380000Y-94500000D01*
G36*
X203380000Y-94500000D02*
G01*
X202770000Y-94940000D01*
X202770000Y-94060000D01*
X203380000Y-94500000D01*
G37*
%TO.C,R5*%
X135590000Y-105227064D02*
X135590000Y-103772936D01*
X137410000Y-105227064D02*
X137410000Y-103772936D01*
%TO.C,F1*%
X143272936Y-95590000D02*
X144727064Y-95590000D01*
X143272936Y-97410000D02*
X144727064Y-97410000D01*
%TO.C,R2*%
X143272936Y-86590000D02*
X144727064Y-86590000D01*
X143272936Y-88410000D02*
X144727064Y-88410000D01*
%TO.C,Q1*%
X191062500Y-92390000D02*
X190412500Y-92390000D01*
X191062500Y-92390000D02*
X191712500Y-92390000D01*
X191062500Y-95510000D02*
X190412500Y-95510000D01*
X191062500Y-95510000D02*
X191712500Y-95510000D01*
X189900000Y-92440000D02*
X189660000Y-92110000D01*
X190140000Y-92110000D01*
X189900000Y-92440000D01*
G36*
X189900000Y-92440000D02*
G01*
X189660000Y-92110000D01*
X190140000Y-92110000D01*
X189900000Y-92440000D01*
G37*
%TO.C,C7*%
X182090000Y-78288748D02*
X182090000Y-79711252D01*
X183910000Y-78288748D02*
X183910000Y-79711252D01*
%TO.C,J5*%
X203380000Y-75880000D02*
X211620000Y-75880000D01*
X203380000Y-78200000D02*
X203380000Y-75880000D01*
X203380000Y-91120000D02*
X203380000Y-78800000D01*
X205500000Y-75880000D02*
X205500000Y-91120000D01*
X209500000Y-75880000D02*
X209500000Y-91120000D01*
X211620000Y-75880000D02*
X211620000Y-91120000D01*
X211620000Y-91120000D02*
X203380000Y-91120000D01*
X203380000Y-78500000D02*
X202770000Y-78940000D01*
X202770000Y-78060000D01*
X203380000Y-78500000D01*
G36*
X203380000Y-78500000D02*
G01*
X202770000Y-78940000D01*
X202770000Y-78060000D01*
X203380000Y-78500000D01*
G37*
%TO.C,U1*%
X157025000Y-86940000D02*
X155075000Y-86940000D01*
X157025000Y-86940000D02*
X158975000Y-86940000D01*
X157025000Y-97060000D02*
X155075000Y-97060000D01*
X157025000Y-97060000D02*
X158975000Y-97060000D01*
X154325000Y-86995000D02*
X154085000Y-86665000D01*
X154565000Y-86665000D01*
X154325000Y-86995000D01*
G36*
X154325000Y-86995000D02*
G01*
X154085000Y-86665000D01*
X154565000Y-86665000D01*
X154325000Y-86995000D01*
G37*
%TO.C,T1*%
X163100000Y-95630000D02*
X181200000Y-95630000D01*
X163100000Y-113730000D02*
X163100000Y-95630000D01*
X181200000Y-95630000D02*
X181200000Y-113730000D01*
X181200000Y-113730000D02*
X163100000Y-113730000D01*
%TO.C,R3*%
X148772936Y-95590000D02*
X150227064Y-95590000D01*
X148772936Y-97410000D02*
X150227064Y-97410000D01*
%TO.C,D4*%
X182365000Y-106800000D02*
X182365000Y-110685000D01*
X182365000Y-110685000D02*
X184635000Y-110685000D01*
X184635000Y-110685000D02*
X184635000Y-106800000D01*
%TO.C,R1*%
X148772936Y-86590000D02*
X150227064Y-86590000D01*
X148772936Y-88410000D02*
X150227064Y-88410000D01*
%TO.C,K11*%
X184950000Y-72110000D02*
X196050000Y-72110000D01*
X184950000Y-88210000D02*
X184950000Y-72110000D01*
X196050000Y-72110000D02*
X196050000Y-88210000D01*
X196050000Y-88210000D02*
X184950000Y-88210000D01*
%TO.C,J3*%
X140880000Y-69380000D02*
X161120000Y-69380000D01*
X140880000Y-71500000D02*
X161120000Y-71500000D01*
X140880000Y-75500000D02*
X161120000Y-75500000D01*
X140880000Y-77620000D02*
X140880000Y-69380000D01*
X143200000Y-77620000D02*
X140880000Y-77620000D01*
X161120000Y-69380000D02*
X161120000Y-77620000D01*
X161120000Y-77620000D02*
X143800000Y-77620000D01*
X143940000Y-78230000D02*
X143060000Y-78230000D01*
X143500000Y-77620000D01*
X143940000Y-78230000D01*
G36*
X143940000Y-78230000D02*
G01*
X143060000Y-78230000D01*
X143500000Y-77620000D01*
X143940000Y-78230000D01*
G37*
%TO.C,T2*%
X162950000Y-69440000D02*
X181050000Y-69440000D01*
X162950000Y-87540000D02*
X162950000Y-69440000D01*
X181050000Y-69440000D02*
X181050000Y-87540000D01*
X181050000Y-87540000D02*
X162950000Y-87540000D01*
%TO.C,C2*%
X156288748Y-84090000D02*
X157711252Y-84090000D01*
X156288748Y-85910000D02*
X157711252Y-85910000D01*
%TO.C,D2*%
X182365000Y-96900000D02*
X182365000Y-100785000D01*
X182365000Y-100785000D02*
X184635000Y-100785000D01*
X184635000Y-100785000D02*
X184635000Y-96900000D01*
%TO.C,R6*%
X186264564Y-92090000D02*
X184810436Y-92090000D01*
X186264564Y-93910000D02*
X184810436Y-93910000D01*
%TO.C,R9*%
X194810436Y-89590000D02*
X196264564Y-89590000D01*
X194810436Y-91410000D02*
X196264564Y-91410000D01*
%TO.C,U3*%
X188355000Y-97630000D02*
X188355000Y-105370000D01*
X188355000Y-105370000D02*
X193655000Y-105370000D01*
X190005000Y-97630000D02*
X188355000Y-97630000D01*
X193655000Y-97630000D02*
X192005000Y-97630000D01*
X193655000Y-105370000D02*
X193655000Y-97630000D01*
X192005000Y-97630000D02*
G75*
G02*
X190005000Y-97630000I-1000000J0D01*
G01*
%TO.C,RV1*%
X172585000Y-88980000D02*
X182335000Y-88980000D01*
X172585000Y-94030000D02*
X172585000Y-88980000D01*
X182335000Y-88980000D02*
X182335000Y-94030000D01*
X182335000Y-94030000D02*
X172585000Y-94030000D01*
%TO.C,D1*%
X132365000Y-102900000D02*
X132365000Y-106785000D01*
X132365000Y-106785000D02*
X134635000Y-106785000D01*
X134635000Y-106785000D02*
X134635000Y-102900000D01*
%TO.C,Q2*%
X191062500Y-88940000D02*
X190412500Y-88940000D01*
X191062500Y-88940000D02*
X191712500Y-88940000D01*
X191062500Y-92060000D02*
X190412500Y-92060000D01*
X191062500Y-92060000D02*
X191712500Y-92060000D01*
X189900000Y-88990000D02*
X189660000Y-88660000D01*
X190140000Y-88660000D01*
X189900000Y-88990000D01*
G36*
X189900000Y-88990000D02*
G01*
X189660000Y-88660000D01*
X190140000Y-88660000D01*
X189900000Y-88990000D01*
G37*
%TO.C,C5*%
X196590000Y-105788748D02*
X196590000Y-107211252D01*
X198410000Y-105788748D02*
X198410000Y-107211252D01*
%TD*%
M02*
