%TF.GenerationSoftware,KiCad,Pcbnew,9.0.5-1.fc42*%
%TF.CreationDate,2025-10-16T13:47:52+08:00*%
%TF.ProjectId,Echolink,4563686f-6c69-46e6-9b2e-6b696361645f,rev?*%
%TF.SameCoordinates,Original*%
%TF.FileFunction,Copper,L2,Bot*%
%TF.FilePolarity,Positive*%
%FSLAX46Y46*%
G04 Gerber Fmt 4.6, Leading zero omitted, Abs format (unit mm)*
G04 Created by KiCad (PCBNEW 9.0.5-1.fc42) date 2025-10-16 13:47:52*
%MOMM*%
%LPD*%
G01*
G04 APERTURE LIST*
G04 Aperture macros list*
%AMRoundRect*
0 Rectangle with rounded corners*
0 $1 Rounding radius*
0 $2 $3 $4 $5 $6 $7 $8 $9 X,Y pos of 4 corners*
0 Add a 4 corners polygon primitive as box body*
4,1,4,$2,$3,$4,$5,$6,$7,$8,$9,$2,$3,0*
0 Add four circle primitives for the rounded corners*
1,1,$1+$1,$2,$3*
1,1,$1+$1,$4,$5*
1,1,$1+$1,$6,$7*
1,1,$1+$1,$8,$9*
0 Add four rect primitives between the rounded corners*
20,1,$1+$1,$2,$3,$4,$5,0*
20,1,$1+$1,$4,$5,$6,$7,0*
20,1,$1+$1,$6,$7,$8,$9,0*
20,1,$1+$1,$8,$9,$2,$3,0*%
G04 Aperture macros list end*
%TA.AperFunction,ComponentPad*%
%ADD10RoundRect,0.250000X1.000000X1.000000X-1.000000X1.000000X-1.000000X-1.000000X1.000000X-1.000000X0*%
%TD*%
%TA.AperFunction,ComponentPad*%
%ADD11C,2.500000*%
%TD*%
%TA.AperFunction,ComponentPad*%
%ADD12C,1.440000*%
%TD*%
%TA.AperFunction,ComponentPad*%
%ADD13C,5.600000*%
%TD*%
%TA.AperFunction,ComponentPad*%
%ADD14R,1.700000X1.700000*%
%TD*%
%TA.AperFunction,ComponentPad*%
%ADD15C,1.700000*%
%TD*%
%TA.AperFunction,ComponentPad*%
%ADD16C,3.500000*%
%TD*%
%TA.AperFunction,ComponentPad*%
%ADD17RoundRect,0.250000X-0.550000X-0.550000X0.550000X-0.550000X0.550000X0.550000X-0.550000X0.550000X0*%
%TD*%
%TA.AperFunction,ComponentPad*%
%ADD18C,1.600000*%
%TD*%
%TA.AperFunction,ComponentPad*%
%ADD19RoundRect,0.250000X-1.000000X1.000000X-1.000000X-1.000000X1.000000X-1.000000X1.000000X1.000000X0*%
%TD*%
%TA.AperFunction,ComponentPad*%
%ADD20R,1.520000X1.520000*%
%TD*%
%TA.AperFunction,ComponentPad*%
%ADD21C,1.520000*%
%TD*%
%TA.AperFunction,ComponentPad*%
%ADD22C,1.900000*%
%TD*%
%TA.AperFunction,ComponentPad*%
%ADD23RoundRect,0.250000X-0.700000X-0.700000X0.700000X-0.700000X0.700000X0.700000X-0.700000X0.700000X0*%
%TD*%
%TA.AperFunction,ComponentPad*%
%ADD24RoundRect,0.250000X-1.000000X-1.000000X1.000000X-1.000000X1.000000X1.000000X-1.000000X1.000000X0*%
%TD*%
%TA.AperFunction,ViaPad*%
%ADD25C,0.600000*%
%TD*%
%TA.AperFunction,Conductor*%
%ADD26C,0.300000*%
%TD*%
%TA.AperFunction,Conductor*%
%ADD27C,0.600000*%
%TD*%
G04 APERTURE END LIST*
D10*
%TO.P,J2,1,Pin_1*%
%TO.N,AUDIO_FROM_PC*%
X154500000Y-109132500D03*
D11*
%TO.P,J2,2,Pin_2*%
%TO.N,GND*%
X149500000Y-109132500D03*
%TO.P,J2,3,Pin_3*%
%TO.N,AUDIO_TO_PC*%
X144500000Y-109132500D03*
%TD*%
D12*
%TO.P,RV2,1,1*%
%TO.N,Net-(T1-AA)*%
X169540000Y-91500000D03*
%TO.P,RV2,2,2*%
%TO.N,Net-(R10-Pad2)*%
X167000000Y-91500000D03*
%TO.P,RV2,3,3*%
%TO.N,GND*%
X164460000Y-91500000D03*
%TD*%
D13*
%TO.P,J7,1,Pin_1*%
%TO.N,GND*%
X209000000Y-72000000D03*
%TD*%
D14*
%TO.P,J1,1,VBUS*%
%TO.N,Net-(J1-VBUS)*%
X138577500Y-92750000D03*
D15*
%TO.P,J1,2,D-*%
%TO.N,Net-(J1-D-)*%
X138577500Y-90250000D03*
%TO.P,J1,3,D+*%
%TO.N,Net-(J1-D+)*%
X136577500Y-90250000D03*
%TO.P,J1,4,GND*%
%TO.N,GND*%
X136577500Y-92750000D03*
D16*
%TO.P,J1,5,Shield*%
X133867500Y-97520000D03*
X133867500Y-85480000D03*
%TD*%
D17*
%TO.P,U4,1*%
%TO.N,Net-(D4-K)*%
X187195000Y-107460000D03*
D18*
%TO.P,U4,2*%
%TO.N,GND*%
X187195000Y-110000000D03*
%TO.P,U4,3,NC*%
%TO.N,unconnected-(U4-NC-Pad3)*%
X187195000Y-112540000D03*
%TO.P,U4,4*%
%TO.N,GND*%
X194815000Y-112540000D03*
%TO.P,U4,5*%
%TO.N,Net-(D3-A)*%
X194815000Y-110000000D03*
%TO.P,U4,6*%
%TO.N,unconnected-(U4-Pad6)*%
X194815000Y-107460000D03*
%TD*%
D19*
%TO.P,J6,1,Pin_1*%
%TO.N,CW*%
X207500000Y-94500000D03*
D11*
%TO.P,J6,2,Pin_2*%
%TO.N,PTT*%
X207500000Y-99500000D03*
%TO.P,J6,3,Pin_3*%
%TO.N,GND*%
X207500000Y-104500000D03*
%TD*%
D13*
%TO.P,J9,1,Pin_1*%
%TO.N,GND*%
X135000000Y-72000000D03*
%TD*%
D19*
%TO.P,J5,1,Pin_1*%
%TO.N,TXD*%
X207500000Y-78500000D03*
D11*
%TO.P,J5,2,Pin_2*%
%TO.N,RXD*%
X207500000Y-83500000D03*
%TO.P,J5,3,Pin_3*%
%TO.N,GND*%
X207500000Y-88500000D03*
%TD*%
D20*
%TO.P,T1,1,SB*%
%TO.N,AUDIO_TO_TRX*%
X178500000Y-100880000D03*
D21*
%TO.P,T1,3,SA*%
%TO.N,AUDIO_TO_TRX_GND*%
X178500000Y-108500000D03*
%TO.P,T1,4,AB*%
%TO.N,GND*%
X165800000Y-108500000D03*
%TO.P,T1,6,AA*%
%TO.N,Net-(T1-AA)*%
X165800000Y-100880000D03*
%TD*%
D22*
%TO.P,K11,11*%
%TO.N,GND*%
X186690000Y-86660000D03*
X194310000Y-86660000D03*
%TO.P,K11,12*%
%TO.N,unconnected-(K11-Pad12)*%
X186690000Y-73960000D03*
%TO.P,K11,14*%
%TO.N,PTT*%
X194310000Y-73960000D03*
D23*
%TO.P,K11,A1*%
%TO.N,Net-(D3-A)*%
X186690000Y-76500000D03*
D22*
%TO.P,K11,A2*%
%TO.N,+5V*%
X194310000Y-76500000D03*
%TD*%
D24*
%TO.P,J3,1,Pin_1*%
%TO.N,AUDIO_TO_TRX*%
X143500000Y-73500000D03*
D11*
%TO.P,J3,2,Pin_2*%
%TO.N,AUDIO_TO_TRX_GND*%
X148500000Y-73500000D03*
%TO.P,J3,3,Pin_3*%
%TO.N,AUDIO_FROM_TRX_GND*%
X153500000Y-73500000D03*
%TO.P,J3,4,Pin_4*%
%TO.N,AUDIO_FROM_TRX*%
X158500000Y-73500000D03*
%TD*%
D20*
%TO.P,T2,1,SB*%
%TO.N,Net-(T2-SB)*%
X178350000Y-74690000D03*
D21*
%TO.P,T2,3,SA*%
%TO.N,GND*%
X178350000Y-82310000D03*
%TO.P,T2,4,AB*%
%TO.N,AUDIO_FROM_TRX_GND*%
X165650000Y-82310000D03*
%TO.P,T2,6,AA*%
%TO.N,AUDIO_FROM_TRX*%
X165650000Y-74690000D03*
%TD*%
D17*
%TO.P,U3,1*%
%TO.N,Net-(D2-K)*%
X187195000Y-98960000D03*
D18*
%TO.P,U3,2*%
%TO.N,GND*%
X187195000Y-101500000D03*
%TO.P,U3,3,NC*%
%TO.N,unconnected-(U3-NC-Pad3)*%
X187195000Y-104040000D03*
%TO.P,U3,4*%
%TO.N,GND*%
X194815000Y-104040000D03*
%TO.P,U3,5*%
%TO.N,CW*%
X194815000Y-101500000D03*
%TO.P,U3,6*%
%TO.N,unconnected-(U3-Pad6)*%
X194815000Y-98960000D03*
%TD*%
D12*
%TO.P,RV1,1,1*%
%TO.N,Net-(T2-SB)*%
X180000000Y-91500000D03*
%TO.P,RV1,2,2*%
%TO.N,Net-(C8-Pad1)*%
X177460000Y-91500000D03*
%TO.P,RV1,3,3*%
%TO.N,GND*%
X174920000Y-91500000D03*
%TD*%
D13*
%TO.P,J8,1,Pin_1*%
%TO.N,GND*%
X135000000Y-111000000D03*
%TD*%
%TO.P,J4,1,Pin_1*%
%TO.N,GND*%
X209000000Y-111000000D03*
%TD*%
D25*
%TO.N,GND*%
X154500000Y-82000000D03*
X141500000Y-91000000D03*
X153000000Y-86500000D03*
X144362500Y-92000000D03*
X151500000Y-85500000D03*
%TO.N,+5V*%
X190000000Y-88000000D03*
X178500000Y-86500000D03*
X197000000Y-89000000D03*
%TO.N,Net-(D3-A)*%
X191500000Y-107500000D03*
%TO.N,Net-(T2-SB)*%
X183000000Y-77525000D03*
%TO.N,Net-(D4-A)*%
X183500000Y-105000000D03*
X188500000Y-91500000D03*
%TO.N,RXD*%
X162500000Y-88500000D03*
X173000000Y-84500000D03*
%TO.N,Net-(U1-RXD)*%
X156500000Y-91500000D03*
X154550000Y-90095000D03*
%TO.N,Net-(U1-~{DTR})*%
X184075000Y-93000000D03*
X178500000Y-89000000D03*
%TO.N,Net-(U1-~{RTS})*%
X178500000Y-88000000D03*
X184037500Y-90500000D03*
%TD*%
D26*
%TO.N,GND*%
X178350000Y-82310000D02*
X178350000Y-84350000D01*
X178350000Y-84350000D02*
X180660000Y-86660000D01*
X149862500Y-86500000D02*
X144362500Y-92000000D01*
X133867500Y-73132500D02*
X135000000Y-72000000D01*
X174920000Y-85740000D02*
X178350000Y-82310000D01*
D27*
X133867500Y-109867500D02*
X135000000Y-111000000D01*
D26*
X135980000Y-85480000D02*
X133867500Y-85480000D01*
X141500000Y-91000000D02*
X135980000Y-85480000D01*
X153000000Y-86500000D02*
X149862500Y-86500000D01*
X180660000Y-86660000D02*
X186690000Y-86660000D01*
X174920000Y-91500000D02*
X174920000Y-85740000D01*
D27*
X133867500Y-97520000D02*
X133867500Y-109867500D01*
D26*
X152000000Y-85500000D02*
X153000000Y-86500000D01*
X174269346Y-82310000D02*
X172079346Y-84500000D01*
X178350000Y-82310000D02*
X174269346Y-82310000D01*
X157000000Y-84500000D02*
X154500000Y-82000000D01*
X172079346Y-84500000D02*
X157000000Y-84500000D01*
X133867500Y-85480000D02*
X133867500Y-73132500D01*
X151500000Y-85500000D02*
X152000000Y-85500000D01*
%TO.N,+5V*%
X178500000Y-86500000D02*
X179161000Y-87161000D01*
X179161000Y-87161000D02*
X185351108Y-87161000D01*
X197000000Y-79190000D02*
X194310000Y-76500000D01*
X186190108Y-88000000D02*
X190000000Y-88000000D01*
X185351108Y-87161000D02*
X186190108Y-88000000D01*
X197000000Y-89000000D02*
X197000000Y-79190000D01*
%TO.N,Net-(D3-A)*%
X191500000Y-107500000D02*
X191500000Y-81310000D01*
X191500000Y-81310000D02*
X186690000Y-76500000D01*
%TO.N,Net-(T2-SB)*%
X180165000Y-74690000D02*
X183000000Y-77525000D01*
X178350000Y-74690000D02*
X180165000Y-74690000D01*
%TO.N,Net-(D4-A)*%
X183500000Y-96500000D02*
X188500000Y-91500000D01*
X183500000Y-105000000D02*
X183500000Y-96500000D01*
D27*
%TO.N,AUDIO_TO_TRX*%
X145251000Y-71749000D02*
X143500000Y-73500000D01*
X149225288Y-71749000D02*
X145251000Y-71749000D01*
X178500000Y-100880000D02*
X172113245Y-100880000D01*
X172113245Y-100880000D02*
X150251000Y-79017755D01*
X150251000Y-72774712D02*
X149225288Y-71749000D01*
X150251000Y-79017755D02*
X150251000Y-72774712D01*
%TO.N,AUDIO_TO_TRX_GND*%
X178500000Y-108500000D02*
X148500000Y-78500000D01*
X148500000Y-78500000D02*
X148500000Y-73500000D01*
D26*
%TO.N,RXD*%
X162500000Y-88500000D02*
X169000000Y-88500000D01*
X169000000Y-88500000D02*
X173000000Y-84500000D01*
D27*
%TO.N,PTT*%
X202460000Y-73960000D02*
X194310000Y-73960000D01*
X203500000Y-95500000D02*
X203500000Y-75000000D01*
X207500000Y-99500000D02*
X203500000Y-95500000D01*
X203500000Y-75000000D02*
X202460000Y-73960000D01*
D26*
%TO.N,Net-(U1-RXD)*%
X155955000Y-91500000D02*
X154550000Y-90095000D01*
X156500000Y-91500000D02*
X155955000Y-91500000D01*
%TO.N,Net-(U1-~{DTR})*%
X178500000Y-89000000D02*
X180075000Y-89000000D01*
X180075000Y-89000000D02*
X184075000Y-93000000D01*
%TO.N,Net-(U1-~{RTS})*%
X178500000Y-88000000D02*
X181537500Y-88000000D01*
X181537500Y-88000000D02*
X184037500Y-90500000D01*
%TD*%
%TA.AperFunction,Conductor*%
%TO.N,GND*%
G36*
X211442539Y-69520185D02*
G01*
X211488294Y-69572989D01*
X211499500Y-69624500D01*
X211499500Y-113375500D01*
X211479815Y-113442539D01*
X211427011Y-113488294D01*
X211375500Y-113499500D01*
X195968135Y-113499500D01*
X195901096Y-113479815D01*
X195855341Y-113427011D01*
X195845397Y-113357853D01*
X195867817Y-113302614D01*
X195926859Y-113221349D01*
X196019755Y-113039031D01*
X196082990Y-112844417D01*
X196115000Y-112642317D01*
X196115000Y-112437682D01*
X196082990Y-112235582D01*
X196019755Y-112040968D01*
X195926859Y-111858650D01*
X195894474Y-111814077D01*
X195894474Y-111814076D01*
X195215000Y-112493551D01*
X195215000Y-112487339D01*
X195187741Y-112385606D01*
X195135080Y-112294394D01*
X195060606Y-112219920D01*
X194969394Y-112167259D01*
X194867661Y-112140000D01*
X194861446Y-112140000D01*
X195540922Y-111460524D01*
X195540921Y-111460523D01*
X195496359Y-111428147D01*
X195496350Y-111428141D01*
X195403369Y-111380765D01*
X195352573Y-111332790D01*
X195335778Y-111264969D01*
X195358315Y-111198835D01*
X195403370Y-111159795D01*
X195404471Y-111159234D01*
X195496610Y-111112287D01*
X195546144Y-111076298D01*
X195662213Y-110991971D01*
X195662215Y-110991968D01*
X195662219Y-110991966D01*
X195806966Y-110847219D01*
X195806968Y-110847215D01*
X195806971Y-110847213D01*
X195859732Y-110774590D01*
X195927287Y-110681610D01*
X196020220Y-110499219D01*
X196083477Y-110304534D01*
X196115500Y-110102352D01*
X196115500Y-109897648D01*
X196093306Y-109757521D01*
X196083477Y-109695465D01*
X196045195Y-109577645D01*
X196020220Y-109500781D01*
X196020218Y-109500778D01*
X196020218Y-109500776D01*
X195986503Y-109434607D01*
X195927287Y-109318390D01*
X195895092Y-109274077D01*
X195806971Y-109152786D01*
X195662213Y-109008028D01*
X195496614Y-108887715D01*
X195490006Y-108884348D01*
X195403917Y-108840483D01*
X195353123Y-108792511D01*
X195336328Y-108724690D01*
X195358865Y-108658555D01*
X195403917Y-108619516D01*
X195496610Y-108572287D01*
X195522717Y-108553319D01*
X195662213Y-108451971D01*
X195662215Y-108451968D01*
X195662219Y-108451966D01*
X195806966Y-108307219D01*
X195806968Y-108307215D01*
X195806971Y-108307213D01*
X195911892Y-108162799D01*
X195927287Y-108141610D01*
X196020220Y-107959219D01*
X196083477Y-107764534D01*
X196115500Y-107562352D01*
X196115500Y-107357648D01*
X196101063Y-107266498D01*
X196083477Y-107155465D01*
X196020218Y-106960776D01*
X195968865Y-106859991D01*
X195927287Y-106778390D01*
X195911892Y-106757200D01*
X195806971Y-106612786D01*
X195662213Y-106468028D01*
X195496613Y-106347715D01*
X195496612Y-106347714D01*
X195496610Y-106347713D01*
X195436898Y-106317288D01*
X195314223Y-106254781D01*
X195119534Y-106191522D01*
X194924808Y-106160681D01*
X194917352Y-106159500D01*
X194712648Y-106159500D01*
X194705192Y-106160681D01*
X194510465Y-106191522D01*
X194315776Y-106254781D01*
X194133386Y-106347715D01*
X193967786Y-106468028D01*
X193823028Y-106612786D01*
X193702715Y-106778386D01*
X193609781Y-106960776D01*
X193546522Y-107155465D01*
X193514500Y-107357648D01*
X193514500Y-107562351D01*
X193546522Y-107764534D01*
X193609781Y-107959223D01*
X193702715Y-108141613D01*
X193823028Y-108307213D01*
X193967786Y-108451971D01*
X194122749Y-108564556D01*
X194133390Y-108572287D01*
X194224840Y-108618883D01*
X194226080Y-108619515D01*
X194276876Y-108667490D01*
X194293671Y-108735311D01*
X194271134Y-108801446D01*
X194226080Y-108840485D01*
X194133386Y-108887715D01*
X193967786Y-109008028D01*
X193823028Y-109152786D01*
X193702715Y-109318386D01*
X193609781Y-109500776D01*
X193546522Y-109695465D01*
X193514500Y-109897648D01*
X193514500Y-110102352D01*
X193515210Y-110106834D01*
X193546522Y-110304534D01*
X193609781Y-110499223D01*
X193661720Y-110601157D01*
X193702585Y-110681359D01*
X193702715Y-110681613D01*
X193823028Y-110847213D01*
X193967786Y-110991971D01*
X194133385Y-111112284D01*
X194133387Y-111112285D01*
X194133390Y-111112287D01*
X194225529Y-111159234D01*
X194226630Y-111159795D01*
X194277426Y-111207770D01*
X194294221Y-111275591D01*
X194271684Y-111341725D01*
X194226630Y-111380765D01*
X194133644Y-111428143D01*
X194089077Y-111460523D01*
X194089077Y-111460524D01*
X194768554Y-112140000D01*
X194762339Y-112140000D01*
X194660606Y-112167259D01*
X194569394Y-112219920D01*
X194494920Y-112294394D01*
X194442259Y-112385606D01*
X194415000Y-112487339D01*
X194415000Y-112493553D01*
X193735524Y-111814077D01*
X193735523Y-111814077D01*
X193703143Y-111858644D01*
X193610244Y-112040968D01*
X193547009Y-112235582D01*
X193515000Y-112437682D01*
X193515000Y-112642317D01*
X193547009Y-112844417D01*
X193610244Y-113039031D01*
X193703140Y-113221349D01*
X193762183Y-113302614D01*
X193785663Y-113368421D01*
X193769838Y-113436474D01*
X193719732Y-113485169D01*
X193661865Y-113499500D01*
X188348753Y-113499500D01*
X188281714Y-113479815D01*
X188235959Y-113427011D01*
X188226015Y-113357853D01*
X188248434Y-113302615D01*
X188255390Y-113293040D01*
X188307287Y-113221610D01*
X188400220Y-113039219D01*
X188463477Y-112844534D01*
X188495500Y-112642352D01*
X188495500Y-112437648D01*
X188487257Y-112385606D01*
X188463477Y-112235465D01*
X188432458Y-112140000D01*
X188400220Y-112040781D01*
X188400218Y-112040778D01*
X188400218Y-112040776D01*
X188307419Y-111858650D01*
X188307287Y-111858390D01*
X188275092Y-111814077D01*
X188186971Y-111692786D01*
X188042213Y-111548028D01*
X187876611Y-111427713D01*
X187783369Y-111380203D01*
X187732574Y-111332229D01*
X187715779Y-111264407D01*
X187738317Y-111198273D01*
X187783371Y-111159234D01*
X187876346Y-111111861D01*
X187876347Y-111111861D01*
X187920921Y-111079474D01*
X187241447Y-110400000D01*
X187247661Y-110400000D01*
X187349394Y-110372741D01*
X187440606Y-110320080D01*
X187515080Y-110245606D01*
X187567741Y-110154394D01*
X187595000Y-110052661D01*
X187595000Y-110046447D01*
X188274474Y-110725921D01*
X188306859Y-110681349D01*
X188399755Y-110499031D01*
X188462990Y-110304417D01*
X188495000Y-110102317D01*
X188495000Y-109897682D01*
X188462990Y-109695582D01*
X188399755Y-109500968D01*
X188306859Y-109318650D01*
X188274474Y-109274077D01*
X188274474Y-109274076D01*
X187595000Y-109953551D01*
X187595000Y-109947339D01*
X187567741Y-109845606D01*
X187515080Y-109754394D01*
X187440606Y-109679920D01*
X187349394Y-109627259D01*
X187247661Y-109600000D01*
X187241446Y-109600000D01*
X187920922Y-108920524D01*
X187919570Y-108903349D01*
X187905299Y-108884842D01*
X187899320Y-108815229D01*
X187931925Y-108753433D01*
X187981845Y-108722148D01*
X188064334Y-108694814D01*
X188213656Y-108602712D01*
X188337712Y-108478656D01*
X188429814Y-108329334D01*
X188484999Y-108162797D01*
X188495500Y-108060009D01*
X188495499Y-106859992D01*
X188484999Y-106757203D01*
X188429814Y-106590666D01*
X188337712Y-106441344D01*
X188213656Y-106317288D01*
X188064334Y-106225186D01*
X187897797Y-106170001D01*
X187897795Y-106170000D01*
X187795010Y-106159500D01*
X186594998Y-106159500D01*
X186594981Y-106159501D01*
X186492203Y-106170000D01*
X186492200Y-106170001D01*
X186325668Y-106225185D01*
X186325663Y-106225187D01*
X186176342Y-106317289D01*
X186052289Y-106441342D01*
X185960187Y-106590663D01*
X185960186Y-106590666D01*
X185905001Y-106757203D01*
X185905001Y-106757204D01*
X185905000Y-106757204D01*
X185894500Y-106859983D01*
X185894500Y-108060001D01*
X185894501Y-108060018D01*
X185905000Y-108162796D01*
X185905001Y-108162799D01*
X185960185Y-108329331D01*
X185960187Y-108329336D01*
X185977152Y-108356840D01*
X186052288Y-108478656D01*
X186176344Y-108602712D01*
X186325666Y-108694814D01*
X186408152Y-108722147D01*
X186465597Y-108761920D01*
X186492420Y-108826436D01*
X186480105Y-108895212D01*
X186470143Y-108906975D01*
X186469077Y-108920524D01*
X187148554Y-109600000D01*
X187142339Y-109600000D01*
X187040606Y-109627259D01*
X186949394Y-109679920D01*
X186874920Y-109754394D01*
X186822259Y-109845606D01*
X186795000Y-109947339D01*
X186795000Y-109953553D01*
X186115524Y-109274077D01*
X186115523Y-109274077D01*
X186083143Y-109318644D01*
X185990244Y-109500968D01*
X185927009Y-109695582D01*
X185895000Y-109897682D01*
X185895000Y-110102317D01*
X185927009Y-110304417D01*
X185990244Y-110499031D01*
X186083141Y-110681350D01*
X186083147Y-110681359D01*
X186115523Y-110725921D01*
X186115524Y-110725922D01*
X186795000Y-110046446D01*
X186795000Y-110052661D01*
X186822259Y-110154394D01*
X186874920Y-110245606D01*
X186949394Y-110320080D01*
X187040606Y-110372741D01*
X187142339Y-110400000D01*
X187148553Y-110400000D01*
X186469076Y-111079474D01*
X186513652Y-111111861D01*
X186606628Y-111159234D01*
X186657425Y-111207208D01*
X186674220Y-111275029D01*
X186651683Y-111341164D01*
X186606630Y-111380203D01*
X186513388Y-111427713D01*
X186347786Y-111548028D01*
X186203028Y-111692786D01*
X186082715Y-111858386D01*
X185989781Y-112040776D01*
X185926522Y-112235465D01*
X185894500Y-112437648D01*
X185894500Y-112642352D01*
X185897704Y-112662580D01*
X185926522Y-112844534D01*
X185989781Y-113039223D01*
X186082712Y-113221609D01*
X186141566Y-113302615D01*
X186165045Y-113368422D01*
X186149219Y-113436476D01*
X186099113Y-113485170D01*
X186041247Y-113499500D01*
X132624500Y-113499500D01*
X132557461Y-113479815D01*
X132511706Y-113427011D01*
X132500500Y-113375500D01*
X132500500Y-109017758D01*
X142749500Y-109017758D01*
X142749500Y-109247241D01*
X142759233Y-109321163D01*
X142779452Y-109474738D01*
X142831276Y-109668149D01*
X142838842Y-109696387D01*
X142926650Y-109908376D01*
X142926656Y-109908388D01*
X143041228Y-110106834D01*
X143041392Y-110107117D01*
X143181081Y-110289161D01*
X143181089Y-110289170D01*
X143343330Y-110451411D01*
X143343338Y-110451418D01*
X143343339Y-110451419D01*
X143393962Y-110490264D01*
X143525382Y-110591107D01*
X143525385Y-110591108D01*
X143525388Y-110591111D01*
X143724112Y-110705844D01*
X143724117Y-110705846D01*
X143724123Y-110705849D01*
X143772584Y-110725922D01*
X143936113Y-110793658D01*
X144157762Y-110853048D01*
X144374312Y-110881557D01*
X144385250Y-110882998D01*
X144385266Y-110883000D01*
X144385273Y-110883000D01*
X144614727Y-110883000D01*
X144614734Y-110883000D01*
X144842238Y-110853048D01*
X145063887Y-110793658D01*
X145275888Y-110705844D01*
X145474612Y-110591111D01*
X145656661Y-110451419D01*
X145656665Y-110451414D01*
X145656670Y-110451411D01*
X145818911Y-110289170D01*
X145818914Y-110289165D01*
X145818919Y-110289161D01*
X145958611Y-110107112D01*
X146073344Y-109908388D01*
X146161158Y-109696387D01*
X146220548Y-109474738D01*
X146250500Y-109247234D01*
X146250500Y-109017805D01*
X147750000Y-109017805D01*
X147750000Y-109247194D01*
X147750001Y-109247210D01*
X147779942Y-109474637D01*
X147839318Y-109696230D01*
X147927102Y-109908159D01*
X147927106Y-109908169D01*
X148041799Y-110106824D01*
X148041805Y-110106831D01*
X148098381Y-110180564D01*
X148898958Y-109379987D01*
X148923978Y-109440390D01*
X148995112Y-109546851D01*
X149085649Y-109637388D01*
X149192110Y-109708522D01*
X149252511Y-109733541D01*
X148451934Y-110534117D01*
X148451934Y-110534118D01*
X148525666Y-110590694D01*
X148724330Y-110705393D01*
X148724340Y-110705397D01*
X148936269Y-110793181D01*
X149157862Y-110852557D01*
X149385289Y-110882498D01*
X149385306Y-110882500D01*
X149614694Y-110882500D01*
X149614710Y-110882498D01*
X149842137Y-110852557D01*
X150063730Y-110793181D01*
X150275659Y-110705397D01*
X150275668Y-110705393D01*
X150474327Y-110590697D01*
X150474334Y-110590692D01*
X150548064Y-110534117D01*
X149747488Y-109733541D01*
X149807890Y-109708522D01*
X149914351Y-109637388D01*
X150004888Y-109546851D01*
X150076022Y-109440390D01*
X150101041Y-109379988D01*
X150901617Y-110180564D01*
X150958192Y-110106834D01*
X150958197Y-110106827D01*
X151072893Y-109908168D01*
X151072897Y-109908159D01*
X151160681Y-109696230D01*
X151220057Y-109474637D01*
X151249998Y-109247210D01*
X151250000Y-109247194D01*
X151250000Y-109017805D01*
X151249998Y-109017789D01*
X151220057Y-108790362D01*
X151160681Y-108568769D01*
X151072897Y-108356840D01*
X151072893Y-108356830D01*
X150958195Y-108158168D01*
X150955625Y-108154818D01*
X150955624Y-108154816D01*
X150901618Y-108084434D01*
X150901617Y-108084434D01*
X150101041Y-108885010D01*
X150076022Y-108824610D01*
X150004888Y-108718149D01*
X149914351Y-108627612D01*
X149807890Y-108556478D01*
X149747487Y-108531457D01*
X150196462Y-108082483D01*
X152749500Y-108082483D01*
X152749500Y-110182501D01*
X152749501Y-110182518D01*
X152760000Y-110285296D01*
X152760001Y-110285299D01*
X152788977Y-110372741D01*
X152815186Y-110451834D01*
X152907288Y-110601156D01*
X153031344Y-110725212D01*
X153180666Y-110817314D01*
X153347203Y-110872499D01*
X153449991Y-110883000D01*
X155550008Y-110882999D01*
X155652797Y-110872499D01*
X155819334Y-110817314D01*
X155968656Y-110725212D01*
X156092712Y-110601156D01*
X156184814Y-110451834D01*
X156239999Y-110285297D01*
X156250500Y-110182509D01*
X156250499Y-109132500D01*
X156250499Y-108400836D01*
X164540000Y-108400836D01*
X164540000Y-108599163D01*
X164571026Y-108795052D01*
X164632310Y-108983669D01*
X164632311Y-108983672D01*
X164722350Y-109160380D01*
X164749161Y-109197283D01*
X165395000Y-108551445D01*
X165395000Y-108553319D01*
X165422600Y-108656324D01*
X165475919Y-108748676D01*
X165551324Y-108824081D01*
X165643676Y-108877400D01*
X165746681Y-108905000D01*
X165748553Y-108905000D01*
X165102714Y-109550837D01*
X165102715Y-109550838D01*
X165139612Y-109577645D01*
X165316327Y-109667688D01*
X165316330Y-109667689D01*
X165504947Y-109728973D01*
X165700837Y-109760000D01*
X165899163Y-109760000D01*
X166095052Y-109728973D01*
X166283669Y-109667689D01*
X166283672Y-109667688D01*
X166460382Y-109577648D01*
X166497283Y-109550837D01*
X166497284Y-109550836D01*
X165851448Y-108905000D01*
X165853319Y-108905000D01*
X165956324Y-108877400D01*
X166048676Y-108824081D01*
X166124081Y-108748676D01*
X166177400Y-108656324D01*
X166205000Y-108553319D01*
X166205000Y-108551447D01*
X166850836Y-109197284D01*
X166850837Y-109197283D01*
X166877648Y-109160382D01*
X166967688Y-108983672D01*
X166967689Y-108983669D01*
X167028973Y-108795052D01*
X167060000Y-108599163D01*
X167060000Y-108400836D01*
X167028973Y-108204947D01*
X166967689Y-108016330D01*
X166967688Y-108016327D01*
X166877645Y-107839612D01*
X166850838Y-107802715D01*
X166850837Y-107802714D01*
X166205000Y-108448551D01*
X166205000Y-108446681D01*
X166177400Y-108343676D01*
X166124081Y-108251324D01*
X166048676Y-108175919D01*
X165956324Y-108122600D01*
X165853319Y-108095000D01*
X165851447Y-108095000D01*
X166497283Y-107449161D01*
X166460380Y-107422350D01*
X166283672Y-107332311D01*
X166283669Y-107332310D01*
X166095052Y-107271026D01*
X165899163Y-107240000D01*
X165700837Y-107240000D01*
X165504947Y-107271026D01*
X165316330Y-107332310D01*
X165316322Y-107332313D01*
X165139615Y-107422352D01*
X165102715Y-107449160D01*
X165102715Y-107449161D01*
X165748554Y-108095000D01*
X165746681Y-108095000D01*
X165643676Y-108122600D01*
X165551324Y-108175919D01*
X165475919Y-108251324D01*
X165422600Y-108343676D01*
X165395000Y-108446681D01*
X165395000Y-108448554D01*
X164749161Y-107802715D01*
X164749160Y-107802715D01*
X164722352Y-107839615D01*
X164632313Y-108016322D01*
X164632310Y-108016330D01*
X164571026Y-108204947D01*
X164540000Y-108400836D01*
X156250499Y-108400836D01*
X156250499Y-108395964D01*
X156250499Y-108082498D01*
X156250498Y-108082481D01*
X156239999Y-107979703D01*
X156239998Y-107979700D01*
X156233211Y-107959219D01*
X156184814Y-107813166D01*
X156092712Y-107663844D01*
X155968656Y-107539788D01*
X155875888Y-107482569D01*
X155819336Y-107447687D01*
X155819331Y-107447685D01*
X155817862Y-107447198D01*
X155652797Y-107392501D01*
X155652795Y-107392500D01*
X155550010Y-107382000D01*
X153449998Y-107382000D01*
X153449981Y-107382001D01*
X153347203Y-107392500D01*
X153347200Y-107392501D01*
X153180668Y-107447685D01*
X153180663Y-107447687D01*
X153031342Y-107539789D01*
X152907289Y-107663842D01*
X152815187Y-107813163D01*
X152815185Y-107813168D01*
X152793314Y-107879172D01*
X152760001Y-107979703D01*
X152760001Y-107979704D01*
X152760000Y-107979704D01*
X152749500Y-108082483D01*
X150196462Y-108082483D01*
X150548064Y-107730881D01*
X150548064Y-107730880D01*
X150474331Y-107674305D01*
X150474324Y-107674299D01*
X150275669Y-107559606D01*
X150275659Y-107559602D01*
X150063730Y-107471818D01*
X149842137Y-107412442D01*
X149614710Y-107382501D01*
X149614694Y-107382500D01*
X149385306Y-107382500D01*
X149385289Y-107382501D01*
X149157862Y-107412442D01*
X148936269Y-107471818D01*
X148724340Y-107559602D01*
X148724330Y-107559606D01*
X148525673Y-107674301D01*
X148525659Y-107674310D01*
X148451934Y-107730880D01*
X149252511Y-108531458D01*
X149192110Y-108556478D01*
X149085649Y-108627612D01*
X148995112Y-108718149D01*
X148923978Y-108824610D01*
X148898958Y-108885011D01*
X148098380Y-108084434D01*
X148041810Y-108158159D01*
X148041801Y-108158173D01*
X147927106Y-108356830D01*
X147927102Y-108356840D01*
X147839318Y-108568769D01*
X147779942Y-108790362D01*
X147750001Y-109017789D01*
X147750000Y-109017805D01*
X146250500Y-109017805D01*
X146250500Y-109017766D01*
X146220548Y-108790262D01*
X146161158Y-108568613D01*
X146081198Y-108375572D01*
X146073349Y-108356623D01*
X146073346Y-108356617D01*
X146073344Y-108356612D01*
X145958611Y-108157888D01*
X145958608Y-108157885D01*
X145958607Y-108157882D01*
X145821884Y-107979703D01*
X145818919Y-107975839D01*
X145818918Y-107975838D01*
X145818911Y-107975830D01*
X145656670Y-107813589D01*
X145656661Y-107813581D01*
X145474617Y-107673892D01*
X145275890Y-107559157D01*
X145275876Y-107559150D01*
X145063887Y-107471342D01*
X144981105Y-107449161D01*
X144842238Y-107411952D01*
X144804215Y-107406946D01*
X144614741Y-107382000D01*
X144614734Y-107382000D01*
X144385266Y-107382000D01*
X144385258Y-107382000D01*
X144168715Y-107410509D01*
X144157762Y-107411952D01*
X144064076Y-107437054D01*
X143936112Y-107471342D01*
X143724123Y-107559150D01*
X143724109Y-107559157D01*
X143525382Y-107673892D01*
X143343338Y-107813581D01*
X143181081Y-107975838D01*
X143041392Y-108157882D01*
X142926657Y-108356609D01*
X142926650Y-108356623D01*
X142838842Y-108568612D01*
X142779453Y-108790259D01*
X142779451Y-108790270D01*
X142749500Y-109017758D01*
X132500500Y-109017758D01*
X132500500Y-100780790D01*
X164539500Y-100780790D01*
X164539500Y-100979209D01*
X164562949Y-101127259D01*
X164570537Y-101175168D01*
X164617140Y-101318596D01*
X164631850Y-101363868D01*
X164674381Y-101447339D01*
X164721923Y-101540646D01*
X164838544Y-101701161D01*
X164978839Y-101841456D01*
X165139354Y-101958077D01*
X165252800Y-102015880D01*
X165316131Y-102048149D01*
X165316133Y-102048149D01*
X165316136Y-102048151D01*
X165504832Y-102109463D01*
X165602814Y-102124981D01*
X165700791Y-102140500D01*
X165700796Y-102140500D01*
X165899209Y-102140500D01*
X165988278Y-102126392D01*
X166095168Y-102109463D01*
X166283864Y-102048151D01*
X166460646Y-101958077D01*
X166621161Y-101841456D01*
X166761456Y-101701161D01*
X166878077Y-101540646D01*
X166968151Y-101363864D01*
X167029463Y-101175168D01*
X167046392Y-101068278D01*
X167060500Y-100979209D01*
X167060500Y-100780790D01*
X167040839Y-100656661D01*
X167029463Y-100584832D01*
X166968151Y-100396136D01*
X166968149Y-100396133D01*
X166968149Y-100396131D01*
X166926927Y-100315229D01*
X166878077Y-100219354D01*
X166761456Y-100058839D01*
X166621161Y-99918544D01*
X166460646Y-99801923D01*
X166383179Y-99762452D01*
X166283868Y-99711850D01*
X166238596Y-99697140D01*
X166095168Y-99650537D01*
X166095162Y-99650536D01*
X165899209Y-99619500D01*
X165899204Y-99619500D01*
X165700796Y-99619500D01*
X165700791Y-99619500D01*
X165504837Y-99650536D01*
X165504835Y-99650536D01*
X165504832Y-99650537D01*
X165425832Y-99676206D01*
X165316131Y-99711850D01*
X165139352Y-99801924D01*
X165139349Y-99801926D01*
X165083865Y-99842238D01*
X164978839Y-99918544D01*
X164978837Y-99918546D01*
X164978836Y-99918546D01*
X164838546Y-100058836D01*
X164838546Y-100058837D01*
X164838544Y-100058839D01*
X164794460Y-100119515D01*
X164721926Y-100219349D01*
X164721924Y-100219352D01*
X164631850Y-100396131D01*
X164601193Y-100490484D01*
X164570537Y-100584832D01*
X164570536Y-100584835D01*
X164570536Y-100584837D01*
X164539500Y-100780790D01*
X132500500Y-100780790D01*
X132500500Y-99543612D01*
X132520185Y-99476573D01*
X132572989Y-99430818D01*
X132642147Y-99420874D01*
X132686501Y-99436225D01*
X132870214Y-99542293D01*
X132870218Y-99542295D01*
X133142699Y-99655161D01*
X133142709Y-99655164D01*
X133427602Y-99731500D01*
X133427615Y-99731503D01*
X133720016Y-99769998D01*
X133720034Y-99770000D01*
X134014966Y-99770000D01*
X134014983Y-99769998D01*
X134307384Y-99731503D01*
X134307397Y-99731500D01*
X134592290Y-99655164D01*
X134592300Y-99655161D01*
X134864781Y-99542295D01*
X134864792Y-99542290D01*
X135120207Y-99394825D01*
X135120225Y-99394813D01*
X135272167Y-99278222D01*
X135272167Y-99278220D01*
X134496772Y-98502825D01*
X134626446Y-98408612D01*
X134756112Y-98278946D01*
X134850325Y-98149272D01*
X135625720Y-98924667D01*
X135625722Y-98924667D01*
X135742313Y-98772725D01*
X135742325Y-98772707D01*
X135889790Y-98517292D01*
X135889795Y-98517281D01*
X136002661Y-98244800D01*
X136002664Y-98244790D01*
X136079000Y-97959897D01*
X136079003Y-97959884D01*
X136117498Y-97667483D01*
X136117500Y-97667466D01*
X136117500Y-97372533D01*
X136117498Y-97372516D01*
X136079003Y-97080115D01*
X136079000Y-97080102D01*
X136002664Y-96795209D01*
X136002661Y-96795199D01*
X135889795Y-96522718D01*
X135889790Y-96522707D01*
X135742325Y-96267292D01*
X135742319Y-96267284D01*
X135625721Y-96115331D01*
X134850325Y-96890727D01*
X134756112Y-96761054D01*
X134626446Y-96631388D01*
X134496770Y-96537173D01*
X135272167Y-95761777D01*
X135120215Y-95645180D01*
X135120207Y-95645174D01*
X134864792Y-95497709D01*
X134864781Y-95497704D01*
X134592300Y-95384838D01*
X134592290Y-95384835D01*
X134307397Y-95308499D01*
X134307384Y-95308496D01*
X134014983Y-95270001D01*
X134014966Y-95270000D01*
X133720034Y-95270000D01*
X133720016Y-95270001D01*
X133427615Y-95308496D01*
X133427602Y-95308499D01*
X133142709Y-95384835D01*
X133142699Y-95384838D01*
X132870218Y-95497704D01*
X132870207Y-95497709D01*
X132686500Y-95603774D01*
X132618600Y-95620247D01*
X132552573Y-95597395D01*
X132509383Y-95542473D01*
X132500500Y-95496387D01*
X132500500Y-90143713D01*
X135227000Y-90143713D01*
X135227000Y-90356286D01*
X135246245Y-90477798D01*
X135260254Y-90566243D01*
X135321021Y-90753265D01*
X135325944Y-90768414D01*
X135422451Y-90957820D01*
X135547390Y-91129786D01*
X135547396Y-91129792D01*
X135697708Y-91280104D01*
X135862719Y-91399991D01*
X135905384Y-91455319D01*
X135911363Y-91524932D01*
X135878758Y-91586728D01*
X135862718Y-91600626D01*
X135815782Y-91634726D01*
X135815782Y-91634728D01*
X136480751Y-92299697D01*
X136399947Y-92321349D01*
X136295054Y-92381909D01*
X136209409Y-92467554D01*
X136148849Y-92572447D01*
X136127197Y-92653251D01*
X135462228Y-91988282D01*
X135462227Y-91988282D01*
X135422880Y-92042439D01*
X135326404Y-92231782D01*
X135260742Y-92433869D01*
X135260742Y-92433872D01*
X135227500Y-92643753D01*
X135227500Y-92856246D01*
X135260742Y-93066127D01*
X135260742Y-93066130D01*
X135326404Y-93268217D01*
X135422875Y-93457550D01*
X135462228Y-93511716D01*
X136127196Y-92846747D01*
X136148849Y-92927553D01*
X136209409Y-93032446D01*
X136295054Y-93118091D01*
X136399947Y-93178651D01*
X136480749Y-93200302D01*
X135815782Y-93865269D01*
X135815782Y-93865270D01*
X135869949Y-93904624D01*
X136059282Y-94001095D01*
X136261370Y-94066757D01*
X136471254Y-94100000D01*
X136683746Y-94100000D01*
X136893627Y-94066757D01*
X136893630Y-94066757D01*
X137095719Y-94001094D01*
X137225964Y-93934730D01*
X137294633Y-93921833D01*
X137359374Y-93948108D01*
X137369941Y-93957533D01*
X137369955Y-93957547D01*
X137485164Y-94043793D01*
X137485171Y-94043797D01*
X137620017Y-94094091D01*
X137620016Y-94094091D01*
X137626944Y-94094835D01*
X137679627Y-94100500D01*
X139475372Y-94100499D01*
X139534983Y-94094091D01*
X139669831Y-94043796D01*
X139785046Y-93957546D01*
X139871296Y-93842331D01*
X139921591Y-93707483D01*
X139928000Y-93647873D01*
X139927999Y-91852128D01*
X139921591Y-91792517D01*
X139919086Y-91785802D01*
X139871297Y-91657671D01*
X139871293Y-91657664D01*
X139785047Y-91542455D01*
X139785044Y-91542452D01*
X139669835Y-91456206D01*
X139669830Y-91456203D01*
X139567550Y-91418055D01*
X139511617Y-91376183D01*
X139487200Y-91310719D01*
X139502052Y-91242446D01*
X139523199Y-91214197D01*
X139607604Y-91129792D01*
X139609445Y-91127259D01*
X139732548Y-90957820D01*
X139732547Y-90957820D01*
X139732551Y-90957816D01*
X139829057Y-90768412D01*
X139894746Y-90566243D01*
X139928000Y-90356287D01*
X139928000Y-90143713D01*
X139924373Y-90120814D01*
X139909905Y-90029463D01*
X139907797Y-90016153D01*
X153749500Y-90016153D01*
X153749500Y-90173846D01*
X153780261Y-90328489D01*
X153780264Y-90328501D01*
X153840602Y-90474172D01*
X153840609Y-90474185D01*
X153928210Y-90605288D01*
X153928213Y-90605292D01*
X154039707Y-90716786D01*
X154039711Y-90716789D01*
X154170814Y-90804390D01*
X154170827Y-90804397D01*
X154235901Y-90831351D01*
X154316503Y-90864737D01*
X154383580Y-90878079D01*
X154445488Y-90910461D01*
X154447068Y-90912014D01*
X155540325Y-92005272D01*
X155540328Y-92005275D01*
X155643228Y-92074030D01*
X155645085Y-92075270D01*
X155646873Y-92076465D01*
X155765256Y-92125501D01*
X155765260Y-92125501D01*
X155765261Y-92125502D01*
X155890928Y-92150500D01*
X155890931Y-92150500D01*
X155995065Y-92150500D01*
X156062104Y-92170185D01*
X156063909Y-92171366D01*
X156120821Y-92209394D01*
X156120823Y-92209395D01*
X156120827Y-92209397D01*
X156266498Y-92269735D01*
X156266503Y-92269737D01*
X156394021Y-92295102D01*
X156421153Y-92300499D01*
X156421156Y-92300500D01*
X156421158Y-92300500D01*
X156578844Y-92300500D01*
X156578845Y-92300499D01*
X156733497Y-92269737D01*
X156846166Y-92223067D01*
X156879172Y-92209397D01*
X156879172Y-92209396D01*
X156879179Y-92209394D01*
X157010289Y-92121789D01*
X157121789Y-92010289D01*
X157209394Y-91879179D01*
X157269737Y-91733497D01*
X157300500Y-91578842D01*
X157300500Y-91421158D01*
X157300500Y-91421155D01*
X157300499Y-91421153D01*
X157290418Y-91370471D01*
X157269737Y-91266503D01*
X157248072Y-91214199D01*
X157209397Y-91120827D01*
X157209390Y-91120814D01*
X157121789Y-90989711D01*
X157121786Y-90989707D01*
X157010292Y-90878213D01*
X157010288Y-90878210D01*
X156879185Y-90790609D01*
X156879172Y-90790602D01*
X156733501Y-90730264D01*
X156733489Y-90730261D01*
X156578845Y-90699500D01*
X156578842Y-90699500D01*
X156421158Y-90699500D01*
X156421155Y-90699500D01*
X156266505Y-90730261D01*
X156266497Y-90730264D01*
X156228994Y-90745798D01*
X156159525Y-90753265D01*
X156097046Y-90721989D01*
X156093863Y-90718917D01*
X155367015Y-89992069D01*
X155333530Y-89930746D01*
X155333093Y-89928652D01*
X155319737Y-89861503D01*
X155265924Y-89731585D01*
X155259397Y-89715827D01*
X155259390Y-89715814D01*
X155171789Y-89584711D01*
X155171786Y-89584707D01*
X155060292Y-89473213D01*
X155060288Y-89473210D01*
X154929185Y-89385609D01*
X154929172Y-89385602D01*
X154783501Y-89325264D01*
X154783489Y-89325261D01*
X154628845Y-89294500D01*
X154628842Y-89294500D01*
X154471158Y-89294500D01*
X154471155Y-89294500D01*
X154316510Y-89325261D01*
X154316498Y-89325264D01*
X154170827Y-89385602D01*
X154170814Y-89385609D01*
X154039711Y-89473210D01*
X154039707Y-89473213D01*
X153928213Y-89584707D01*
X153928210Y-89584711D01*
X153840609Y-89715814D01*
X153840602Y-89715827D01*
X153780264Y-89861498D01*
X153780261Y-89861510D01*
X153749500Y-90016153D01*
X139907797Y-90016153D01*
X139894746Y-89933760D01*
X139894746Y-89933757D01*
X139829057Y-89731588D01*
X139732551Y-89542184D01*
X139732549Y-89542181D01*
X139732548Y-89542179D01*
X139607609Y-89370213D01*
X139457286Y-89219890D01*
X139285320Y-89094951D01*
X139095914Y-88998444D01*
X139095913Y-88998443D01*
X139095912Y-88998443D01*
X138893743Y-88932754D01*
X138893741Y-88932753D01*
X138893740Y-88932753D01*
X138732457Y-88907208D01*
X138683787Y-88899500D01*
X138471213Y-88899500D01*
X138422542Y-88907208D01*
X138261260Y-88932753D01*
X138059085Y-88998444D01*
X137869679Y-89094951D01*
X137697713Y-89219890D01*
X137697709Y-89219894D01*
X137665181Y-89252423D01*
X137603858Y-89285908D01*
X137534166Y-89280924D01*
X137489819Y-89252423D01*
X137457286Y-89219890D01*
X137285320Y-89094951D01*
X137095914Y-88998444D01*
X137095913Y-88998443D01*
X137095912Y-88998443D01*
X136893743Y-88932754D01*
X136893741Y-88932753D01*
X136893740Y-88932753D01*
X136732457Y-88907208D01*
X136683787Y-88899500D01*
X136471213Y-88899500D01*
X136422542Y-88907208D01*
X136261260Y-88932753D01*
X136059085Y-88998444D01*
X135869679Y-89094951D01*
X135697713Y-89219890D01*
X135547390Y-89370213D01*
X135422451Y-89542179D01*
X135325944Y-89731585D01*
X135260253Y-89933760D01*
X135227000Y-90143713D01*
X132500500Y-90143713D01*
X132500500Y-87503612D01*
X132520185Y-87436573D01*
X132572989Y-87390818D01*
X132642147Y-87380874D01*
X132686501Y-87396225D01*
X132870214Y-87502293D01*
X132870218Y-87502295D01*
X133142699Y-87615161D01*
X133142709Y-87615164D01*
X133427602Y-87691500D01*
X133427615Y-87691503D01*
X133720016Y-87729998D01*
X133720034Y-87730000D01*
X134014966Y-87730000D01*
X134014983Y-87729998D01*
X134307384Y-87691503D01*
X134307397Y-87691500D01*
X134592290Y-87615164D01*
X134592300Y-87615161D01*
X134864781Y-87502295D01*
X134864792Y-87502290D01*
X135120207Y-87354825D01*
X135120225Y-87354813D01*
X135272167Y-87238222D01*
X135272167Y-87238220D01*
X134496772Y-86462825D01*
X134626446Y-86368612D01*
X134756112Y-86238946D01*
X134850325Y-86109272D01*
X135625720Y-86884667D01*
X135625722Y-86884667D01*
X135742313Y-86732725D01*
X135742325Y-86732707D01*
X135889790Y-86477292D01*
X135889795Y-86477281D01*
X136002661Y-86204800D01*
X136002664Y-86204790D01*
X136079000Y-85919897D01*
X136079003Y-85919884D01*
X136117498Y-85627483D01*
X136117500Y-85627466D01*
X136117500Y-85332533D01*
X136117498Y-85332516D01*
X136079003Y-85040115D01*
X136079000Y-85040102D01*
X136002664Y-84755209D01*
X136002661Y-84755199D01*
X135889795Y-84482718D01*
X135889790Y-84482707D01*
X135742325Y-84227292D01*
X135742319Y-84227284D01*
X135625721Y-84075331D01*
X134850325Y-84850727D01*
X134756112Y-84721054D01*
X134626446Y-84591388D01*
X134496770Y-84497173D01*
X135272167Y-83721777D01*
X135120215Y-83605180D01*
X135120207Y-83605174D01*
X134864792Y-83457709D01*
X134864781Y-83457704D01*
X134592300Y-83344838D01*
X134592290Y-83344835D01*
X134307397Y-83268499D01*
X134307384Y-83268496D01*
X134014983Y-83230001D01*
X134014966Y-83230000D01*
X133720034Y-83230000D01*
X133720016Y-83230001D01*
X133427615Y-83268496D01*
X133427602Y-83268499D01*
X133142709Y-83344835D01*
X133142699Y-83344838D01*
X132870218Y-83457704D01*
X132870207Y-83457709D01*
X132686500Y-83563774D01*
X132618600Y-83580247D01*
X132552573Y-83557395D01*
X132509383Y-83502473D01*
X132500500Y-83456387D01*
X132500500Y-72449983D01*
X141749500Y-72449983D01*
X141749500Y-74550001D01*
X141749501Y-74550018D01*
X141760000Y-74652796D01*
X141760001Y-74652799D01*
X141807725Y-74796819D01*
X141815186Y-74819334D01*
X141907288Y-74968656D01*
X142031344Y-75092712D01*
X142180666Y-75184814D01*
X142347203Y-75239999D01*
X142449991Y-75250500D01*
X144550008Y-75250499D01*
X144652797Y-75239999D01*
X144819334Y-75184814D01*
X144968656Y-75092712D01*
X145092712Y-74968656D01*
X145184814Y-74819334D01*
X145239999Y-74652797D01*
X145250500Y-74550009D01*
X145250499Y-72932939D01*
X145270184Y-72865901D01*
X145286818Y-72845259D01*
X145546259Y-72585819D01*
X145607582Y-72552334D01*
X145633940Y-72549500D01*
X146813403Y-72549500D01*
X146880442Y-72569185D01*
X146926197Y-72621989D01*
X146936141Y-72691147D01*
X146927964Y-72720952D01*
X146838842Y-72936112D01*
X146779453Y-73157759D01*
X146779451Y-73157770D01*
X146749500Y-73385258D01*
X146749500Y-73614741D01*
X146764484Y-73728546D01*
X146779452Y-73842238D01*
X146838842Y-74063887D01*
X146843096Y-74074157D01*
X146926650Y-74275876D01*
X146926657Y-74275890D01*
X147041392Y-74474617D01*
X147181081Y-74656661D01*
X147181089Y-74656670D01*
X147343330Y-74818911D01*
X147343338Y-74818918D01*
X147343339Y-74818919D01*
X147422558Y-74879706D01*
X147525382Y-74958607D01*
X147525388Y-74958611D01*
X147637500Y-75023339D01*
X147685715Y-75073904D01*
X147699500Y-75130725D01*
X147699500Y-78578846D01*
X147730261Y-78733489D01*
X147730264Y-78733501D01*
X147790602Y-78879172D01*
X147790609Y-78879185D01*
X147878210Y-79010288D01*
X147878213Y-79010292D01*
X177203181Y-108335259D01*
X177236666Y-108396582D01*
X177239500Y-108422940D01*
X177239500Y-108599209D01*
X177270519Y-108795052D01*
X177270537Y-108795168D01*
X177300607Y-108887713D01*
X177331850Y-108983868D01*
X177374963Y-109068481D01*
X177421923Y-109160646D01*
X177538544Y-109321161D01*
X177678839Y-109461456D01*
X177839354Y-109578077D01*
X177935880Y-109627259D01*
X178016131Y-109668149D01*
X178016133Y-109668149D01*
X178016136Y-109668151D01*
X178204832Y-109729463D01*
X178302814Y-109744981D01*
X178400791Y-109760500D01*
X178400796Y-109760500D01*
X178599209Y-109760500D01*
X178688278Y-109746392D01*
X178795168Y-109729463D01*
X178983864Y-109668151D01*
X179160646Y-109578077D01*
X179321161Y-109461456D01*
X179461456Y-109321161D01*
X179578077Y-109160646D01*
X179668151Y-108983864D01*
X179729463Y-108795168D01*
X179749685Y-108667490D01*
X179760500Y-108599209D01*
X179760500Y-108400790D01*
X179736826Y-108251324D01*
X179729463Y-108204832D01*
X179668151Y-108016136D01*
X179668149Y-108016133D01*
X179668149Y-108016131D01*
X179635880Y-107952800D01*
X179578077Y-107839354D01*
X179461456Y-107678839D01*
X179321161Y-107538544D01*
X179160646Y-107421923D01*
X179102900Y-107392500D01*
X178983868Y-107331850D01*
X178938596Y-107317140D01*
X178795168Y-107270537D01*
X178795162Y-107270536D01*
X178599209Y-107239500D01*
X178599204Y-107239500D01*
X178422940Y-107239500D01*
X178355901Y-107219815D01*
X178335259Y-107203181D01*
X176053231Y-104921153D01*
X182699500Y-104921153D01*
X182699500Y-105078846D01*
X182730261Y-105233489D01*
X182730264Y-105233501D01*
X182790602Y-105379172D01*
X182790609Y-105379185D01*
X182878210Y-105510288D01*
X182878213Y-105510292D01*
X182989707Y-105621786D01*
X182989711Y-105621789D01*
X183120814Y-105709390D01*
X183120827Y-105709397D01*
X183266498Y-105769735D01*
X183266503Y-105769737D01*
X183421153Y-105800499D01*
X183421156Y-105800500D01*
X183421158Y-105800500D01*
X183578844Y-105800500D01*
X183578845Y-105800499D01*
X183733497Y-105769737D01*
X183879179Y-105709394D01*
X184010289Y-105621789D01*
X184121789Y-105510289D01*
X184209394Y-105379179D01*
X184269737Y-105233497D01*
X184300500Y-105078842D01*
X184300500Y-104921158D01*
X184300500Y-104921155D01*
X184300499Y-104921153D01*
X184287052Y-104853553D01*
X184269737Y-104766503D01*
X184209394Y-104620821D01*
X184171396Y-104563953D01*
X184150520Y-104497276D01*
X184150500Y-104495064D01*
X184150500Y-98359983D01*
X185894500Y-98359983D01*
X185894500Y-99560001D01*
X185894501Y-99560018D01*
X185905000Y-99662796D01*
X185905001Y-99662799D01*
X185960185Y-99829331D01*
X185960187Y-99829336D01*
X185968145Y-99842238D01*
X186052288Y-99978656D01*
X186176344Y-100102712D01*
X186325666Y-100194814D01*
X186408152Y-100222147D01*
X186465597Y-100261920D01*
X186492420Y-100326436D01*
X186480105Y-100395212D01*
X186470143Y-100406975D01*
X186469077Y-100420524D01*
X187148554Y-101100000D01*
X187142339Y-101100000D01*
X187040606Y-101127259D01*
X186949394Y-101179920D01*
X186874920Y-101254394D01*
X186822259Y-101345606D01*
X186795000Y-101447339D01*
X186795000Y-101453553D01*
X186115524Y-100774077D01*
X186115523Y-100774077D01*
X186083143Y-100818644D01*
X185990244Y-101000968D01*
X185927009Y-101195582D01*
X185895000Y-101397682D01*
X185895000Y-101602317D01*
X185927009Y-101804417D01*
X185990244Y-101999031D01*
X186083141Y-102181350D01*
X186083147Y-102181359D01*
X186115523Y-102225921D01*
X186115524Y-102225922D01*
X186795000Y-101546446D01*
X186795000Y-101552661D01*
X186822259Y-101654394D01*
X186874920Y-101745606D01*
X186949394Y-101820080D01*
X187040606Y-101872741D01*
X187142339Y-101900000D01*
X187148553Y-101900000D01*
X186469076Y-102579474D01*
X186513652Y-102611861D01*
X186606628Y-102659234D01*
X186657425Y-102707208D01*
X186674220Y-102775029D01*
X186651683Y-102841164D01*
X186606630Y-102880203D01*
X186513388Y-102927713D01*
X186347786Y-103048028D01*
X186203028Y-103192786D01*
X186082715Y-103358386D01*
X185989781Y-103540776D01*
X185926522Y-103735465D01*
X185896665Y-103923978D01*
X185894500Y-103937648D01*
X185894500Y-104142352D01*
X185896957Y-104157862D01*
X185926522Y-104344534D01*
X185989781Y-104539223D01*
X186031356Y-104620817D01*
X186082585Y-104721359D01*
X186082715Y-104721613D01*
X186203028Y-104887213D01*
X186347786Y-105031971D01*
X186468226Y-105119474D01*
X186513390Y-105152287D01*
X186629607Y-105211503D01*
X186695776Y-105245218D01*
X186695778Y-105245218D01*
X186695781Y-105245220D01*
X186789463Y-105275659D01*
X186890465Y-105308477D01*
X186991557Y-105324488D01*
X187092648Y-105340500D01*
X187092649Y-105340500D01*
X187297351Y-105340500D01*
X187297352Y-105340500D01*
X187499534Y-105308477D01*
X187694219Y-105245220D01*
X187876610Y-105152287D01*
X187977694Y-105078846D01*
X188042213Y-105031971D01*
X188042215Y-105031968D01*
X188042219Y-105031966D01*
X188186966Y-104887219D01*
X188186968Y-104887215D01*
X188186971Y-104887213D01*
X188244601Y-104807890D01*
X188307287Y-104721610D01*
X188400220Y-104539219D01*
X188463477Y-104344534D01*
X188495500Y-104142352D01*
X188495500Y-103937648D01*
X188481618Y-103850000D01*
X188463477Y-103735465D01*
X188432458Y-103640000D01*
X188400220Y-103540781D01*
X188400218Y-103540778D01*
X188400218Y-103540776D01*
X188307419Y-103358650D01*
X188307287Y-103358390D01*
X188275092Y-103314077D01*
X188186971Y-103192786D01*
X188042213Y-103048028D01*
X187876611Y-102927713D01*
X187783369Y-102880203D01*
X187732574Y-102832229D01*
X187715779Y-102764407D01*
X187738317Y-102698273D01*
X187783371Y-102659234D01*
X187876346Y-102611861D01*
X187876347Y-102611861D01*
X187920921Y-102579474D01*
X187241447Y-101900000D01*
X187247661Y-101900000D01*
X187349394Y-101872741D01*
X187440606Y-101820080D01*
X187515080Y-101745606D01*
X187567741Y-101654394D01*
X187595000Y-101552661D01*
X187595000Y-101546447D01*
X188274474Y-102225921D01*
X188306859Y-102181349D01*
X188399755Y-101999031D01*
X188462990Y-101804417D01*
X188495000Y-101602317D01*
X188495000Y-101397682D01*
X188462990Y-101195582D01*
X188399755Y-101000968D01*
X188306859Y-100818650D01*
X188274474Y-100774077D01*
X188274474Y-100774076D01*
X187595000Y-101453551D01*
X187595000Y-101447339D01*
X187567741Y-101345606D01*
X187515080Y-101254394D01*
X187440606Y-101179920D01*
X187349394Y-101127259D01*
X187247661Y-101100000D01*
X187241446Y-101100000D01*
X187920922Y-100420524D01*
X187919570Y-100403349D01*
X187905299Y-100384842D01*
X187899320Y-100315229D01*
X187931925Y-100253433D01*
X187981845Y-100222148D01*
X188064334Y-100194814D01*
X188213656Y-100102712D01*
X188337712Y-99978656D01*
X188429814Y-99829334D01*
X188484999Y-99662797D01*
X188495500Y-99560009D01*
X188495499Y-98359992D01*
X188484999Y-98257203D01*
X188429814Y-98090666D01*
X188337712Y-97941344D01*
X188213656Y-97817288D01*
X188064334Y-97725186D01*
X187897797Y-97670001D01*
X187897795Y-97670000D01*
X187795010Y-97659500D01*
X186594998Y-97659500D01*
X186594981Y-97659501D01*
X186492203Y-97670000D01*
X186492200Y-97670001D01*
X186325668Y-97725185D01*
X186325663Y-97725187D01*
X186176342Y-97817289D01*
X186052289Y-97941342D01*
X185960187Y-98090663D01*
X185960186Y-98090666D01*
X185905001Y-98257203D01*
X185905001Y-98257204D01*
X185905000Y-98257204D01*
X185894500Y-98359983D01*
X184150500Y-98359983D01*
X184150500Y-96820807D01*
X184170185Y-96753768D01*
X184186814Y-96733131D01*
X188602931Y-92317013D01*
X188664252Y-92283530D01*
X188666317Y-92283099D01*
X188733497Y-92269737D01*
X188879179Y-92209394D01*
X189010289Y-92121789D01*
X189121789Y-92010289D01*
X189209394Y-91879179D01*
X189269737Y-91733497D01*
X189300500Y-91578842D01*
X189300500Y-91421158D01*
X189300500Y-91421155D01*
X189300499Y-91421153D01*
X189290418Y-91370471D01*
X189269737Y-91266503D01*
X189248072Y-91214199D01*
X189209397Y-91120827D01*
X189209390Y-91120814D01*
X189121789Y-90989711D01*
X189121786Y-90989707D01*
X189010292Y-90878213D01*
X189010288Y-90878210D01*
X188879185Y-90790609D01*
X188879172Y-90790602D01*
X188733501Y-90730264D01*
X188733489Y-90730261D01*
X188578845Y-90699500D01*
X188578842Y-90699500D01*
X188421158Y-90699500D01*
X188421155Y-90699500D01*
X188266510Y-90730261D01*
X188266498Y-90730264D01*
X188120827Y-90790602D01*
X188120814Y-90790609D01*
X187989711Y-90878210D01*
X187989707Y-90878213D01*
X187878213Y-90989707D01*
X187878210Y-90989711D01*
X187790609Y-91120814D01*
X187790602Y-91120827D01*
X187730264Y-91266498D01*
X187730261Y-91266508D01*
X187716920Y-91333579D01*
X187684535Y-91395490D01*
X187682984Y-91397068D01*
X182994726Y-96085326D01*
X182989791Y-96092712D01*
X182928254Y-96184812D01*
X182928253Y-96184813D01*
X182923535Y-96191872D01*
X182923535Y-96191873D01*
X182874499Y-96310255D01*
X182874497Y-96310261D01*
X182849500Y-96435928D01*
X182849500Y-104495064D01*
X182829815Y-104562103D01*
X182828606Y-104563948D01*
X182824861Y-104569553D01*
X182790608Y-104620817D01*
X182790602Y-104620828D01*
X182730264Y-104766498D01*
X182730261Y-104766510D01*
X182699500Y-104921153D01*
X176053231Y-104921153D01*
X173024259Y-101892181D01*
X172990774Y-101830858D01*
X172995758Y-101761166D01*
X173037630Y-101705233D01*
X173103094Y-101680816D01*
X173111940Y-101680500D01*
X177134831Y-101680500D01*
X177201870Y-101700185D01*
X177247625Y-101752989D01*
X177251010Y-101761162D01*
X177251012Y-101761166D01*
X177251013Y-101761167D01*
X177296202Y-101882328D01*
X177296206Y-101882335D01*
X177382452Y-101997544D01*
X177382455Y-101997547D01*
X177497664Y-102083793D01*
X177497671Y-102083797D01*
X177632517Y-102134091D01*
X177632516Y-102134091D01*
X177639444Y-102134835D01*
X177692127Y-102140500D01*
X179307872Y-102140499D01*
X179367483Y-102134091D01*
X179502331Y-102083796D01*
X179617546Y-101997546D01*
X179703796Y-101882331D01*
X179754091Y-101747483D01*
X179760500Y-101687873D01*
X179760499Y-100072128D01*
X179754091Y-100012517D01*
X179748987Y-99998833D01*
X179703797Y-99877671D01*
X179703793Y-99877664D01*
X179617547Y-99762455D01*
X179617544Y-99762452D01*
X179502335Y-99676206D01*
X179502328Y-99676202D01*
X179367482Y-99625908D01*
X179367483Y-99625908D01*
X179307883Y-99619501D01*
X179307881Y-99619500D01*
X179307873Y-99619500D01*
X179307864Y-99619500D01*
X177692129Y-99619500D01*
X177692123Y-99619501D01*
X177632516Y-99625908D01*
X177497671Y-99676202D01*
X177497664Y-99676206D01*
X177382455Y-99762452D01*
X177382452Y-99762455D01*
X177296206Y-99877664D01*
X177296202Y-99877671D01*
X177251013Y-99998833D01*
X177209142Y-100054766D01*
X177143678Y-100079184D01*
X177134831Y-100079500D01*
X172496185Y-100079500D01*
X172429146Y-100059815D01*
X172408504Y-100043181D01*
X165091652Y-92726329D01*
X165058167Y-92665006D01*
X165063151Y-92595314D01*
X165105023Y-92539381D01*
X165106446Y-92538331D01*
X165128646Y-92522200D01*
X164506446Y-91900000D01*
X164512661Y-91900000D01*
X164614394Y-91872741D01*
X164705606Y-91820080D01*
X164780080Y-91745606D01*
X164832741Y-91654394D01*
X164860000Y-91552661D01*
X164860000Y-91546446D01*
X165482200Y-92168646D01*
X165482201Y-92168646D01*
X165503436Y-92139419D01*
X165590616Y-91968319D01*
X165611805Y-91903108D01*
X165651242Y-91845433D01*
X165715600Y-91818234D01*
X165784447Y-91830148D01*
X165835923Y-91877392D01*
X165847667Y-91903108D01*
X165868916Y-91968505D01*
X165868917Y-91968506D01*
X165868918Y-91968509D01*
X165956135Y-92139681D01*
X166069055Y-92295102D01*
X166204898Y-92430945D01*
X166360319Y-92543865D01*
X166461293Y-92595314D01*
X166531493Y-92631083D01*
X166622845Y-92660764D01*
X166714199Y-92690447D01*
X166903945Y-92720500D01*
X166903946Y-92720500D01*
X167096054Y-92720500D01*
X167096055Y-92720500D01*
X167285801Y-92690447D01*
X167468509Y-92631082D01*
X167639681Y-92543865D01*
X167795102Y-92430945D01*
X167930945Y-92295102D01*
X168043865Y-92139681D01*
X168131082Y-91968509D01*
X168131144Y-91968319D01*
X168152069Y-91903919D01*
X168191506Y-91846243D01*
X168255864Y-91819044D01*
X168324711Y-91830958D01*
X168376187Y-91878202D01*
X168387931Y-91903919D01*
X168408915Y-91968504D01*
X168488909Y-92125500D01*
X168496135Y-92139681D01*
X168609055Y-92295102D01*
X168744898Y-92430945D01*
X168900319Y-92543865D01*
X169001293Y-92595314D01*
X169071493Y-92631083D01*
X169162845Y-92660764D01*
X169254199Y-92690447D01*
X169443945Y-92720500D01*
X169443946Y-92720500D01*
X169636054Y-92720500D01*
X169636055Y-92720500D01*
X169825801Y-92690447D01*
X170008509Y-92631082D01*
X170179681Y-92543865D01*
X170335102Y-92430945D01*
X170470945Y-92295102D01*
X170583865Y-92139681D01*
X170671082Y-91968509D01*
X170730447Y-91785801D01*
X170760500Y-91596055D01*
X170760500Y-91403984D01*
X173700000Y-91403984D01*
X173700000Y-91596015D01*
X173730040Y-91785684D01*
X173789383Y-91968321D01*
X173876561Y-92139415D01*
X173897798Y-92168646D01*
X174520000Y-91546445D01*
X174520000Y-91552661D01*
X174547259Y-91654394D01*
X174599920Y-91745606D01*
X174674394Y-91820080D01*
X174765606Y-91872741D01*
X174867339Y-91900000D01*
X174873554Y-91900000D01*
X174251351Y-92522200D01*
X174251352Y-92522201D01*
X174280577Y-92543434D01*
X174451678Y-92630616D01*
X174634315Y-92689959D01*
X174823985Y-92720000D01*
X175016015Y-92720000D01*
X175205684Y-92689959D01*
X175388321Y-92630616D01*
X175559419Y-92543436D01*
X175588646Y-92522201D01*
X175588646Y-92522200D01*
X174966447Y-91900000D01*
X174972661Y-91900000D01*
X175074394Y-91872741D01*
X175165606Y-91820080D01*
X175240080Y-91745606D01*
X175292741Y-91654394D01*
X175320000Y-91552661D01*
X175320000Y-91546446D01*
X175942200Y-92168646D01*
X175942201Y-92168646D01*
X175963436Y-92139419D01*
X176050616Y-91968319D01*
X176071805Y-91903108D01*
X176111242Y-91845433D01*
X176175600Y-91818234D01*
X176244447Y-91830148D01*
X176295923Y-91877392D01*
X176307667Y-91903108D01*
X176328916Y-91968505D01*
X176328917Y-91968506D01*
X176328918Y-91968509D01*
X176416135Y-92139681D01*
X176529055Y-92295102D01*
X176664898Y-92430945D01*
X176820319Y-92543865D01*
X176921293Y-92595314D01*
X176991493Y-92631083D01*
X177082845Y-92660764D01*
X177174199Y-92690447D01*
X177363945Y-92720500D01*
X177363946Y-92720500D01*
X177556054Y-92720500D01*
X177556055Y-92720500D01*
X177745801Y-92690447D01*
X177928509Y-92631082D01*
X178099681Y-92543865D01*
X178255102Y-92430945D01*
X178390945Y-92295102D01*
X178503865Y-92139681D01*
X178591082Y-91968509D01*
X178591144Y-91968319D01*
X178612069Y-91903919D01*
X178651506Y-91846243D01*
X178715864Y-91819044D01*
X178784711Y-91830958D01*
X178836187Y-91878202D01*
X178847931Y-91903919D01*
X178868915Y-91968504D01*
X178948909Y-92125500D01*
X178956135Y-92139681D01*
X179069055Y-92295102D01*
X179204898Y-92430945D01*
X179360319Y-92543865D01*
X179461293Y-92595314D01*
X179531493Y-92631083D01*
X179622845Y-92660764D01*
X179714199Y-92690447D01*
X179903945Y-92720500D01*
X179903946Y-92720500D01*
X180096054Y-92720500D01*
X180096055Y-92720500D01*
X180285801Y-92690447D01*
X180468509Y-92631082D01*
X180639681Y-92543865D01*
X180795102Y-92430945D01*
X180930945Y-92295102D01*
X181043865Y-92139681D01*
X181131082Y-91968509D01*
X181190447Y-91785801D01*
X181220500Y-91596055D01*
X181220500Y-91403945D01*
X181216497Y-91378674D01*
X181225451Y-91309385D01*
X181270446Y-91255932D01*
X181337197Y-91235291D01*
X181404511Y-91254015D01*
X181426651Y-91271597D01*
X183257984Y-93102930D01*
X183291469Y-93164253D01*
X183291920Y-93166420D01*
X183305261Y-93233489D01*
X183305264Y-93233501D01*
X183365602Y-93379172D01*
X183365609Y-93379185D01*
X183453210Y-93510288D01*
X183453213Y-93510292D01*
X183564707Y-93621786D01*
X183564711Y-93621789D01*
X183695814Y-93709390D01*
X183695827Y-93709397D01*
X183841498Y-93769735D01*
X183841503Y-93769737D01*
X183996153Y-93800499D01*
X183996156Y-93800500D01*
X183996158Y-93800500D01*
X184153844Y-93800500D01*
X184153845Y-93800499D01*
X184308497Y-93769737D01*
X184454179Y-93709394D01*
X184585289Y-93621789D01*
X184696789Y-93510289D01*
X184784394Y-93379179D01*
X184844737Y-93233497D01*
X184875500Y-93078842D01*
X184875500Y-92921158D01*
X184875500Y-92921155D01*
X184875499Y-92921153D01*
X184872741Y-92907288D01*
X184844737Y-92766503D01*
X184813234Y-92690447D01*
X184784397Y-92620827D01*
X184784390Y-92620814D01*
X184696789Y-92489711D01*
X184696786Y-92489707D01*
X184585292Y-92378213D01*
X184585288Y-92378210D01*
X184454185Y-92290609D01*
X184454172Y-92290602D01*
X184308501Y-92230264D01*
X184308489Y-92230261D01*
X184241420Y-92216920D01*
X184179509Y-92184535D01*
X184177930Y-92182984D01*
X180857127Y-88862181D01*
X180823642Y-88800858D01*
X180828626Y-88731166D01*
X180870498Y-88675233D01*
X180935962Y-88650816D01*
X180944808Y-88650500D01*
X181216692Y-88650500D01*
X181283731Y-88670185D01*
X181304373Y-88686819D01*
X183220484Y-90602930D01*
X183253969Y-90664253D01*
X183254420Y-90666420D01*
X183267761Y-90733489D01*
X183267764Y-90733501D01*
X183328102Y-90879172D01*
X183328109Y-90879185D01*
X183415710Y-91010288D01*
X183415713Y-91010292D01*
X183527207Y-91121786D01*
X183527211Y-91121789D01*
X183658314Y-91209390D01*
X183658327Y-91209397D01*
X183796183Y-91266498D01*
X183804003Y-91269737D01*
X183958653Y-91300499D01*
X183958656Y-91300500D01*
X183958658Y-91300500D01*
X184116344Y-91300500D01*
X184116345Y-91300499D01*
X184270997Y-91269737D01*
X184405079Y-91214199D01*
X184416672Y-91209397D01*
X184416672Y-91209396D01*
X184416679Y-91209394D01*
X184547789Y-91121789D01*
X184659289Y-91010289D01*
X184746894Y-90879179D01*
X184747351Y-90878077D01*
X184777872Y-90804390D01*
X184807237Y-90733497D01*
X184838000Y-90578842D01*
X184838000Y-90421158D01*
X184838000Y-90421155D01*
X184837999Y-90421153D01*
X184810618Y-90283502D01*
X184807237Y-90266503D01*
X184800401Y-90250000D01*
X184746897Y-90120827D01*
X184746890Y-90120814D01*
X184659289Y-89989711D01*
X184659286Y-89989707D01*
X184547792Y-89878213D01*
X184547788Y-89878210D01*
X184416685Y-89790609D01*
X184416672Y-89790602D01*
X184271001Y-89730264D01*
X184270989Y-89730261D01*
X184203920Y-89716920D01*
X184142009Y-89684535D01*
X184140430Y-89682984D01*
X182480627Y-88023181D01*
X182447142Y-87961858D01*
X182452126Y-87892166D01*
X182493998Y-87836233D01*
X182559462Y-87811816D01*
X182568308Y-87811500D01*
X185030300Y-87811500D01*
X185097339Y-87831185D01*
X185117981Y-87847819D01*
X185416609Y-88146446D01*
X185684832Y-88414669D01*
X185734736Y-88464573D01*
X185775440Y-88505277D01*
X185881974Y-88576461D01*
X185881983Y-88576466D01*
X185887729Y-88578846D01*
X186000364Y-88625501D01*
X186000368Y-88625501D01*
X186000369Y-88625502D01*
X186126036Y-88650500D01*
X186126039Y-88650500D01*
X189495065Y-88650500D01*
X189562104Y-88670185D01*
X189563909Y-88671366D01*
X189620821Y-88709394D01*
X189620823Y-88709395D01*
X189620827Y-88709397D01*
X189758683Y-88766498D01*
X189766503Y-88769737D01*
X189921153Y-88800499D01*
X189921156Y-88800500D01*
X189921158Y-88800500D01*
X190078844Y-88800500D01*
X190078845Y-88800499D01*
X190233497Y-88769737D01*
X190379179Y-88709394D01*
X190510289Y-88621789D01*
X190621789Y-88510289D01*
X190622397Y-88509378D01*
X190622839Y-88509008D01*
X190625653Y-88505581D01*
X190626303Y-88506114D01*
X190676010Y-88464573D01*
X190745334Y-88455866D01*
X190808362Y-88486020D01*
X190845082Y-88545463D01*
X190849500Y-88578269D01*
X190849500Y-106995064D01*
X190829815Y-107062103D01*
X190828603Y-107063954D01*
X190790608Y-107120817D01*
X190790602Y-107120828D01*
X190730264Y-107266498D01*
X190730261Y-107266510D01*
X190699500Y-107421153D01*
X190699500Y-107578846D01*
X190730261Y-107733489D01*
X190730264Y-107733501D01*
X190790602Y-107879172D01*
X190790609Y-107879185D01*
X190878210Y-108010288D01*
X190878213Y-108010292D01*
X190989707Y-108121786D01*
X190989711Y-108121789D01*
X191120814Y-108209390D01*
X191120827Y-108209397D01*
X191266498Y-108269735D01*
X191266503Y-108269737D01*
X191421153Y-108300499D01*
X191421156Y-108300500D01*
X191421158Y-108300500D01*
X191578844Y-108300500D01*
X191578845Y-108300499D01*
X191733497Y-108269737D01*
X191879179Y-108209394D01*
X192010289Y-108121789D01*
X192121789Y-108010289D01*
X192209394Y-107879179D01*
X192269737Y-107733497D01*
X192300500Y-107578842D01*
X192300500Y-107421158D01*
X192298766Y-107412442D01*
X192294670Y-107391850D01*
X192269737Y-107266503D01*
X192269735Y-107266498D01*
X192209397Y-107120828D01*
X192209396Y-107120827D01*
X192209394Y-107120821D01*
X192171396Y-107063953D01*
X192150520Y-106997276D01*
X192150500Y-106995064D01*
X192150500Y-98857648D01*
X193514500Y-98857648D01*
X193514500Y-99062351D01*
X193546522Y-99264534D01*
X193609781Y-99459223D01*
X193661135Y-99560009D01*
X193694712Y-99625908D01*
X193702715Y-99641613D01*
X193823028Y-99807213D01*
X193967786Y-99951971D01*
X194114880Y-100058839D01*
X194133390Y-100072287D01*
X194224840Y-100118883D01*
X194226080Y-100119515D01*
X194276876Y-100167490D01*
X194293671Y-100235311D01*
X194271134Y-100301446D01*
X194226080Y-100340485D01*
X194133386Y-100387715D01*
X193967786Y-100508028D01*
X193823028Y-100652786D01*
X193702715Y-100818386D01*
X193609781Y-101000776D01*
X193546522Y-101195465D01*
X193514500Y-101397648D01*
X193514500Y-101602351D01*
X193546522Y-101804534D01*
X193609781Y-101999223D01*
X193665952Y-102109463D01*
X193702585Y-102181359D01*
X193702715Y-102181613D01*
X193823028Y-102347213D01*
X193967786Y-102491971D01*
X194133385Y-102612284D01*
X194133387Y-102612285D01*
X194133390Y-102612287D01*
X194225529Y-102659234D01*
X194226630Y-102659795D01*
X194277426Y-102707770D01*
X194294221Y-102775591D01*
X194271684Y-102841725D01*
X194226630Y-102880765D01*
X194133644Y-102928143D01*
X194089077Y-102960523D01*
X194089077Y-102960524D01*
X194768554Y-103640000D01*
X194762339Y-103640000D01*
X194660606Y-103667259D01*
X194569394Y-103719920D01*
X194494920Y-103794394D01*
X194442259Y-103885606D01*
X194415000Y-103987339D01*
X194415000Y-103993553D01*
X193735524Y-103314077D01*
X193735523Y-103314077D01*
X193703143Y-103358644D01*
X193610244Y-103540968D01*
X193547009Y-103735582D01*
X193515000Y-103937682D01*
X193515000Y-104142317D01*
X193547009Y-104344417D01*
X193610244Y-104539031D01*
X193703141Y-104721350D01*
X193703147Y-104721359D01*
X193735523Y-104765921D01*
X193735524Y-104765922D01*
X194415000Y-104086446D01*
X194415000Y-104092661D01*
X194442259Y-104194394D01*
X194494920Y-104285606D01*
X194569394Y-104360080D01*
X194660606Y-104412741D01*
X194762339Y-104440000D01*
X194768553Y-104440000D01*
X194089076Y-105119474D01*
X194133650Y-105151859D01*
X194315968Y-105244755D01*
X194510582Y-105307990D01*
X194712683Y-105340000D01*
X194917317Y-105340000D01*
X195119417Y-105307990D01*
X195314031Y-105244755D01*
X195496349Y-105151859D01*
X195540921Y-105119474D01*
X194861447Y-104440000D01*
X194867661Y-104440000D01*
X194969394Y-104412741D01*
X195060606Y-104360080D01*
X195135080Y-104285606D01*
X195187741Y-104194394D01*
X195215000Y-104092661D01*
X195215000Y-104086447D01*
X195894474Y-104765921D01*
X195926859Y-104721349D01*
X196019754Y-104539031D01*
X196069704Y-104385305D01*
X205750000Y-104385305D01*
X205750000Y-104614694D01*
X205750001Y-104614710D01*
X205779942Y-104842137D01*
X205839318Y-105063730D01*
X205927102Y-105275659D01*
X205927106Y-105275669D01*
X206041799Y-105474324D01*
X206041805Y-105474331D01*
X206098381Y-105548064D01*
X206898958Y-104747487D01*
X206923978Y-104807890D01*
X206995112Y-104914351D01*
X207085649Y-105004888D01*
X207192110Y-105076022D01*
X207252511Y-105101041D01*
X206451934Y-105901617D01*
X206451934Y-105901618D01*
X206525666Y-105958194D01*
X206724330Y-106072893D01*
X206724340Y-106072897D01*
X206936269Y-106160681D01*
X207157862Y-106220057D01*
X207385289Y-106249998D01*
X207385306Y-106250000D01*
X207614694Y-106250000D01*
X207614710Y-106249998D01*
X207842137Y-106220057D01*
X208063730Y-106160681D01*
X208275659Y-106072897D01*
X208275668Y-106072893D01*
X208474327Y-105958197D01*
X208474334Y-105958192D01*
X208548064Y-105901617D01*
X207747488Y-105101041D01*
X207807890Y-105076022D01*
X207914351Y-105004888D01*
X208004888Y-104914351D01*
X208076022Y-104807890D01*
X208101041Y-104747488D01*
X208901617Y-105548064D01*
X208958192Y-105474334D01*
X208958197Y-105474327D01*
X209072893Y-105275668D01*
X209072897Y-105275659D01*
X209160681Y-105063730D01*
X209220057Y-104842137D01*
X209249998Y-104614710D01*
X209250000Y-104614694D01*
X209250000Y-104385305D01*
X209249998Y-104385289D01*
X209220057Y-104157862D01*
X209160681Y-103936269D01*
X209072897Y-103724340D01*
X209072893Y-103724330D01*
X208958194Y-103525666D01*
X208901618Y-103451934D01*
X208901617Y-103451934D01*
X208101041Y-104252510D01*
X208076022Y-104192110D01*
X208004888Y-104085649D01*
X207914351Y-103995112D01*
X207807890Y-103923978D01*
X207747487Y-103898957D01*
X208548064Y-103098381D01*
X208548064Y-103098380D01*
X208474331Y-103041805D01*
X208474324Y-103041799D01*
X208275669Y-102927106D01*
X208275659Y-102927102D01*
X208063730Y-102839318D01*
X207842137Y-102779942D01*
X207614710Y-102750001D01*
X207614694Y-102750000D01*
X207385306Y-102750000D01*
X207385289Y-102750001D01*
X207157862Y-102779942D01*
X206936269Y-102839318D01*
X206724340Y-102927102D01*
X206724330Y-102927106D01*
X206525673Y-103041801D01*
X206525659Y-103041810D01*
X206451934Y-103098380D01*
X207252511Y-103898958D01*
X207192110Y-103923978D01*
X207085649Y-103995112D01*
X206995112Y-104085649D01*
X206923978Y-104192110D01*
X206898958Y-104252511D01*
X206098380Y-103451934D01*
X206041810Y-103525659D01*
X206041801Y-103525673D01*
X205927106Y-103724330D01*
X205927102Y-103724340D01*
X205839318Y-103936269D01*
X205779942Y-104157862D01*
X205750001Y-104385289D01*
X205750000Y-104385305D01*
X196069704Y-104385305D01*
X196082990Y-104344415D01*
X196115000Y-104142317D01*
X196115000Y-103937682D01*
X196082990Y-103735582D01*
X196019755Y-103540968D01*
X195926859Y-103358650D01*
X195894474Y-103314077D01*
X195894474Y-103314076D01*
X195215000Y-103993551D01*
X195215000Y-103987339D01*
X195187741Y-103885606D01*
X195135080Y-103794394D01*
X195060606Y-103719920D01*
X194969394Y-103667259D01*
X194867661Y-103640000D01*
X194861446Y-103640000D01*
X195442794Y-103058653D01*
X195540922Y-102960524D01*
X195540921Y-102960523D01*
X195496359Y-102928147D01*
X195496350Y-102928141D01*
X195403369Y-102880765D01*
X195352573Y-102832790D01*
X195335778Y-102764969D01*
X195358315Y-102698835D01*
X195403370Y-102659795D01*
X195404471Y-102659234D01*
X195496610Y-102612287D01*
X195546144Y-102576298D01*
X195662213Y-102491971D01*
X195662215Y-102491968D01*
X195662219Y-102491966D01*
X195806966Y-102347219D01*
X195806968Y-102347215D01*
X195806971Y-102347213D01*
X195859732Y-102274590D01*
X195927287Y-102181610D01*
X196020220Y-101999219D01*
X196083477Y-101804534D01*
X196115500Y-101602352D01*
X196115500Y-101397648D01*
X196107257Y-101345606D01*
X196083477Y-101195465D01*
X196043797Y-101073344D01*
X196020220Y-101000781D01*
X196020218Y-101000778D01*
X196020218Y-101000776D01*
X195986503Y-100934607D01*
X195927287Y-100818390D01*
X195895092Y-100774077D01*
X195806971Y-100652786D01*
X195662213Y-100508028D01*
X195496614Y-100387715D01*
X195490006Y-100384348D01*
X195403917Y-100340483D01*
X195353123Y-100292511D01*
X195336328Y-100224690D01*
X195358865Y-100158555D01*
X195403917Y-100119516D01*
X195496610Y-100072287D01*
X195578877Y-100012517D01*
X195662213Y-99951971D01*
X195662215Y-99951968D01*
X195662219Y-99951966D01*
X195806966Y-99807219D01*
X195806968Y-99807215D01*
X195806971Y-99807213D01*
X195876256Y-99711849D01*
X195927287Y-99641610D01*
X196020220Y-99459219D01*
X196083477Y-99264534D01*
X196115500Y-99062352D01*
X196115500Y-98857648D01*
X196102049Y-98772725D01*
X196083477Y-98655465D01*
X196041210Y-98525382D01*
X196020220Y-98460781D01*
X196020218Y-98460778D01*
X196020218Y-98460776D01*
X195968865Y-98359991D01*
X195927287Y-98278390D01*
X195902883Y-98244800D01*
X195806971Y-98112786D01*
X195662213Y-97968028D01*
X195496613Y-97847715D01*
X195496612Y-97847714D01*
X195496610Y-97847713D01*
X195425134Y-97811294D01*
X195314223Y-97754781D01*
X195119534Y-97691522D01*
X194944995Y-97663878D01*
X194917352Y-97659500D01*
X194712648Y-97659500D01*
X194688329Y-97663351D01*
X194510465Y-97691522D01*
X194315776Y-97754781D01*
X194133386Y-97847715D01*
X193967786Y-97968028D01*
X193823028Y-98112786D01*
X193702715Y-98278386D01*
X193609781Y-98460776D01*
X193546522Y-98655465D01*
X193514500Y-98857648D01*
X192150500Y-98857648D01*
X192150500Y-86545883D01*
X192860000Y-86545883D01*
X192860000Y-86774116D01*
X192895704Y-86999544D01*
X192966230Y-87216604D01*
X193069851Y-87419969D01*
X193123135Y-87493309D01*
X193123137Y-87493309D01*
X193806624Y-86809822D01*
X193820778Y-86862642D01*
X193889896Y-86982357D01*
X193987643Y-87080104D01*
X194107358Y-87149222D01*
X194160177Y-87163375D01*
X193476688Y-87846862D01*
X193476689Y-87846863D01*
X193550030Y-87900148D01*
X193753395Y-88003769D01*
X193970455Y-88074295D01*
X194195884Y-88110000D01*
X194424116Y-88110000D01*
X194649544Y-88074295D01*
X194866604Y-88003769D01*
X195069966Y-87900150D01*
X195143309Y-87846862D01*
X195143310Y-87846862D01*
X194459822Y-87163375D01*
X194512642Y-87149222D01*
X194632357Y-87080104D01*
X194730104Y-86982357D01*
X194799222Y-86862642D01*
X194813375Y-86809822D01*
X195496862Y-87493310D01*
X195496862Y-87493309D01*
X195550150Y-87419966D01*
X195653769Y-87216604D01*
X195724295Y-86999544D01*
X195760000Y-86774116D01*
X195760000Y-86545883D01*
X195724295Y-86320455D01*
X195653769Y-86103395D01*
X195550148Y-85900030D01*
X195496863Y-85826689D01*
X195496862Y-85826688D01*
X194813374Y-86510176D01*
X194799222Y-86457358D01*
X194730104Y-86337643D01*
X194632357Y-86239896D01*
X194512642Y-86170778D01*
X194459821Y-86156624D01*
X195143309Y-85473137D01*
X195143309Y-85473135D01*
X195069969Y-85419851D01*
X194866604Y-85316230D01*
X194649544Y-85245704D01*
X194424116Y-85210000D01*
X194195884Y-85210000D01*
X193970455Y-85245704D01*
X193753395Y-85316230D01*
X193550035Y-85419848D01*
X193550033Y-85419849D01*
X193476689Y-85473135D01*
X193476689Y-85473136D01*
X194160178Y-86156624D01*
X194107358Y-86170778D01*
X193987643Y-86239896D01*
X193889896Y-86337643D01*
X193820778Y-86457358D01*
X193806624Y-86510177D01*
X193123136Y-85826689D01*
X193123135Y-85826689D01*
X193069849Y-85900033D01*
X193069848Y-85900035D01*
X192966230Y-86103395D01*
X192895704Y-86320455D01*
X192860000Y-86545883D01*
X192150500Y-86545883D01*
X192150500Y-81245928D01*
X192125502Y-81120261D01*
X192125501Y-81120260D01*
X192125501Y-81120256D01*
X192076465Y-81001873D01*
X192076464Y-81001870D01*
X192005277Y-80895331D01*
X192005271Y-80895324D01*
X188176818Y-77066871D01*
X188143333Y-77005548D01*
X188140499Y-76979190D01*
X188140499Y-75749998D01*
X188140498Y-75749981D01*
X188129999Y-75647203D01*
X188129998Y-75647200D01*
X188074814Y-75480666D01*
X187982712Y-75331344D01*
X187858656Y-75207288D01*
X187766607Y-75150512D01*
X187719883Y-75098564D01*
X187708661Y-75029601D01*
X187736504Y-74965519D01*
X187744013Y-74957302D01*
X187796379Y-74904937D01*
X187930579Y-74720228D01*
X188034231Y-74516799D01*
X188104784Y-74299660D01*
X188119597Y-74206136D01*
X188140500Y-74074162D01*
X188140500Y-73845837D01*
X192859500Y-73845837D01*
X192859500Y-74074162D01*
X192895215Y-74299660D01*
X192965770Y-74516803D01*
X193069421Y-74720228D01*
X193203621Y-74904937D01*
X193365063Y-75066379D01*
X193375420Y-75073904D01*
X193452191Y-75129683D01*
X193494857Y-75185013D01*
X193500835Y-75254627D01*
X193468228Y-75316421D01*
X193452191Y-75330317D01*
X193365069Y-75393616D01*
X193365060Y-75393623D01*
X193203622Y-75555061D01*
X193069421Y-75739771D01*
X192965770Y-75943196D01*
X192895215Y-76160339D01*
X192859500Y-76385837D01*
X192859500Y-76614162D01*
X192895215Y-76839660D01*
X192965770Y-77056803D01*
X193028882Y-77180666D01*
X193069421Y-77260228D01*
X193203621Y-77444937D01*
X193365063Y-77606379D01*
X193549772Y-77740579D01*
X193645884Y-77789550D01*
X193753196Y-77844229D01*
X193753198Y-77844229D01*
X193753201Y-77844231D01*
X193853216Y-77876728D01*
X193970339Y-77914784D01*
X194195838Y-77950500D01*
X194195843Y-77950500D01*
X194424162Y-77950500D01*
X194592784Y-77923792D01*
X194649660Y-77914784D01*
X194694516Y-77900208D01*
X194764354Y-77898213D01*
X194820513Y-77930459D01*
X196313181Y-79423127D01*
X196346666Y-79484450D01*
X196349500Y-79510808D01*
X196349500Y-88495064D01*
X196329815Y-88562103D01*
X196328606Y-88563948D01*
X196327792Y-88565167D01*
X196290608Y-88620817D01*
X196290602Y-88620828D01*
X196230264Y-88766498D01*
X196230261Y-88766510D01*
X196199500Y-88921153D01*
X196199500Y-89078846D01*
X196230261Y-89233489D01*
X196230264Y-89233501D01*
X196290602Y-89379172D01*
X196290609Y-89379185D01*
X196378210Y-89510288D01*
X196378213Y-89510292D01*
X196489707Y-89621786D01*
X196489711Y-89621789D01*
X196620814Y-89709390D01*
X196620827Y-89709397D01*
X196674402Y-89731588D01*
X196766503Y-89769737D01*
X196921153Y-89800499D01*
X196921156Y-89800500D01*
X196921158Y-89800500D01*
X197078844Y-89800500D01*
X197078845Y-89800499D01*
X197233497Y-89769737D01*
X197346166Y-89723067D01*
X197379172Y-89709397D01*
X197379172Y-89709396D01*
X197379179Y-89709394D01*
X197510289Y-89621789D01*
X197621789Y-89510289D01*
X197709394Y-89379179D01*
X197769737Y-89233497D01*
X197800500Y-89078842D01*
X197800500Y-88921158D01*
X197800500Y-88921155D01*
X197800499Y-88921153D01*
X197787052Y-88853553D01*
X197769737Y-88766503D01*
X197746082Y-88709394D01*
X197709397Y-88620828D01*
X197709396Y-88620827D01*
X197709394Y-88620821D01*
X197671396Y-88563953D01*
X197650520Y-88497276D01*
X197650500Y-88495064D01*
X197650500Y-79125928D01*
X197625502Y-79000261D01*
X197625501Y-79000260D01*
X197625501Y-79000256D01*
X197576465Y-78881873D01*
X197576464Y-78881872D01*
X197576461Y-78881866D01*
X197511241Y-78784258D01*
X197511238Y-78784254D01*
X197505273Y-78775326D01*
X195740459Y-77010513D01*
X195706974Y-76949190D01*
X195710208Y-76884517D01*
X195724784Y-76839660D01*
X195738151Y-76755263D01*
X195760500Y-76614162D01*
X195760500Y-76385837D01*
X195724784Y-76160339D01*
X195692049Y-76059592D01*
X195654231Y-75943201D01*
X195654229Y-75943198D01*
X195654229Y-75943196D01*
X195555786Y-75749992D01*
X195550579Y-75739772D01*
X195416379Y-75555063D01*
X195254937Y-75393621D01*
X195167807Y-75330317D01*
X195125143Y-75274988D01*
X195119164Y-75205374D01*
X195151770Y-75143579D01*
X195167807Y-75129683D01*
X195254937Y-75066379D01*
X195416379Y-74904937D01*
X195484182Y-74811613D01*
X195539512Y-74768949D01*
X195584500Y-74760500D01*
X202077060Y-74760500D01*
X202144099Y-74780185D01*
X202164741Y-74796819D01*
X202663181Y-75295259D01*
X202696666Y-75356582D01*
X202699500Y-75382940D01*
X202699500Y-95578846D01*
X202730261Y-95733489D01*
X202730264Y-95733501D01*
X202790602Y-95879172D01*
X202790609Y-95879185D01*
X202878210Y-96010288D01*
X202878213Y-96010292D01*
X205780863Y-98912941D01*
X205814348Y-98974264D01*
X205812957Y-99032715D01*
X205779454Y-99157751D01*
X205779452Y-99157763D01*
X205749500Y-99385258D01*
X205749500Y-99614741D01*
X205774144Y-99801923D01*
X205779452Y-99842238D01*
X205808853Y-99951966D01*
X205838842Y-100063887D01*
X205926650Y-100275876D01*
X205926657Y-100275890D01*
X206041392Y-100474617D01*
X206181081Y-100656661D01*
X206181089Y-100656670D01*
X206343330Y-100818911D01*
X206343338Y-100818918D01*
X206525382Y-100958607D01*
X206525385Y-100958608D01*
X206525388Y-100958611D01*
X206724112Y-101073344D01*
X206724117Y-101073346D01*
X206724123Y-101073349D01*
X206788465Y-101100000D01*
X206936113Y-101161158D01*
X207157762Y-101220548D01*
X207385266Y-101250500D01*
X207385273Y-101250500D01*
X207614727Y-101250500D01*
X207614734Y-101250500D01*
X207842238Y-101220548D01*
X208063887Y-101161158D01*
X208275888Y-101073344D01*
X208474612Y-100958611D01*
X208656661Y-100818919D01*
X208656665Y-100818914D01*
X208656670Y-100818911D01*
X208818911Y-100656670D01*
X208818914Y-100656665D01*
X208818919Y-100656661D01*
X208958611Y-100474612D01*
X209073344Y-100275888D01*
X209161158Y-100063887D01*
X209220548Y-99842238D01*
X209250500Y-99614734D01*
X209250500Y-99385266D01*
X209220548Y-99157762D01*
X209161158Y-98936113D01*
X209073344Y-98724112D01*
X208958611Y-98525388D01*
X208958608Y-98525385D01*
X208958607Y-98525382D01*
X208831697Y-98359992D01*
X208818919Y-98343339D01*
X208818918Y-98343338D01*
X208818911Y-98343330D01*
X208656670Y-98181089D01*
X208656661Y-98181081D01*
X208474617Y-98041392D01*
X208275890Y-97926657D01*
X208275876Y-97926650D01*
X208063887Y-97838842D01*
X207983445Y-97817288D01*
X207842238Y-97779452D01*
X207804215Y-97774446D01*
X207614741Y-97749500D01*
X207614734Y-97749500D01*
X207385266Y-97749500D01*
X207385258Y-97749500D01*
X207183040Y-97776124D01*
X207157762Y-97779452D01*
X207157760Y-97779452D01*
X207157751Y-97779454D01*
X207032715Y-97812957D01*
X206962865Y-97811294D01*
X206912941Y-97780863D01*
X204336819Y-95204741D01*
X204303334Y-95143418D01*
X204300500Y-95117060D01*
X204300500Y-93449983D01*
X205749500Y-93449983D01*
X205749500Y-95550001D01*
X205749501Y-95550018D01*
X205760000Y-95652796D01*
X205760001Y-95652799D01*
X205796113Y-95761777D01*
X205815186Y-95819334D01*
X205907288Y-95968656D01*
X206031344Y-96092712D01*
X206180666Y-96184814D01*
X206347203Y-96239999D01*
X206449991Y-96250500D01*
X208550008Y-96250499D01*
X208652797Y-96239999D01*
X208819334Y-96184814D01*
X208968656Y-96092712D01*
X209092712Y-95968656D01*
X209184814Y-95819334D01*
X209239999Y-95652797D01*
X209250500Y-95550009D01*
X209250499Y-93449992D01*
X209239999Y-93347203D01*
X209184814Y-93180666D01*
X209092712Y-93031344D01*
X208968656Y-92907288D01*
X208819334Y-92815186D01*
X208652797Y-92760001D01*
X208652795Y-92760000D01*
X208550010Y-92749500D01*
X206449998Y-92749500D01*
X206449981Y-92749501D01*
X206347203Y-92760000D01*
X206347200Y-92760001D01*
X206180668Y-92815185D01*
X206180663Y-92815187D01*
X206031342Y-92907289D01*
X205907289Y-93031342D01*
X205815187Y-93180663D01*
X205815185Y-93180668D01*
X205797678Y-93233501D01*
X205760001Y-93347203D01*
X205760001Y-93347204D01*
X205760000Y-93347204D01*
X205749500Y-93449983D01*
X204300500Y-93449983D01*
X204300500Y-88385305D01*
X205750000Y-88385305D01*
X205750000Y-88614694D01*
X205750001Y-88614710D01*
X205779942Y-88842137D01*
X205839318Y-89063730D01*
X205927102Y-89275659D01*
X205927106Y-89275669D01*
X206041799Y-89474324D01*
X206041805Y-89474331D01*
X206098381Y-89548064D01*
X206898958Y-88747487D01*
X206923978Y-88807890D01*
X206995112Y-88914351D01*
X207085649Y-89004888D01*
X207192110Y-89076022D01*
X207252511Y-89101041D01*
X206451934Y-89901617D01*
X206451934Y-89901618D01*
X206525666Y-89958194D01*
X206724330Y-90072893D01*
X206724340Y-90072897D01*
X206936269Y-90160681D01*
X207157862Y-90220057D01*
X207385289Y-90249998D01*
X207385306Y-90250000D01*
X207614694Y-90250000D01*
X207614710Y-90249998D01*
X207842137Y-90220057D01*
X208063730Y-90160681D01*
X208275659Y-90072897D01*
X208275668Y-90072893D01*
X208474327Y-89958197D01*
X208474334Y-89958192D01*
X208548064Y-89901617D01*
X207747488Y-89101041D01*
X207807890Y-89076022D01*
X207914351Y-89004888D01*
X208004888Y-88914351D01*
X208076022Y-88807890D01*
X208101041Y-88747488D01*
X208901617Y-89548064D01*
X208958192Y-89474334D01*
X208958197Y-89474327D01*
X209072893Y-89275668D01*
X209072897Y-89275659D01*
X209160681Y-89063730D01*
X209220057Y-88842137D01*
X209249998Y-88614710D01*
X209250000Y-88614694D01*
X209250000Y-88385305D01*
X209249998Y-88385289D01*
X209220057Y-88157862D01*
X209160681Y-87936269D01*
X209072897Y-87724340D01*
X209072893Y-87724330D01*
X208958194Y-87525666D01*
X208901618Y-87451934D01*
X208901617Y-87451934D01*
X208101041Y-88252510D01*
X208076022Y-88192110D01*
X208004888Y-88085649D01*
X207914351Y-87995112D01*
X207807890Y-87923978D01*
X207747487Y-87898957D01*
X208548064Y-87098381D01*
X208548064Y-87098380D01*
X208474331Y-87041805D01*
X208474324Y-87041799D01*
X208275669Y-86927106D01*
X208275659Y-86927102D01*
X208063730Y-86839318D01*
X207842137Y-86779942D01*
X207614710Y-86750001D01*
X207614694Y-86750000D01*
X207385306Y-86750000D01*
X207385289Y-86750001D01*
X207157862Y-86779942D01*
X206936269Y-86839318D01*
X206724340Y-86927102D01*
X206724330Y-86927106D01*
X206525673Y-87041801D01*
X206525659Y-87041810D01*
X206451934Y-87098380D01*
X207252511Y-87898958D01*
X207192110Y-87923978D01*
X207085649Y-87995112D01*
X206995112Y-88085649D01*
X206923978Y-88192110D01*
X206898958Y-88252511D01*
X206098380Y-87451934D01*
X206041810Y-87525659D01*
X206041801Y-87525673D01*
X205927106Y-87724330D01*
X205927102Y-87724340D01*
X205839318Y-87936269D01*
X205779942Y-88157862D01*
X205750001Y-88385289D01*
X205750000Y-88385305D01*
X204300500Y-88385305D01*
X204300500Y-83385258D01*
X205749500Y-83385258D01*
X205749500Y-83614741D01*
X205764710Y-83730263D01*
X205779452Y-83842238D01*
X205818966Y-83989707D01*
X205838842Y-84063887D01*
X205926650Y-84275876D01*
X205926657Y-84275890D01*
X206041392Y-84474617D01*
X206181081Y-84656661D01*
X206181089Y-84656670D01*
X206343330Y-84818911D01*
X206343338Y-84818918D01*
X206525382Y-84958607D01*
X206525385Y-84958608D01*
X206525388Y-84958611D01*
X206724112Y-85073344D01*
X206724117Y-85073346D01*
X206724123Y-85073349D01*
X206815480Y-85111190D01*
X206936113Y-85161158D01*
X207157762Y-85220548D01*
X207385266Y-85250500D01*
X207385273Y-85250500D01*
X207614727Y-85250500D01*
X207614734Y-85250500D01*
X207842238Y-85220548D01*
X208063887Y-85161158D01*
X208275888Y-85073344D01*
X208474612Y-84958611D01*
X208656661Y-84818919D01*
X208656665Y-84818914D01*
X208656670Y-84818911D01*
X208818911Y-84656670D01*
X208818914Y-84656665D01*
X208818919Y-84656661D01*
X208958611Y-84474612D01*
X209073344Y-84275888D01*
X209161158Y-84063887D01*
X209220548Y-83842238D01*
X209250500Y-83614734D01*
X209250500Y-83385266D01*
X209220548Y-83157762D01*
X209161158Y-82936113D01*
X209073344Y-82724112D01*
X208958611Y-82525388D01*
X208958608Y-82525385D01*
X208958607Y-82525382D01*
X208818918Y-82343338D01*
X208818911Y-82343330D01*
X208656670Y-82181089D01*
X208656661Y-82181081D01*
X208474617Y-82041392D01*
X208275890Y-81926657D01*
X208275876Y-81926650D01*
X208063887Y-81838842D01*
X208017191Y-81826330D01*
X207842238Y-81779452D01*
X207804215Y-81774446D01*
X207614741Y-81749500D01*
X207614734Y-81749500D01*
X207385266Y-81749500D01*
X207385258Y-81749500D01*
X207168715Y-81778009D01*
X207157762Y-81779452D01*
X207064076Y-81804554D01*
X206936112Y-81838842D01*
X206724123Y-81926650D01*
X206724109Y-81926657D01*
X206525382Y-82041392D01*
X206343338Y-82181081D01*
X206181081Y-82343338D01*
X206041392Y-82525382D01*
X205926657Y-82724109D01*
X205926650Y-82724123D01*
X205838842Y-82936112D01*
X205838842Y-82936113D01*
X205786580Y-83131162D01*
X205779453Y-83157759D01*
X205779451Y-83157770D01*
X205749500Y-83385258D01*
X204300500Y-83385258D01*
X204300500Y-77449983D01*
X205749500Y-77449983D01*
X205749500Y-79550001D01*
X205749501Y-79550018D01*
X205760000Y-79652796D01*
X205760001Y-79652799D01*
X205815185Y-79819331D01*
X205815186Y-79819334D01*
X205907288Y-79968656D01*
X206031344Y-80092712D01*
X206180666Y-80184814D01*
X206347203Y-80239999D01*
X206449991Y-80250500D01*
X208550008Y-80250499D01*
X208652797Y-80239999D01*
X208819334Y-80184814D01*
X208968656Y-80092712D01*
X209092712Y-79968656D01*
X209184814Y-79819334D01*
X209239999Y-79652797D01*
X209250500Y-79550009D01*
X209250499Y-77449992D01*
X209239999Y-77347203D01*
X209184814Y-77180666D01*
X209092712Y-77031344D01*
X208968656Y-76907288D01*
X208820015Y-76815606D01*
X208819336Y-76815187D01*
X208819331Y-76815185D01*
X208817862Y-76814698D01*
X208652797Y-76760001D01*
X208652795Y-76760000D01*
X208550010Y-76749500D01*
X206449998Y-76749500D01*
X206449981Y-76749501D01*
X206347203Y-76760000D01*
X206347200Y-76760001D01*
X206180668Y-76815185D01*
X206180663Y-76815187D01*
X206031342Y-76907289D01*
X205907289Y-77031342D01*
X205815187Y-77180663D01*
X205815186Y-77180666D01*
X205760001Y-77347203D01*
X205760001Y-77347204D01*
X205760000Y-77347204D01*
X205749500Y-77449983D01*
X204300500Y-77449983D01*
X204300500Y-74921155D01*
X204300499Y-74921153D01*
X204280163Y-74818918D01*
X204269737Y-74766503D01*
X204269735Y-74766498D01*
X204209397Y-74620827D01*
X204209390Y-74620814D01*
X204121790Y-74489712D01*
X204106690Y-74474612D01*
X204010289Y-74378211D01*
X203500914Y-73868836D01*
X202970292Y-73338213D01*
X202970288Y-73338210D01*
X202839185Y-73250609D01*
X202839172Y-73250602D01*
X202693501Y-73190264D01*
X202693489Y-73190261D01*
X202538845Y-73159500D01*
X202538842Y-73159500D01*
X195584500Y-73159500D01*
X195517461Y-73139815D01*
X195484182Y-73108386D01*
X195416379Y-73015063D01*
X195254937Y-72853621D01*
X195070228Y-72719421D01*
X194866803Y-72615770D01*
X194649660Y-72545215D01*
X194424162Y-72509500D01*
X194424157Y-72509500D01*
X194195843Y-72509500D01*
X194195838Y-72509500D01*
X193970339Y-72545215D01*
X193753196Y-72615770D01*
X193549771Y-72719421D01*
X193365061Y-72853622D01*
X193203622Y-73015061D01*
X193069421Y-73199771D01*
X192965770Y-73403196D01*
X192895215Y-73620339D01*
X192859500Y-73845837D01*
X188140500Y-73845837D01*
X188104784Y-73620339D01*
X188061200Y-73486202D01*
X188034231Y-73403201D01*
X188034229Y-73403198D01*
X188034229Y-73403196D01*
X187979550Y-73295884D01*
X187930579Y-73199772D01*
X187796379Y-73015063D01*
X187634937Y-72853621D01*
X187450228Y-72719421D01*
X187246803Y-72615770D01*
X187029660Y-72545215D01*
X186804162Y-72509500D01*
X186804157Y-72509500D01*
X186575843Y-72509500D01*
X186575838Y-72509500D01*
X186350339Y-72545215D01*
X186133196Y-72615770D01*
X185929771Y-72719421D01*
X185745061Y-72853622D01*
X185583622Y-73015061D01*
X185449421Y-73199771D01*
X185345770Y-73403196D01*
X185275215Y-73620339D01*
X185239500Y-73845837D01*
X185239500Y-74074162D01*
X185275215Y-74299660D01*
X185345770Y-74516803D01*
X185449421Y-74720228D01*
X185583622Y-74904938D01*
X185635976Y-74957292D01*
X185669461Y-75018615D01*
X185664477Y-75088307D01*
X185622605Y-75144240D01*
X185613392Y-75150511D01*
X185521347Y-75207285D01*
X185521343Y-75207288D01*
X185397289Y-75331342D01*
X185305187Y-75480663D01*
X185305185Y-75480668D01*
X185295080Y-75511163D01*
X185250001Y-75647203D01*
X185250001Y-75647204D01*
X185250000Y-75647204D01*
X185239500Y-75749983D01*
X185239500Y-77250001D01*
X185239501Y-77250018D01*
X185250000Y-77352796D01*
X185250001Y-77352799D01*
X185282205Y-77449983D01*
X185305186Y-77519334D01*
X185397288Y-77668656D01*
X185521344Y-77792712D01*
X185670666Y-77884814D01*
X185837203Y-77939999D01*
X185939991Y-77950500D01*
X187169191Y-77950499D01*
X187236230Y-77970184D01*
X187256872Y-77986818D01*
X190813181Y-81543127D01*
X190846666Y-81604450D01*
X190849500Y-81630808D01*
X190849500Y-87421730D01*
X190829815Y-87488769D01*
X190777011Y-87534524D01*
X190707853Y-87544468D01*
X190644297Y-87515443D01*
X190625707Y-87494373D01*
X190625653Y-87494419D01*
X190624391Y-87492881D01*
X190622403Y-87490628D01*
X190621793Y-87489716D01*
X190621786Y-87489707D01*
X190510292Y-87378213D01*
X190510288Y-87378210D01*
X190379185Y-87290609D01*
X190379172Y-87290602D01*
X190233501Y-87230264D01*
X190233489Y-87230261D01*
X190078845Y-87199500D01*
X190078842Y-87199500D01*
X189921158Y-87199500D01*
X189921155Y-87199500D01*
X189766510Y-87230261D01*
X189766498Y-87230264D01*
X189620827Y-87290602D01*
X189620820Y-87290606D01*
X189591928Y-87309911D01*
X189563955Y-87328602D01*
X189497279Y-87349480D01*
X189495065Y-87349500D01*
X188161260Y-87349500D01*
X188094221Y-87329815D01*
X188048466Y-87277011D01*
X188038522Y-87207853D01*
X188043329Y-87187182D01*
X188104295Y-86999544D01*
X188140000Y-86774116D01*
X188140000Y-86545883D01*
X188104295Y-86320455D01*
X188033769Y-86103395D01*
X187930148Y-85900030D01*
X187876863Y-85826689D01*
X187876862Y-85826688D01*
X187193374Y-86510176D01*
X187179222Y-86457358D01*
X187110104Y-86337643D01*
X187012357Y-86239896D01*
X186892642Y-86170778D01*
X186839821Y-86156624D01*
X187523309Y-85473137D01*
X187523309Y-85473135D01*
X187449969Y-85419851D01*
X187246604Y-85316230D01*
X187029544Y-85245704D01*
X186804116Y-85210000D01*
X186575884Y-85210000D01*
X186350455Y-85245704D01*
X186133395Y-85316230D01*
X185930035Y-85419848D01*
X185930033Y-85419849D01*
X185856689Y-85473135D01*
X185856689Y-85473136D01*
X186540178Y-86156624D01*
X186487358Y-86170778D01*
X186367643Y-86239896D01*
X186269896Y-86337643D01*
X186200778Y-86457358D01*
X186186624Y-86510177D01*
X185503136Y-85826689D01*
X185503135Y-85826689D01*
X185449849Y-85900033D01*
X185449848Y-85900035D01*
X185346230Y-86103395D01*
X185275704Y-86320455D01*
X185262171Y-86405898D01*
X185232242Y-86469033D01*
X185172930Y-86505964D01*
X185139698Y-86510500D01*
X179481807Y-86510500D01*
X179452366Y-86501855D01*
X179422380Y-86495332D01*
X179417364Y-86491577D01*
X179414768Y-86490815D01*
X179394126Y-86474181D01*
X179317015Y-86397070D01*
X179283530Y-86335747D01*
X179283095Y-86333660D01*
X179269737Y-86266503D01*
X179230087Y-86170778D01*
X179209397Y-86120827D01*
X179209390Y-86120814D01*
X179121789Y-85989711D01*
X179121786Y-85989707D01*
X179010292Y-85878213D01*
X179010288Y-85878210D01*
X178879185Y-85790609D01*
X178879172Y-85790602D01*
X178733501Y-85730264D01*
X178733489Y-85730261D01*
X178578845Y-85699500D01*
X178578842Y-85699500D01*
X178421158Y-85699500D01*
X178421155Y-85699500D01*
X178266510Y-85730261D01*
X178266498Y-85730264D01*
X178120827Y-85790602D01*
X178120814Y-85790609D01*
X177989711Y-85878210D01*
X177989707Y-85878213D01*
X177878213Y-85989707D01*
X177878210Y-85989711D01*
X177790609Y-86120814D01*
X177790602Y-86120827D01*
X177730264Y-86266498D01*
X177730261Y-86266510D01*
X177699500Y-86421153D01*
X177699500Y-86578846D01*
X177730261Y-86733489D01*
X177730264Y-86733501D01*
X177790602Y-86879172D01*
X177790609Y-86879185D01*
X177878210Y-87010288D01*
X177878213Y-87010292D01*
X177989707Y-87121786D01*
X178027289Y-87146898D01*
X178072093Y-87200511D01*
X178080800Y-87269836D01*
X178050645Y-87332863D01*
X178027289Y-87353102D01*
X177989707Y-87378213D01*
X177878213Y-87489707D01*
X177878210Y-87489711D01*
X177790609Y-87620814D01*
X177790602Y-87620827D01*
X177730264Y-87766498D01*
X177730261Y-87766510D01*
X177699500Y-87921153D01*
X177699500Y-88078846D01*
X177730261Y-88233489D01*
X177730264Y-88233501D01*
X177790602Y-88379172D01*
X177790609Y-88379185D01*
X177825304Y-88431109D01*
X177846182Y-88497786D01*
X177827698Y-88565167D01*
X177825304Y-88568891D01*
X177790609Y-88620814D01*
X177790602Y-88620827D01*
X177730264Y-88766498D01*
X177730261Y-88766510D01*
X177699500Y-88921153D01*
X177699500Y-89078846D01*
X177730261Y-89233489D01*
X177730264Y-89233501D01*
X177790602Y-89379172D01*
X177790609Y-89379185D01*
X177878210Y-89510288D01*
X177878213Y-89510292D01*
X177989707Y-89621786D01*
X177989711Y-89621789D01*
X178120814Y-89709390D01*
X178120827Y-89709397D01*
X178174402Y-89731588D01*
X178266503Y-89769737D01*
X178421153Y-89800499D01*
X178421156Y-89800500D01*
X178421158Y-89800500D01*
X178578844Y-89800500D01*
X178578845Y-89800499D01*
X178733497Y-89769737D01*
X178846166Y-89723067D01*
X178879172Y-89709397D01*
X178879172Y-89709396D01*
X178879179Y-89709394D01*
X178936044Y-89671397D01*
X179002721Y-89650520D01*
X179004935Y-89650500D01*
X179754192Y-89650500D01*
X179821231Y-89670185D01*
X179841873Y-89686819D01*
X180228402Y-90073348D01*
X180261887Y-90134671D01*
X180256903Y-90204363D01*
X180215031Y-90260296D01*
X180149567Y-90284713D01*
X180121324Y-90283502D01*
X180096055Y-90279500D01*
X179903945Y-90279500D01*
X179878678Y-90283502D01*
X179714197Y-90309553D01*
X179531493Y-90368916D01*
X179360318Y-90456135D01*
X179335475Y-90474185D01*
X179204898Y-90569055D01*
X179204896Y-90569057D01*
X179204895Y-90569057D01*
X179069057Y-90704895D01*
X179069057Y-90704896D01*
X179069055Y-90704898D01*
X179033914Y-90753265D01*
X178956135Y-90860318D01*
X178868916Y-91031493D01*
X178847931Y-91096081D01*
X178808494Y-91153756D01*
X178744135Y-91180955D01*
X178675289Y-91169041D01*
X178623813Y-91121797D01*
X178612069Y-91096081D01*
X178591083Y-91031493D01*
X178591082Y-91031491D01*
X178503865Y-90860319D01*
X178390945Y-90704898D01*
X178255102Y-90569055D01*
X178099681Y-90456135D01*
X178041588Y-90426535D01*
X177928506Y-90368916D01*
X177745802Y-90309553D01*
X177581322Y-90283502D01*
X177556055Y-90279500D01*
X177363945Y-90279500D01*
X177338678Y-90283502D01*
X177174197Y-90309553D01*
X176991493Y-90368916D01*
X176820318Y-90456135D01*
X176795475Y-90474185D01*
X176664898Y-90569055D01*
X176664896Y-90569057D01*
X176664895Y-90569057D01*
X176529057Y-90704895D01*
X176529057Y-90704896D01*
X176529055Y-90704898D01*
X176493914Y-90753265D01*
X176416135Y-90860318D01*
X176328917Y-91031492D01*
X176307667Y-91096892D01*
X176268229Y-91154567D01*
X176203870Y-91181765D01*
X176135024Y-91169850D01*
X176083548Y-91122605D01*
X176071805Y-91096891D01*
X176050616Y-91031680D01*
X175963434Y-90860577D01*
X175942201Y-90831352D01*
X175942200Y-90831351D01*
X175320000Y-91453552D01*
X175320000Y-91447339D01*
X175292741Y-91345606D01*
X175240080Y-91254394D01*
X175165606Y-91179920D01*
X175074394Y-91127259D01*
X174972661Y-91100000D01*
X174966447Y-91100000D01*
X175588646Y-90477798D01*
X175559415Y-90456561D01*
X175388321Y-90369383D01*
X175205684Y-90310040D01*
X175016015Y-90280000D01*
X174823985Y-90280000D01*
X174634315Y-90310040D01*
X174451678Y-90369383D01*
X174280578Y-90456564D01*
X174251352Y-90477798D01*
X174251351Y-90477798D01*
X174873554Y-91100000D01*
X174867339Y-91100000D01*
X174765606Y-91127259D01*
X174674394Y-91179920D01*
X174599920Y-91254394D01*
X174547259Y-91345606D01*
X174520000Y-91447339D01*
X174520000Y-91453553D01*
X173897798Y-90831351D01*
X173897798Y-90831352D01*
X173876564Y-90860578D01*
X173789383Y-91031678D01*
X173730040Y-91214315D01*
X173700000Y-91403984D01*
X170760500Y-91403984D01*
X170760500Y-91403945D01*
X170730447Y-91214199D01*
X170692332Y-91096891D01*
X170671083Y-91031493D01*
X170671082Y-91031491D01*
X170583865Y-90860319D01*
X170470945Y-90704898D01*
X170335102Y-90569055D01*
X170179681Y-90456135D01*
X170121588Y-90426535D01*
X170008506Y-90368916D01*
X169825802Y-90309553D01*
X169661322Y-90283502D01*
X169636055Y-90279500D01*
X169443945Y-90279500D01*
X169418678Y-90283502D01*
X169254197Y-90309553D01*
X169071493Y-90368916D01*
X168900318Y-90456135D01*
X168875475Y-90474185D01*
X168744898Y-90569055D01*
X168744896Y-90569057D01*
X168744895Y-90569057D01*
X168609057Y-90704895D01*
X168609057Y-90704896D01*
X168609055Y-90704898D01*
X168573914Y-90753265D01*
X168496135Y-90860318D01*
X168408916Y-91031493D01*
X168387931Y-91096081D01*
X168348494Y-91153756D01*
X168284135Y-91180955D01*
X168215289Y-91169041D01*
X168163813Y-91121797D01*
X168152069Y-91096081D01*
X168131083Y-91031493D01*
X168131082Y-91031491D01*
X168043865Y-90860319D01*
X167930945Y-90704898D01*
X167795102Y-90569055D01*
X167639681Y-90456135D01*
X167581588Y-90426535D01*
X167468506Y-90368916D01*
X167285802Y-90309553D01*
X167121322Y-90283502D01*
X167096055Y-90279500D01*
X166903945Y-90279500D01*
X166878678Y-90283502D01*
X166714197Y-90309553D01*
X166531493Y-90368916D01*
X166360318Y-90456135D01*
X166335475Y-90474185D01*
X166204898Y-90569055D01*
X166204896Y-90569057D01*
X166204895Y-90569057D01*
X166069057Y-90704895D01*
X166069057Y-90704896D01*
X166069055Y-90704898D01*
X166033914Y-90753265D01*
X165956135Y-90860318D01*
X165868917Y-91031492D01*
X165847667Y-91096892D01*
X165808229Y-91154567D01*
X165743870Y-91181765D01*
X165675024Y-91169850D01*
X165623548Y-91122605D01*
X165611805Y-91096891D01*
X165590616Y-91031680D01*
X165503434Y-90860577D01*
X165482201Y-90831352D01*
X165482200Y-90831351D01*
X164860000Y-91453552D01*
X164860000Y-91447339D01*
X164832741Y-91345606D01*
X164780080Y-91254394D01*
X164705606Y-91179920D01*
X164614394Y-91127259D01*
X164512661Y-91100000D01*
X164506447Y-91100000D01*
X165128646Y-90477798D01*
X165099415Y-90456561D01*
X164928321Y-90369383D01*
X164745684Y-90310040D01*
X164556015Y-90280000D01*
X164363985Y-90280000D01*
X164174315Y-90310040D01*
X163991678Y-90369383D01*
X163820578Y-90456564D01*
X163791352Y-90477798D01*
X163791351Y-90477798D01*
X164413554Y-91100000D01*
X164407339Y-91100000D01*
X164305606Y-91127259D01*
X164214394Y-91179920D01*
X164139920Y-91254394D01*
X164087259Y-91345606D01*
X164060000Y-91447339D01*
X164060000Y-91453553D01*
X163437798Y-90831351D01*
X163437797Y-90831352D01*
X163421670Y-90853550D01*
X163366341Y-90896216D01*
X163296728Y-90902197D01*
X163234932Y-90869592D01*
X163233670Y-90868347D01*
X160786476Y-88421153D01*
X161699500Y-88421153D01*
X161699500Y-88578846D01*
X161730261Y-88733489D01*
X161730264Y-88733501D01*
X161790602Y-88879172D01*
X161790609Y-88879185D01*
X161878210Y-89010288D01*
X161878213Y-89010292D01*
X161989707Y-89121786D01*
X161989711Y-89121789D01*
X162120814Y-89209390D01*
X162120827Y-89209397D01*
X162224703Y-89252423D01*
X162266503Y-89269737D01*
X162421153Y-89300499D01*
X162421156Y-89300500D01*
X162421158Y-89300500D01*
X162578844Y-89300500D01*
X162578845Y-89300499D01*
X162733497Y-89269737D01*
X162879179Y-89209394D01*
X162936044Y-89171397D01*
X163002721Y-89150520D01*
X163004935Y-89150500D01*
X169064071Y-89150500D01*
X169148615Y-89133682D01*
X169189744Y-89125501D01*
X169308127Y-89076465D01*
X169326679Y-89064069D01*
X169414669Y-89005277D01*
X173102931Y-85317013D01*
X173164252Y-85283530D01*
X173166317Y-85283099D01*
X173233497Y-85269737D01*
X173379179Y-85209394D01*
X173510289Y-85121789D01*
X173621789Y-85010289D01*
X173709394Y-84879179D01*
X173769737Y-84733497D01*
X173800500Y-84578842D01*
X173800500Y-84421158D01*
X173800500Y-84421155D01*
X173800499Y-84421153D01*
X173783079Y-84333579D01*
X173769737Y-84266503D01*
X173769735Y-84266498D01*
X173709397Y-84120827D01*
X173709390Y-84120814D01*
X173621789Y-83989711D01*
X173621786Y-83989707D01*
X173510292Y-83878213D01*
X173510288Y-83878210D01*
X173379185Y-83790609D01*
X173379172Y-83790602D01*
X173233501Y-83730264D01*
X173233489Y-83730261D01*
X173078845Y-83699500D01*
X173078842Y-83699500D01*
X172921158Y-83699500D01*
X172921155Y-83699500D01*
X172766510Y-83730261D01*
X172766498Y-83730264D01*
X172620827Y-83790602D01*
X172620814Y-83790609D01*
X172489711Y-83878210D01*
X172489707Y-83878213D01*
X172378213Y-83989707D01*
X172378210Y-83989711D01*
X172290609Y-84120814D01*
X172290602Y-84120827D01*
X172230264Y-84266498D01*
X172230261Y-84266508D01*
X172216920Y-84333579D01*
X172184535Y-84395490D01*
X172182984Y-84397068D01*
X168766873Y-87813181D01*
X168705550Y-87846666D01*
X168679192Y-87849500D01*
X163004935Y-87849500D01*
X162937896Y-87829815D01*
X162936090Y-87828633D01*
X162879179Y-87790606D01*
X162879172Y-87790602D01*
X162733501Y-87730264D01*
X162733489Y-87730261D01*
X162578845Y-87699500D01*
X162578842Y-87699500D01*
X162421158Y-87699500D01*
X162421155Y-87699500D01*
X162266510Y-87730261D01*
X162266498Y-87730264D01*
X162120827Y-87790602D01*
X162120814Y-87790609D01*
X161989711Y-87878210D01*
X161989707Y-87878213D01*
X161878213Y-87989707D01*
X161878210Y-87989711D01*
X161790609Y-88120814D01*
X161790602Y-88120827D01*
X161730264Y-88266498D01*
X161730261Y-88266510D01*
X161699500Y-88421153D01*
X160786476Y-88421153D01*
X154576113Y-82210790D01*
X164389500Y-82210790D01*
X164389500Y-82409209D01*
X164420519Y-82605052D01*
X164420537Y-82605168D01*
X164467140Y-82748596D01*
X164481850Y-82793868D01*
X164543021Y-82913922D01*
X164571923Y-82970646D01*
X164688544Y-83131161D01*
X164828839Y-83271456D01*
X164989354Y-83388077D01*
X165102800Y-83445880D01*
X165166131Y-83478149D01*
X165166133Y-83478149D01*
X165166136Y-83478151D01*
X165354832Y-83539463D01*
X165452814Y-83554981D01*
X165550791Y-83570500D01*
X165550796Y-83570500D01*
X165749209Y-83570500D01*
X165838278Y-83556392D01*
X165945168Y-83539463D01*
X166133864Y-83478151D01*
X166310646Y-83388077D01*
X166471161Y-83271456D01*
X166611456Y-83131161D01*
X166728077Y-82970646D01*
X166818151Y-82793864D01*
X166879463Y-82605168D01*
X166896392Y-82498278D01*
X166910500Y-82409209D01*
X166910500Y-82210836D01*
X177090000Y-82210836D01*
X177090000Y-82409163D01*
X177121026Y-82605052D01*
X177182310Y-82793669D01*
X177182311Y-82793672D01*
X177272350Y-82970380D01*
X177299161Y-83007283D01*
X177945000Y-82361445D01*
X177945000Y-82363319D01*
X177972600Y-82466324D01*
X178025919Y-82558676D01*
X178101324Y-82634081D01*
X178193676Y-82687400D01*
X178296681Y-82715000D01*
X178298553Y-82715000D01*
X177652714Y-83360837D01*
X177652715Y-83360838D01*
X177689612Y-83387645D01*
X177866327Y-83477688D01*
X177866330Y-83477689D01*
X178054947Y-83538973D01*
X178250837Y-83570000D01*
X178449163Y-83570000D01*
X178645052Y-83538973D01*
X178833669Y-83477689D01*
X178833672Y-83477688D01*
X179010382Y-83387648D01*
X179047283Y-83360837D01*
X179047284Y-83360836D01*
X178401448Y-82715000D01*
X178403319Y-82715000D01*
X178506324Y-82687400D01*
X178598676Y-82634081D01*
X178674081Y-82558676D01*
X178727400Y-82466324D01*
X178755000Y-82363319D01*
X178755000Y-82361447D01*
X179400836Y-83007284D01*
X179400837Y-83007283D01*
X179427648Y-82970382D01*
X179517688Y-82793672D01*
X179517689Y-82793669D01*
X179578973Y-82605052D01*
X179610000Y-82409163D01*
X179610000Y-82210836D01*
X179578973Y-82014947D01*
X179517689Y-81826330D01*
X179517688Y-81826327D01*
X179427645Y-81649612D01*
X179400838Y-81612715D01*
X179400837Y-81612714D01*
X178755000Y-82258551D01*
X178755000Y-82256681D01*
X178727400Y-82153676D01*
X178674081Y-82061324D01*
X178598676Y-81985919D01*
X178506324Y-81932600D01*
X178403319Y-81905000D01*
X178401447Y-81905000D01*
X179047283Y-81259161D01*
X179010380Y-81232350D01*
X178833672Y-81142311D01*
X178833669Y-81142310D01*
X178645052Y-81081026D01*
X178449163Y-81050000D01*
X178250837Y-81050000D01*
X178054947Y-81081026D01*
X177866330Y-81142310D01*
X177866322Y-81142313D01*
X177689615Y-81232352D01*
X177652715Y-81259160D01*
X177652715Y-81259161D01*
X178298554Y-81905000D01*
X178296681Y-81905000D01*
X178193676Y-81932600D01*
X178101324Y-81985919D01*
X178025919Y-82061324D01*
X177972600Y-82153676D01*
X177945000Y-82256681D01*
X177945000Y-82258554D01*
X177299161Y-81612715D01*
X177299160Y-81612715D01*
X177272352Y-81649615D01*
X177182313Y-81826322D01*
X177182310Y-81826330D01*
X177121026Y-82014947D01*
X177090000Y-82210836D01*
X166910500Y-82210836D01*
X166910500Y-82210790D01*
X166886826Y-82061324D01*
X166879463Y-82014832D01*
X166818151Y-81826136D01*
X166818149Y-81826133D01*
X166818149Y-81826131D01*
X166779103Y-81749500D01*
X166728077Y-81649354D01*
X166611456Y-81488839D01*
X166471161Y-81348544D01*
X166310646Y-81231923D01*
X166253922Y-81203021D01*
X166133868Y-81141850D01*
X166067424Y-81120261D01*
X165945168Y-81080537D01*
X165945162Y-81080536D01*
X165749209Y-81049500D01*
X165749204Y-81049500D01*
X165550796Y-81049500D01*
X165550791Y-81049500D01*
X165354837Y-81080536D01*
X165354835Y-81080536D01*
X165354832Y-81080537D01*
X165260484Y-81111193D01*
X165166131Y-81141850D01*
X164989352Y-81231924D01*
X164989349Y-81231926D01*
X164951865Y-81259160D01*
X164828839Y-81348544D01*
X164828837Y-81348546D01*
X164828836Y-81348546D01*
X164688546Y-81488836D01*
X164688546Y-81488837D01*
X164688544Y-81488839D01*
X164634477Y-81563255D01*
X164571926Y-81649349D01*
X164571924Y-81649352D01*
X164481850Y-81826131D01*
X164456224Y-81905000D01*
X164420537Y-82014832D01*
X164420536Y-82014835D01*
X164420536Y-82014837D01*
X164389500Y-82210790D01*
X154576113Y-82210790D01*
X151087819Y-78722496D01*
X151054334Y-78661173D01*
X151051500Y-78634815D01*
X151051500Y-73385258D01*
X151749500Y-73385258D01*
X151749500Y-73614741D01*
X151764484Y-73728546D01*
X151779452Y-73842238D01*
X151838842Y-74063887D01*
X151843096Y-74074157D01*
X151926650Y-74275876D01*
X151926657Y-74275890D01*
X152041392Y-74474617D01*
X152181081Y-74656661D01*
X152181089Y-74656670D01*
X152343330Y-74818911D01*
X152343338Y-74818918D01*
X152343339Y-74818919D01*
X152393962Y-74857764D01*
X152525382Y-74958607D01*
X152525385Y-74958608D01*
X152525388Y-74958611D01*
X152724112Y-75073344D01*
X152724117Y-75073346D01*
X152724123Y-75073349D01*
X152770865Y-75092710D01*
X152936113Y-75161158D01*
X153157762Y-75220548D01*
X153374312Y-75249057D01*
X153385250Y-75250498D01*
X153385266Y-75250500D01*
X153385273Y-75250500D01*
X153614727Y-75250500D01*
X153614734Y-75250500D01*
X153842238Y-75220548D01*
X154063887Y-75161158D01*
X154275888Y-75073344D01*
X154474612Y-74958611D01*
X154656661Y-74818919D01*
X154656665Y-74818914D01*
X154656670Y-74818911D01*
X154818911Y-74656670D01*
X154818914Y-74656665D01*
X154818919Y-74656661D01*
X154958611Y-74474612D01*
X155073344Y-74275888D01*
X155161158Y-74063887D01*
X155220548Y-73842238D01*
X155250500Y-73614734D01*
X155250500Y-73385266D01*
X155250499Y-73385258D01*
X156749500Y-73385258D01*
X156749500Y-73614741D01*
X156764484Y-73728546D01*
X156779452Y-73842238D01*
X156838842Y-74063887D01*
X156843096Y-74074157D01*
X156926650Y-74275876D01*
X156926657Y-74275890D01*
X157041392Y-74474617D01*
X157181081Y-74656661D01*
X157181089Y-74656670D01*
X157343330Y-74818911D01*
X157343338Y-74818918D01*
X157343339Y-74818919D01*
X157393962Y-74857764D01*
X157525382Y-74958607D01*
X157525385Y-74958608D01*
X157525388Y-74958611D01*
X157724112Y-75073344D01*
X157724117Y-75073346D01*
X157724123Y-75073349D01*
X157770865Y-75092710D01*
X157936113Y-75161158D01*
X158157762Y-75220548D01*
X158374312Y-75249057D01*
X158385250Y-75250498D01*
X158385266Y-75250500D01*
X158385273Y-75250500D01*
X158614727Y-75250500D01*
X158614734Y-75250500D01*
X158842238Y-75220548D01*
X159063887Y-75161158D01*
X159275888Y-75073344D01*
X159474612Y-74958611D01*
X159656661Y-74818919D01*
X159656665Y-74818914D01*
X159656670Y-74818911D01*
X159818911Y-74656670D01*
X159818914Y-74656665D01*
X159818919Y-74656661D01*
X159869464Y-74590790D01*
X164389500Y-74590790D01*
X164389500Y-74789209D01*
X164416331Y-74958611D01*
X164420537Y-74985168D01*
X164455480Y-75092710D01*
X164481850Y-75173868D01*
X164522999Y-75254627D01*
X164571923Y-75350646D01*
X164688544Y-75511161D01*
X164828839Y-75651456D01*
X164989354Y-75768077D01*
X165102800Y-75825880D01*
X165166131Y-75858149D01*
X165166133Y-75858149D01*
X165166136Y-75858151D01*
X165354832Y-75919463D01*
X165452814Y-75934981D01*
X165550791Y-75950500D01*
X165550796Y-75950500D01*
X165749209Y-75950500D01*
X165838278Y-75936392D01*
X165945168Y-75919463D01*
X166133864Y-75858151D01*
X166310646Y-75768077D01*
X166471161Y-75651456D01*
X166611456Y-75511161D01*
X166728077Y-75350646D01*
X166818151Y-75173864D01*
X166879463Y-74985168D01*
X166905728Y-74819336D01*
X166910500Y-74789209D01*
X166910500Y-74590790D01*
X166892099Y-74474612D01*
X166879463Y-74394832D01*
X166818151Y-74206136D01*
X166818149Y-74206133D01*
X166818149Y-74206131D01*
X166770967Y-74113532D01*
X166728077Y-74029354D01*
X166621116Y-73882135D01*
X177089500Y-73882135D01*
X177089500Y-75497870D01*
X177089501Y-75497876D01*
X177095908Y-75557483D01*
X177146202Y-75692328D01*
X177146206Y-75692335D01*
X177232452Y-75807544D01*
X177232455Y-75807547D01*
X177347664Y-75893793D01*
X177347671Y-75893797D01*
X177482517Y-75944091D01*
X177482516Y-75944091D01*
X177489444Y-75944835D01*
X177542127Y-75950500D01*
X179157872Y-75950499D01*
X179217483Y-75944091D01*
X179352331Y-75893796D01*
X179467546Y-75807546D01*
X179553796Y-75692331D01*
X179604091Y-75557483D01*
X179610500Y-75497873D01*
X179610500Y-75464500D01*
X179613050Y-75455814D01*
X179611762Y-75446853D01*
X179622740Y-75422812D01*
X179630185Y-75397461D01*
X179637025Y-75391533D01*
X179640787Y-75383297D01*
X179663021Y-75369007D01*
X179682989Y-75351706D01*
X179693503Y-75349418D01*
X179699565Y-75345523D01*
X179734500Y-75340500D01*
X179844192Y-75340500D01*
X179911231Y-75360185D01*
X179931873Y-75376819D01*
X182182984Y-77627930D01*
X182216469Y-77689253D01*
X182216920Y-77691420D01*
X182230261Y-77758489D01*
X182230264Y-77758501D01*
X182290602Y-77904172D01*
X182290609Y-77904185D01*
X182378210Y-78035288D01*
X182378213Y-78035292D01*
X182489707Y-78146786D01*
X182489711Y-78146789D01*
X182620814Y-78234390D01*
X182620827Y-78234397D01*
X182766498Y-78294735D01*
X182766503Y-78294737D01*
X182885575Y-78318422D01*
X182921153Y-78325499D01*
X182921156Y-78325500D01*
X182921158Y-78325500D01*
X183078844Y-78325500D01*
X183078845Y-78325499D01*
X183233497Y-78294737D01*
X183379179Y-78234394D01*
X183510289Y-78146789D01*
X183621789Y-78035289D01*
X183709394Y-77904179D01*
X183711039Y-77900209D01*
X183755565Y-77792712D01*
X183769737Y-77758497D01*
X183800500Y-77603842D01*
X183800500Y-77446158D01*
X183800500Y-77446155D01*
X183800499Y-77446153D01*
X183800257Y-77444937D01*
X183769737Y-77291503D01*
X183756783Y-77260228D01*
X183709397Y-77145827D01*
X183709390Y-77145814D01*
X183621789Y-77014711D01*
X183621786Y-77014707D01*
X183510292Y-76903213D01*
X183510288Y-76903210D01*
X183379185Y-76815609D01*
X183379172Y-76815602D01*
X183233501Y-76755264D01*
X183233489Y-76755261D01*
X183166420Y-76741920D01*
X183104509Y-76709535D01*
X183102930Y-76707984D01*
X180579674Y-74184727D01*
X180579673Y-74184726D01*
X180473123Y-74113532D01*
X180354749Y-74064501D01*
X180354748Y-74064500D01*
X180354744Y-74064499D01*
X180354741Y-74064498D01*
X180354734Y-74064496D01*
X180351665Y-74063886D01*
X180351663Y-74063886D01*
X180229071Y-74039500D01*
X180229069Y-74039500D01*
X179734499Y-74039500D01*
X179667460Y-74019815D01*
X179621705Y-73967011D01*
X179610499Y-73915500D01*
X179610499Y-73882129D01*
X179610498Y-73882123D01*
X179610497Y-73882116D01*
X179604091Y-73822517D01*
X179569041Y-73728544D01*
X179553797Y-73687671D01*
X179553793Y-73687664D01*
X179467547Y-73572455D01*
X179467544Y-73572452D01*
X179352335Y-73486206D01*
X179352328Y-73486202D01*
X179217482Y-73435908D01*
X179217483Y-73435908D01*
X179157883Y-73429501D01*
X179157881Y-73429500D01*
X179157873Y-73429500D01*
X179157864Y-73429500D01*
X177542129Y-73429500D01*
X177542123Y-73429501D01*
X177482516Y-73435908D01*
X177347671Y-73486202D01*
X177347664Y-73486206D01*
X177232455Y-73572452D01*
X177232452Y-73572455D01*
X177146206Y-73687664D01*
X177146202Y-73687671D01*
X177095908Y-73822517D01*
X177089501Y-73882116D01*
X177089501Y-73882123D01*
X177089500Y-73882135D01*
X166621116Y-73882135D01*
X166611456Y-73868839D01*
X166471161Y-73728544D01*
X166310646Y-73611923D01*
X166233179Y-73572452D01*
X166133868Y-73521850D01*
X166088596Y-73507140D01*
X165945168Y-73460537D01*
X165945162Y-73460536D01*
X165749209Y-73429500D01*
X165749204Y-73429500D01*
X165550796Y-73429500D01*
X165550791Y-73429500D01*
X165354837Y-73460536D01*
X165354835Y-73460536D01*
X165354832Y-73460537D01*
X165275832Y-73486206D01*
X165166131Y-73521850D01*
X164989352Y-73611924D01*
X164989349Y-73611926D01*
X164903255Y-73674477D01*
X164828839Y-73728544D01*
X164828837Y-73728546D01*
X164828836Y-73728546D01*
X164688546Y-73868836D01*
X164688546Y-73868837D01*
X164688544Y-73868839D01*
X164678884Y-73882135D01*
X164571926Y-74029349D01*
X164571924Y-74029352D01*
X164481850Y-74206131D01*
X164459189Y-74275876D01*
X164420537Y-74394832D01*
X164420536Y-74394835D01*
X164420536Y-74394837D01*
X164389500Y-74590790D01*
X159869464Y-74590790D01*
X159900751Y-74550016D01*
X159931122Y-74510437D01*
X159947025Y-74489711D01*
X159958611Y-74474612D01*
X160073344Y-74275888D01*
X160161158Y-74063887D01*
X160220548Y-73842238D01*
X160250500Y-73614734D01*
X160250500Y-73385266D01*
X160220548Y-73157762D01*
X160161158Y-72936113D01*
X160073344Y-72724112D01*
X159958611Y-72525388D01*
X159958608Y-72525385D01*
X159958607Y-72525382D01*
X159818918Y-72343338D01*
X159818911Y-72343330D01*
X159656670Y-72181089D01*
X159656661Y-72181081D01*
X159474617Y-72041392D01*
X159275890Y-71926657D01*
X159275876Y-71926650D01*
X159063887Y-71838842D01*
X158975604Y-71815187D01*
X158842238Y-71779452D01*
X158804215Y-71774446D01*
X158614741Y-71749500D01*
X158614734Y-71749500D01*
X158385266Y-71749500D01*
X158385258Y-71749500D01*
X158168715Y-71778009D01*
X158157762Y-71779452D01*
X158064076Y-71804554D01*
X157936112Y-71838842D01*
X157724123Y-71926650D01*
X157724109Y-71926657D01*
X157525382Y-72041392D01*
X157343338Y-72181081D01*
X157181081Y-72343338D01*
X157041392Y-72525382D01*
X156926657Y-72724109D01*
X156926650Y-72724123D01*
X156838842Y-72936112D01*
X156779453Y-73157759D01*
X156779451Y-73157770D01*
X156749500Y-73385258D01*
X155250499Y-73385258D01*
X155220548Y-73157762D01*
X155161158Y-72936113D01*
X155073344Y-72724112D01*
X154958611Y-72525388D01*
X154958608Y-72525385D01*
X154958607Y-72525382D01*
X154818918Y-72343338D01*
X154818911Y-72343330D01*
X154656670Y-72181089D01*
X154656661Y-72181081D01*
X154474617Y-72041392D01*
X154275890Y-71926657D01*
X154275876Y-71926650D01*
X154063887Y-71838842D01*
X153975604Y-71815187D01*
X153842238Y-71779452D01*
X153804215Y-71774446D01*
X153614741Y-71749500D01*
X153614734Y-71749500D01*
X153385266Y-71749500D01*
X153385258Y-71749500D01*
X153168715Y-71778009D01*
X153157762Y-71779452D01*
X153064076Y-71804554D01*
X152936112Y-71838842D01*
X152724123Y-71926650D01*
X152724109Y-71926657D01*
X152525382Y-72041392D01*
X152343338Y-72181081D01*
X152181081Y-72343338D01*
X152041392Y-72525382D01*
X151926657Y-72724109D01*
X151926650Y-72724123D01*
X151838842Y-72936112D01*
X151779453Y-73157759D01*
X151779451Y-73157770D01*
X151749500Y-73385258D01*
X151051500Y-73385258D01*
X151051500Y-72695867D01*
X151051499Y-72695865D01*
X151029609Y-72585819D01*
X151020737Y-72541215D01*
X150982948Y-72449983D01*
X150960397Y-72395539D01*
X150960390Y-72395526D01*
X150872790Y-72264424D01*
X150872789Y-72264423D01*
X150761289Y-72152923D01*
X150321547Y-71713181D01*
X149735580Y-71127213D01*
X149735576Y-71127210D01*
X149604473Y-71039609D01*
X149604460Y-71039602D01*
X149458789Y-70979264D01*
X149458777Y-70979261D01*
X149304133Y-70948500D01*
X149304130Y-70948500D01*
X145329842Y-70948500D01*
X145172158Y-70948500D01*
X145172155Y-70948500D01*
X145017510Y-70979261D01*
X145017498Y-70979264D01*
X144871827Y-71039602D01*
X144871814Y-71039609D01*
X144740711Y-71127210D01*
X144740707Y-71127213D01*
X144154739Y-71713181D01*
X144093416Y-71746666D01*
X144067058Y-71749500D01*
X142449998Y-71749500D01*
X142449981Y-71749501D01*
X142347203Y-71760000D01*
X142347200Y-71760001D01*
X142180668Y-71815185D01*
X142180663Y-71815187D01*
X142031342Y-71907289D01*
X141907289Y-72031342D01*
X141815187Y-72180663D01*
X141815185Y-72180668D01*
X141787432Y-72264423D01*
X141760001Y-72347203D01*
X141760001Y-72347204D01*
X141760000Y-72347204D01*
X141749500Y-72449983D01*
X132500500Y-72449983D01*
X132500500Y-69624500D01*
X132520185Y-69557461D01*
X132572989Y-69511706D01*
X132624500Y-69500500D01*
X211375500Y-69500500D01*
X211442539Y-69520185D01*
G37*
%TD.AperFunction*%
%TD*%
M02*
