%TF.GenerationSoftware,KiCad,Pcbnew,9.0.7*%
%TF.CreationDate,2026-02-22T23:04:31+08:00*%
%TF.ProjectId,Echolink,4563686f-6c69-46e6-9b2e-6b696361645f,rev?*%
%TF.SameCoordinates,Original*%
%TF.FileFunction,Soldermask,Bot*%
%TF.FilePolarity,Negative*%
%FSLAX46Y46*%
G04 Gerber Fmt 4.6, Leading zero omitted, Abs format (unit mm)*
G04 Created by KiCad (PCBNEW 9.0.7) date 2026-02-22 23:04:31*
%MOMM*%
%LPD*%
G01*
G04 APERTURE LIST*
G04 Aperture macros list*
%AMRoundRect*
0 Rectangle with rounded corners*
0 $1 Rounding radius*
0 $2 $3 $4 $5 $6 $7 $8 $9 X,Y pos of 4 corners*
0 Add a 4 corners polygon primitive as box body*
4,1,4,$2,$3,$4,$5,$6,$7,$8,$9,$2,$3,0*
0 Add four circle primitives for the rounded corners*
1,1,$1+$1,$2,$3*
1,1,$1+$1,$4,$5*
1,1,$1+$1,$6,$7*
1,1,$1+$1,$8,$9*
0 Add four rect primitives between the rounded corners*
20,1,$1+$1,$2,$3,$4,$5,0*
20,1,$1+$1,$4,$5,$6,$7,0*
20,1,$1+$1,$6,$7,$8,$9,0*
20,1,$1+$1,$8,$9,$2,$3,0*%
G04 Aperture macros list end*
%ADD10RoundRect,0.250000X1.000000X1.000000X-1.000000X1.000000X-1.000000X-1.000000X1.000000X-1.000000X0*%
%ADD11C,2.500000*%
%ADD12C,1.440000*%
%ADD13C,5.600000*%
%ADD14R,1.700000X1.700000*%
%ADD15C,1.700000*%
%ADD16C,3.500000*%
%ADD17RoundRect,0.250000X-1.000000X1.000000X-1.000000X-1.000000X1.000000X-1.000000X1.000000X1.000000X0*%
%ADD18R,1.520000X1.520000*%
%ADD19C,1.520000*%
%ADD20C,1.900000*%
%ADD21RoundRect,0.250000X-0.700000X-0.700000X0.700000X-0.700000X0.700000X0.700000X-0.700000X0.700000X0*%
%ADD22RoundRect,0.250000X-1.000000X-1.000000X1.000000X-1.000000X1.000000X1.000000X-1.000000X1.000000X0*%
G04 APERTURE END LIST*
D10*
%TO.C,J2*%
X154500000Y-109132500D03*
D11*
X149500000Y-109132500D03*
X144500000Y-109132500D03*
%TD*%
D12*
%TO.C,RV2*%
X169540000Y-91500000D03*
X167000000Y-91500000D03*
X164460000Y-91500000D03*
%TD*%
D13*
%TO.C,J7*%
X209000000Y-72000000D03*
%TD*%
D14*
%TO.C,J1*%
X138577500Y-92750000D03*
D15*
X138577500Y-90250000D03*
X136577500Y-90250000D03*
X136577500Y-92750000D03*
D16*
X133867500Y-97520000D03*
X133867500Y-85480000D03*
%TD*%
D17*
%TO.C,J6*%
X207500000Y-94500000D03*
D11*
X207500000Y-99500000D03*
X207500000Y-104500000D03*
%TD*%
D13*
%TO.C,J9*%
X135000000Y-72000000D03*
%TD*%
D17*
%TO.C,J5*%
X207500000Y-78500000D03*
D11*
X207500000Y-83500000D03*
X207500000Y-88500000D03*
%TD*%
D18*
%TO.C,T1*%
X178500000Y-100880000D03*
D19*
X178500000Y-108500000D03*
X165800000Y-108500000D03*
X165800000Y-100880000D03*
%TD*%
D20*
%TO.C,K11*%
X186690000Y-86660000D03*
X194310000Y-86660000D03*
X186690000Y-73960000D03*
X194310000Y-73960000D03*
D21*
X186690000Y-76500000D03*
D20*
X194310000Y-76500000D03*
%TD*%
D22*
%TO.C,J3*%
X143500000Y-73500000D03*
D11*
X148500000Y-73500000D03*
X153500000Y-73500000D03*
X158500000Y-73500000D03*
%TD*%
D18*
%TO.C,T2*%
X178350000Y-74690000D03*
D19*
X178350000Y-82310000D03*
X165650000Y-82310000D03*
X165650000Y-74690000D03*
%TD*%
D12*
%TO.C,RV1*%
X180000000Y-91500000D03*
X177460000Y-91500000D03*
X174920000Y-91500000D03*
%TD*%
D13*
%TO.C,J8*%
X135000000Y-111000000D03*
%TD*%
%TO.C,J4*%
X209000000Y-111000000D03*
%TD*%
M02*
