%TF.GenerationSoftware,KiCad,Pcbnew,9.0.5-1.fc42*%
%TF.CreationDate,2025-10-16T13:47:52+08:00*%
%TF.ProjectId,Echolink,4563686f-6c69-46e6-9b2e-6b696361645f,rev?*%
%TF.SameCoordinates,Original*%
%TF.FileFunction,Legend,Bot*%
%TF.FilePolarity,Positive*%
%FSLAX46Y46*%
G04 Gerber Fmt 4.6, Leading zero omitted, Abs format (unit mm)*
G04 Created by KiCad (PCBNEW 9.0.5-1.fc42) date 2025-10-16 13:47:52*
%MOMM*%
%LPD*%
G01*
G04 APERTURE LIST*
%ADD10C,0.000000*%
G04 APERTURE END LIST*
D10*
%TO.C,G\u002A\u002A\u002A*%
G36*
X157450168Y-103296667D02*
G01*
X157450168Y-104397333D01*
X157237793Y-104397333D01*
X157224928Y-104397318D01*
X157128249Y-104389000D01*
X157069279Y-104342824D01*
X157038698Y-104225920D01*
X157027185Y-104005420D01*
X157025419Y-103648455D01*
X157025210Y-103554626D01*
X157016979Y-103211180D01*
X156991401Y-102988832D01*
X156941160Y-102848079D01*
X156858942Y-102749421D01*
X156736274Y-102669056D01*
X156488591Y-102650262D01*
X156405049Y-102659297D01*
X156228143Y-102613269D01*
X156090493Y-102508695D01*
X156032445Y-102383796D01*
X156094349Y-102276794D01*
X156095203Y-102276258D01*
X156322930Y-102207836D01*
X156609658Y-102210579D01*
X156861104Y-102283645D01*
X156973417Y-102328045D01*
X157025419Y-102283645D01*
X157078163Y-102225994D01*
X157237793Y-102196000D01*
X157450168Y-102196000D01*
X157450168Y-103296667D01*
G37*
G36*
X148190636Y-99915888D02*
G01*
X148190623Y-100028431D01*
X148189075Y-100444580D01*
X148181630Y-100723569D01*
X148163620Y-100891771D01*
X148130375Y-100975559D01*
X148077224Y-101001307D01*
X147999499Y-100995388D01*
X147914755Y-100973924D01*
X147853567Y-100914173D01*
X147814680Y-100784251D01*
X147788614Y-100551140D01*
X147765887Y-100181824D01*
X147763253Y-100134385D01*
X147729157Y-99724025D01*
X147673521Y-99456496D01*
X147582394Y-99307710D01*
X147441828Y-99253576D01*
X147237871Y-99270004D01*
X147168175Y-99274885D01*
X146988870Y-99225171D01*
X146850584Y-99115821D01*
X146792546Y-98986862D01*
X146853985Y-98878320D01*
X146873023Y-98867519D01*
X147092772Y-98816379D01*
X147366277Y-98826964D01*
X147601572Y-98896979D01*
X147713886Y-98941379D01*
X147765887Y-98896979D01*
X147818631Y-98839328D01*
X147978262Y-98809333D01*
X148190636Y-98809333D01*
X148190636Y-99915888D01*
G37*
G36*
X146093614Y-98827271D02*
G01*
X146396761Y-98947398D01*
X146420321Y-98964473D01*
X146657919Y-99236381D01*
X146789019Y-99584628D01*
X146815923Y-99965868D01*
X146740932Y-100336753D01*
X146566348Y-100653938D01*
X146294472Y-100874074D01*
X146014143Y-100978178D01*
X145666716Y-100984309D01*
X145311064Y-100834675D01*
X145022462Y-100659317D01*
X145194655Y-100487698D01*
X145312882Y-100383236D01*
X145422571Y-100367804D01*
X145584919Y-100458488D01*
X145743000Y-100528446D01*
X145994146Y-100516829D01*
X146206358Y-100367086D01*
X146341281Y-100097522D01*
X146370621Y-99872561D01*
X146311242Y-99579766D01*
X146151124Y-99366196D01*
X145916335Y-99261387D01*
X145632942Y-99294877D01*
X145389777Y-99352300D01*
X145189811Y-99302621D01*
X145153963Y-99283270D01*
X145071645Y-99219703D01*
X145099873Y-99144656D01*
X145248383Y-99009369D01*
X145401748Y-98910666D01*
X145737477Y-98816347D01*
X146093614Y-98827271D01*
G37*
G36*
X148785285Y-103240222D02*
G01*
X148785270Y-103263326D01*
X148780157Y-103665816D01*
X148767154Y-104003363D01*
X148748159Y-104241175D01*
X148725068Y-104344460D01*
X148660256Y-104374074D01*
X148491456Y-104379738D01*
X148431351Y-104365183D01*
X148369110Y-104310529D01*
X148330981Y-104186577D01*
X148308517Y-103959985D01*
X148293271Y-103597409D01*
X148292438Y-103572550D01*
X148267282Y-103146650D01*
X148218645Y-102865278D01*
X148134644Y-102705122D01*
X148003395Y-102642871D01*
X147813016Y-102655210D01*
X147756837Y-102664446D01*
X147567564Y-102651930D01*
X147443653Y-102531237D01*
X147386763Y-102404095D01*
X147385748Y-102277223D01*
X147468860Y-102225349D01*
X147668716Y-102198783D01*
X147906504Y-102218425D01*
X148111271Y-102283645D01*
X148223585Y-102328045D01*
X148275586Y-102283645D01*
X148275606Y-102282541D01*
X148351511Y-102221382D01*
X148530436Y-102196000D01*
X148785285Y-102196000D01*
X148785285Y-103240222D01*
G37*
G36*
X163756376Y-100386706D02*
G01*
X163572829Y-100719335D01*
X163278736Y-100931630D01*
X163230467Y-100949457D01*
X162912267Y-100978707D01*
X162577147Y-100896879D01*
X162302567Y-100720709D01*
X162180547Y-100566384D01*
X162097695Y-100343090D01*
X162055164Y-100011991D01*
X162052318Y-99939657D01*
X162469069Y-99939657D01*
X162540640Y-100273915D01*
X162599767Y-100381963D01*
X162799107Y-100523354D01*
X163056857Y-100521480D01*
X163174820Y-100463035D01*
X163324705Y-100274743D01*
X163392340Y-100019694D01*
X163382177Y-99742925D01*
X163298670Y-99489473D01*
X163146271Y-99304374D01*
X162929432Y-99232667D01*
X162812769Y-99251057D01*
X162619521Y-99389697D01*
X162500158Y-99632075D01*
X162469069Y-99939657D01*
X162052318Y-99939657D01*
X162047830Y-99825576D01*
X162101508Y-99380084D01*
X162266048Y-99062607D01*
X162541880Y-98872553D01*
X162929432Y-98809333D01*
X163015032Y-98811831D01*
X163372812Y-98898574D01*
X163624249Y-99112165D01*
X163772671Y-99456808D01*
X163821405Y-99936711D01*
X163821369Y-99948426D01*
X163810801Y-100019694D01*
X163756376Y-100386706D01*
G37*
G36*
X152521189Y-99882320D02*
G01*
X152507930Y-100189707D01*
X152439221Y-100509628D01*
X152294850Y-100738019D01*
X152055854Y-100917050D01*
X151900392Y-100969325D01*
X151605242Y-100978102D01*
X151302022Y-100915815D01*
X151071979Y-100792730D01*
X150971535Y-100670349D01*
X150837643Y-100362450D01*
X150768438Y-99986093D01*
X150778839Y-99604377D01*
X151259888Y-99604377D01*
X151265983Y-99884143D01*
X151306536Y-100193276D01*
X151418214Y-100442991D01*
X151597464Y-100537353D01*
X151844274Y-100476352D01*
X151906128Y-100441143D01*
X152030926Y-100294462D01*
X152083002Y-100043124D01*
X152085621Y-100006866D01*
X152086711Y-99734420D01*
X152060471Y-99517193D01*
X152043920Y-99468861D01*
X151896389Y-99311288D01*
X151669747Y-99253920D01*
X151422557Y-99315292D01*
X151366819Y-99349067D01*
X151288919Y-99442663D01*
X151259888Y-99604377D01*
X150778839Y-99604377D01*
X150778900Y-99602137D01*
X150845544Y-99361777D01*
X151041681Y-99066200D01*
X151318906Y-98874707D01*
X151640985Y-98800507D01*
X151971682Y-98856808D01*
X152274763Y-99056820D01*
X152277481Y-99059532D01*
X152410275Y-99208587D01*
X152483955Y-99357875D01*
X152515324Y-99563689D01*
X152518467Y-99734420D01*
X152521189Y-99882320D01*
G37*
G36*
X148929330Y-98809361D02*
G01*
X149024250Y-98818258D01*
X149082117Y-98865736D01*
X149112100Y-98984482D01*
X149123366Y-99207185D01*
X149125084Y-99566532D01*
X149126386Y-99813396D01*
X149137510Y-100094413D01*
X149166974Y-100269236D01*
X149223018Y-100376673D01*
X149313886Y-100455532D01*
X149327126Y-100464739D01*
X149509163Y-100568291D01*
X149643070Y-100554645D01*
X149804683Y-100418000D01*
X149812227Y-100410372D01*
X149895242Y-100297294D01*
X149944647Y-100140578D01*
X149968430Y-99898415D01*
X149974583Y-99529000D01*
X149976478Y-99183259D01*
X149988769Y-98969378D01*
X150021351Y-98858114D01*
X150084116Y-98815941D01*
X150186957Y-98809333D01*
X150399332Y-98809333D01*
X150399332Y-99690807D01*
X150399028Y-99938322D01*
X150393335Y-100252249D01*
X150373371Y-100456676D01*
X150330147Y-100589455D01*
X150254674Y-100688437D01*
X150137965Y-100791474D01*
X149922121Y-100939118D01*
X149648321Y-101004236D01*
X149365229Y-100918156D01*
X149230694Y-100869202D01*
X149098974Y-100918156D01*
X149035837Y-100962401D01*
X148853245Y-101010667D01*
X148809072Y-101005308D01*
X148760045Y-100964840D01*
X148728364Y-100861748D01*
X148710322Y-100669359D01*
X148702214Y-100361000D01*
X148700335Y-99910000D01*
X148700335Y-98809333D01*
X148912710Y-98809333D01*
X148929330Y-98809361D01*
G37*
G36*
X159624707Y-99520686D02*
G01*
X159641661Y-100005069D01*
X159640062Y-100025991D01*
X159557859Y-100450774D01*
X159383680Y-100746070D01*
X159106690Y-100930626D01*
X159040114Y-100955096D01*
X158659064Y-100995789D01*
X158248792Y-100874019D01*
X158169326Y-100835100D01*
X158001174Y-100724405D01*
X157978981Y-100623032D01*
X158089807Y-100500586D01*
X158093715Y-100497386D01*
X158239484Y-100436133D01*
X158433604Y-100490219D01*
X158661802Y-100570849D01*
X158870565Y-100557814D01*
X159064215Y-100418000D01*
X159170941Y-100300028D01*
X159217952Y-100188429D01*
X159140949Y-100121134D01*
X158924835Y-100088112D01*
X158554516Y-100079333D01*
X157874917Y-100079333D01*
X157874917Y-99786984D01*
X157911187Y-99545933D01*
X158384616Y-99545933D01*
X158395677Y-99580165D01*
X158525200Y-99637533D01*
X158809365Y-99656000D01*
X159016859Y-99648545D01*
X159191309Y-99605273D01*
X159215810Y-99514404D01*
X159100622Y-99365714D01*
X159057832Y-99328563D01*
X158847216Y-99243098D01*
X158627512Y-99260226D01*
X158454664Y-99365865D01*
X158384616Y-99545933D01*
X157911187Y-99545933D01*
X157932529Y-99404093D01*
X158117402Y-99084056D01*
X158415106Y-98880610D01*
X158810731Y-98809333D01*
X158924567Y-98814798D01*
X159262736Y-98920624D01*
X159497258Y-99157562D01*
X159622502Y-99514404D01*
X159624707Y-99520686D01*
G37*
G36*
X154023145Y-98865031D02*
G01*
X154253093Y-98984812D01*
X154392146Y-99130202D01*
X154486122Y-99381731D01*
X154448293Y-99636218D01*
X154295393Y-99859853D01*
X154044157Y-100018828D01*
X153711321Y-100079333D01*
X153522341Y-100094964D01*
X153322261Y-100172430D01*
X153252706Y-100297646D01*
X153333237Y-100451363D01*
X153467649Y-100543216D01*
X153746981Y-100574410D01*
X154089158Y-100456691D01*
X154253003Y-100381973D01*
X154373543Y-100384730D01*
X154499360Y-100487399D01*
X154573117Y-100566335D01*
X154594817Y-100642346D01*
X154508671Y-100719131D01*
X154292477Y-100833875D01*
X154008940Y-100943878D01*
X153607686Y-100992806D01*
X153248827Y-100916338D01*
X152971867Y-100717941D01*
X152810861Y-100457816D01*
X152780800Y-100183572D01*
X152900266Y-99947744D01*
X153158474Y-99770057D01*
X153544643Y-99670233D01*
X153651616Y-99656323D01*
X153876360Y-99611176D01*
X153982817Y-99546781D01*
X154009700Y-99444333D01*
X154007090Y-99403809D01*
X153935858Y-99296023D01*
X153737538Y-99248761D01*
X153499832Y-99257403D01*
X153284589Y-99318953D01*
X153254993Y-99334142D01*
X153106818Y-99364939D01*
X152985981Y-99260526D01*
X152976163Y-99246972D01*
X152937758Y-99089996D01*
X153030726Y-98960293D01*
X153220408Y-98865403D01*
X153472144Y-98812869D01*
X153751276Y-98810231D01*
X154023145Y-98865031D01*
G37*
G36*
X144926705Y-99612773D02*
G01*
X144946317Y-99999262D01*
X144870388Y-100373531D01*
X144704153Y-100689829D01*
X144452844Y-100902407D01*
X144282743Y-100969995D01*
X143945526Y-100997595D01*
X143558142Y-100887987D01*
X143505862Y-100865480D01*
X143313667Y-100750791D01*
X143278428Y-100636977D01*
X143390894Y-100502730D01*
X143433414Y-100471891D01*
X143570331Y-100441381D01*
X143776996Y-100504215D01*
X143835657Y-100525650D01*
X144117414Y-100552622D01*
X144345801Y-100457322D01*
X144475577Y-100255835D01*
X144488119Y-100195364D01*
X144470920Y-100130985D01*
X144380313Y-100096239D01*
X144184140Y-100082047D01*
X143850242Y-100079333D01*
X143178596Y-100079333D01*
X143178596Y-99778795D01*
X143204271Y-99583562D01*
X143641305Y-99583562D01*
X143664927Y-99634450D01*
X143797928Y-99653273D01*
X144070569Y-99656000D01*
X144119599Y-99655991D01*
X144370263Y-99651930D01*
X144485645Y-99629472D01*
X144496006Y-99572651D01*
X144431606Y-99465500D01*
X144320811Y-99351864D01*
X144070569Y-99275000D01*
X143911888Y-99303552D01*
X143709533Y-99465500D01*
X143696803Y-99484644D01*
X143641305Y-99583562D01*
X143204271Y-99583562D01*
X143215775Y-99496086D01*
X143306900Y-99230972D01*
X143429889Y-99054806D01*
X143705711Y-98860035D01*
X144032531Y-98792560D01*
X144366412Y-98857872D01*
X144663417Y-99061460D01*
X144806320Y-99259816D01*
X144913020Y-99572651D01*
X144926705Y-99612773D01*
G37*
G36*
X147238827Y-103114757D02*
G01*
X147246045Y-103251646D01*
X147213279Y-103716960D01*
X147079310Y-104055025D01*
X146840949Y-104275146D01*
X146647556Y-104347061D01*
X146381585Y-104372794D01*
X146110844Y-104343517D01*
X145870265Y-104270471D01*
X145694781Y-104164898D01*
X145619326Y-104038042D01*
X145678834Y-103901144D01*
X145710998Y-103871343D01*
X145840834Y-103818367D01*
X146025275Y-103874318D01*
X146220424Y-103946794D01*
X146465544Y-103955983D01*
X146676088Y-103833878D01*
X146764410Y-103746775D01*
X146840546Y-103613334D01*
X146776670Y-103526769D01*
X146563473Y-103480014D01*
X146191649Y-103466000D01*
X145863130Y-103457827D01*
X145617000Y-103415467D01*
X145497607Y-103317682D01*
X145482118Y-103143392D01*
X145532966Y-102932600D01*
X145981941Y-102932600D01*
X145993001Y-102966831D01*
X146122525Y-103024199D01*
X146406690Y-103042667D01*
X146663812Y-103037599D01*
X146794755Y-103007362D01*
X146811774Y-102929884D01*
X146743500Y-102783100D01*
X146640315Y-102675542D01*
X146440983Y-102618702D01*
X146225385Y-102650338D01*
X146052658Y-102758840D01*
X145981941Y-102932600D01*
X145532966Y-102932600D01*
X145547700Y-102871519D01*
X145549937Y-102864173D01*
X145726910Y-102528285D01*
X145994815Y-102300834D01*
X146316143Y-102194399D01*
X146653380Y-102221559D01*
X146969016Y-102394894D01*
X147028708Y-102449347D01*
X147141163Y-102598767D01*
X147203944Y-102801202D01*
X147218260Y-102929884D01*
X147238827Y-103114757D01*
G37*
G36*
X157535118Y-99853555D02*
G01*
X157535103Y-99877302D01*
X157530285Y-100279273D01*
X157518054Y-100615843D01*
X157500193Y-100852373D01*
X157478485Y-100954222D01*
X157427636Y-100983025D01*
X157266110Y-101010667D01*
X157228863Y-101007991D01*
X157166231Y-100970132D01*
X157130400Y-100861451D01*
X157114178Y-100649137D01*
X157110369Y-100300380D01*
X157106172Y-100005337D01*
X157083242Y-99721136D01*
X157033512Y-99530999D01*
X156949361Y-99391919D01*
X156874868Y-99308284D01*
X156738435Y-99237859D01*
X156545849Y-99278432D01*
X156512402Y-99290279D01*
X156410900Y-99337763D01*
X156346273Y-99413939D01*
X156307243Y-99553918D01*
X156282535Y-99792810D01*
X156260870Y-100165726D01*
X156238708Y-100535741D01*
X156213289Y-100774397D01*
X156175707Y-100908775D01*
X156116764Y-100971547D01*
X156027258Y-100995388D01*
X155968781Y-101001699D01*
X155904901Y-100986728D01*
X155865741Y-100916804D01*
X155845255Y-100763332D01*
X155837397Y-100497718D01*
X155836121Y-100091367D01*
X155836530Y-99841639D01*
X155842169Y-99512643D01*
X155860193Y-99297748D01*
X155897740Y-99161669D01*
X155961947Y-99069119D01*
X156059952Y-98984812D01*
X156173907Y-98912866D01*
X156451507Y-98824704D01*
X156727769Y-98823649D01*
X156934098Y-98915167D01*
X157028866Y-98978542D01*
X157085592Y-98915167D01*
X157157064Y-98848094D01*
X157329822Y-98809333D01*
X157535118Y-98809333D01*
X157535118Y-99853555D01*
G37*
G36*
X150941828Y-103891354D02*
G01*
X150745666Y-104149846D01*
X150474619Y-104335371D01*
X150135716Y-104400596D01*
X149799098Y-104309688D01*
X149686785Y-104265288D01*
X149634783Y-104309688D01*
X149582040Y-104367339D01*
X149422409Y-104397333D01*
X149210034Y-104397333D01*
X149210034Y-103616887D01*
X149645330Y-103616887D01*
X149722722Y-103810233D01*
X149848768Y-103919651D01*
X150071604Y-103973573D01*
X150308301Y-103950556D01*
X150484282Y-103847000D01*
X150542170Y-103731317D01*
X150491333Y-103594686D01*
X150306079Y-103500863D01*
X150006656Y-103466000D01*
X149871195Y-103469641D01*
X149688529Y-103510984D01*
X149645330Y-103616887D01*
X149210034Y-103616887D01*
X149210034Y-103504485D01*
X149210106Y-103410235D01*
X149214274Y-103036819D01*
X149230044Y-102787256D01*
X149264574Y-102623760D01*
X149325022Y-102508543D01*
X149418547Y-102403818D01*
X149532345Y-102307008D01*
X149738635Y-102219635D01*
X150036769Y-102196000D01*
X150130882Y-102198558D01*
X150429904Y-102244405D01*
X150650599Y-102334811D01*
X150762478Y-102452924D01*
X150735053Y-102581898D01*
X150712904Y-102604291D01*
X150550427Y-102661976D01*
X150264963Y-102647590D01*
X149966544Y-102635532D01*
X149763392Y-102703020D01*
X149657677Y-102814603D01*
X149651891Y-102931442D01*
X149805665Y-103014760D01*
X150123245Y-103068877D01*
X150421639Y-103114227D01*
X150640012Y-103197673D01*
X150802844Y-103339443D01*
X150851421Y-103398862D01*
X150976416Y-103650435D01*
X150964804Y-103731317D01*
X150941828Y-103891354D01*
G37*
G36*
X155988422Y-103481858D02*
G01*
X155977823Y-103609652D01*
X155935142Y-103876397D01*
X155856145Y-104053181D01*
X155718849Y-104198439D01*
X155472267Y-104342667D01*
X155172273Y-104393675D01*
X154909274Y-104319140D01*
X154832715Y-104290984D01*
X154644440Y-104333799D01*
X154544473Y-104373977D01*
X154360752Y-104371019D01*
X154347278Y-104364977D01*
X154300215Y-104318256D01*
X154266448Y-104219376D01*
X154243864Y-104044906D01*
X154230350Y-103771417D01*
X154223791Y-103375478D01*
X154223688Y-103342994D01*
X154734891Y-103342994D01*
X154749392Y-103603925D01*
X154796787Y-103772088D01*
X154928537Y-103882253D01*
X155154374Y-103927187D01*
X155368452Y-103857794D01*
X155445867Y-103754203D01*
X155513643Y-103515815D01*
X155533398Y-103226077D01*
X155502248Y-102950217D01*
X155417307Y-102753460D01*
X155383052Y-102718135D01*
X155185607Y-102628841D01*
X154973071Y-102651724D01*
X154819712Y-102783100D01*
X154797799Y-102834904D01*
X154751591Y-103062314D01*
X154734891Y-103342994D01*
X154223688Y-103342994D01*
X154222074Y-102833657D01*
X154222074Y-101349333D01*
X154476924Y-101349333D01*
X154731773Y-101349333D01*
X154731773Y-101860312D01*
X154731773Y-101861871D01*
X154735822Y-102140738D01*
X154756246Y-102282576D01*
X154805512Y-102319505D01*
X154896088Y-102283645D01*
X154931079Y-102266142D01*
X155253936Y-102196779D01*
X155565969Y-102268008D01*
X155820913Y-102459709D01*
X155972504Y-102751762D01*
X155991447Y-102888801D01*
X156000195Y-103165751D01*
X155997948Y-103226077D01*
X155988422Y-103481858D01*
G37*
G36*
X159640381Y-103805782D02*
G01*
X159533253Y-104092398D01*
X159317654Y-104288452D01*
X159115926Y-104357992D01*
X158861325Y-104392238D01*
X158638800Y-104378403D01*
X158513116Y-104314400D01*
X158460192Y-104279388D01*
X158306981Y-104327763D01*
X158194713Y-104372933D01*
X158013595Y-104371019D01*
X157946830Y-104318813D01*
X157902842Y-104195519D01*
X157880889Y-103969778D01*
X157875913Y-103668608D01*
X158384616Y-103668608D01*
X158414506Y-103807078D01*
X158518989Y-103922608D01*
X158598897Y-103948199D01*
X158857831Y-103968359D01*
X159072395Y-103902898D01*
X159201438Y-103771557D01*
X159203810Y-103594078D01*
X159192457Y-103571876D01*
X159053926Y-103491654D01*
X158769557Y-103466000D01*
X158674186Y-103466702D01*
X158483226Y-103484330D01*
X158401747Y-103543714D01*
X158384616Y-103668608D01*
X157875913Y-103668608D01*
X157874917Y-103608291D01*
X157881764Y-103269083D01*
X157929000Y-102828661D01*
X158032772Y-102521433D01*
X158206645Y-102327109D01*
X158464182Y-102225395D01*
X158818947Y-102196000D01*
X158871308Y-102196726D01*
X159194896Y-102241145D01*
X159410559Y-102345041D01*
X159488964Y-102495312D01*
X159486969Y-102537720D01*
X159458143Y-102594971D01*
X159366467Y-102627353D01*
X159176260Y-102643687D01*
X158851840Y-102652792D01*
X158745439Y-102655909D01*
X158537318Y-102678551D01*
X158437354Y-102737263D01*
X158399945Y-102852167D01*
X158399456Y-102969026D01*
X158476651Y-103029285D01*
X158678761Y-103042667D01*
X158877570Y-103055007D01*
X159228480Y-103144557D01*
X159490902Y-103304294D01*
X159625569Y-103514644D01*
X159629610Y-103594078D01*
X159640381Y-103805782D01*
G37*
G36*
X153991929Y-102220509D02*
G01*
X154030572Y-102301833D01*
X154029940Y-102303528D01*
X153987513Y-102426639D01*
X153904429Y-102674264D01*
X153792418Y-103011264D01*
X153663208Y-103402500D01*
X153637705Y-103479721D01*
X153501615Y-103878073D01*
X153398261Y-104143506D01*
X153314592Y-104301524D01*
X153237556Y-104377631D01*
X153154100Y-104397333D01*
X153148434Y-104397285D01*
X153050562Y-104370572D01*
X152968410Y-104273300D01*
X152884002Y-104073991D01*
X152779360Y-103741167D01*
X152754406Y-103657042D01*
X152660746Y-103352131D01*
X152584707Y-103120668D01*
X152540815Y-103007338D01*
X152531363Y-103003175D01*
X152477116Y-103086141D01*
X152395991Y-103289081D01*
X152301703Y-103579191D01*
X152272237Y-103677707D01*
X152167445Y-104015601D01*
X152088681Y-104226950D01*
X152019361Y-104341314D01*
X151942902Y-104388255D01*
X151842720Y-104397333D01*
X151806700Y-104389150D01*
X151730283Y-104318984D01*
X151641573Y-104163956D01*
X151534285Y-103908310D01*
X151402136Y-103536293D01*
X151238842Y-103032151D01*
X151038119Y-102380130D01*
X151013602Y-102278367D01*
X151050230Y-102207287D01*
X151213289Y-102210797D01*
X151314737Y-102225464D01*
X151393877Y-102260609D01*
X151459328Y-102344024D01*
X151526384Y-102504286D01*
X151610342Y-102769974D01*
X151726498Y-103169667D01*
X151873018Y-103677667D01*
X152104919Y-102958000D01*
X152212078Y-102643081D01*
X152317003Y-102395575D01*
X152411373Y-102261218D01*
X152510492Y-102211853D01*
X152549320Y-102208892D01*
X152632373Y-102239528D01*
X152709320Y-102347445D01*
X152796676Y-102561451D01*
X152910957Y-102910353D01*
X152961280Y-103069622D01*
X153055961Y-103359753D01*
X153125698Y-103560400D01*
X153158140Y-103635333D01*
X153166577Y-103619703D01*
X153211703Y-103483063D01*
X153284042Y-103236055D01*
X153372576Y-102915667D01*
X153466004Y-102578788D01*
X153539381Y-102363456D01*
X153609407Y-102249153D01*
X153695853Y-102203970D01*
X153818488Y-102196000D01*
X153991929Y-102220509D01*
G37*
G36*
X161697660Y-101603333D02*
G01*
X161697660Y-104397333D01*
X161485285Y-104397333D01*
X161385854Y-104391471D01*
X161321307Y-104351256D01*
X161287694Y-104242944D01*
X161274925Y-104032789D01*
X161272911Y-103687046D01*
X161268714Y-103392004D01*
X161245784Y-103107802D01*
X161196054Y-102917665D01*
X161111902Y-102778585D01*
X161037409Y-102694950D01*
X160900977Y-102624526D01*
X160708391Y-102665099D01*
X160674944Y-102676946D01*
X160573442Y-102724430D01*
X160508815Y-102800606D01*
X160469785Y-102940584D01*
X160445076Y-103179477D01*
X160423412Y-103552393D01*
X160417881Y-103656091D01*
X160396838Y-103992185D01*
X160371445Y-104198441D01*
X160331642Y-104306540D01*
X160267367Y-104348165D01*
X160168563Y-104355000D01*
X159956188Y-104355000D01*
X159956188Y-103479826D01*
X159956390Y-103297289D01*
X159961322Y-102961913D01*
X159979255Y-102742336D01*
X160018536Y-102600751D01*
X160087515Y-102499349D01*
X160194537Y-102400326D01*
X160216023Y-102382790D01*
X160441091Y-102261409D01*
X160696511Y-102198450D01*
X160922815Y-102202130D01*
X161060536Y-102280667D01*
X161073986Y-102301367D01*
X161162002Y-102369488D01*
X161224056Y-102276314D01*
X161260806Y-102019732D01*
X161272911Y-101597628D01*
X161272899Y-101527610D01*
X161270489Y-101190855D01*
X161258243Y-100989037D01*
X161228088Y-100892600D01*
X161171955Y-100871987D01*
X161081773Y-100897641D01*
X161016685Y-100917815D01*
X160716620Y-100958520D01*
X160424885Y-100933260D01*
X160217308Y-100846520D01*
X160087750Y-100674229D01*
X159984515Y-100361655D01*
X159942209Y-99985634D01*
X159942858Y-99972698D01*
X160425628Y-99972698D01*
X160442194Y-100223483D01*
X160488425Y-100381842D01*
X160522598Y-100423492D01*
X160727632Y-100526282D01*
X160984765Y-100498715D01*
X161115540Y-100391199D01*
X161212376Y-100162151D01*
X161241873Y-99874230D01*
X161199543Y-99581619D01*
X161080896Y-99338500D01*
X160924538Y-99249416D01*
X160707707Y-99245977D01*
X160525352Y-99334267D01*
X160472128Y-99459401D01*
X160436386Y-99695874D01*
X160425628Y-99972698D01*
X159942858Y-99972698D01*
X159961635Y-99598461D01*
X160043599Y-99252429D01*
X160188903Y-98999833D01*
X160343039Y-98891439D01*
X160612198Y-98814391D01*
X160887754Y-98820029D01*
X161096640Y-98915167D01*
X161191408Y-98978542D01*
X161248133Y-98915167D01*
X161319605Y-98848094D01*
X161492364Y-98809333D01*
X161697660Y-98809333D01*
X161697660Y-99874230D01*
X161697660Y-101603333D01*
G37*
G36*
X154816723Y-83852486D02*
G01*
X155029098Y-84939973D01*
X155746333Y-85228320D01*
X155904064Y-85291012D01*
X156206194Y-85406721D01*
X156430832Y-85486766D01*
X156538203Y-85516667D01*
X156542495Y-85516043D01*
X156651058Y-85460540D01*
X156866303Y-85328186D01*
X157159193Y-85137386D01*
X157500692Y-84906548D01*
X158388547Y-84296430D01*
X159151130Y-85052950D01*
X159186535Y-85088139D01*
X159470238Y-85375224D01*
X159701308Y-85617863D01*
X159856785Y-85791419D01*
X159913713Y-85871257D01*
X159913404Y-85873703D01*
X159861067Y-85973321D01*
X159731778Y-86180868D01*
X159544010Y-86467496D01*
X159316236Y-86804356D01*
X158718758Y-87675667D01*
X159028567Y-88395333D01*
X159099937Y-88559204D01*
X159234687Y-88857860D01*
X159340275Y-89077789D01*
X159398454Y-89180267D01*
X159398899Y-89180729D01*
X159503995Y-89221276D01*
X159741046Y-89282785D01*
X160075276Y-89356984D01*
X160471908Y-89435601D01*
X161485285Y-89625668D01*
X161508915Y-90735621D01*
X161532544Y-91845574D01*
X160489517Y-92046620D01*
X159446489Y-92247667D01*
X159111526Y-93072726D01*
X158776564Y-93897785D01*
X159345138Y-94727535D01*
X159561857Y-95049808D01*
X159744647Y-95333507D01*
X159868275Y-95539168D01*
X159913713Y-95636374D01*
X159863038Y-95716631D01*
X159713795Y-95891904D01*
X159489723Y-96133833D01*
X159214753Y-96415731D01*
X158948132Y-96674981D01*
X158696197Y-96903892D01*
X158506132Y-97058948D01*
X158405835Y-97116000D01*
X158308868Y-97078126D01*
X158098374Y-96961976D01*
X157810231Y-96786296D01*
X157476922Y-96570173D01*
X156657966Y-96024347D01*
X156283896Y-96242836D01*
X156151991Y-96313437D01*
X155948282Y-96391055D01*
X155837440Y-96386496D01*
X155837098Y-96386134D01*
X155781425Y-96284291D01*
X155675444Y-96055012D01*
X155530916Y-95726590D01*
X155359603Y-95327315D01*
X155173267Y-94885479D01*
X154983668Y-94429373D01*
X154802568Y-93987289D01*
X154641730Y-93587519D01*
X154512914Y-93258353D01*
X154427882Y-93028082D01*
X154398396Y-92925000D01*
X154455770Y-92841686D01*
X154615183Y-92687327D01*
X154839887Y-92500411D01*
X155081016Y-92286940D01*
X155445655Y-91814686D01*
X155663893Y-91293080D01*
X155734239Y-90746361D01*
X155655204Y-90198765D01*
X155425295Y-89674529D01*
X155043022Y-89197889D01*
X154800659Y-88983480D01*
X154404003Y-88736347D01*
X153964087Y-88603972D01*
X153425507Y-88564666D01*
X152957655Y-88619188D01*
X152428600Y-88822242D01*
X151970192Y-89156402D01*
X151608789Y-89601496D01*
X151370749Y-90137347D01*
X151310529Y-90393401D01*
X151285010Y-90987828D01*
X151421554Y-91547475D01*
X151714982Y-92056838D01*
X152160115Y-92500411D01*
X152370906Y-92674996D01*
X152536041Y-92832760D01*
X152601605Y-92925000D01*
X152601628Y-92925406D01*
X152571340Y-93030336D01*
X152485659Y-93262082D01*
X152356349Y-93592354D01*
X152195169Y-93992861D01*
X152013883Y-94435311D01*
X151824251Y-94891413D01*
X151638035Y-95332875D01*
X151466996Y-95731405D01*
X151322897Y-96058713D01*
X151217498Y-96286507D01*
X151162561Y-96386496D01*
X151115433Y-96399901D01*
X150947319Y-96356853D01*
X150711346Y-96240056D01*
X150332515Y-96018786D01*
X149520731Y-96567393D01*
X149218846Y-96766378D01*
X148927369Y-96947741D01*
X148710364Y-97070717D01*
X148600228Y-97116000D01*
X148595106Y-97115413D01*
X148485918Y-97047849D01*
X148294177Y-96888533D01*
X148049815Y-96666647D01*
X147782763Y-96411373D01*
X147522953Y-96151891D01*
X147300316Y-95917382D01*
X147144784Y-95737029D01*
X147086288Y-95640012D01*
X147129365Y-95545646D01*
X147251167Y-95341284D01*
X147432682Y-95058391D01*
X147654863Y-94727535D01*
X148223438Y-93897785D01*
X147888475Y-93072726D01*
X147553513Y-92247667D01*
X146510485Y-92046620D01*
X145467458Y-91845574D01*
X145491087Y-90735621D01*
X145514717Y-89625668D01*
X146528094Y-89435601D01*
X146535193Y-89434268D01*
X146931052Y-89355657D01*
X147263915Y-89281605D01*
X147499005Y-89220385D01*
X147601548Y-89180267D01*
X147623074Y-89147006D01*
X147706837Y-88981956D01*
X147829040Y-88718490D01*
X147971434Y-88395333D01*
X148281243Y-87675667D01*
X147683766Y-86804356D01*
X147664480Y-86776199D01*
X147439230Y-86442300D01*
X147255466Y-86160945D01*
X147131662Y-85960981D01*
X147086288Y-85871257D01*
X147087106Y-85867577D01*
X147156691Y-85775559D01*
X147322152Y-85592691D01*
X147560532Y-85343609D01*
X147848871Y-85052950D01*
X148611454Y-84296430D01*
X149499309Y-84906548D01*
X149539640Y-84934210D01*
X149877078Y-85161426D01*
X150162608Y-85346511D01*
X150367193Y-85471060D01*
X150461799Y-85516667D01*
X150495215Y-85509756D01*
X150662749Y-85454443D01*
X150928825Y-85355804D01*
X151253668Y-85228320D01*
X151970904Y-84939973D01*
X152183278Y-83852486D01*
X152395653Y-82765000D01*
X153500001Y-82765000D01*
X154604349Y-82765000D01*
X154816723Y-83852486D01*
G37*
%TD*%
M02*
