%TF.GenerationSoftware,KiCad,Pcbnew,9.0.7*%
%TF.CreationDate,2026-02-22T23:04:31+08:00*%
%TF.ProjectId,Echolink,4563686f-6c69-46e6-9b2e-6b696361645f,rev?*%
%TF.SameCoordinates,Original*%
%TF.FileFunction,Soldermask,Top*%
%TF.FilePolarity,Negative*%
%FSLAX46Y46*%
G04 Gerber Fmt 4.6, Leading zero omitted, Abs format (unit mm)*
G04 Created by KiCad (PCBNEW 9.0.7) date 2026-02-22 23:04:31*
%MOMM*%
%LPD*%
G01*
G04 APERTURE LIST*
G04 Aperture macros list*
%AMRoundRect*
0 Rectangle with rounded corners*
0 $1 Rounding radius*
0 $2 $3 $4 $5 $6 $7 $8 $9 X,Y pos of 4 corners*
0 Add a 4 corners polygon primitive as box body*
4,1,4,$2,$3,$4,$5,$6,$7,$8,$9,$2,$3,0*
0 Add four circle primitives for the rounded corners*
1,1,$1+$1,$2,$3*
1,1,$1+$1,$4,$5*
1,1,$1+$1,$6,$7*
1,1,$1+$1,$8,$9*
0 Add four rect primitives between the rounded corners*
20,1,$1+$1,$2,$3,$4,$5,0*
20,1,$1+$1,$4,$5,$6,$7,0*
20,1,$1+$1,$6,$7,$8,$9,0*
20,1,$1+$1,$8,$9,$2,$3,0*%
G04 Aperture macros list end*
%ADD10RoundRect,0.250000X-0.650000X0.325000X-0.650000X-0.325000X0.650000X-0.325000X0.650000X0.325000X0*%
%ADD11RoundRect,0.250000X0.325000X0.650000X-0.325000X0.650000X-0.325000X-0.650000X0.325000X-0.650000X0*%
%ADD12RoundRect,0.250000X0.312500X0.625000X-0.312500X0.625000X-0.312500X-0.625000X0.312500X-0.625000X0*%
%ADD13RoundRect,0.250000X1.000000X1.000000X-1.000000X1.000000X-1.000000X-1.000000X1.000000X-1.000000X0*%
%ADD14C,2.500000*%
%ADD15RoundRect,0.250000X0.625000X-0.312500X0.625000X0.312500X-0.625000X0.312500X-0.625000X-0.312500X0*%
%ADD16C,1.440000*%
%ADD17RoundRect,0.250000X-0.312500X-0.625000X0.312500X-0.625000X0.312500X0.625000X-0.312500X0.625000X0*%
%ADD18RoundRect,0.150000X-0.512500X-0.150000X0.512500X-0.150000X0.512500X0.150000X-0.512500X0.150000X0*%
%ADD19RoundRect,0.250000X0.400000X0.600000X-0.400000X0.600000X-0.400000X-0.600000X0.400000X-0.600000X0*%
%ADD20C,5.600000*%
%ADD21R,1.700000X1.700000*%
%ADD22C,1.700000*%
%ADD23C,3.500000*%
%ADD24RoundRect,0.249999X-0.750001X-0.640001X0.750001X-0.640001X0.750001X0.640001X-0.750001X0.640001X0*%
%ADD25RoundRect,0.250000X-1.000000X1.000000X-1.000000X-1.000000X1.000000X-1.000000X1.000000X1.000000X0*%
%ADD26RoundRect,0.150000X-0.587500X-0.150000X0.587500X-0.150000X0.587500X0.150000X-0.587500X0.150000X0*%
%ADD27RoundRect,0.150000X-0.825000X-0.150000X0.825000X-0.150000X0.825000X0.150000X-0.825000X0.150000X0*%
%ADD28R,1.520000X1.520000*%
%ADD29C,1.520000*%
%ADD30RoundRect,0.250000X0.625000X-0.375000X0.625000X0.375000X-0.625000X0.375000X-0.625000X-0.375000X0*%
%ADD31C,1.900000*%
%ADD32RoundRect,0.250000X-0.700000X-0.700000X0.700000X-0.700000X0.700000X0.700000X-0.700000X0.700000X0*%
%ADD33RoundRect,0.250000X-1.000000X-1.000000X1.000000X-1.000000X1.000000X1.000000X-1.000000X1.000000X0*%
%ADD34RoundRect,0.250000X-0.325000X-0.650000X0.325000X-0.650000X0.325000X0.650000X-0.325000X0.650000X0*%
G04 APERTURE END LIST*
D10*
%TO.C,C8*%
X140000000Y-108025000D03*
X140000000Y-110975000D03*
%TD*%
D11*
%TO.C,C4*%
X136475000Y-81500000D03*
X133525000Y-81500000D03*
%TD*%
D12*
%TO.C,R8*%
X186962500Y-90500000D03*
X184037500Y-90500000D03*
%TD*%
D13*
%TO.C,J2*%
X154500000Y-109132500D03*
D14*
X149500000Y-109132500D03*
X144500000Y-109132500D03*
%TD*%
D15*
%TO.C,R10*%
X159000000Y-110425000D03*
X159000000Y-107500000D03*
%TD*%
D16*
%TO.C,RV2*%
X169540000Y-91500000D03*
X167000000Y-91500000D03*
X164460000Y-91500000D03*
%TD*%
D11*
%TO.C,C3*%
X136475000Y-79000000D03*
X133525000Y-79000000D03*
%TD*%
%TO.C,C1*%
X136475000Y-76500000D03*
X133525000Y-76500000D03*
%TD*%
D17*
%TO.C,R4*%
X155537500Y-99000000D03*
X158462500Y-99000000D03*
%TD*%
%TO.C,R7*%
X194075000Y-93000000D03*
X197000000Y-93000000D03*
%TD*%
D18*
%TO.C,U2*%
X144362500Y-91050000D03*
X144362500Y-92000000D03*
X144362500Y-92950000D03*
X146637500Y-92950000D03*
X146637500Y-92000000D03*
X146637500Y-91050000D03*
%TD*%
D19*
%TO.C,D3*%
X192250000Y-70500000D03*
X188750000Y-70500000D03*
%TD*%
D20*
%TO.C,J7*%
X209000000Y-72000000D03*
%TD*%
D21*
%TO.C,J1*%
X138577500Y-92750000D03*
D22*
X138577500Y-90250000D03*
X136577500Y-90250000D03*
X136577500Y-92750000D03*
D23*
X133867500Y-97520000D03*
X133867500Y-85480000D03*
%TD*%
D24*
%TO.C,U6*%
X187235000Y-98230000D03*
X187235000Y-100770000D03*
X196765000Y-100770000D03*
X196765000Y-98230000D03*
%TD*%
D25*
%TO.C,J6*%
X207500000Y-94500000D03*
D14*
X207500000Y-99500000D03*
X207500000Y-104500000D03*
%TD*%
D20*
%TO.C,J9*%
X135000000Y-72000000D03*
%TD*%
D15*
%TO.C,R5*%
X136500000Y-105962500D03*
X136500000Y-103037500D03*
%TD*%
D17*
%TO.C,F1*%
X142537500Y-96500000D03*
X145462500Y-96500000D03*
%TD*%
%TO.C,R2*%
X142537500Y-87500000D03*
X145462500Y-87500000D03*
%TD*%
D26*
%TO.C,Q1*%
X190125000Y-93000000D03*
X190125000Y-94900000D03*
X192000000Y-93950000D03*
%TD*%
D10*
%TO.C,C7*%
X183000000Y-77525000D03*
X183000000Y-80475000D03*
%TD*%
D25*
%TO.C,J5*%
X207500000Y-78500000D03*
D14*
X207500000Y-83500000D03*
X207500000Y-88500000D03*
%TD*%
D27*
%TO.C,U1*%
X154550000Y-87555000D03*
X154550000Y-88825000D03*
X154550000Y-90095000D03*
X154550000Y-91365000D03*
X154550000Y-92635000D03*
X154550000Y-93905000D03*
X154550000Y-95175000D03*
X154550000Y-96445000D03*
X159500000Y-96445000D03*
X159500000Y-95175000D03*
X159500000Y-93905000D03*
X159500000Y-92635000D03*
X159500000Y-91365000D03*
X159500000Y-90095000D03*
X159500000Y-88825000D03*
X159500000Y-87555000D03*
%TD*%
D28*
%TO.C,T1*%
X178500000Y-100880000D03*
D29*
X178500000Y-108500000D03*
X165800000Y-108500000D03*
X165800000Y-100880000D03*
%TD*%
D17*
%TO.C,R3*%
X148037500Y-96500000D03*
X150962500Y-96500000D03*
%TD*%
D30*
%TO.C,D4*%
X183500000Y-109800000D03*
X183500000Y-107000000D03*
%TD*%
D17*
%TO.C,R1*%
X148037500Y-87500000D03*
X150962500Y-87500000D03*
%TD*%
D31*
%TO.C,K11*%
X186690000Y-86660000D03*
X194310000Y-86660000D03*
X186690000Y-73960000D03*
X194310000Y-73960000D03*
D32*
X186690000Y-76500000D03*
D31*
X194310000Y-76500000D03*
%TD*%
D33*
%TO.C,J3*%
X143500000Y-73500000D03*
D14*
X148500000Y-73500000D03*
X153500000Y-73500000D03*
X158500000Y-73500000D03*
%TD*%
D28*
%TO.C,T2*%
X178350000Y-74690000D03*
D29*
X178350000Y-82310000D03*
X165650000Y-82310000D03*
X165650000Y-74690000D03*
%TD*%
D34*
%TO.C,C2*%
X155525000Y-85000000D03*
X158475000Y-85000000D03*
%TD*%
D30*
%TO.C,D2*%
X183500000Y-99900000D03*
X183500000Y-97100000D03*
%TD*%
D12*
%TO.C,R6*%
X187000000Y-93000000D03*
X184075000Y-93000000D03*
%TD*%
D17*
%TO.C,R9*%
X194075000Y-90500000D03*
X197000000Y-90500000D03*
%TD*%
D24*
%TO.C,U5*%
X187235000Y-107230000D03*
X187235000Y-109770000D03*
X196765000Y-109770000D03*
X196765000Y-107230000D03*
%TD*%
D16*
%TO.C,RV1*%
X180000000Y-91500000D03*
X177460000Y-91500000D03*
X174920000Y-91500000D03*
%TD*%
D20*
%TO.C,J8*%
X135000000Y-111000000D03*
%TD*%
%TO.C,J4*%
X209000000Y-111000000D03*
%TD*%
D30*
%TO.C,D1*%
X133500000Y-105900000D03*
X133500000Y-103100000D03*
%TD*%
D26*
%TO.C,Q2*%
X190125000Y-89550000D03*
X190125000Y-91450000D03*
X192000000Y-90500000D03*
%TD*%
D10*
%TO.C,C5*%
X199500000Y-96000000D03*
X199500000Y-98950000D03*
%TD*%
M02*
